<?xml version="1.0" encoding="UTF-8"?>
<svg version="1.1" xmlns="http://www.w3.org/2000/svg" width="960" height="960">
<path d="M0 0 C1.27417786 -0.00705963 2.54835571 -0.01411926 3.86114502 -0.02139282 C7.95170669 -0.04092196 12.04220858 -0.04608484 16.1328125 -0.046875 C17.17844486 -0.04731686 17.17844486 -0.04731686 18.24520111 -0.04776764 C38.72820107 -0.04916661 58.95780909 0.11844089 79.2578125 3.203125 C80.69446418 3.41478523 82.1311523 3.62619815 83.56787109 3.83740234 C174.68429563 17.38760931 260.56100798 54.24412046 330.2578125 115.203125 C330.98742187 115.83347656 331.71703125 116.46382813 332.46875 117.11328125 C334.40989607 118.7973981 336.33432421 120.49887791 338.2578125 122.203125 C338.95535645 122.81583252 339.65290039 123.42854004 340.37158203 124.05981445 C346.91138594 129.86346242 353.14082232 135.93170245 359.30883789 142.1237793 C360.95021046 143.77053904 362.59690069 145.41184595 364.24414062 147.05273438 C369.79199851 152.59683305 375.19301891 158.20899566 380.2578125 164.203125 C381.1034375 165.16734375 381.9490625 166.1315625 382.8203125 167.125 C391.13628655 176.77366219 398.73424841 186.92966671 406.2578125 197.203125 C406.79583496 197.9357959 407.33385742 198.6684668 407.88818359 199.42333984 C419.91793845 215.88450646 430.55631667 233.27914177 440.2578125 251.203125 C440.69915527 252.00814453 441.14049805 252.81316406 441.59521484 253.64257812 C476.0492292 316.71574805 497.19430778 390.80641491 497.4609375 462.9453125 C497.46799713 464.21949036 497.47505676 465.49366821 497.48233032 466.80645752 C497.50185946 470.89701919 497.50702234 474.98752108 497.5078125 479.078125 C497.50825436 480.12375736 497.50825436 480.12375736 497.50870514 481.19051361 C497.51010411 501.67351357 497.34249661 521.90312159 494.2578125 542.203125 C494.04615227 543.63977668 493.83473935 545.0764648 493.62353516 546.51318359 C482.4561715 621.60651982 455.95444602 694.32830771 411.2578125 756.203125 C410.72865234 756.94191895 410.19949219 757.68071289 409.65429688 758.44189453 C399.09928069 773.14526339 387.97064202 787.35265891 375.63671875 800.61328125 C373.75672794 802.65997075 371.93772438 804.73305607 370.12646484 806.83935547 C366.24903809 811.27524134 362.1510684 815.45430636 357.98046875 819.61328125 C357.21028915 820.38441757 356.44010956 821.15555389 355.64659119 821.95005798 C354.02839877 823.56892653 352.40896038 825.18655051 350.78833008 826.80297852 C348.32714018 829.25881218 345.87133441 831.71993865 343.41601562 834.18164062 C341.83365383 835.76334153 340.25098183 837.34473217 338.66796875 838.92578125 C337.94376236 839.65201187 337.21955597 840.37824249 336.47340393 841.1264801 C331.89420077 845.68499026 327.16225414 849.99810475 322.2578125 854.203125 C321.17463963 855.15234468 320.09240776 856.10264089 319.01171875 857.0546875 C310.06846746 864.8556847 300.77766415 872.12102786 291.2578125 879.203125 C290.53045898 879.74614258 289.80310547 880.28916016 289.05371094 880.84863281 C271.30373207 894.04934622 252.62153381 905.52927755 233.2578125 916.203125 C232.3611084 916.698125 231.4644043 917.193125 230.54052734 917.703125 C196.95646289 936.09026562 161.12319757 949.17571518 124.2578125 959.203125 C123.62200785 959.38117688 122.98620321 959.55922875 122.33113176 959.74267614 C120.225544 960.21029128 118.36747758 960.33725673 116.21336651 960.35131264 C115.01264996 960.36262464 115.01264996 960.36262464 113.78767651 960.37416518 C112.91388264 960.37739141 112.04008876 960.38061765 111.13981628 960.38394165 C109.740297 960.39474843 109.740297 960.39474843 108.31250459 960.40577352 C105.17734267 960.42854232 102.04218864 960.44408086 98.90698242 960.45947266 C96.66115121 960.4739228 94.41532195 960.48868048 92.16949463 960.50372314 C71.57900912 960.63449603 50.98800858 960.70024113 30.39718151 960.75156593 C27.63498592 960.75857337 24.87279067 960.76570046 22.1105957 960.77294922 C21.42417609 960.77474451 20.73775648 960.7765398 20.03053627 960.7783895 C8.97756128 960.80828289 -2.07492952 960.87289334 -13.12765292 960.95163567 C-24.51960859 961.03210945 -35.91118936 961.07664634 -47.30344695 961.09059179 C-53.68142243 961.09938024 -60.05847043 961.1229966 -66.43616676 961.18526077 C-116.51767625 961.65261423 -116.51767625 961.65261423 -140.64038658 952.37917709 C-145.0032147 950.7250048 -149.43645384 949.31441888 -153.8783083 947.88918495 C-204.19220127 931.42402766 -252.52643907 904.2993591 -293.7421875 871.203125 C-294.72574219 870.419375 -295.70929688 869.635625 -296.72265625 868.828125 C-299.42071183 866.64787806 -302.08646019 864.43470018 -304.7421875 862.203125 C-305.25249512 861.77773438 -305.76280273 861.35234375 -306.28857422 860.9140625 C-322.00110272 847.79295311 -337.6461366 833.82752055 -350.97265625 818.25390625 C-352.98004773 815.92745917 -355.04685388 813.66119814 -357.1171875 811.390625 C-361.37575284 806.65968099 -365.45970194 801.81856855 -369.42871094 796.84228516 C-370.34036306 795.70458398 -371.25813165 794.57176768 -372.18066406 793.44287109 C-407.81200856 749.7916462 -434.28529386 698.92016176 -452.1171875 645.640625 C-452.36480835 644.90138794 -452.6124292 644.16215088 -452.86755371 643.4005127 C-454.29002924 639.13070458 -455.65579546 634.84642548 -456.99753451 630.55063403 C-457.66877036 628.43457159 -458.37085983 626.33157942 -459.07834244 624.22745609 C-463.06557461 611.82945422 -463.46753998 600.10962676 -463.42089844 587.16772461 C-463.43097306 584.91008529 -463.44312899 582.65245447 -463.45718384 580.39483643 C-463.48828035 574.31372617 -463.48794961 568.23301437 -463.47967815 562.15184474 C-463.4754898 557.0484041 -463.48653321 551.94503938 -463.49732232 546.84161192 C-463.52381598 534.09741972 -463.51947916 521.35350873 -463.50090221 508.60932828 C-463.48582637 497.60497122 -463.50996121 486.6011161 -463.55293462 475.59684568 C-463.59696374 464.23381653 -463.6138252 452.87108832 -463.60415864 441.50794989 C-463.59901403 435.15408422 -463.60372454 428.80065117 -463.63512421 422.44685173 C-463.66349674 416.46192868 -463.65694367 410.47796994 -463.62540817 404.49307251 C-463.61943596 402.31854257 -463.62494086 400.14393967 -463.64391708 397.96948433 C-463.77509534 381.70401729 -460.72267302 367.65167186 -455.7421875 352.203125 C-455.31271456 350.80638301 -454.88609293 349.4087574 -454.46375656 348.00984097 C-434.59588352 282.58951671 -398.98897082 222.13119254 -353.0078125 171.71484375 C-351.75464708 170.32555864 -350.50772331 168.93025896 -349.28837585 167.51119995 C-344.81542772 162.31210167 -340.10100073 157.41598926 -335.24609375 152.57421875 C-334.45371811 151.78088638 -333.66134247 150.98755402 -332.84495544 150.17018127 C-331.17968467 148.50423419 -329.51316721 146.83953244 -327.84545898 145.17602539 C-325.31184128 142.64776366 -322.78360583 140.11420839 -320.25585938 137.58007812 C-318.62792467 135.9528043 -316.99967975 134.32584075 -315.37109375 132.69921875 C-314.62501358 131.95111435 -313.87893341 131.20300995 -313.11024475 130.43223572 C-308.48012544 125.82245573 -303.70469619 121.45168859 -298.7421875 117.203125 C-297.77796875 116.3575 -296.81375 115.511875 -295.8203125 114.640625 C-286.17165031 106.32465095 -276.01564579 98.72668909 -265.7421875 91.203125 C-264.64318115 90.39609131 -264.64318115 90.39609131 -263.52197266 89.57275391 C-188.6876705 34.8841446 -93.2364522 0.34460755 0 0 Z " fill="#6C429C" transform="translate(462.7421875,-0.203125)"/>
<path d="M0 0 C1.27417786 -0.00705963 2.54835571 -0.01411926 3.86114502 -0.02139282 C7.95170669 -0.04092196 12.04220858 -0.04608484 16.1328125 -0.046875 C17.17844486 -0.04731686 17.17844486 -0.04731686 18.24520111 -0.04776764 C38.72820107 -0.04916661 58.95780909 0.11844089 79.2578125 3.203125 C80.69446418 3.41478523 82.1311523 3.62619815 83.56787109 3.83740234 C174.68429563 17.38760931 260.56100798 54.24412046 330.2578125 115.203125 C330.98742187 115.83347656 331.71703125 116.46382813 332.46875 117.11328125 C334.40989607 118.7973981 336.33432421 120.49887791 338.2578125 122.203125 C338.95535645 122.81583252 339.65290039 123.42854004 340.37158203 124.05981445 C346.91138594 129.86346242 353.14082232 135.93170245 359.30883789 142.1237793 C360.95021046 143.77053904 362.59690069 145.41184595 364.24414062 147.05273438 C369.79199851 152.59683305 375.19301891 158.20899566 380.2578125 164.203125 C381.1034375 165.16734375 381.9490625 166.1315625 382.8203125 167.125 C391.13628655 176.77366219 398.73424841 186.92966671 406.2578125 197.203125 C406.79583496 197.9357959 407.33385742 198.6684668 407.88818359 199.42333984 C419.91793845 215.88450646 430.55631667 233.27914177 440.2578125 251.203125 C440.69915527 252.00814453 441.14049805 252.81316406 441.59521484 253.64257812 C476.0492292 316.71574805 497.19430778 390.80641491 497.4609375 462.9453125 C497.46799713 464.21949036 497.47505676 465.49366821 497.48233032 466.80645752 C497.50185946 470.89701919 497.50702234 474.98752108 497.5078125 479.078125 C497.50825436 480.12375736 497.50825436 480.12375736 497.50870514 481.19051361 C497.51010411 501.67351357 497.34249661 521.90312159 494.2578125 542.203125 C494.04615227 543.63977668 493.83473935 545.0764648 493.62353516 546.51318359 C482.4561715 621.60651982 455.95444602 694.32830771 411.2578125 756.203125 C410.72865234 756.94191895 410.19949219 757.68071289 409.65429688 758.44189453 C399.03298386 773.23761632 387.80861708 787.47760322 375.4296875 800.84765625 C373.43157433 803.01467467 371.49331406 805.21955018 369.5703125 807.453125 C366.30544196 811.21549962 362.82757333 814.7310172 359.2578125 818.203125 C359.2578125 815.203125 359.2578125 815.203125 361.2578125 812.203125 C360.44528015 811.39116223 360.44528015 811.39116223 359.61633301 810.56279618 C327.54774864 778.5165652 295.48175618 746.46774273 263.41915131 714.41552914 C259.57372403 710.57135264 255.72827499 706.72719791 251.8828125 702.88305664 C251.11721512 702.11772157 250.35161774 701.3523865 249.56282043 700.56385946 C237.1484814 688.15387777 224.73237825 675.74566251 212.31562805 663.33809335 C199.58532368 650.61712374 186.85690346 637.89427119 174.13024902 625.16965002 C166.27024134 617.31101793 158.40874842 609.45387759 150.54537964 601.59860861 C145.16133289 596.21982713 139.77910895 590.83922624 134.39834595 585.45715982 C131.28880693 582.34697708 128.1784409 579.23763277 125.06591797 576.13043594 C122.22153156 573.2908816 119.37941959 570.44907202 116.53916931 567.60538071 C115.50640557 566.57219108 114.47277963 565.53986249 113.43824768 564.50844336 C112.04183337 563.11598977 110.6487389 561.72020917 109.25585938 560.3242197 C108.47819214 559.54693219 107.7005249 558.76964467 106.89929199 557.96880299 C105.2578125 556.203125 105.2578125 556.203125 105.2578125 555.203125 C124.0678125 555.203125 142.8778125 555.203125 162.2578125 555.203125 C162.2578125 545.303125 162.2578125 535.403125 162.2578125 525.203125 C125.2978125 525.203125 88.3378125 525.203125 50.2578125 525.203125 C50.2578125 493.853125 50.2578125 462.503125 50.2578125 430.203125 C82.9278125 430.203125 115.5978125 430.203125 149.2578125 430.203125 C149.2578125 420.633125 149.2578125 411.063125 149.2578125 401.203125 C116.5878125 401.203125 83.9178125 401.203125 50.2578125 401.203125 C50.2578125 371.503125 50.2578125 341.803125 50.2578125 311.203125 C85.2378125 311.203125 120.2178125 311.203125 156.2578125 311.203125 C156.2578125 301.303125 156.2578125 291.403125 156.2578125 281.203125 C110.3878125 281.203125 64.5178125 281.203125 17.2578125 281.203125 C17.2578125 342.583125 17.2578125 403.963125 17.2578125 467.203125 C14.9478125 465.223125 12.6378125 463.243125 10.2578125 461.203125 C8.0484239 459.60211458 5.83377214 458.03476306 3.58813477 456.48779297 C-5.39132505 450.1494018 -13.8910271 443.29338732 -22.1796875 436.078125 C-23.30531097 435.09936401 -23.30531097 435.09936401 -24.45367432 434.10083008 C-44.81558825 416.09573347 -56.00820763 398.67251065 -57.77891731 371.1251564 C-58.33981531 359.12829508 -58.23680405 347.19466828 -57.7421875 335.203125 C-57.70189242 334.20405514 -57.70189242 334.20405514 -57.66078329 333.18480206 C-56.94465906 315.79536429 -55.56685248 298.50937056 -53.7421875 281.203125 C-64.3021875 281.203125 -74.8621875 281.203125 -85.7421875 281.203125 C-85.7421875 308.593125 -85.7421875 335.983125 -85.7421875 364.203125 C-93.6171875 357.453125 -93.6171875 357.453125 -97.07057858 353.99778175 C-97.85782973 353.21252164 -98.64508089 352.42726154 -99.45618814 351.61820567 C-100.29958877 350.77189219 -101.14298941 349.92557872 -102.01194763 349.05361938 C-103.38074203 347.68610663 -103.38074203 347.68610663 -104.77718884 346.29096735 C-107.29476861 343.77561187 -109.80923939 341.25716889 -112.32319057 338.73818755 C-115.04043024 336.01661377 -117.76057547 333.29794668 -120.48036194 330.57891846 C-125.18714165 325.8726621 -129.89209262 321.16458396 -134.59579277 316.45524979 C-141.39648671 309.6464154 -148.19995301 302.84035672 -155.00409067 296.03496389 C-166.04431741 284.99255064 -177.08231092 273.94790788 -188.11889648 262.90185547 C-198.83744869 252.1741188 -209.55705474 241.44743698 -220.27807617 230.72216797 C-220.93935013 230.06063129 -221.60062408 229.39909461 -222.28193664 228.71751137 C-225.59948879 225.39865414 -228.91706164 222.0798176 -232.23464477 218.76099133 C-259.7403675 191.24490845 -287.24246452 163.72520399 -314.7421875 136.203125 C-315.21269531 136.63625 -315.68320312 137.069375 -316.16796875 137.515625 C-316.79058594 138.0725 -317.41320312 138.629375 -318.0546875 139.203125 C-318.66957031 139.76 -319.28445313 140.316875 -319.91796875 140.890625 C-321.7421875 142.203125 -321.7421875 142.203125 -324.7421875 142.203125 C-321.91315874 139.34466493 -319.07817971 136.49217516 -316.2421875 133.640625 C-315.05496094 132.44083008 -315.05496094 132.44083008 -313.84375 131.21679688 C-308.97618515 126.32928298 -303.99025013 121.67778144 -298.7421875 117.203125 C-297.29585937 115.9346875 -297.29585937 115.9346875 -295.8203125 114.640625 C-286.17165031 106.32465095 -276.01564579 98.72668909 -265.7421875 91.203125 C-264.64318115 90.39609131 -264.64318115 90.39609131 -263.52197266 89.57275391 C-188.6876705 34.8841446 -93.2364522 0.34460755 0 0 Z " fill="#5C2D91" transform="translate(462.7421875,-0.203125)"/>
<path d="M0 0 C10.56 0 21.12 0 32 0 C32 90.42 32 180.84 32 274 C18.8 274 5.6 274 -8 274 C-11.3 268.72 -14.6 263.44 -18 258 C-19.80358279 255.18057919 -21.6099732 252.36601252 -23.4375 249.5625 C-24.3698021 248.12630885 -25.30209346 246.69011074 -26.234375 245.25390625 C-26.92563477 244.19067139 -26.92563477 244.19067139 -27.63085938 243.10595703 C-29.81957794 239.73935818 -32.00452934 236.37032833 -34.1875 233 C-34.629729 232.31728027 -35.07195801 231.63456055 -35.52758789 230.93115234 C-39.66695237 224.53165294 -43.77084721 218.10961768 -47.875 211.6875 C-53.23531628 203.30017419 -58.62929317 194.93641146 -64.06591797 186.59838867 C-69.10918774 178.85386496 -74.08345701 171.06574567 -79.05859375 163.27734375 C-83.17805883 156.8332669 -87.32263671 150.40667936 -91.5 144 C-97.06984496 135.45771908 -102.56888375 126.87129204 -108.05859375 118.27734375 C-112.178061 111.83326351 -116.32295371 105.40688827 -120.5 99 C-130.26562115 84.00813833 -139.99511716 68.98714798 -149.375 53.75 C-149.82117676 53.02989746 -150.26735352 52.30979492 -150.72705078 51.56787109 C-151.1342334 50.90094238 -151.54141602 50.23401367 -151.9609375 49.546875 C-152.30946777 48.97807617 -152.65799805 48.40927734 -153.01708984 47.82324219 C-154.19500892 45.6382696 -155.07811299 43.30471753 -156 41 C-156 117.89 -156 194.78 -156 274 C-166.56 274 -177.12 274 -188 274 C-188 183.91 -188 93.82 -188 1 C-174.14 1 -160.28 1 -146 1 C-133.22916667 20.73674242 -133.22916667 20.73674242 -127.1875 30.1875 C-126.51009766 31.24646484 -125.83269531 32.30542969 -125.13476562 33.39648438 C-120.17338008 41.15588755 -115.22686715 48.9246797 -110.28540039 56.69677734 C-103.21493976 67.81362799 -96.10597834 78.90583382 -89 90 C-80.74590736 102.88665276 -72.49864311 115.77738408 -64.28857422 128.69213867 C-59.8721962 135.63653392 -55.43869585 142.56985227 -51 149.5 C-45.41582623 158.21858549 -39.84746461 166.94698594 -34.29345703 175.68481445 C-29.83544424 182.6952259 -25.35700281 189.69240835 -20.875 196.6875 C-15.94482256 204.38725963 -11.02000729 212.09032091 -6.125 219.8125 C-5.63112793 220.58875732 -5.13725586 221.36501465 -4.62841797 222.16479492 C-4.17611816 222.87998291 -3.72381836 223.5951709 -3.2578125 224.33203125 C-2.8673877 224.94796143 -2.47696289 225.5638916 -2.07470703 226.19848633 C-0.9466901 228.0893625 0.02477615 230.02682037 1 232 C0.89369436 230.96787494 0.89369436 230.96787494 0.78524113 229.91489887 C-0.19730034 219.08367767 -0.13353679 208.28745697 -0.11352539 197.4206543 C-0.11324288 195.26112876 -0.1134025 193.10160312 -0.1139679 190.94207764 C-0.11425337 185.1145124 -0.10839716 179.28696799 -0.10139394 173.45940757 C-0.09511867 167.35622499 -0.09455331 161.25304187 -0.09336853 155.14985657 C-0.09026748 143.60822119 -0.08207069 132.06659534 -0.07201904 120.52496415 C-0.06081973 107.37860211 -0.05533785 94.23223959 -0.05032361 81.08587396 C-0.039887 54.05724385 -0.02210863 27.02862286 0 0 Z " fill="#FEFDFE" transform="translate(377,281)"/>
<path d="M0 0 C45.87 0 91.74 0 139 0 C139 9.9 139 19.8 139 30 C104.02 30 69.04 30 33 30 C33 59.7 33 89.4 33 120 C65.67 120 98.34 120 132 120 C132 129.57 132 139.14 132 149 C99.33 149 66.66 149 33 149 C33 180.35 33 211.7 33 244 C69.96 244 106.92 244 145 244 C145 253.9 145 263.8 145 274 C97.15 274 49.3 274 0 274 C0 183.58 0 93.16 0 0 Z " fill="#FCFCFD" transform="translate(480,281)"/>
<path d="M0 0 C62.7 0 125.4 0 190 0 C190 9.57 190 19.14 190 29 C163.93 29 137.86 29 111 29 C111 109.52 111 190.04 111 273 C100.44 273 89.88 273 79 273 C79 192.15 79 111.3 79 28 C52.93 28 26.86 28 0 28 C0 18.76 0 9.52 0 0 Z " fill="#FDFCFD" transform="translate(650,282)"/>
<path d="M0 0 C0.33 0 0.66 0 1 0 C1.05945801 0.78084961 1.11891602 1.56169922 1.18017578 2.36621094 C6.36191707 68.19245663 23.55361368 129.85321076 53 189 C53.44956055 189.9084668 53.89912109 190.81693359 54.36230469 191.75292969 C69.81745461 222.78925373 89.79522279 251.43421908 112 278 C112.42974121 278.5161084 112.85948242 279.0322168 113.30224609 279.56396484 C126.72279021 295.63311116 141.03964963 311.67016595 156.99609375 325.2734375 C159.25233386 327.21741046 161.43363893 329.23323518 163.625 331.25 C169.22743242 336.29815828 175.11534201 340.92244425 181.08740234 345.52001953 C183.01260276 347.0097521 184.9229772 348.5169948 186.83203125 350.02734375 C212.9440441 370.53340583 241.39867355 387.11751349 271 402 C271.84353027 402.42909668 272.68706055 402.85819336 273.55615234 403.30029297 C328.16978599 430.96084006 389.31420747 444.37906367 450 449 C450 449.33 450 449.66 450 450 C437.49734295 450.21104605 424.99512786 450.36969327 412.49103451 450.46630955 C406.68111503 450.51274444 400.87243736 450.57543208 395.06323242 450.67895508 C369.61051701 451.12049358 346.17011263 451.36559191 322.13270569 442.18171692 C317.75636708 440.53087771 313.31230321 439.11462354 308.85966492 437.68528748 C258.5467731 421.21044129 210.21827054 394.09825935 169 361 C168.01644531 360.21625 167.03289062 359.4325 166.01953125 358.625 C163.32147567 356.44475306 160.65572731 354.23157518 158 352 C157.48969238 351.57460938 156.97938477 351.14921875 156.45361328 350.7109375 C140.74108478 337.58982811 125.0960509 323.62439555 111.76953125 308.05078125 C109.76213977 305.72433417 107.69533362 303.45807314 105.625 301.1875 C101.36643466 296.45655599 97.28248556 291.61544355 93.31347656 286.63916016 C92.40182444 285.50145898 91.48405585 284.36864268 90.56152344 283.23974609 C54.93017894 239.5885212 28.45689364 188.71703676 10.625 135.4375 C10.37737915 134.69826294 10.1297583 133.95902588 9.87463379 133.1973877 C8.44452557 128.90466875 7.07008509 124.59773988 5.72328758 120.27820396 C5.06054505 118.19070418 4.3622302 116.1188026 3.65715027 114.04533386 C-0.43200545 101.44630707 -0.65368463 89.51979195 -0.48828125 76.3671875 C-0.47892997 74.15089729 -0.47182485 71.93459658 -0.46684265 69.71829224 C-0.44795498 63.9478387 -0.39901579 58.17803688 -0.34332275 52.40783691 C-0.29173218 46.49463715 -0.26924444 40.58132977 -0.24414062 34.66796875 C-0.19087578 23.11169632 -0.1057899 11.55590282 0 0 Z " fill="#FEFEFE" transform="translate(0,510)"/>
<path d="M0 0 C11.01117447 7.193496 16.78133326 17.76473422 19.75 30.375 C20.01979278 33.50585106 20.03010325 36.60922794 20 39.75 C20.01160156 40.94882812 20.01160156 40.94882812 20.0234375 42.171875 C19.97799505 56.21359258 15.39562953 68.1254084 5.75 78.375 C-2.72279407 86.59594881 -13.34239943 89.83877592 -24.9375 89.875 C-37.98011975 89.62956405 -47.24120757 86.05450426 -56.9375 77.1875 C-66.94718957 66.59720198 -69.76578735 53.13889736 -69.671875 39.02709961 C-69.27716733 26.75091202 -64.32641971 15.49520785 -55.875 6.5625 C-49.39868569 0.53966941 -42.77784913 -2.47853457 -34.25 -4.625 C-33.61578125 -4.810625 -32.9815625 -4.99625 -32.328125 -5.1875 C-21.45760398 -7.47603074 -9.64085696 -5.29879161 0 0 Z " fill="#EFEEF0" transform="translate(478.25,658.625)"/>
<path d="M0 0 C10.72618767 7.39575331 14.90602257 16.62409029 18 29 C18 34.94 18 40.88 18 47 C-3.12 47 -24.24 47 -46 47 C-44.51696227 55.02468629 -44.51696227 55.02468629 -42 62.375 C-41.67 63.16648437 -41.34 63.95796875 -41 64.7734375 C-40.67 65.50820313 -40.34 66.24296875 -40 67 C-39.71125 67.71414063 -39.4225 68.42828125 -39.125 69.1640625 C-37.70433711 71.48250541 -36.49227545 71.97590136 -34 73 C-33.31164062 73.35320312 -32.62328125 73.70640625 -31.9140625 74.0703125 C-21.24953918 78.98400072 -10.68861525 77.87218303 0.20703125 74.15625 C3.53434278 72.77878956 6.13881308 71.16522253 9 69 C9.66 69 10.32 69 11 69 C11 73.29 11 77.58 11 82 C0.83747219 87.19418088 -6.3889504 90.3509114 -17.8125 90.3125 C-18.75931641 90.32861328 -19.70613281 90.34472656 -20.68164062 90.36132812 C-31.77508712 90.36896298 -41.84947887 86.73254569 -50 79 C-60.95782268 65.10296967 -62.45771148 49.15589142 -61 32 C-59.14191525 21.03729997 -52.83038894 10.6534267 -44.25 3.625 C-31.26003613 -5.01822547 -14.12994162 -8.172333 0 0 Z " fill="#EFEFF0" transform="translate(638,658)"/>
<path d="M0 0 C1.20333984 -0.01611328 2.40667969 -0.03222656 3.64648438 -0.04882812 C13.1311377 -0.05395219 21.76154755 1.03702378 30.3125 5.3125 C30.3125 10.2625 30.3125 15.2125 30.3125 20.3125 C25.18554688 18.45703125 25.18554688 18.45703125 20.05859375 16.6015625 C6.32242233 11.87482989 -7.11990279 11.75309314 -20.59375 17.56640625 C-33.03258934 23.83708487 -40.98069079 34.06183401 -45.5625 47.1875 C-50.5609149 63.32162404 -48.1596023 80.55496902 -40.57666016 95.3659668 C-35.24624064 105.13110937 -27.92865882 110.23016221 -17.6875 114.3125 C-12.4081834 115.56361077 -7.27363793 115.49641763 -1.875 115.5 C-0.91529297 115.51224609 0.04441406 115.52449219 1.03320312 115.53710938 C9.56114693 115.55457274 16.35037638 113.83917393 24.3125 110.6875 C26.2925 109.90375 28.2725 109.12 30.3125 108.3125 C30.3125 112.9325 30.3125 117.5525 30.3125 122.3125 C13.17930496 130.10031593 -8.44912629 133.42452044 -26.75 127.25 C-32.58004771 124.68070307 -37.74161624 121.30985811 -42.6875 117.3125 C-43.67621094 116.549375 -44.66492188 115.78625 -45.68359375 115 C-48.82696815 112.35777214 -51.08478882 109.28043361 -53.25 105.8125 C-53.63349609 105.20591553 -54.01699219 104.59933105 -54.41210938 103.97436523 C-64.38232377 87.69685151 -66.68389791 66.88365629 -63.0390625 48.17578125 C-62.14081938 45.0549622 -61.06996299 42.24921133 -59.6875 39.3125 C-58.94113281 37.67667969 -58.94113281 37.67667969 -58.1796875 36.0078125 C-54.38751844 28.37056039 -49.73342564 22.2928279 -43.6875 16.3125 C-42.91212891 15.48685547 -42.91212891 15.48685547 -42.12109375 14.64453125 C-30.87524773 3.69231045 -15.07466538 -0.03973291 0 0 Z " fill="#EFEEF0" transform="translate(361.6875,618.6875)"/>
<path d="M0 0 C3.92742347 2.76396118 6.3024659 5.64054261 8.59765625 9.828125 C9.00757813 10.48683594 9.4175 11.14554688 9.83984375 11.82421875 C15.06677914 21.93563515 14.19101579 37.1650525 10.84765625 47.765625 C7.49541091 55.98855434 3.26589448 61.00388087 -4.64453125 64.9453125 C-12.80797537 67.55853965 -23.60627368 66.86399203 -31.29296875 63.13671875 C-39.86930474 57.81621401 -43.00123743 50.28979085 -46.01953125 40.91015625 C-48.13441508 29.40777785 -46.49652604 17.45245449 -39.91015625 7.7109375 C-29.56087625 -5.2122567 -14.6335972 -8.25188353 0 0 Z " fill="#6D439C" transform="translate(470.40234375,670.171875)"/>
<path d="M0 0 C1.87751953 0.00966797 1.87751953 0.00966797 3.79296875 0.01953125 C6.8125 0.1875 6.8125 0.1875 7.8125 1.1875 C7.88563567 3.71799402 7.90497527 6.22054837 7.875 8.75 C7.87048828 9.46091797 7.86597656 10.17183594 7.86132812 10.90429688 C7.84950864 12.66540013 7.83157263 14.42646036 7.8125 16.1875 C6.73935547 15.70603516 6.73935547 15.70603516 5.64453125 15.21484375 C0.40095049 13.31268963 -5.12288642 13.24817495 -10.46875 14.88671875 C-17.80462139 18.68162145 -20.6937266 26.7061798 -23.1875 34.1875 C-23.30376729 36.04278679 -23.36410056 37.9017936 -23.39282227 39.76049805 C-23.41276749 40.90145432 -23.43271271 42.04241058 -23.45326233 43.21794128 C-23.46997482 44.44926285 -23.48668732 45.68058441 -23.50390625 46.94921875 C-23.52468735 48.21014847 -23.54546844 49.47107819 -23.56687927 50.7702179 C-23.62122122 54.11895458 -23.67146166 57.46770205 -23.71972656 60.81652832 C-23.77000357 64.23516229 -23.82565724 67.65370826 -23.88085938 71.07226562 C-23.98803504 77.7772758 -24.08930812 84.48235248 -24.1875 91.1875 C-29.1375 91.1875 -34.0875 91.1875 -39.1875 91.1875 C-39.1875 61.4875 -39.1875 31.7875 -39.1875 1.1875 C-34.2375 1.1875 -29.2875 1.1875 -24.1875 1.1875 C-23.8575 5.8075 -23.5275 10.4275 -23.1875 15.1875 C-21.888125 13.3621875 -21.888125 13.3621875 -20.5625 11.5 C-14.88897161 3.9397558 -9.66610479 -0.11018358 0 0 Z " fill="#EFEFF0" transform="translate(560.1875,654.8125)"/>
<path d="M0 0 C0 4.04703587 -1.39199928 4.7539452 -4.1875 7.625 C-11.0821032 14.9334539 -17.02302401 22.93758856 -23 31 C-23.55123535 31.74233887 -24.1024707 32.48467773 -24.67041016 33.24951172 C-42.13683154 56.86485254 -56.74749623 81.80456657 -70 108 C-70.4316748 108.84723633 -70.86334961 109.69447266 -71.30810547 110.56738281 C-99.3491417 165.9925001 -113.30791009 227.37976226 -118 289 C-118.33 289 -118.66 289 -119 289 C-119.1644124 279.91396468 -119.28766578 270.82846462 -119.3626852 261.74125004 C-119.39874685 257.51860457 -119.44739416 253.29699849 -119.52807617 249.07495117 C-119.89093914 229.55960926 -119.51254895 212.04286583 -112.85714722 193.40744019 C-112.10360093 191.2909804 -111.41749121 189.17353913 -110.77368164 187.02172852 C-91.08538384 121.34141389 -55.04775375 60.90448656 -9.08203125 10.30078125 C-6.01008366 6.90607744 -3.00242735 3.45617039 0 0 Z " fill="#FDFDFE" transform="translate(119,161)"/>
<path d="M0 0 C0.66 0.33 1.32 0.66 2 1 C-3.07363345 6.38532424 -8.58496627 11.05018801 -14.35449219 15.67089844 C-16.12630091 17.10201516 -17.88034246 18.55308777 -19.6328125 20.0078125 C-42.42415488 38.86574064 -67.08788031 54.77058243 -93 69 C-93.89235352 69.49209961 -94.78470703 69.98419922 -95.70410156 70.49121094 C-129.29228229 88.88274417 -165.12904223 101.97107441 -202 112 C-202.57164383 112.17876678 -203.14328766 112.35753357 -203.73225403 112.54171753 C-206.89565009 113.18099943 -209.92839541 113.11908897 -213.15527344 113.11352539 C-213.86786819 113.11367142 -214.58046295 113.11381744 -215.31465149 113.1139679 C-217.66292395 113.11327291 -220.01111645 113.10549994 -222.359375 113.09765625 C-223.99033566 113.0957906 -225.62129688 113.09436739 -227.2522583 113.09336853 C-231.53974969 113.08955494 -235.82720708 113.07973454 -240.11468506 113.06866455 C-244.49181661 113.05842553 -248.86895367 113.05386557 -253.24609375 113.04882812 C-261.83074475 113.03811123 -270.41536814 113.02104872 -279 113 C-279 112.67 -279 112.34 -279 112 C-277.78944946 111.90295776 -277.78944946 111.90295776 -276.55444336 111.80395508 C-178.23373486 103.7323868 -81.17845517 69.11158969 0 0 Z " fill="#FDFDFE" transform="translate(789,847)"/>
<path d="M0 0 C6.24152883 2.80207364 11.17972555 7.96971183 13.71484375 14.34765625 C14.61984656 21.54957335 14.58354227 27.82377845 10.13671875 33.76953125 C6.15622307 38.18744404 1.40688743 41.83263167 -4.609375 42.671875 C-10.67983152 42.94146648 -15.34592975 41.96198294 -20.28515625 38.34765625 C-26.1038882 33.00735337 -28.29954178 27.84909483 -28.72265625 19.97265625 C-28.58964876 13.44642225 -26.30647778 9.37670494 -21.7578125 4.81640625 C-15.23158566 -0.89611801 -8.44590693 -2.41105377 0 0 Z " fill="#FCFCFD" transform="translate(118.28515625,516.65234375)"/>
<path d="M0 0 C5.65307265 3.42095813 8.63215542 9.23509863 10.875 15.25 C11.5 18.5625 11.5 18.5625 11.5 24.5625 C-4.67 24.5625 -20.84 24.5625 -37.5 24.5625 C-34.88615309 12.80018891 -30.90130034 5.95948095 -20.67578125 -0.609375 C-14.60361564 -2.92050446 -5.97045562 -2.53397244 0 0 Z " fill="#6D449D" transform="translate(629.5,668.4375)"/>
<path d="M0 0 C7.88862073 6.76167491 7.88862073 6.76167491 11.40234375 10.26953125 C12.51899414 11.38424805 12.51899414 11.38424805 13.65820312 12.52148438 C14.41037109 13.27751953 15.16253906 14.03355469 15.9375 14.8125 C16.71673828 15.58787109 17.49597656 16.36324219 18.29882812 17.16210938 C19.03423828 17.89880859 19.76964844 18.63550781 20.52734375 19.39453125 C21.19499756 20.06331299 21.86265137 20.73209473 22.55053711 21.42114258 C24 23 24 23 24 24 C16.08 24 8.16 24 0 24 C0 16.08 0 8.16 0 0 Z " fill="#6B419B" transform="translate(513,501)"/>
<path d="M0 0 C0 4.25128701 -1.94169362 5.44437775 -4.8125 8.5 C-6.15248047 9.93859375 -6.15248047 9.93859375 -7.51953125 11.40625 C-9.32570207 13.29490736 -11.13697327 15.16792056 -13 17 C-13 13.45042562 -12.51411281 13.11575285 -10.15625 10.64453125 C-9.56972656 10.02255859 -8.98320313 9.40058594 -8.37890625 8.75976562 C-7.75886719 8.11716797 -7.13882813 7.47457031 -6.5 6.8125 C-5.87996094 6.15830078 -5.25992188 5.50410156 -4.62109375 4.83007812 C-3.0872384 3.21363056 -1.54678589 1.60406254 0 0 Z " fill="#F2EFF6" transform="translate(119,161)"/>
</svg>
