<?xml version="1.0" encoding="UTF-8"?>
<svg version="1.1" xmlns="http://www.w3.org/2000/svg" width="1102" height="414">
<path d="M0 0 C2.99618194 1.30744655 4.68982107 2.51752714 6.59375 5.16796875 C7.29371094 6.12485596 7.29371094 6.12485596 8.0078125 7.10107422 C8.50023438 7.78959473 8.99265625 8.47811523 9.5 9.1875 C13.06859857 14.07564502 16.67459504 18.8946487 20.51806641 23.57055664 C48.85302959 58.07199204 65.13776349 96.69567853 60.71875 141.87548828 C56.54988072 172.99396566 38.11651166 198.84385534 16.5625 220.5625 C15.78169067 221.35043945 15.78169067 221.35043945 14.98510742 222.15429688 C11.24552402 225.87723799 11.24552402 225.87723799 9 227 C8.44954757 229.89556907 8.44954757 229.89556907 8.18359375 233.40625 C8.05919922 234.70691406 7.93480469 236.00757813 7.80664062 237.34765625 C7.68297613 238.73171579 7.55993698 240.11583133 7.4375 241.5 C7.19186589 244.19850667 6.93891932 246.89612175 6.68359375 249.59375 C6.57587646 250.79708984 6.46815918 252.00042969 6.35717773 253.24023438 C6 256 6 256 5 257 C3.48071962 257.07179964 1.95832518 257.08392007 0.4375 257.0625 C-0.38878906 257.05347656 -1.21507812 257.04445313 -2.06640625 257.03515625 C-2.70449219 257.02355469 -3.34257813 257.01195312 -4 257 C-4.03327393 256.13834229 -4.06654785 255.27668457 -4.10083008 254.38891602 C-4.25125544 251.14769568 -4.44891525 247.91357854 -4.67749023 244.67700195 C-4.76640006 243.2845101 -4.83718655 241.89072408 -4.88842773 240.49633789 C-5.21066326 231.70581693 -5.21066326 231.70581693 -9.41552734 224.19921875 C-12.18858542 221.95731045 -15.02666863 219.96482669 -18 218 C-41.10761367 195.83427275 -58.18278884 163.97027289 -59.34375 131.69140625 C-59.59845635 118.58099076 -59.60629579 105.69033632 -56 93 C-55.80664062 92.31147949 -55.61328125 91.62295898 -55.4140625 90.91357422 C-48.36628143 66.42579785 -35.77420498 44.66678326 -19.46484375 25.21875 C-13.41981946 17.96401651 -7.89707353 10.28568187 -2.28417969 2.69555664 C-1 1 -1 1 0 0 Z M0 103 C-0.770006 117.90628708 -1.51015099 132.8138339 -2.214818 147.72335339 C-2.54270796 154.64618773 -2.8803357 161.56828956 -3.2409668 168.48950195 C-3.58886678 175.1669072 -3.9095184 181.84510944 -4.21347618 188.524683 C-4.33400498 191.07484646 -4.4637116 193.62459298 -4.60267067 196.17381859 C-4.79552944 199.74045981 -4.95591043 203.30717951 -5.10864258 206.87573242 C-5.17337265 207.93309097 -5.23810272 208.99044952 -5.30479431 210.07984924 C-5.62354777 215.16995752 -5.62354777 215.16995752 -3.87671471 219.79528236 C-2.39836671 221.36778395 -2.39836671 221.36778395 0 223 C2.88941913 221.70474315 5.00857831 220.48507591 7 218 C7.37043093 215.81490999 7.37043093 215.81490999 7.18440247 213.36277771 C7.14934601 212.41074463 7.11428955 211.45871155 7.07817078 210.47782898 C7.02377335 209.43512344 6.96937592 208.39241791 6.91333008 207.31811523 C6.86821289 206.21873627 6.8230957 205.1193573 6.77661133 203.98666382 C6.62297169 200.34312111 6.4467112 196.70106192 6.26953125 193.05859375 C6.15684338 190.5342332 6.04525975 188.00982314 5.93473816 185.48536682 C5.69959484 180.19131752 5.45411752 174.89789512 5.19995117 169.60473633 C4.90603323 163.48132317 4.62984756 157.35731156 4.36353952 151.23263973 C4.10725425 145.34450576 3.8400116 139.45691218 3.56748009 133.56950569 C3.45217421 131.06208648 3.33939287 128.55454989 3.22913551 126.04690361 C3.07343589 122.54824137 2.90534309 119.0503988 2.73364258 115.55249023 C2.6893663 114.50776047 2.64509003 113.4630307 2.59947205 112.38664246 C2.55031647 111.4374292 2.50116089 110.48821594 2.45051575 109.51023865 C2.39212886 108.26889742 2.39212886 108.26889742 2.33256245 107.0024786 C2.16199583 104.77419165 2.16199583 104.77419165 0 103 Z " fill="#006749" transform="translate(59,0)"/>
<path d="M0 0 C11.55 0 23.1 0 35 0 C37.95609508 5.91219015 40.78609685 11.59739381 43.20703125 17.69921875 C43.48946686 18.40045868 43.77190247 19.10169861 44.06289673 19.82418823 C44.66831022 21.32845113 45.27188802 22.83345396 45.87374878 24.33914185 C47.50904936 28.42997162 49.1580262 32.51529575 50.8046875 36.6015625 C51.14638474 37.45063675 51.48808197 38.299711 51.84013367 39.17451477 C55.65921396 48.65636736 59.54837425 58.10921932 63.4375 67.5625 C68.69407622 80.34776006 73.91783983 93.14414087 79 106 C81.15209273 102.77186091 82.54512622 99.472186 83.9921875 95.8984375 C84.29026306 95.16992584 84.58833862 94.44141418 84.89544678 93.69082642 C85.89178391 91.25349188 86.88338814 88.81426039 87.875 86.375 C88.57701919 84.65482871 89.27933689 82.93477923 89.98193359 81.21484375 C91.5034284 77.48868733 93.02289688 73.76171282 94.54101562 70.03417969 C97.12110897 63.70034932 99.70876422 57.36962011 102.296875 51.0390625 C104.07317254 46.69281286 105.84917217 42.34644157 107.625 38 C108.04956482 36.96091492 108.47412964 35.92182983 108.91156006 34.85125732 C110.14217998 31.83859054 111.37199395 28.82559601 112.6015625 25.8125 C113.13520416 24.50643295 113.13520416 24.50643295 113.67962646 23.17398071 C116.82437036 15.46390238 119.90726217 7.73184459 123 0 C134.55 0 146.1 0 158 0 C158 2.64 158 5.28 158 8 C153.05 8.495 153.05 8.495 148 9 C147.1495555 12.401778 146.87846412 14.76103225 146.88916016 18.19848633 C146.89101822 19.80248543 146.89101822 19.80248543 146.89291382 21.43888855 C146.89989288 22.62050064 146.90687195 23.80211273 146.9140625 25.01953125 C146.92005966 26.91056328 146.92005966 26.91056328 146.92617798 28.83979797 C146.94186409 33.2265957 146.97071562 37.61327545 147 42 C147.01038734 43.66469313 147.02076301 45.32938632 147.03112793 46.99407959 C147.09585928 57.04027122 147.1816729 67.08612915 147.28754807 77.13197136 C147.33814449 81.9391069 147.38464502 86.74620741 147.421875 91.5534668 C147.45859531 96.28781682 147.50482483 101.02198189 147.55806351 105.75617409 C147.57656376 107.5435757 147.59168778 109.33101562 147.60334396 111.11847496 C147.62010232 113.58658738 147.64908011 116.05426275 147.68115234 118.5222168 C147.68331253 119.25492798 147.68547272 119.98763916 147.68769836 120.74255371 C147.63914167 124.82196971 147.63914167 124.82196971 150 128 C152.65537372 128.56520003 155.29144713 128.73788198 158 129 C158 131.97 158 134.94 158 138 C144.8 138 131.6 138 118 138 C118 135.03 118 132.06 118 129 C120.05078125 128.54427083 122.1015625 128.08854167 124.15234375 127.6328125 C126.20700294 127.17038477 126.20700294 127.17038477 127 125 C127.10061327 121.98957491 127.13954393 119.00291272 127.1328125 115.9921875 C127.13413177 115.05867462 127.13545105 114.12516174 127.1368103 113.1633606 C127.13874712 110.06720811 127.13233347 106.97114354 127.125 103.875 C127.12411377 102.82086914 127.12322754 101.76673828 127.12231445 100.68066406 C127.09886851 76.78022922 126.60177957 52.89192933 126 29 C123.02010479 36.14552968 120.04115036 43.29145132 117.0625 50.4375 C116.6133725 51.51488434 116.164245 52.59226868 115.70150757 53.70230103 C109.74366145 67.99548897 103.80279584 82.29554338 97.88180542 96.60403442 C88.26795594 119.83130769 88.26795594 119.83130769 83.5 131 C83.14397705 131.83684326 82.7879541 132.67368652 82.42114258 133.53588867 C80.12419577 138.87580423 80.12419577 138.87580423 79 140 C76.125 140.375 76.125 140.375 73 140 C70.15146266 136.08884214 68.42058446 131.57104535 66.55078125 127.1328125 C66.22121429 126.35818161 65.89164734 125.58355072 65.55209351 124.78544617 C64.468147 122.2336732 63.39007478 119.67946954 62.3125 117.125 C61.55253686 115.33030252 60.79252637 113.53562509 60.0324707 111.7409668 C53.60010635 96.52584885 47.31314187 81.2522926 41.07421875 65.95703125 C35.75432021 52.95566847 30.37114803 39.9802744 25 27 C25 60.33 25 93.66 25 128 C27.64 128.33 30.28 128.66 33 129 C33 131.97 33 134.94 33 138 C21.78 138 10.56 138 -1 138 C-1 135.03 -1 132.06 -1 129 C0.98567708 128.77213542 2.97135417 128.54427083 4.95703125 128.31640625 C7.19396393 128.02829265 7.19396393 128.02829265 10 127 C10 88.06 10 49.12 10 9 C6.7 8.67 3.4 8.34 0 8 C0 5.36 0 2.72 0 0 Z " fill="#006749" transform="translate(181,89)"/>
<path d="M0 0 C1.37478516 -0.00193359 1.37478516 -0.00193359 2.77734375 -0.00390625 C4.20240234 0.00189453 4.20240234 0.00189453 5.65625 0.0078125 C6.60628906 0.00394531 7.55632813 0.00007813 8.53515625 -0.00390625 C9.45167969 -0.00261719 10.36820313 -0.00132813 11.3125 0 C12.56256836 0.00169189 12.56256836 0.00169189 13.83789062 0.00341797 C16.15625 0.1328125 16.15625 0.1328125 18.06048584 0.62806702 C21.53362086 1.46453958 25.08437993 1.37386072 28.640625 1.44921875 C29.86401581 1.4803904 29.86401581 1.4803904 31.11212158 1.51219177 C33.71008105 1.57742547 36.30813913 1.63645018 38.90625 1.6953125 C40.670583 1.73852264 42.43490613 1.78213772 44.19921875 1.82617188 C48.51812884 1.93307995 52.83713784 2.03442077 57.15625 2.1328125 C57.15625 5.7628125 57.15625 9.3928125 57.15625 13.1328125 C51.21625 12.8028125 45.27625 12.4728125 39.15625 12.1328125 C40.5175 13.7725 40.5175 13.7725 41.90625 15.4453125 C48.81955351 24.81595138 50.52316068 34.62898898 49.15625 46.1328125 C46.44191909 56.72745897 40.38334618 64.72493194 31.15625 70.5078125 C20.02017483 76.67364553 7.65026027 79.1689344 -4.9765625 76.4609375 C-7.30274987 75.75844217 -9.57817544 75.0098091 -11.84375 74.1328125 C-12.10929688 74.69484375 -12.37484375 75.256875 -12.6484375 75.8359375 C-13.93706034 78.31211472 -15.40505361 80.57126132 -16.96875 82.8828125 C-17.50757813 83.68203125 -18.04640625 84.48125 -18.6015625 85.3046875 C-19.01148438 85.90796875 -19.42140625 86.51125 -19.84375 87.1328125 C-19.23955231 87.12615067 -18.63535461 87.11948883 -18.0128479 87.11262512 C-11.68554034 87.04590268 -5.35833386 87.00085965 0.96923828 86.96801758 C3.32605046 86.95299472 5.68283498 86.93257054 8.03955078 86.90649414 C11.44049942 86.86982429 14.84107621 86.85302054 18.2421875 86.83984375 C19.28426361 86.82435989 20.32633972 86.80887604 21.3999939 86.79292297 C31.82261846 86.79056195 41.22151662 89.07635113 49.15625 96.1328125 C55.97829347 104.64603481 56.91655071 111.42435173 56.15625 122.1328125 C53.99378924 131.52407064 48.77790658 137.5799431 40.90625 142.8203125 C28.94923473 150.0463678 17.64071574 152.48715871 3.78125 152.4453125 C2.72164062 152.46142578 1.66203125 152.47753906 0.5703125 152.49414062 C-11.35803672 152.50144966 -24.02385411 149.71433283 -32.84375 141.1328125 C-38.67755267 132.98532039 -39.79773176 126.16569935 -38.84375 116.1328125 C-36.89840479 109.99811391 -33.7031743 105.29803333 -28.84375 101.1328125 C-29.9575 100.6996875 -31.07125 100.2665625 -32.21875 99.8203125 C-35.84375 98.1328125 -35.84375 98.1328125 -37.84375 95.1328125 C-38.58384969 89.80259962 -36.76350455 86.8109868 -33.65625 82.6953125 C-33.24713379 82.1276416 -32.83801758 81.5599707 -32.41650391 80.97509766 C-30.67812445 78.57028204 -28.89532667 76.20054294 -27.09765625 73.83984375 C-25.95061005 72.31586452 -24.88570874 70.73048257 -23.84375 69.1328125 C-24.8883675 65.99896 -26.07022845 64.93810371 -28.375 62.70703125 C-36.0573467 54.47302667 -38.38886082 46.2754951 -38.15234375 35.21484375 C-37.17171862 25.42100547 -32.23261438 15.7138398 -24.70703125 9.31640625 C-17.33649411 4.18404269 -9.10176582 0.01231871 0 0 Z M-14.84375 21.1328125 C-19.86502461 29.05369639 -20.06051296 38.48407201 -18.40625 47.5234375 C-16.43082885 53.79539964 -12.13346616 59.19704564 -6.48046875 62.5234375 C1.04889315 65.84900325 7.49064165 66.26890959 15.28125 63.6328125 C21.43013932 60.89784773 25.44780716 56.86698042 28.25 50.7421875 C31.68802926 40.61910134 30.77459155 31.71662585 26.15625 22.1328125 C22.86551155 16.65203088 18.09505146 13.65750984 12.21875 11.3828125 C1.38974563 10.07020591 -7.66477205 12.57637829 -14.84375 21.1328125 Z M-16.4362793 105.18579102 C-20.12579261 110.2896711 -22.64474059 115.68877503 -22.2109375 122.09375 C-21.27153634 127.31042454 -19.81334247 131.44715763 -15.703125 134.96484375 C-6.1834412 141.11671488 4.17245449 142.25809466 15.15625 140.3828125 C23.21467084 138.61268319 29.59396399 135.35360543 34.34765625 128.38671875 C37.41502276 123.07493772 37.97974427 118.18193704 37.15625 112.1328125 C35.36457407 106.85732227 32.61444126 104.25354638 28.15625 101.1328125 C22.00592178 99.43691283 15.45752296 99.75784444 9.11938477 99.67285156 C7.60734373 99.64624769 6.09548413 99.60532353 4.58422852 99.54980469 C-6.99801112 99.03680567 -6.99801112 99.03680567 -16.4362793 105.18579102 Z " fill="#006849" transform="translate(636.84375,125.8671875)"/>
<path d="M0 0 C8.380755 -0.09328697 16.76128773 -0.1640589 25.14243603 -0.20724869 C29.03549418 -0.2279931 32.92819331 -0.25606489 36.82104492 -0.30175781 C40.58825953 -0.34569188 44.35513207 -0.36923552 48.12258339 -0.37950897 C49.54930305 -0.38681618 50.97600713 -0.40108138 52.40257835 -0.42292023 C66.1685161 -0.6249925 78.43500621 1.60251458 89 11 C96.86074494 19.3104062 98.56432307 27.14552683 98.2734375 38.4453125 C97.58175824 47.43714289 93.55752965 52.89035766 87 59 C85.02582617 60.37128242 83.03064868 61.71382594 81 63 C81.94101563 63.44730469 82.88203125 63.89460938 83.8515625 64.35546875 C85.10958875 64.96570537 86.36738929 65.57640747 87.625 66.1875 C88.24246094 66.47947266 88.85992188 66.77144531 89.49609375 67.07226562 C95.28164841 69.90414238 100.37160263 73.27984139 103.75 78.9375 C104.13671875 79.56527344 104.5234375 80.19304687 104.921875 80.83984375 C109.33584797 89.68378235 109.35241283 100.53757223 107.34765625 110.1171875 C104.1227365 119.00301789 97.10573803 126.28829021 89 131 C80.5668376 134.78214556 73.17330983 137.12997035 63.91479492 137.11352539 C63.22156128 137.11367142 62.52832764 137.11381744 61.81408691 137.1139679 C59.53618171 137.11327451 57.25835957 137.10550915 54.98046875 137.09765625 C53.39577784 137.09579003 51.81108635 137.09436709 50.22639465 137.09336853 C46.0655049 137.08955943 41.90465032 137.07974292 37.74377441 137.06866455 C33.49390132 137.05841582 29.24402252 137.0538635 24.99414062 137.04882812 C16.66274431 137.03811916 8.33137654 137.02106211 0 137 C0 134.36 0 131.72 0 129 C3.02734375 128.26757812 3.02734375 128.26757812 6.0546875 127.53515625 C8.0585657 127.05153008 8.0585657 127.05153008 10 126 C10.94119085 123.17642744 11.12755797 121.45095014 11.13371277 118.52809143 C11.13797775 117.61260529 11.14224274 116.69711914 11.14663696 115.75389099 C11.14618378 114.7517305 11.14573059 113.74957001 11.14526367 112.71704102 C11.14862228 111.65988892 11.1519809 110.60273682 11.15544128 109.5135498 C11.16495958 106.01032342 11.16689478 102.50714477 11.16796875 99.00390625 C11.17118051 96.57396932 11.17454451 94.14403259 11.17805481 91.71409607 C11.18404813 86.61725415 11.18589448 81.52042918 11.18530273 76.42358398 C11.18520105 69.8852095 11.19885871 63.34694347 11.21607494 56.8085947 C11.22718012 51.78923541 11.2292224 46.76990247 11.22869301 41.75053215 C11.22987515 39.3395443 11.23431 36.92855582 11.24202538 34.51758003 C11.2517961 31.14909334 11.24895877 27.78084383 11.24291992 24.41235352 C11.25134918 22.91214912 11.25134918 22.91214912 11.25994873 21.38163757 C11.25575424 20.4633316 11.25155975 19.54502563 11.24723816 18.59889221 C11.24778293 17.80267236 11.24832769 17.0064525 11.24888897 16.18610477 C10.96636842 13.70459853 10.3353293 12.10390642 9 10 C6.82791412 9.08839907 6.82791412 9.08839907 4.375 8.75 C3.55773437 8.60046875 2.74046875 8.4509375 1.8984375 8.296875 C1.27195312 8.19890625 0.64546875 8.1009375 0 8 C0 5.36 0 2.72 0 0 Z M32.68725586 12.38916016 C30.0381395 16.4883716 30.50708346 20.4596056 30.609375 25.234375 C30.61503479 26.22753723 30.62069458 27.22069946 30.62652588 28.24395752 C30.64889974 31.41313059 30.69909894 34.5811692 30.75 37.75 C30.77006365 39.89972324 30.78831466 42.04946423 30.8046875 44.19921875 C30.84876761 49.46653229 30.91568967 54.73318509 31 60 C35.14577275 60.05863894 39.29143705 60.09380984 43.4375 60.125 C44.60216797 60.14175781 45.76683594 60.15851563 46.96679688 60.17578125 C56.33662014 60.22856899 64.80576867 60.06146408 72.26953125 53.87890625 C77.89224522 47.77388273 78.67611836 40.12114772 78.375 32.11328125 C77.43051198 24.27206296 74.16675414 19.53306598 68.29296875 14.41015625 C61.62433634 10.30900412 54.41016673 10.63417039 46.8125 10.625 C45.73291016 10.60050781 44.65332031 10.57601562 43.54101562 10.55078125 C41.98350586 10.54498047 41.98350586 10.54498047 40.39453125 10.5390625 C39.45456299 10.53084473 38.51459473 10.52262695 37.54614258 10.51416016 C34.92866385 10.86183103 34.92866385 10.86183103 32.68725586 12.38916016 Z M31 71 C30.92405187 78.20818345 30.87144322 85.41626405 30.83520508 92.62475586 C30.82010119 95.07792008 30.79961679 97.53105724 30.77368164 99.98413086 C30.73736943 103.50641555 30.72028964 107.02834381 30.70703125 110.55078125 C30.69154739 111.65086014 30.67606354 112.75093903 30.66011047 113.88435364 C30.65988388 114.90518539 30.65965729 115.92601715 30.65942383 116.9777832 C30.65276199 117.87713089 30.64610016 118.77647858 30.63923645 119.70307922 C31.07663808 122.48794173 31.76805654 123.32744763 34 125 C38.59886286 126.53295429 43.182917 126.18446275 48 126.1875 C48.99128906 126.19974609 49.98257813 126.21199219 51.00390625 126.22460938 C63.04558143 126.24815894 72.51512557 124.92350884 81.5625 116.5546875 C87.31609929 110.28737399 88.60086058 103.30679769 88.33984375 95.02734375 C87.5598339 88.07898015 85.3425897 82.84722404 80.1875 78.0625 C72.35834613 71.90066594 64.36738018 70.86154614 54.53515625 70.90234375 C53.85698349 70.9037587 53.17881073 70.90517365 52.48008728 70.90663147 C50.34084422 70.91217255 48.20171075 70.92471347 46.0625 70.9375 C44.60091298 70.94252264 43.13932431 70.9470842 41.67773438 70.95117188 C38.11845474 70.96212255 34.55923809 70.97934555 31 71 Z " fill="#006849" transform="translate(954,89)"/>
<path d="M0 0 C7.69422421 -0.09350555 15.38838806 -0.16416706 23.08305454 -0.20724869 C26.65770891 -0.22794681 30.23196896 -0.25592917 33.80639648 -0.30175781 C37.26888219 -0.34586321 40.73099356 -0.3692699 44.19373894 -0.37950897 C46.12933091 -0.39027958 48.06477646 -0.4213964 50.00013733 -0.45318604 C67.84959951 -0.45760584 83.87902434 5.31557661 96.86328125 17.83984375 C97.56839844 18.55269531 98.27351562 19.26554687 99 20 C99.82564453 20.77537109 99.82564453 20.77537109 100.66796875 21.56640625 C104.3967731 25.39517854 106.75643511 29.97751924 109.1875 34.6875 C109.52088379 35.32244385 109.85426758 35.9573877 110.19775391 36.61157227 C115.22031911 46.7717136 116.53933299 57.08521235 116.4375 68.3125 C116.42920166 69.49730957 116.42090332 70.68211914 116.41235352 71.90283203 C116.04440423 91.00738726 109.69114073 106.45740691 96 120 C95.48308594 120.55042969 94.96617187 121.10085937 94.43359375 121.66796875 C90.60482146 125.3967731 86.02248076 127.75643511 81.3125 130.1875 C80.67755615 130.52088379 80.0426123 130.85426758 79.38842773 131.19775391 C68.77788058 136.44297276 58.1794503 137.43529021 46.484375 137.29296875 C45.13389564 137.28735611 43.78341008 137.28309393 42.43292236 137.28010559 C38.92134995 137.26878765 35.41016472 137.23943768 31.89874268 137.20599365 C28.29843377 137.17500676 24.69806078 137.16153987 21.09765625 137.14648438 C14.06494818 137.11455159 7.0324997 137.06351892 0 137 C0 134.69 0 132.38 0 130 C0.62648438 129.80664062 1.25296875 129.61328125 1.8984375 129.4140625 C2.71570313 129.15367187 3.53296875 128.89328125 4.375 128.625 C5.18710937 128.36976563 5.99921875 128.11453125 6.8359375 127.8515625 C9.16459185 127.10145717 9.16459185 127.10145717 11 125 C11.30066215 122.91906708 11.30066215 122.91906708 11.24723816 120.48976135 C11.25143265 119.5405481 11.25562714 118.59133484 11.25994873 117.61335754 C11.25432922 116.56862778 11.24870972 115.52389801 11.24291992 114.44750977 C11.24576744 112.80106979 11.24576744 112.80106979 11.24867249 111.12136841 C11.2523897 107.47797598 11.24166189 103.83478109 11.23046875 100.19140625 C11.22927729 97.6679639 11.22882372 95.14452111 11.2290802 92.62107849 C11.22751366 87.32572453 11.21945332 82.03043956 11.20581055 76.73510742 C11.1900926 70.61166935 11.18481215 64.48829402 11.1855461 58.36483723 C11.18615646 52.47765761 11.18094178 46.59049609 11.17275429 40.70332146 C11.1695655 38.19661521 11.16759972 35.6899071 11.16686058 33.18319893 C11.16469877 29.68272865 11.15595759 26.18233801 11.14526367 22.68188477 C11.14571686 21.63917923 11.14617004 20.59647369 11.14663696 19.52217102 C11.14237198 18.57013794 11.13810699 17.61810486 11.13371277 16.63722229 C11.13203692 15.80928445 11.13036108 14.98134661 11.12863445 14.12831974 C11.08058063 11.8110447 11.08058063 11.8110447 10 9 C9.36191406 8.93941406 8.72382812 8.87882812 8.06640625 8.81640625 C7.24011719 8.73261719 6.41382813 8.64882812 5.5625 8.5625 C4.73878906 8.48128906 3.91507813 8.40007812 3.06640625 8.31640625 C1 8 1 8 0 7 C-0.04092937 4.66702567 -0.04241723 2.33294775 0 0 Z M32 14 C31.079519 16.761443 30.8726338 18.39776125 30.86628723 21.24412537 C30.86202225 22.10912659 30.85775726 22.97412781 30.85336304 23.86534119 C30.85381622 24.81139725 30.85426941 25.75745331 30.85473633 26.73217773 C30.85137772 27.73080841 30.8480191 28.72943909 30.84455872 29.7583313 C30.83504247 33.06676469 30.83310532 36.37514752 30.83203125 39.68359375 C30.82881935 41.97900921 30.82545533 44.27442446 30.82194519 46.56983948 C30.81595238 51.38421097 30.81410547 56.1985645 30.81469727 61.01293945 C30.81479894 67.18811161 30.80114141 73.36316894 30.78392506 79.53831387 C30.77281836 84.27973461 30.77077764 89.02112747 30.77130699 93.76255989 C30.77012507 96.03957579 30.76569147 98.31659237 30.75797462 100.5935955 C30.74820083 103.77528862 30.75104243 106.95673076 30.75708008 110.13842773 C30.75146057 111.08245956 30.74584106 112.02649139 30.74005127 112.99913025 C30.74424576 113.86695129 30.74844025 114.73477234 30.75276184 115.62889099 C30.75221707 116.38086478 30.75167231 117.13283857 30.75111103 117.90759945 C31.04069369 120.34211035 31.70219368 121.92646631 33 124 C42.04413237 128.8276112 55.3601251 125.89032204 64.73046875 123.22265625 C76.16826553 119.09086299 84.51683323 110.95190542 90.1875 100.375 C97.75481283 84.18770352 99.02275582 63.01261965 94.03125 45.7734375 C88.66429297 31.33957578 80.34751675 20.76381803 66.5390625 13.75 C59.60316719 10.88819793 52.84186362 10.61883429 45.4375 10.5625 C44.46079346 10.55234863 43.48408691 10.54219727 42.4777832 10.53173828 C41.09465942 10.54889893 41.09465942 10.54889893 39.68359375 10.56640625 C38.43920532 10.58102905 38.43920532 10.58102905 37.16967773 10.59594727 C34.49805366 11.093476 33.63497121 11.86205745 32 14 Z " fill="#006849" transform="translate(825,89)"/>
<path d="M0 0 C0.82854492 0.00757324 1.65708984 0.01514648 2.51074219 0.02294922 C11.35460788 0.25986936 19.47001756 2.23335398 26.05859375 8.47265625 C34.65702368 19.25821798 34.77224756 30.32515334 34.94140625 43.46484375 C34.96200907 44.82248011 34.98300634 46.18011053 35.00437927 47.53773499 C35.05925665 51.09025226 35.10881552 54.64282408 35.15722656 58.19543457 C35.20769427 61.8289061 35.26324768 65.46229959 35.31835938 69.09570312 C35.42552017 76.20956757 35.52705639 83.32350219 35.625 90.4375 C38.265 91.0975 40.905 91.7575 43.625 92.4375 C43.625 95.0775 43.625 97.7175 43.625 100.4375 C31.415 100.4375 19.205 100.4375 6.625 100.4375 C6.625 97.7975 6.625 95.1575 6.625 92.4375 C9.595 91.4475 12.565 90.4575 15.625 89.4375 C15.69480979 81.76997896 15.74796748 74.10249128 15.78043652 66.43472385 C15.79602777 62.87344114 15.81714455 59.31237742 15.85131836 55.7512207 C15.89044385 51.64792901 15.90476317 47.54486386 15.91796875 43.44140625 C15.93345261 42.17543106 15.94893646 40.90945587 15.96488953 39.6051178 C15.9664466 31.35519692 15.08034995 24.78158069 11 17.5625 C6.71670187 13.73007536 1.74418489 12.66455552 -3.875 12.0625 C-12.69071291 13.00704067 -20.0338282 16.3972304 -25.87890625 23.18359375 C-33.86968068 34.65691465 -32.84522593 48.94023462 -32.76611328 62.25854492 C-32.74988224 65.52368969 -32.76610062 68.78762484 -32.78515625 72.05273438 C-32.78317643 74.13021106 -32.7793382 76.207687 -32.7734375 78.28515625 C-32.77951019 79.26009537 -32.78558289 80.23503448 -32.7918396 81.23951721 C-32.78238312 82.14153366 -32.77292664 83.04355011 -32.76318359 83.97290039 C-32.76079681 84.76499405 -32.75841003 85.55708771 -32.75595093 86.3731842 C-32.27430095 88.98317303 -31.47514287 89.85272151 -29.375 91.4375 C-26.26660979 92.1644226 -26.26660979 92.1644226 -23.375 92.4375 C-23.375 95.0775 -23.375 97.7175 -23.375 100.4375 C-35.585 100.4375 -47.795 100.4375 -60.375 100.4375 C-60.375 97.7975 -60.375 95.1575 -60.375 92.4375 C-59.80910156 92.30472656 -59.24320312 92.17195313 -58.66015625 92.03515625 C-57.55994141 91.77025391 -57.55994141 91.77025391 -56.4375 91.5 C-55.70660156 91.32597656 -54.97570312 91.15195313 -54.22265625 90.97265625 C-52.37530102 90.59862431 -52.37530102 90.59862431 -51.375 89.4375 C-51.26494453 87.30106794 -51.22586422 85.16095974 -51.21386719 83.02172852 C-51.20890228 82.35179871 -51.20393738 81.6818689 -51.19882202 80.99163818 C-51.18416854 78.76655058 -51.17739349 76.54153425 -51.171875 74.31640625 C-51.16612656 72.77562964 -51.1603688 71.23485307 -51.15460205 69.69407654 C-51.14408326 66.46002874 -51.13824623 63.22600587 -51.13476562 59.99194336 C-51.12927624 55.84095194 -51.10524275 51.69028779 -51.07679367 47.53939915 C-51.05820235 44.35588101 -51.0529636 41.17244229 -51.05142975 37.98887444 C-51.04839518 36.45820258 -51.04033971 34.92753238 -51.02724457 33.39691353 C-51.0102549 31.25857511 -51.01204619 29.12104388 -51.01855469 26.98266602 C-51.01308624 25.15518578 -51.01308624 25.15518578 -51.00750732 23.29078674 C-51.1894162 21.87840981 -51.1894162 21.87840981 -51.375 20.4375 C-54.56262365 18.31241756 -56.64012223 17.9354837 -60.375 17.4375 C-60.875 14.75 -60.875 14.75 -60.375 11.4375 C-57.97336378 9.29252719 -55.21066029 7.93284819 -52.375 6.4375 C-51.77816406 6.04175781 -51.18132812 5.64601562 -50.56640625 5.23828125 C-45.92941159 2.18621779 -42.72539598 2.06203362 -37.375 2.4375 C-36.055 7.0575 -34.735 11.6775 -33.375 16.4375 C-32.385 15.220625 -31.395 14.00375 -30.375 12.75 C-22.32152342 3.59685192 -12.04896026 -0.15535909 0 0 Z " fill="#006849" transform="translate(536.375,125.5625)"/>
<path d="M0 0 C9.79030992 7.72152419 16.86331231 19.08260287 19.0625 31.375 C20.08293573 42.87332341 20.28065175 54.85741688 15.0625 65.375 C14.63839844 66.23996094 14.21429687 67.10492188 13.77734375 67.99609375 C7.20372048 80.02637366 -2.71199001 87.73854686 -15.63671875 92.01171875 C-20.90744931 93.53292392 -25.84791543 93.87622398 -31.3125 93.8125 C-32.6888562 93.80114014 -32.6888562 93.80114014 -34.09301758 93.78955078 C-45.56869264 93.51165993 -54.54342396 89.8722965 -63.9375 83.375 C-64.57429687 82.93542969 -65.21109375 82.49585938 -65.8671875 82.04296875 C-75.45096118 74.65281438 -81.10099052 62.13905598 -82.9375 50.375 C-83.9073055 33.34745338 -80.98753655 19.3287076 -69.625 6.0625 C-63.07127265 -0.85349369 -56.18967452 -5.27818931 -46.9375 -7.625 C-46.22851562 -7.80675781 -45.51953125 -7.98851563 -44.7890625 -8.17578125 C-28.95907587 -10.66954627 -13.52513693 -8.9920883 0 0 Z M-55.9375 13.375 C-64.29455834 26.7388483 -65.89069244 40.76010948 -62.8125 56.1875 C-60.49818271 64.94961292 -56.64973191 72.11213815 -48.98046875 77.19140625 C-48.30628906 77.58199219 -47.63210938 77.97257812 -46.9375 78.375 C-46.06544922 78.88353516 -46.06544922 78.88353516 -45.17578125 79.40234375 C-37.24414244 83.13589174 -26.55192056 82.69101005 -18.4375 79.8125 C-10.48174063 76.03912159 -5.28636772 69.41479105 -1.9375 61.375 C0.03627735 55.00508219 0.3978532 49.14571186 0.375 42.5 C0.39111328 41.57058594 0.40722656 40.64117187 0.42382812 39.68359375 C0.43159471 28.54630866 -2.74219663 17.58337363 -10.7890625 9.51953125 C-17.73317559 3.91720894 -25.23208477 1.73340215 -34.10546875 2.03125 C-42.77229041 3.08322284 -50.36184521 6.56708889 -55.9375 13.375 Z " fill="#006749" transform="translate(790.9375,134.625)"/>
<path d="M0 0 C1.09634766 0.45052734 1.09634766 0.45052734 2.21484375 0.91015625 C13.79837463 6.04604038 20.67728051 15.9804719 25.375 27.4375 C29.91899108 39.42968515 30.14369284 55.59746025 25.25390625 67.47265625 C24.84011719 68.30667969 24.42632812 69.14070313 24 70 C23.57589844 70.86496094 23.15179688 71.72992188 22.71484375 72.62109375 C16.14122048 84.65137366 6.22550999 92.36354686 -6.69921875 96.63671875 C-11.96994931 98.15792392 -16.91041543 98.50122398 -22.375 98.4375 C-23.7513562 98.42614014 -23.7513562 98.42614014 -25.15551758 98.41455078 C-38.5984933 98.08902048 -49.81698959 93.04104507 -59.6875 83.9375 C-71.54154163 71.49495985 -73.61033732 57.74239051 -73.3125 41.375 C-72.87736229 30.90268578 -68.89570091 22.52426277 -63 14 C-62.56042969 13.36320312 -62.12085938 12.72640625 -61.66796875 12.0703125 C-47.94247412 -5.7293203 -19.54592614 -9.06705081 0 0 Z M-47 18 C-55.35705834 31.3638483 -56.95319244 45.38510948 -53.875 60.8125 C-51.56068271 69.57461292 -47.71223191 76.73713815 -40.04296875 81.81640625 C-39.36878906 82.20699219 -38.69460938 82.59757812 -38 83 C-37.12794922 83.50853516 -37.12794922 83.50853516 -36.23828125 84.02734375 C-28.98471174 87.44171378 -19.65073984 87.13373212 -12.01953125 85.2734375 C-2.66792873 81.79311342 2.77226162 75.90444013 7 67 C11.76910085 54.24667412 11.42409158 39.80658088 7 27 C2.97147475 18.18607505 -2.25262721 12.31097918 -11.25 8.625 C-24.14943008 4.43092301 -38.17345832 7.22273466 -47 18 Z " fill="#006749" transform="translate(429,130)"/>
<path d="M0 0 C2.97 0 5.94 0 9 0 C14.84297747 11.43823786 20.26623116 23.02193007 25.5 34.75 C26.28004297 36.49147695 27.06032081 38.23284871 27.84082031 39.97412109 C30.23252639 45.31371408 32.61667602 50.65666174 35 56 C35.76363457 57.71062863 36.52730585 59.42124088 37.29101562 61.13183594 C39.44674478 65.96167453 41.59927607 70.79293072 43.75 75.625 C44.07589111 76.35682495 44.40178223 77.0886499 44.73754883 77.84265137 C46.8357541 82.55707468 48.92410011 87.27571198 51 92 C51.29495361 92.67027222 51.58990723 93.34054443 51.89379883 94.03112793 C52.75133356 95.98500304 53.6032354 97.94122669 54.453125 99.8984375 C54.94458008 101.02685059 55.43603516 102.15526367 55.94238281 103.31787109 C57 106 57 106 57 108 C52.71 108 48.42 108 44 108 C42.00140851 103.62390472 40.00770928 99.24562729 38.01855469 94.86523438 C37.34086709 93.37471151 36.66183545 91.88479898 35.98144531 90.39550781 C35.0049389 88.25744274 34.03325234 86.11724508 33.0625 83.9765625 C32.75626709 83.30879791 32.45003418 82.64103333 32.13452148 81.95303345 C30 77.22774341 30 77.22774341 30 75 C4.755 75.495 4.755 75.495 -21 76 C-25.62 86.56 -30.24 97.12 -35 108 C-39.29 108 -43.58 108 -48 108 C-45.75008535 101.25025606 -45.75008535 101.25025606 -44.25439453 97.90209961 C-43.91794922 97.14521851 -43.58150391 96.3883374 -43.23486328 95.60852051 C-42.87118652 94.79798218 -42.50750977 93.98744385 -42.1328125 93.15234375 C-41.74577148 92.28355591 -41.35873047 91.41476807 -40.95996094 90.51965332 C-39.68429576 87.65774271 -38.40471104 84.79760351 -37.125 81.9375 C-36.2326477 79.93834955 -35.34056187 77.93908014 -34.44873047 75.93969727 C-33.0580396 72.82199891 -31.6671361 69.70439738 -30.275177 66.58726501 C-26.98179178 59.21024168 -23.70535184 51.82586528 -20.4375 44.4375 C-19.09809923 41.41213989 -17.75850638 38.38686489 -16.41888428 35.36160278 C-15.56500397 33.43188322 -14.71199871 31.5017762 -13.85992432 29.57125854 C-9.45648243 19.59705445 -5.03345437 9.67657439 0 0 Z M4 18 C1.28894886 24.08495406 -1.41637582 30.17242962 -4.11767578 36.26171875 C-5.03789739 38.33424895 -5.95944341 40.40619161 -6.88232422 42.47753906 C-8.20626329 45.44964719 -9.52547297 48.42381446 -10.84375 51.3984375 C-11.25935181 52.32868744 -11.67495361 53.25893738 -12.10314941 54.21737671 C-12.4835437 55.07811798 -12.86393799 55.93885925 -13.25585938 56.82568359 C-13.59339233 57.58513275 -13.93092529 58.34458191 -14.27868652 59.12704468 C-15.11979655 60.97655398 -15.11979655 60.97655398 -15 63 C-2.13 63 10.74 63 24 63 C21.95718881 56.87156642 19.84811453 51.09683927 17.20703125 45.24609375 C16.85613937 44.45977066 16.5052475 43.67344757 16.14372253 42.86329651 C15.03727198 40.38623814 13.92500203 37.91184549 12.8125 35.4375 C12.05494979 33.74431451 11.29778483 32.05095659 10.54101562 30.35742188 C8.6984522 26.23627721 6.85067 22.11751025 5 18 C4.67 18 4.34 18 4 18 Z " fill="#006749" transform="translate(226,295)"/>
<path d="M0 0 C3.2617253 2.49146364 6.06291358 5.11106254 9 8 C9.33 4.37 9.66 0.74 10 -3 C17.71484375 -3.09765625 17.71484375 -3.09765625 20 -3 C21.67335996 -1.32664004 21.11962895 0.71387909 21.12442017 2.94747925 C21.11902725 4.00807053 21.11902725 4.00807053 21.11352539 5.09008789 C21.11367142 5.83150528 21.11381744 6.57292267 21.1139679 7.33680725 C21.11326865 9.79878621 21.10547574 12.26069043 21.09765625 14.72265625 C21.09579211 16.42516539 21.09436819 18.12767507 21.09336853 19.83018494 C21.08954302 24.31993073 21.07971247 28.80964438 21.06866455 33.29937744 C21.05845113 37.87731491 21.05387106 42.45525756 21.04882812 47.03320312 C21.03809022 56.02214957 21.02101341 65.01107212 21 74 C17.37 74 13.74 74 10 74 C9.67 70.7 9.34 67.4 9 64 C8.01 64.9075 7.02 65.815 6 66.75 C-3.02649925 74.49484621 -12.39652245 75.85224501 -23.96972656 75.21337891 C-33.70767301 74.18993432 -41.7935859 68.25554104 -48 61 C-54.61620916 51.43257721 -57.09406605 39.83626916 -55.5 28.3125 C-52.98298788 17.65873172 -47.63631878 8.75705582 -39 2 C-27.05564341 -5.31394522 -12.6268998 -7.02781579 0 0 Z M-37.56640625 16 C-42.76286747 23.24955897 -44.74368608 31.19971478 -44 40 C-42.4406983 48.5497305 -38.8273795 54.96999123 -32 60.375 C-24.41129003 64.48555123 -16.69634054 65.34934592 -8.24609375 63.34765625 C-0.67374714 60.65398181 4.57644894 56.11194515 8.4375 49.0625 C11.49674878 41.34153878 11.51565583 30.63078717 8.375 22.9375 C4.42459458 15.69969427 -0.21732362 10.93031945 -8 8 C-18.62172438 4.89069365 -30.10309684 7.69550224 -37.56640625 16 Z " fill="#006749" transform="translate(433,329)"/>
<path d="M0 0 C4.36819375 3.38927507 7.38682431 7.4325268 9.03515625 12.74609375 C9.1328125 15.4921875 9.1328125 15.4921875 9.03515625 17.74609375 C5.30842063 18.09306569 1.74931381 18.27745444 -1.96484375 17.74609375 C-4.46484375 14.93359375 -4.46484375 14.93359375 -5.96484375 11.74609375 C-8.50367328 8.8010515 -10.51099068 7.88531673 -14.453125 7.5078125 C-19.05845545 7.38678722 -22.30902351 7.46341261 -26.58984375 9.30859375 C-29.66041637 12.45997091 -29.96484375 14.39084391 -29.96484375 18.74609375 C-29.0973294 21.08707469 -28.46158968 22.40047751 -26.3984375 23.8359375 C-20.43667514 26.3676448 -14.34168949 28.18356992 -8.08178711 29.82006836 C-0.18601497 31.97988216 5.33352928 36.07328777 10.03515625 42.74609375 C12.81465557 48.68411503 12.91209474 54.72469734 10.84765625 60.87109375 C8.39305107 66.61351872 5.46089194 70.36269958 -0.15234375 73.12109375 C-9.64038155 76.48232687 -21.26081124 76.23100204 -30.65234375 72.74609375 C-37.2110938 69.53494428 -41.37220139 65.13045876 -44.46484375 58.55859375 C-44.99151756 55.59605357 -44.80920778 53.61693145 -43.96484375 50.74609375 C-40.66484375 50.74609375 -37.36484375 50.74609375 -33.96484375 50.74609375 C-29.96484375 57.49609375 -29.96484375 57.49609375 -29.96484375 59.74609375 C-24.78958206 61.84417281 -20.77624137 62.92422285 -15.15234375 62.99609375 C-13.94964844 63.021875 -12.74695313 63.04765625 -11.5078125 63.07421875 C-7.639647 62.7159763 -5.25627809 61.77310563 -1.96484375 59.74609375 C-0.35350645 56.52341916 -0.52050338 53.24022484 -0.96484375 49.74609375 C-2.96801953 45.54896353 -5.59770711 44.31345749 -9.77734375 42.74609375 C-13.07926964 41.63512405 -16.39669804 40.61868332 -19.73828125 39.6328125 C-28.81051634 36.89378915 -35.18856492 33.82046842 -40.96484375 26.05859375 C-42.8269721 19.8902936 -43.41705741 12.67976291 -40.33984375 6.80859375 C-30.70334678 -5.61741551 -13.42210883 -8.56560026 0 0 Z " fill="#006749" transform="translate(516.96484375,329.25390625)"/>
<path d="M0 0 C3.63 0 7.26 0 11 0 C11 6.6 11 13.2 11 20 C13.25650391 19.98259766 13.25650391 19.98259766 15.55859375 19.96484375 C17.51822793 19.95546751 19.47786345 19.94636713 21.4375 19.9375 C22.92733398 19.92493164 22.92733398 19.92493164 24.44726562 19.91210938 C25.86362305 19.90727539 25.86362305 19.90727539 27.30859375 19.90234375 C28.62041626 19.89448853 28.62041626 19.89448853 29.95874023 19.88647461 C32 20 32 20 33 21 C33 24.63 33 28.26 33 32 C25.74 32 18.48 32 11 32 C11.07407424 38.44190447 11.15697467 44.88243972 11.26245117 51.32373047 C11.2956531 53.51376188 11.3236997 55.70387789 11.34643555 57.89404297 C11.38006809 61.0469153 11.43238948 64.19901573 11.48828125 67.3515625 C11.49467117 68.32678864 11.5010611 69.30201477 11.50764465 70.30679321 C11.62112733 75.58415637 11.98583741 79.46466693 15 84 C18.18824568 85.59412284 21.62896662 85.10174735 25.125 85.0625 C26.25615234 85.05573242 26.25615234 85.05573242 27.41015625 85.04882812 C29.27347127 85.03703499 31.13674555 85.01909942 33 85 C33 88.63 33 92.26 33 96 C24.00502531 98.46636403 16.03845007 98.84463532 7.6875 94.1640625 C3.15022775 91.03418489 1.33241336 87.20319919 0 82 C-0.2686009 78.15696297 -0.23271622 74.32732137 -0.1953125 70.4765625 C-0.1924826 69.37524994 -0.18965271 68.27393738 -0.18673706 67.13925171 C-0.17557478 63.63438892 -0.15047711 60.12978508 -0.125 56.625 C-0.11496511 54.24349328 -0.10584015 51.86198255 -0.09765625 49.48046875 C-0.07564832 43.65354661 -0.04114537 37.82681716 0 32 C-5.28 32 -10.56 32 -16 32 C-16.09765625 23.50390625 -16.09765625 23.50390625 -16 21 C-15 20 -15 20 -11.62109375 19.90234375 C-10.22652508 19.90808576 -8.83198403 19.92109772 -7.4375 19.9375 C-4.983125 19.958125 -2.52875 19.97875 0 20 C0 13.4 0 6.8 0 0 Z " fill="#006749" transform="translate(298,306)"/>
<path d="M0 0 C3.63 0 7.26 0 11 0 C11 37.62 11 75.24 11 114 C7.04 114 3.08 114 -1 114 C-1.0231198 99.2839038 -1.04097964 84.56781145 -1.05181217 69.85170078 C-1.05697493 63.01921026 -1.06401723 56.18673121 -1.07543945 49.35424805 C-1.08644707 42.76664695 -1.09227623 36.17905469 -1.09487724 29.59144402 C-1.096732 27.07191721 -1.10035357 24.55239109 -1.10573006 22.03286934 C-1.11293676 18.51742235 -1.1139911 15.00202539 -1.11352539 11.48657227 C-1.11712067 10.43353409 -1.12071594 9.38049591 -1.12442017 8.29554749 C-1.12235817 6.86728638 -1.12235817 6.86728638 -1.12025452 5.41017151 C-1.12117631 4.57779244 -1.1220981 3.74541338 -1.12304783 2.88781071 C-1 1 -1 1 0 0 Z " fill="#006749" transform="translate(348,289)"/>
<path d="M0 0 C3.85544798 1.99657127 5.59805092 3.39707638 8 7 C8.73981114 11.99802641 8.51803233 15.96393533 6.25 20.5 C3.55891188 23.49009791 1.62679122 24.76913524 -2.3671875 25.3359375 C-8.09465733 25.42515043 -11.56447399 25.00279176 -16 21 C-18.37302167 18.07327328 -18.95966626 16.31690796 -19.4375 12.5625 C-18.80317988 7.39732186 -16.73202252 4.52825517 -12.875 1.125 C-8.56237429 -0.56254919 -4.56720274 -0.67229224 0 0 Z M-14 6 C-15.72370774 9.44741547 -15.50306672 13.23035339 -15 17 C-13.12379387 19.50160818 -11.76108697 20.61945652 -9 22 C-4.54395339 22.36524972 -2.05544326 22.53894975 1.9375 20.5 C4.728028 17.11754182 5.29227592 14.34238503 5 10 C3.84279602 6.71110448 2.97402535 4.73891579 0.1875 2.625 C-5.81883855 0.90890327 -9.15774221 2.17123803 -14 6 Z " fill="#006749" transform="translate(1094,201)"/>
<path d="M0 0 C7.875 0 7.875 0 11 2 C11.125 6.75 11.125 6.75 10 9 C10.7425 9.680625 10.7425 9.680625 11.5 10.375 C13 12 13 12 13 14 C8.71 14 4.42 14 0 14 C0 9.38 0 4.76 0 0 Z M5 2 C5 3.65 5 5.3 5 7 C5.66 6.67 6.32 6.34 7 6 C7 4.68 7 3.36 7 2 C6.34 2 5.68 2 5 2 Z M5 10 C6 12 6 12 6 12 Z " fill="#006849" transform="translate(1083,206)"/>
</svg>
