<?xml version="1.0" encoding="UTF-8"?>
<svg version="1.1" xmlns="http://www.w3.org/2000/svg" width="960" height="1062">
<path d="M0 0 C0.96550781 -0.02900391 1.93101562 -0.05800781 2.92578125 -0.08789062 C15.80084934 -0.19873558 26.32404482 4.55780907 37.375 10.75 C39.05928101 11.67534546 39.05928101 11.67534546 40.77758789 12.61938477 C44.19354975 14.50228737 47.59857039 16.40348836 51 18.3125 C52.48330811 19.14394531 52.48330811 19.14394531 53.99658203 19.9921875 C58.7024108 22.63563987 63.39856574 25.29566833 68.08984375 27.96484375 C74.53480745 31.62608768 81.01629864 35.22043312 87.5 38.8125 C95.85419801 43.44295735 104.19110558 48.10122636 112.5 52.8125 C124.14461385 59.41300597 135.84503817 65.91132034 147.55175781 72.40087891 C162.91261981 80.91656493 178.26331509 89.44972044 193.58203125 98.04101562 C201.25146244 102.33995908 208.93603144 106.61111743 216.625 110.875 C224.93702349 115.48542761 233.231271 120.12486978 241.5 124.8125 C254.28797586 132.06094812 267.14331564 139.18684613 280 146.3125 C293.79752668 153.95960377 307.58282675 161.62458239 321.30664062 169.40332031 C332.01858736 175.46800966 342.78577596 181.43281339 353.55175781 187.40087891 C371.02261424 197.08629421 388.47495508 206.80383557 405.8984375 216.57421875 C410.08954058 218.92313672 414.28288311 221.26804169 418.47631836 223.61279297 C421.59131692 225.35614876 424.70391976 227.10372672 427.81640625 228.8515625 C432.0009508 231.19968599 436.19738392 233.52458922 440.40234375 235.8359375 C442.45576101 236.97390087 444.50914761 238.11191957 446.5625 239.25 C447.96266357 240.01098999 447.96266357 240.01098999 449.39111328 240.78735352 C463.95333979 248.89770836 474.93317633 261.28719723 480 277.3125 C481.12562162 281.74943229 481.14286582 286.10541256 481.13422108 290.65325928 C481.13657331 291.49425547 481.13892554 292.33525165 481.14134905 293.20173258 C481.14803007 296.03261329 481.14758109 298.86344801 481.14717102 301.69433594 C481.1504702 303.7394127 481.15419589 305.78448881 481.1583125 307.82956409 C481.16833444 313.45975253 481.17204961 319.0899303 481.17470181 324.72012639 C481.17860428 330.78851478 481.18818266 336.85689471 481.19691467 342.92527771 C481.21574634 356.89260915 481.22593542 370.85993977 481.23437535 384.82728023 C481.23858316 391.73112974 481.24380499 398.63497838 481.24905988 405.53882716 C481.26694995 429.17650228 481.28194524 452.81417765 481.28938007 476.45185852 C481.28985483 477.93565335 481.29033072 479.41944818 481.29080774 480.90324301 C481.2911623 482.00697445 481.2911623 482.00697445 481.29152403 483.13300349 C481.29272521 486.86096718 481.29394067 490.58893086 481.29516602 494.31689453 C481.29540617 495.05671705 481.29564632 495.79653957 481.29589374 496.55878095 C481.30378482 520.53992156 481.32721277 544.52101267 481.35972196 568.50213167 C481.39403808 593.86253041 481.41373289 619.22290019 481.41702431 644.58332253 C481.41744184 647.36865871 481.41792141 650.15399488 481.41844749 652.93933105 C481.41857069 653.62514784 481.41869388 654.31096463 481.4188208 655.01756375 C481.42115065 666.04349832 481.43679863 677.06937533 481.45728934 688.0952894 C481.4775691 699.18384941 481.48268167 710.27235532 481.47351871 721.36093432 C481.46897253 727.36554036 481.47087909 733.36995985 481.49028015 739.37454033 C481.50790134 744.87581807 481.50692225 750.37677302 481.49138286 755.87805414 C481.48900524 757.86399487 481.49333829 759.84995789 481.50521151 761.83586454 C481.60532506 779.69259458 478.9657788 793.98684271 466.25 807.5625 C458.13077507 815.10661316 447.90479786 820.14613088 438.25 825.4375 C435.85062752 826.76002695 433.45270196 828.08516893 431.0546875 829.41015625 C430.45665314 829.74017136 429.85861877 830.07018646 429.24246216 830.41020203 C423.59837154 833.52722359 417.98346458 836.69445277 412.375 839.875 C399.22256272 847.32759135 386.02811054 854.70455293 372.83398438 862.08300781 C361.71029032 868.30444386 350.59187595 874.53447534 339.5 880.8125 C328.40527296 887.09213839 317.28386607 893.32350698 306.15722656 899.54638672 C300.93706291 902.46648136 295.71859227 905.38959832 290.5 908.3125 C284.22741152 911.82573852 277.95445881 915.33831749 271.6796875 918.84765625 C261.60795878 924.48184113 251.54338657 930.12792249 241.5 935.8125 C230.40527296 942.09213839 219.28386607 948.32350698 208.15722656 954.54638672 C202.93706291 957.46648136 197.71859227 960.38959832 192.5 963.3125 C186.22741152 966.82573852 179.95445881 970.33831749 173.6796875 973.84765625 C163.60795878 979.48184113 153.54338657 985.12792249 143.5 990.8125 C132.40527296 997.09213839 121.28386607 1003.32350698 110.15722656 1009.54638672 C104.93706291 1012.46648136 99.71859227 1015.38959832 94.5 1018.3125 C88.22741152 1021.82573852 81.95445881 1025.33831749 75.6796875 1028.84765625 C73.57811767 1030.02342439 71.47655514 1031.19920559 69.375 1032.375 C68.34656982 1032.95000244 67.31813965 1033.52500488 66.25854492 1034.11743164 C61.09817094 1037.00563087 55.94618169 1039.90737416 50.80859375 1042.8359375 C10.77831857 1065.64864729 10.77831857 1065.64864729 -11.85400391 1060.90356445 C-21.47332828 1058.25414644 -30.16019583 1053.85169938 -38.75 1048.875 C-40.9399584 1047.62734828 -43.13006689 1046.37995997 -45.3203125 1045.1328125 C-46.42665039 1044.49891602 -47.53298828 1043.86501953 -48.67285156 1043.21191406 C-53.96978128 1040.18798441 -59.29870105 1037.22178159 -64.625 1034.25 C-73.54426638 1029.2594581 -82.44622968 1024.23894649 -91.34082031 1019.20458984 C-101.48992675 1013.46338304 -111.66585758 1007.7703339 -121.84277344 1002.07861328 C-128.10328908 998.57655868 -134.36148612 995.07036247 -140.62011719 991.56494141 C-145.85275048 988.63437215 -151.08594222 985.70480956 -156.3203125 982.77734375 C-167.34170521 976.6119112 -178.35045319 970.4251603 -189.34082031 964.20458984 C-200.53949514 957.86965696 -211.77038025 951.5923583 -223 945.3125 C-236.1291297 937.97039261 -249.24965906 930.61421411 -262.34082031 923.20458984 C-272.48992675 917.46338304 -282.66585758 911.7703339 -292.84277344 906.07861328 C-299.10328908 902.57655868 -305.36148612 899.07036247 -311.62011719 895.56494141 C-316.85275048 892.63437215 -322.08594222 889.70480956 -327.3203125 886.77734375 C-338.34170521 880.6119112 -349.35045319 874.4251603 -360.34082031 868.20458984 C-370.48992675 862.46338304 -380.66585758 856.7703339 -390.84277344 851.07861328 C-397.09757763 847.57975359 -403.35052537 844.07757384 -409.60253906 840.57373047 C-414.93166796 837.58771055 -420.26388032 834.60742581 -425.6015625 831.63671875 C-430.83569524 828.72208167 -436.06137953 825.79295615 -441.27832031 822.84765625 C-442.98391828 821.88561822 -444.69132616 820.9267743 -446.40136719 819.97265625 C-461.82409173 811.34089446 -473.06936365 800.6781921 -478.18774319 783.25716984 C-480.04466144 775.31831806 -479.54755278 766.98421228 -479.50793457 758.88597107 C-479.51254911 756.82502381 -479.51890573 754.76407984 -479.52684355 752.7031427 C-479.54348371 747.06620586 -479.53531461 741.42954121 -479.52289867 735.79260361 C-479.51382882 729.70322938 -479.52782748 723.61390115 -479.53881836 717.52453613 C-479.55556129 706.29425452 -479.55413291 695.06405966 -479.54317249 683.83377989 C-479.5330965 673.45835625 -479.53048987 663.08296423 -479.53526306 652.7075367 C-479.5355686 652.01838477 -479.53587414 651.32923284 -479.53618894 650.61919751 C-479.53743436 647.82147277 -479.53870797 645.02374804 -479.540028 642.22602333 C-479.552254 616.00088826 -479.54118578 589.77580814 -479.51964041 563.55068155 C-479.50065697 540.26691257 -479.50235942 516.98323111 -479.52148438 493.69946289 C-479.54291634 467.51972568 -479.55138893 441.34003697 -479.53903532 415.16029221 C-479.53775251 412.36807733 -479.53650115 409.57586244 -479.53526306 406.78364754 C-479.53494675 406.09616903 -479.53463044 405.40869052 -479.53430455 404.70037933 C-479.52976041 394.33246548 -479.53506497 383.96458676 -479.54518127 373.59667778 C-479.55662954 361.80512826 -479.55335082 350.01366226 -479.5320583 338.22211915 C-479.52155485 332.20746615 -479.51741431 326.19299064 -479.53065491 320.178339 C-479.54259874 314.66939664 -479.53598304 309.16079583 -479.5147447 303.65188432 C-479.51028716 301.6621702 -479.51252575 299.67242705 -479.52224785 297.68273168 C-479.58983646 282.6974036 -477.79148668 270.91149186 -469 258.3125 C-468.28263672 257.28189453 -468.28263672 257.28189453 -467.55078125 256.23046875 C-457.65461512 243.59229186 -439.92812305 236.73170958 -426.15744019 229.15968323 C-420.57929199 226.08885716 -415.03686751 222.95695399 -409.5 219.8125 C-400.04672581 214.45121267 -390.55201398 209.16712313 -381.046875 203.8984375 C-373.84541613 199.90310758 -366.66391868 195.87472204 -359.5 191.8125 C-350.04633122 186.45190011 -340.55202183 181.16712749 -331.046875 175.8984375 C-323.84541613 171.90310758 -316.66391868 167.87472204 -309.5 163.8125 C-300.04633122 158.45190011 -290.55202183 153.16712749 -281.046875 147.8984375 C-273.84541613 143.90310758 -266.66391868 139.87472204 -259.5 135.8125 C-250.04633122 130.45190011 -240.55202183 125.16712749 -231.046875 119.8984375 C-223.84541613 115.90310758 -216.66391868 111.87472204 -209.5 107.8125 C-200.04633122 102.45190011 -190.55202183 97.16712749 -181.046875 91.8984375 C-173.84541613 87.90310758 -166.66391868 83.87472204 -159.5 79.8125 C-150.04633122 74.45190011 -140.55202183 69.16712749 -131.046875 63.8984375 C-123.84541613 59.90310758 -116.66391868 55.87472204 -109.5 51.8125 C-101.19118618 47.10107764 -92.85400493 42.4433061 -84.5 37.8125 C-76.02477512 33.11293066 -67.56167687 28.39346269 -59.125 23.625 C-58.19526367 23.10043213 -57.26552734 22.57586426 -56.30761719 22.03540039 C-51.6151043 19.38176871 -46.9409254 16.70088426 -42.2890625 13.9765625 C-41.35819824 13.43475342 -40.42733398 12.89294434 -39.46826172 12.3347168 C-37.72841959 11.3204079 -35.99264028 10.29907739 -34.26220703 9.26879883 C-23.11769189 2.78613787 -12.78813655 0.12407636 0 0 Z " fill="#00599B" transform="translate(479,-0.3125)"/>
<path d="M0 0 C1.30742661 -0.00101212 1.30742661 -0.00101212 2.64126587 -0.00204468 C18.18710449 0.01690869 33.35518609 0.94768042 48.75 3.25 C49.94657227 3.42692383 51.14314453 3.60384766 52.37597656 3.78613281 C110.68685865 12.63593641 167.85074083 35.78273501 214.03857422 72.87646484 C215.5684102 74.10426188 217.1133276 75.31321253 218.66015625 76.51953125 C223.66904731 80.4445819 228.43883464 84.58286077 233.1328125 88.87890625 C235.24091181 90.78878129 237.37410591 92.65370206 239.52734375 94.51171875 C243.91485753 98.34411755 248.07142144 102.37924036 252.1875 106.5 C252.93394775 107.24725342 253.68039551 107.99450684 254.44946289 108.7644043 C259.17245761 113.53995116 263.58831419 118.38132195 267.73046875 123.671875 C269.91118228 126.45576461 272.19959825 129.12686351 274.5 131.8125 C283.29234873 142.36604902 291.22567946 153.620073 298.625 165.1875 C299.06005859 165.85555664 299.49511719 166.52361328 299.94335938 167.21191406 C300.96228938 168.84203254 301.86756607 170.54213146 302.75 172.25 C301.44813222 176.15560333 300.06354055 176.49650315 296.51171875 178.48046875 C295.39603516 179.11017578 294.28035156 179.73988281 293.13085938 180.38867188 C291.8997799 181.07168726 290.66865894 181.75462787 289.4375 182.4375 C288.1654691 183.15202271 286.89399265 183.8675333 285.62304688 184.58398438 C282.97919046 186.07334979 280.33298523 187.55841127 277.68505859 189.04052734 C271.68404622 192.40404321 265.71891428 195.82993452 259.75 199.25 C257.4170512 200.5840066 255.08352469 201.9170011 252.75 203.25 C251.58332269 203.91664805 250.41665602 204.58331471 249.25 205.25 C237.58333333 211.91666667 225.91666667 218.58333333 214.25 225.25 C213.38388596 225.74492447 213.38388596 225.74492447 212.50027466 226.24984741 C211.33269747 226.91703147 210.16511527 227.58420675 208.99752808 228.25137329 C206.09475132 229.9100523 203.19207892 231.56891327 200.28955078 233.22802734 C194.87425318 236.32324529 189.45822797 239.41715729 184.03924561 242.50592041 C181.50907752 243.94820701 178.97937595 245.39131077 176.44970703 246.83447266 C174.68697486 247.83965924 172.92357753 248.84367908 171.16015625 249.84765625 C165.29579379 253.19375155 159.48869271 256.59359488 153.77783203 260.19677734 C151.75 261.25 151.75 261.25 148.75 261.25 C146.98828125 258.9765625 146.98828125 258.9765625 145.0625 255.875 C121.68502284 219.57615365 82.64884612 191.66248345 40.3203125 182.1640625 C-6.87880476 172.37507781 -55.99139005 178.66803653 -96.875 205.3125 C-98.6829878 206.60242473 -100.47477692 207.91534323 -102.25 209.25 C-103.80654297 210.38501953 -103.80654297 210.38501953 -105.39453125 211.54296875 C-143.48779263 239.72278939 -168.76770271 281.32135796 -176.0625 328.1875 C-182.48778726 374.65095786 -170.30508808 421.85924649 -142.47875977 459.51245117 C-113.5728935 497.44673424 -71.55995497 522.37340659 -24.20581055 528.84423828 C-16.64816271 529.61945341 -9.09215754 529.6911891 -1.5 529.6875 C-0.21875244 529.68810425 -0.21875244 529.68810425 1.08837891 529.6887207 C48.62315704 529.56020042 89.34092335 510.16308145 123.75 478.25 C124.63751953 477.44369141 124.63751953 477.44369141 125.54296875 476.62109375 C135.68675329 467.00738821 143.46655104 455.08335659 150.75 443.25 C154.26810193 444.59217971 157.5489345 446.1383609 160.85546875 447.9375 C161.82895264 448.46577393 162.80243652 448.99404785 163.80541992 449.53833008 C165.35579956 450.38560669 165.35579956 450.38560669 166.9375 451.25 C168.01684814 451.83740967 169.09619629 452.42481934 170.20825195 453.0300293 C177.75162865 457.14159759 185.27035096 461.29595994 192.7734375 465.48046875 C200.26963257 469.65834398 207.78895297 473.79451978 215.30419922 477.93798828 C216.56738282 478.63444009 217.83056641 479.33089191 219.09375 480.02734375 C220.04110519 480.54962555 220.04110519 480.54962555 221.00759888 481.0824585 C225.41299483 483.51157651 229.81631178 485.94443266 234.21875 488.37890625 C245.60146849 494.67158792 256.99406248 500.94306103 268.4375 507.125 C275.55714296 510.97223125 282.66898784 514.83202304 289.75 518.75 C290.44955811 519.13526855 291.14911621 519.52053711 291.86987305 519.91748047 C296.5961358 522.54273442 301.19031233 525.34562448 305.75 528.25 C298.88927717 547.06394096 284.00453788 564.22074973 271.30859375 579.3828125 C269.85883532 581.11961584 268.42785436 582.87018769 267 584.625 C260.79206568 592.158998 254.06588522 599.1387029 247.1875 606.0625 C246.32511719 606.93414795 245.46273437 607.8057959 244.57421875 608.70385742 C238.60722965 614.64202867 232.32045024 619.99509418 225.75 625.25 C224.7227178 626.11370692 223.69933224 626.98212152 222.68359375 627.859375 C175.97616801 667.91519551 116.29990769 692.96930645 56 703.375 C55.09701172 703.53379639 54.19402344 703.69259277 53.26367188 703.85620117 C36.17747836 706.6776791 19.10759841 707.58260188 1.81152344 707.51074219 C-1.24824826 707.50000615 -4.30743316 707.51072519 -7.3671875 707.5234375 C-80.8947819 707.57464749 -154.95425473 682.06257415 -213.25 637.25 C-213.89243652 636.76160645 -214.53487305 636.27321289 -215.19677734 635.77001953 C-221.96848309 630.61285197 -228.51638708 625.2948643 -234.7734375 619.515625 C-236.81465797 617.64826242 -238.88532478 615.83691797 -240.98046875 614.03125 C-245.56221696 610.03103959 -249.89002146 605.80205763 -254.1875 601.5 C-254.98164307 600.70505127 -255.77578613 599.91010254 -256.59399414 599.09106445 C-261.43006961 594.20427656 -265.9750183 589.27599396 -270.203125 583.8515625 C-272.08588798 581.45858512 -274.05611597 579.16968366 -276.06640625 576.88378906 C-311.64551306 536.1097272 -335.20447399 482.69772291 -347.25 430.25 C-347.42047852 429.55519531 -347.59095703 428.86039063 -347.76660156 428.14453125 C-356.70309572 391.46314589 -357.04439068 352.58822942 -353.25 315.25 C-353.15348145 314.25484375 -353.05696289 313.2596875 -352.95751953 312.234375 C-346.25329913 244.94998236 -317.23644658 179.65435293 -273.78076172 128.07324219 C-272.32944508 126.34462454 -270.89927021 124.60057797 -269.47265625 122.8515625 C-258.26260741 109.26608392 -245.73079758 96.03889347 -231.79296875 85.234375 C-229.36920437 83.34301969 -227.05091332 81.35813035 -224.7355957 79.33642578 C-163.29014127 25.9663403 -80.4120634 0.05678478 0 0 Z " fill="#FEFEFE" transform="translate(481.25,176.75)"/>
<path d="M0 0 C0.96550781 -0.02900391 1.93101562 -0.05800781 2.92578125 -0.08789062 C15.80084934 -0.19873558 26.32404482 4.55780907 37.375 10.75 C39.05928101 11.67534546 39.05928101 11.67534546 40.77758789 12.61938477 C44.19354975 14.50228737 47.59857039 16.40348836 51 18.3125 C52.48330811 19.14394531 52.48330811 19.14394531 53.99658203 19.9921875 C58.7024108 22.63563987 63.39856574 25.29566833 68.08984375 27.96484375 C74.53480745 31.62608768 81.01629864 35.22043312 87.5 38.8125 C95.85419801 43.44295735 104.19110558 48.10122636 112.5 52.8125 C124.14461385 59.41300597 135.84503817 65.91132034 147.55175781 72.40087891 C162.91261981 80.91656493 178.26331509 89.44972044 193.58203125 98.04101562 C201.25146244 102.33995908 208.93603144 106.61111743 216.625 110.875 C224.93702349 115.48542761 233.231271 120.12486978 241.5 124.8125 C254.28797586 132.06094812 267.14331564 139.18684613 280 146.3125 C293.79752668 153.95960377 307.58282675 161.62458239 321.30664062 169.40332031 C332.01858736 175.46800966 342.78577596 181.43281339 353.55175781 187.40087891 C371.02261424 197.08629421 388.47495508 206.80383557 405.8984375 216.57421875 C410.08954058 218.92313672 414.28288311 221.26804169 418.47631836 223.61279297 C421.59131692 225.35614876 424.70391976 227.10372672 427.81640625 228.8515625 C432.0009508 231.19968599 436.19738392 233.52458922 440.40234375 235.8359375 C442.45576101 236.97390087 444.50914761 238.11191957 446.5625 239.25 C447.96266357 240.01098999 447.96266357 240.01098999 449.39111328 240.78735352 C456.59314928 244.79848928 463.35141223 249.35514618 468 256.3125 C468 256.9725 468 257.6325 468 258.3125 C467.36835937 258.66328613 466.73671875 259.01407227 466.0859375 259.37548828 C454.32571989 265.91435567 442.6034648 272.49865751 431 279.3125 C421.85089669 284.68451946 412.62596802 289.90326562 403.35546875 295.0625 C396.18646043 299.06214599 389.07913415 303.15608252 382 307.3125 C372.78356239 312.72236199 363.49563747 317.98943295 354.16210938 323.19433594 C340.06269857 331.05831993 326.04209538 339.05442659 312.15039062 347.28027344 C307.18201865 350.22149068 307.18201865 350.22149068 305 351.3125 C304.19949219 349.93191406 304.19949219 349.93191406 303.3828125 348.5234375 C298.04778281 339.42029295 292.30885481 330.76743971 286 322.3125 C285.59136719 321.76352051 285.18273437 321.21454102 284.76171875 320.64892578 C269.32951214 300.01753527 251.93253375 279.7295355 232 263.3125 C231.47277344 262.87147949 230.94554687 262.43045898 230.40234375 261.97607422 C176.17967647 216.66852691 112.7664811 189.84042801 43 180.3125 C42.10539063 180.17972656 41.21078125 180.04695312 40.2890625 179.91015625 C13.95102738 176.01632714 -14.65779724 177.10691364 -41 180.3125 C-42.30445068 180.46525391 -42.30445068 180.46525391 -43.63525391 180.62109375 C-127.03010159 190.63775015 -214.06311285 233.66392071 -266.8125 300.5703125 C-268.75420858 303.0043829 -270.77013643 305.34924583 -272.82519531 307.6875 C-305.1983514 344.8180016 -328.86214008 393.74835037 -341 441.3125 C-341.35723145 442.7051709 -341.35723145 442.7051709 -341.72167969 444.12597656 C-346.46579559 463.02427351 -349.0869846 481.95920625 -351 501.3125 C-351.08620605 502.17488281 -351.17241211 503.03726562 -351.26123047 503.92578125 C-351.71144661 508.71944952 -351.89882948 513.50160103 -352 518.3125 C-352.04664795 519.84221436 -352.04664795 519.84221436 -352.09423828 521.40283203 C-352.89915617 550.19785959 -350.8850585 579.53725812 -343.71264648 607.51660156 C-343.17300383 609.63376074 -342.65557007 611.75659682 -342.14868164 613.88183594 C-339.71902606 624.02429916 -336.74152014 633.92243899 -333.4375 643.8125 C-333.17877106 644.59120453 -332.92004211 645.36990906 -332.6534729 646.17221069 C-328.31786035 659.15088748 -323.26780474 671.53883796 -317.21777344 683.82666016 C-315.35582655 687.6274507 -313.58821486 691.47090263 -311.8125 695.3125 C-310.87589925 697.31292128 -309.93881326 699.31311612 -309 701.3125 C-329.09522607 713.25480578 -349.42847903 724.78225471 -369.84570312 736.16308594 C-377.95170801 740.69472867 -385.97326996 745.36116898 -393.98144531 750.06298828 C-402.13608547 754.83874436 -410.37160306 759.45881139 -418.62915039 764.05371094 C-425.95007121 768.13773115 -433.20657555 772.32141239 -440.4375 776.5625 C-455.67357714 785.47416776 -455.67357714 785.47416776 -462.3125 789.25 C-463.42419556 789.89727051 -463.42419556 789.89727051 -464.55834961 790.55761719 C-466.32984818 791.55522954 -468.16124392 792.44508219 -470 793.3125 C-473 792.3125 -473 792.3125 -474.16796875 790.38671875 C-474.67263672 789.20529297 -474.67263672 789.20529297 -475.1875 788 C-475.53167969 787.22011719 -475.87585938 786.44023438 -476.23046875 785.63671875 C-477 783.3125 -477 783.3125 -477 779.3125 C-477.66 779.3125 -478.32 779.3125 -479 779.3125 C-479.06848646 731.90876558 -479.13216724 684.50502749 -479.16937256 637.10125732 C-479.16992479 636.39945498 -479.17047702 635.69765263 -479.17104598 634.97458354 C-479.18301814 619.72183333 -479.19409879 604.4690826 -479.20426132 589.21633108 C-479.20925058 581.73618024 -479.21443681 574.25602954 -479.21972656 566.77587891 C-479.2202496 566.03152151 -479.22077263 565.28716412 -479.22131152 564.52025044 C-479.23835115 540.4017048 -479.26839208 516.2831967 -479.30518888 492.16467379 C-479.34293959 467.37584029 -479.36754649 442.58702755 -479.37565996 417.79816579 C-479.37681255 414.29539325 -479.37811509 410.79262078 -479.37950897 407.28984833 C-479.37977866 406.60046531 -479.38004836 405.9110823 -479.38032622 405.20080889 C-479.38504961 394.11209907 -479.40359243 383.02345353 -479.42732814 371.9347699 C-479.4509057 360.7817661 -479.45954138 349.62882466 -479.45400551 338.47579071 C-479.45144248 332.43488529 -479.45538335 326.39416824 -479.4768219 320.35329628 C-479.49631627 314.81980381 -479.497251 309.28662605 -479.48359558 303.75311896 C-479.48190836 301.75425824 -479.48695783 299.75537771 -479.49953273 297.75655583 C-479.58851579 282.73557414 -477.81346674 270.94299126 -469 258.3125 C-468.28263672 257.28189453 -468.28263672 257.28189453 -467.55078125 256.23046875 C-457.65461512 243.59229186 -439.92812305 236.73170958 -426.15744019 229.15968323 C-420.57929199 226.08885716 -415.03686751 222.95695399 -409.5 219.8125 C-400.04672581 214.45121267 -390.55201398 209.16712313 -381.046875 203.8984375 C-373.84541613 199.90310758 -366.66391868 195.87472204 -359.5 191.8125 C-350.04633122 186.45190011 -340.55202183 181.16712749 -331.046875 175.8984375 C-323.84541613 171.90310758 -316.66391868 167.87472204 -309.5 163.8125 C-300.04633122 158.45190011 -290.55202183 153.16712749 -281.046875 147.8984375 C-273.84541613 143.90310758 -266.66391868 139.87472204 -259.5 135.8125 C-250.04633122 130.45190011 -240.55202183 125.16712749 -231.046875 119.8984375 C-223.84541613 115.90310758 -216.66391868 111.87472204 -209.5 107.8125 C-200.04633122 102.45190011 -190.55202183 97.16712749 -181.046875 91.8984375 C-173.84541613 87.90310758 -166.66391868 83.87472204 -159.5 79.8125 C-150.04633122 74.45190011 -140.55202183 69.16712749 -131.046875 63.8984375 C-123.84541613 59.90310758 -116.66391868 55.87472204 -109.5 51.8125 C-101.19118618 47.10107764 -92.85400493 42.4433061 -84.5 37.8125 C-76.02477512 33.11293066 -67.56167687 28.39346269 -59.125 23.625 C-58.19526367 23.10043213 -57.26552734 22.57586426 -56.30761719 22.03540039 C-51.6151043 19.38176871 -46.9409254 16.70088426 -42.2890625 13.9765625 C-41.35819824 13.43475342 -40.42733398 12.89294434 -39.46826172 12.3347168 C-37.72841959 11.3204079 -35.99264028 10.29907739 -34.26220703 9.26879883 C-23.11769189 2.78613787 -12.78813655 0.12407636 0 0 Z " fill="#659AD2" transform="translate(479,-0.3125)"/>
<path d="M0 0 C3.74092733 3.31774551 5.97357689 7.1853852 8.375 11.5 C17.30761593 27.06391906 27.91781618 41.46542903 39.46923828 55.17675781 C40.92055492 56.90537546 42.35072979 58.64942203 43.77734375 60.3984375 C55.72843528 74.88198706 69.14661333 88.50211774 84 100 C85.85730404 101.57965191 87.71127133 103.16323257 89.5625 104.75 C123.17948067 132.64951465 164.09037753 154.61291947 206 167 C206.82322754 167.24556641 207.64645508 167.49113281 208.49462891 167.74414062 C226.60421961 173.07942933 245.0359597 176.86894156 263.6875 179.75 C264.42758301 179.86561279 265.16766602 179.98122559 265.93017578 180.1003418 C280.56987086 182.23361004 295.30164615 182.24026905 310.0625 182.25 C311.65513168 182.25151062 311.65513168 182.25151062 313.27993774 182.25305176 C330.37568599 182.24211141 347.0743879 181.58726506 364 179 C364.90427734 178.86609863 365.80855469 178.73219727 366.74023438 178.59423828 C424.84356676 169.65776378 482.20559804 144.77809278 528 108 C529.37091797 106.92878906 529.37091797 106.92878906 530.76953125 105.8359375 C533.20721986 103.9220172 535.60771539 101.97033835 538 100 C538.99386719 99.19175781 539.98773437 98.38351562 541.01171875 97.55078125 C554.72417637 86.21655894 568.11219044 73.61588764 579.0234375 59.53125 C580.87629992 57.15841433 582.82423821 54.8978962 584.81201172 52.63793945 C597.55503401 38.04249699 607.85806564 21.45459867 618 5 C621.60745138 5.69672958 624.48119313 7.18840371 627.70703125 8.921875 C628.83882812 9.52837891 629.970625 10.13488281 631.13671875 10.75976562 C632.36211299 11.42292986 633.58736999 12.08634775 634.8125 12.75 C636.08327562 13.43435197 637.35410966 14.11859547 638.625 14.80273438 C647.23481599 19.44913305 655.76489482 24.22634599 664.26171875 29.07641602 C671.87824021 33.40765144 679.58079914 37.56710081 687.3125 41.6875 C696.30726518 46.48189302 705.26794979 51.32545076 714.1640625 56.30078125 C720.365415 59.76890561 726.59008617 63.19486782 732.8125 66.625 C735.29950117 67.99605385 737.786482 69.36714456 740.2734375 70.73828125 C741.21518829 71.25745117 741.21518829 71.25745117 742.17596436 71.78710938 C746.14453132 73.97537636 750.11136876 76.16674568 754.07691956 78.36047363 C756.72619777 79.82600545 759.37595186 81.29067573 762.02572632 82.75531006 C763.2877005 83.45316798 764.54944446 84.15144241 765.8109436 84.85015869 C767.56996885 85.82438172 769.32988966 86.79698721 771.08984375 87.76953125 C772.58825806 88.59868042 772.58825806 88.59868042 774.11694336 89.44458008 C776.15210277 90.54255625 778.21960352 91.58157395 780.30688477 92.5769043 C783 94 783 94 784 96 C783.03349541 97.34254014 782.05074258 98.67337958 781.0625 100 C780.51722656 100.7425 779.97195313 101.485 779.41015625 102.25 C772.77287067 109.82317511 765.32720746 114.89628825 756.5 119.625 C754.27327645 120.84475812 752.04671862 122.06481882 749.8203125 123.28515625 C748.68883789 123.9002002 747.55736328 124.51524414 746.39160156 125.14892578 C741.02809952 128.07622729 735.70251732 131.07036708 730.375 134.0625 C728.2890682 135.23047893 726.20313073 136.39844774 724.1171875 137.56640625 C718.23690982 140.86371476 712.36705517 144.17923467 706.5 147.5 C695.40527296 153.77963839 684.28386607 160.01100698 673.15722656 166.23388672 C667.93706291 169.15398136 662.71859227 172.07709832 657.5 175 C651.22741152 178.51323852 644.95445881 182.02581749 638.6796875 185.53515625 C628.60795878 191.16934113 618.54338657 196.81542249 608.5 202.5 C597.40527296 208.77963839 586.28386607 215.01100698 575.15722656 221.23388672 C569.93706291 224.15398136 564.71859227 227.07709832 559.5 230 C553.22741152 233.51323852 546.95445881 237.02581749 540.6796875 240.53515625 C530.60795878 246.16934113 520.54338657 251.81542249 510.5 257.5 C499.40527296 263.77963839 488.28386607 270.01100698 477.15722656 276.23388672 C471.93706291 279.15398136 466.71859227 282.07709832 461.5 285 C455.22741152 288.51323852 448.95445881 292.02581749 442.6796875 295.53515625 C432.60795878 301.16934113 422.54338657 306.81542249 412.5 312.5 C401.41839912 318.77220895 390.31022856 324.99635269 379.19677734 331.21191406 C374.85068904 333.64285577 370.50529478 336.075034 366.16064453 338.50854492 C364.03103364 339.70046242 361.90051523 340.89076004 359.76904297 342.0793457 C355.2658669 344.59308778 350.77355799 347.11687721 346.33203125 349.73828125 C331.11866473 358.67867849 315.84092162 363.3009748 298.14599609 359.59106445 C288.52667172 356.94164644 279.83980417 352.53919938 271.25 347.5625 C269.0600416 346.31484828 266.86993311 345.06745997 264.6796875 343.8203125 C263.57334961 343.18641602 262.46701172 342.55251953 261.32714844 341.89941406 C256.03021872 338.87548441 250.70129895 335.90928159 245.375 332.9375 C236.45573362 327.9469581 227.55377032 322.92644649 218.65917969 317.89208984 C208.51007325 312.15088304 198.33414242 306.4578339 188.15722656 300.76611328 C181.89671092 297.26405868 175.63851388 293.75786247 169.37988281 290.25244141 C164.14724952 287.32187215 158.91405778 284.39230956 153.6796875 281.46484375 C142.65829479 275.2994112 131.64954681 269.1126603 120.65917969 262.89208984 C109.46050486 256.55715696 98.22961975 250.2798583 87 244 C73.8708703 236.65789261 60.75034094 229.30171411 47.65917969 221.89208984 C37.51007325 216.15088304 27.33414242 210.4578339 17.15722656 204.76611328 C10.89671092 201.26405868 4.63851388 197.75786247 -1.62011719 194.25244141 C-6.85275048 191.32187215 -12.08594222 188.39230956 -17.3203125 185.46484375 C-28.34170521 179.2994112 -39.35045319 173.1126603 -50.34082031 166.89208984 C-60.48992675 161.15088304 -70.66585758 155.4578339 -80.84277344 149.76611328 C-87.09757763 146.26725359 -93.35052537 142.76507384 -99.60253906 139.26123047 C-104.93166796 136.27521055 -110.26388032 133.29492581 -115.6015625 130.32421875 C-120.83569524 127.40958167 -126.06137953 124.48045615 -131.27832031 121.53515625 C-132.98391828 120.57311822 -134.69132616 119.6142743 -136.40136719 118.66015625 C-151.15729279 110.40158725 -163.07892596 99.78954673 -168 83 C-168.1875 80 -168.1875 80 -168 78 C-166.53347983 80.88019276 -165.17952126 83.79308515 -163.875 86.75 C-163.52179688 87.54921875 -163.16859375 88.3484375 -162.8046875 89.171875 C-162.53914062 89.77515625 -162.27359375 90.3784375 -162 91 C-157.75540641 89.70803074 -154.10956143 88.08904687 -150.2734375 85.8671875 C-149.17386719 85.23425781 -148.07429688 84.60132813 -146.94140625 83.94921875 C-145.75257901 83.25785576 -144.56377765 82.56644827 -143.375 81.875 C-142.12663437 81.15437198 -140.87793002 80.43433046 -139.62890625 79.71484375 C-137.03611824 78.22069053 -134.44480118 76.72403245 -131.85449219 75.22558594 C-125.91652691 71.79338022 -119.95719212 68.39869229 -114 65 C-111.66644045 63.66706242 -109.33322092 62.33353021 -107 61 C-105.83333959 60.33332238 -104.66667293 59.66665571 -103.5 59 C-102.63375 58.505 -102.63375 58.505 -101.75 58 C-96.5 55 -96.5 55 -94.75004578 54.00003052 C-93.58322151 53.33327089 -92.41640226 52.6665025 -91.24958801 51.99972534 C-88.33537354 50.33440912 -85.42107258 48.66924463 -82.5065918 47.00439453 C-77.2272691 43.98846865 -71.94861376 40.97140302 -66.67314148 37.94874573 C-53.77012443 30.55593674 -40.84165866 23.2129945 -27.85498047 15.96777344 C-18.5107712 10.74641052 -9.24297156 5.39815979 0 0 Z " fill="#004482" transform="translate(169,701)"/>
<path d="M0 0 C13.27884899 10.71423337 24.78767819 22.32905202 35 36 C35.7425 36.99386719 36.485 37.98773438 37.25 39.01171875 C42 45.57169859 42 45.57169859 42 49 C41.30777344 49.3810791 40.61554688 49.7621582 39.90234375 50.15478516 C26.48409987 57.55117222 13.13326746 65.03211875 -0.07617188 72.79736328 C-7.16772401 76.95669651 -14.31608255 81.00256043 -21.5 85 C-29.7220259 89.575664 -37.8858143 94.23570748 -46 99 C-55.14913289 104.37196793 -64.37403131 109.59076525 -73.64453125 114.75 C-80.81353695 118.74964452 -87.92092763 122.84348044 -95 127 C-104.14913289 132.37196793 -113.37403131 137.59076525 -122.64453125 142.75 C-129.81353695 146.74964452 -136.92092763 150.84348044 -144 155 C-153.15054061 160.37279449 -162.37668375 165.5927244 -171.64892578 170.75219727 C-178.77628267 174.72815635 -185.83939092 178.80163998 -192.875 182.9375 C-202.46264302 188.57134557 -212.15300117 193.9977661 -221.88916016 199.37011719 C-231.68578496 204.79049123 -241.36389724 210.40070488 -251.015625 216.07421875 C-251.87349609 216.57743652 -252.73136719 217.0806543 -253.61523438 217.59912109 C-255.12937304 218.48856905 -256.64135944 219.38169916 -258.15039062 220.27978516 C-262.77821124 223 -262.77821124 223 -265 223 C-287.06559286 177.31771818 -291.57103254 128.29092744 -275 80 C-257.27768761 33.26214019 -221.77104648 -2.69081725 -176.38671875 -23.12109375 C-119.71411216 -47.80008803 -48.43346406 -38.60658756 0 0 Z " fill="#659AD2" transform="translate(588,390)"/>
<path d="M0 0 C1.05832031 0.65355469 2.11664063 1.30710937 3.20703125 1.98046875 C4.51527222 2.75280999 5.82533715 3.52206593 7.13671875 4.2890625 C7.88791992 4.73878418 8.63912109 5.18850586 9.41308594 5.65185547 C14.19233664 8.431843 19.10068375 10.97678993 23.98626709 13.56356812 C34.56865983 19.17880455 45.0792929 24.91979533 55.53076172 30.77490234 C70.50071157 39.15419741 85.50672158 47.46224099 100.60327148 55.61132812 C107.01745254 59.07597671 113.40804904 62.5786494 119.7722168 66.13427734 C124.6489297 68.85725938 129.53960728 71.55365779 134.4375 74.23828125 C136.42771021 75.33068133 138.41780015 76.42330025 140.40786743 77.51596069 C141.72284904 78.23711091 143.03841348 78.95719946 144.35458374 79.67617798 C146.21057988 80.69020162 148.06444902 81.70802109 149.91796875 82.7265625 C150.99739746 83.31751709 152.07682617 83.90847168 153.18896484 84.51733398 C155.62004317 85.93500869 157.8187177 87.42092777 160.01953125 89.16796875 C158.52792611 93.4895923 156.24723075 96.99734395 153.58203125 100.66796875 C153.14173584 101.27745361 152.70144043 101.88693848 152.24780273 102.51489258 C140.80542138 118.14602084 127.62856764 131.67639346 112.01953125 143.16796875 C111.46378418 143.58401367 110.90803711 144.00005859 110.33544922 144.42871094 C92.48150707 157.64492523 71.43086283 166.60022658 50.01953125 172.16796875 C49.20677734 172.38952637 48.39402344 172.61108398 47.55664062 172.83935547 C34.6047874 176.2388262 21.64035629 176.55250926 8.33203125 176.60546875 C7.51735382 176.61182343 6.70267639 176.6181781 5.86331177 176.62472534 C-9.85626258 176.70093114 -25.37561905 175.00939088 -40.48046875 170.48046875 C-41.34591309 170.22483154 -42.21135742 169.96919434 -43.10302734 169.70581055 C-64.19222204 163.26540929 -83.87365622 153.12788492 -100.98046875 139.16796875 C-101.76429932 138.5342334 -101.76429932 138.5342334 -102.56396484 137.88769531 C-120.41614243 123.39636349 -140.06888174 104.44870838 -147.98046875 82.16796875 C-138.82686644 76.30820743 -129.3928599 71.00402867 -119.89624023 65.72387695 C-112.57932682 61.64684176 -105.32512847 57.47704459 -98.10546875 53.23046875 C-88.50497729 47.58870627 -78.80093807 42.15583811 -69.05175781 36.77587891 C-60.60559855 32.10253111 -52.25701483 27.28072328 -43.93579102 22.38916016 C-33.54684296 16.29595073 -23.05369117 10.38281982 -12.4909668 4.59594727 C-10.02139928 3.23379145 -10.02139928 3.23379145 -7.93286133 1.78491211 C-4.88377547 -0.25491922 -3.6189853 -1.0102803 0 0 Z " fill="#004482" transform="translate(471.98046875,530.83203125)"/>
</svg>
