<svg width="166" height="42" xmlns="http://www.w3.org/2000/svg"><g fill="none" fill-rule="evenodd"><path d="M41.6 31.2c0 5.7-4.6 10.3-10.3 10.3H10.8C5.1 41.5.5 36.9.5 31.2V10.7C.5 5 5.1.4 10.8.4h20.5C37 .4 41.6 5 41.6 10.7v20.5z" fill="#0087CD"/><g transform="translate(5 8)" fill="#FFF"><path d="M27.4 16c1-3.1 2.8-9.9 3.4-12.4.5-2.1.7-2.9-.3-2.9-.8 0-3 .9-3.5 2.6-.7 2.8-2.2 8.7-2.8 10.8-.7 2.3-2.1 2.8-4 2.8-1.4 0-2.2-.1-2.4-.9-.1-.3-.3-.4-.5-.4H15c-.3 0-.5.2-.5.4-.2.9-1 .9-2.4.9-1.2 0-3-.2-3.6-2.4C8 13 6.9 9.1 6.3 7 5.7 4.9 3.9 4.8 3 4.8c-1 0-1.1.2-.5 2.2.6 2 2 6.6 2.9 9.6.9 3 3.8 4 5.7 4h3.2c.9 0 1.4-.2 1.7-.4.2-.2.5-.2.7 0 .3.2.9.5 1.8.5h3.1c2.4-.1 4.8-1.7 5.8-4.7z"/><circle cx="11.3" cy="7" r="1.5"/><circle cx="16.2" cy="7" r="1.5"/><circle cx="21.2" cy="7" r="1.5"/><circle cx="11.3" cy="12.4" r="1.5"/><circle cx="16.2" cy="12.4" r="1.5"/><circle cx="21.2" cy="12.4" r="1.5"/><path d="M3.6 21.5c-1.7 0-3 1.4-3 3s1.4 3 3 3 3-1.4 3-3-1.4-3-3-3zm0 4.2c-.6 0-1.1-.5-1.1-1.1 0-.6.5-1.1 1.1-1.1.6 0 1.1.5 1.1 1.1-.1.6-.5 1.1-1.1 1.1zm25-4.2c-1.7 0-3 1.4-3 3s1.4 3 3 3 3-1.4 3-3-1.3-3-3-3zm0 4.2c-.6 0-1.1-.5-1.1-1.1 0-.6.5-1.1 1.1-1.1.6 0 1.1.5 1.1 1.1 0 .6-.5 1.1-1.1 1.1z"/></g><g transform="translate(53 3)" fill="#0087CD"><path d="M44.3 25c-.7 0-1.6 0-1.9.6-1.1 2-3.7 2.7-5.8 2.7-4.2 0-7.4-3.4-7.4-7.7 0-4.2 3.2-7.7 7.4-7.7 1.9 0 4.3.4 5.8 2.6.4.6 1.2.5 2 .5 1 0 .8-1.2.4-1.9-2.1-3.2-5.6-3.9-8.1-3.9-5.7 0-10.4 4.7-10.4 10.4S31 31 36.7 31c3.7 0 6.9-1.6 8.3-4.2.1-.7.4-1.8-.7-1.8zm40.1-14.2c-.7 0-1.4.3-1.4 1.1v17.4c0 .7.6 1 1.4 1 .7 0 1.4-.2 1.4-1V11.9c-.1-.8-.7-1.1-1.4-1.1z"/><circle cx="84.4" cy="4.9" r="2"/><path d="M110.5.6c-.7 0-.7.3-.7 1v12c-1.5-2.5-4.5-3.4-7.1-3.4-5.7 0-10.4 4.6-10.4 10.4 0 5.7 4.6 10.4 10.4 10.4 2.2 0 5.7-1.1 7.1-3.6v1.7c0 .7-.1 1 .7 1 .8 0 2-1 2-3.3V3.4c0-2.1-1.2-2.8-2-2.8zm-.7 20.5c0 5.4-4.9 7.2-7.1 7.2-4.2 0-7.4-3.4-7.4-7.7 0-4.3 3.2-7.7 7.4-7.7 2.5 0 7.1 1.5 7.1 7v1.2zM75.7 10.9c-.1 0-1.4 0-1.7 1-.4.9-2.3 6.9-4.5 13.2-.1.2-.2.4-.2.6l-4.6-11.3c-.2-.5-.5-.9-.9-1.1-.2-.1-.5-.2-.8-.2-.3 0-.6.1-.8.2-.4.2-.7.6-.9 1.1l-4.6 11.3c-.1-.2-.2-.4-.2-.6-2.3-6.3-4.2-12.3-4.5-13.2-.4-1-1.7-1-1.7-1-.7 0-1 .2-.9.6v.3c.1.4 2.9 9.9 6 17.4.2.5.5 1.2 1.4 1.2.6 0 1-.4 1.2-.8l4.9-12.2c.1-.1.2-.2.3-.2.1 0 .2.1.3.2l4.9 12.2c.2.4.6.8 1.2.8.9 0 1.2-.7 1.4-1.2 3-7.4 5.9-17 6-17.4v-.3c-.4-.4-.7-.6-1.3-.6zM11 10.2C5.3 10.2.4 14.9.4 20.6S5.2 31 11 31c3.7 0 7.1-1.6 8.5-4.2.4-.7.6-1.8-.5-1.8-.7 0-1.6 0-1.9.6-1.1 2-4 2.7-6.1 2.7-3.8 0-6.9-2.8-7.5-6.4h16.8c.7 0 1.3-.6 1.3-1.4 0-5.8-5-10.3-10.6-10.3zm-7.5 9c.6-3.6 3.8-6.3 7.6-6.3 3.6 0 6.9 2.6 7.5 6.3H3.5z"/></g></g></svg>