<?xml version="1.0" encoding="UTF-8"?>
<svg version="1.1" xmlns="http://www.w3.org/2000/svg" width="383" height="383">
<path d="M0 0 C9.64937709 8.15602111 16.50465881 19.39484484 18.4375 32.03125 C19.52037587 49.07323097 16.09061254 62.68095156 5.25 76.21875 C-2.43068914 84.59306966 -13.45193171 90.02899211 -24.5625 92.03125 C-24.3459375 92.96517578 -24.3459375 92.96517578 -24.125 93.91796875 C-19.31227983 117.88130458 -23.31272275 140.96601737 -35.875 161.84375 C-39.82796859 167.78222793 -44.62960692 172.89985016 -49.5625 178.03125 C-52.69988154 176.64044475 -54.81725281 175.02102796 -57.22949219 172.59130859 C-58.28012848 171.54044571 -58.28012848 171.54044571 -59.35198975 170.46835327 C-60.09692688 169.71309357 -60.84186401 168.95783386 -61.609375 168.1796875 C-62.38057678 167.40565582 -63.15177856 166.63162415 -63.9463501 165.83413696 C-66.40646856 163.36283077 -68.85953848 160.88465817 -71.3125 158.40625 C-72.98000894 156.72870948 -74.64797232 155.05162055 -76.31640625 153.375 C-80.4037237 149.26564081 -84.48527696 145.15062353 -88.5625 141.03125 C-87.12730298 138.08596609 -85.53293659 135.50903547 -83.625 132.84375 C-78.9073794 125.79615541 -76.34555368 118.56386211 -77.5625 110.03125 C-79.6133706 101.13124549 -83.95950974 93.69552443 -91.71875 88.62109375 C-99.43757997 84.60326994 -107.67729843 83.75035319 -116.21875 85.609375 C-130.36512631 90.5337465 -141.74504321 106.08421489 -152.0390625 116.41015625 C-153.81817041 118.19113216 -155.5975014 119.97188525 -157.37704468 121.75242615 C-161.55765291 125.93644307 -165.73603087 130.12267655 -169.91329801 134.31002897 C-175.14431457 139.55339582 -180.37885161 144.79324392 -185.61328125 150.03320312 C-194.93248675 159.36309291 -204.24860682 168.69605716 -213.5625 178.03125 C-216.66800308 176.54683828 -218.79606746 175.04236683 -221.22949219 172.59130859 C-222.28012848 171.54044571 -222.28012848 171.54044571 -223.35198975 170.46835327 C-224.09692688 169.71309357 -224.84186401 168.95783386 -225.609375 168.1796875 C-226.38057678 167.40565582 -227.15177856 166.63162415 -227.9463501 165.83413696 C-230.40646856 163.36283077 -232.85953848 160.88465817 -235.3125 158.40625 C-236.98000894 156.72870948 -238.64797232 155.05162055 -240.31640625 153.375 C-244.4037237 149.26564081 -248.48527696 145.15062353 -252.5625 141.03125 C-251.15501204 137.84948633 -249.4827604 135.69522826 -247.03741455 133.23200989 C-246.30603775 132.49065796 -245.57466095 131.74930603 -244.82112122 130.98548889 C-244.01809067 130.18179367 -243.21506012 129.37809845 -242.38769531 128.55004883 C-241.54182358 127.69585358 -240.69595184 126.84165833 -239.82444763 125.96157837 C-237.50331039 123.62046786 -235.17766121 121.28404802 -232.84906483 118.95036912 C-231.38959313 117.4872468 -229.93142673 116.02283614 -228.47368622 114.55798912 C-223.37311238 109.43290902 -218.26683026 104.31358786 -213.15576172 99.19897461 C-208.41796325 94.45755793 -203.69340356 89.70322966 -198.97485471 84.94266301 C-194.90633376 80.83921019 -190.82800838 76.74566877 -186.74233127 72.65929812 C-184.31022176 70.22640241 -181.88209949 67.78985155 -179.4640274 65.3429966 C-159.75279678 45.43444507 -139.81384611 30.09817126 -110.65063477 29.66333008 C-101.69337368 29.64501774 -93.29916223 29.90519022 -84.5625 32.03125 C-84.34335937 31.20882812 -84.12421875 30.38640625 -83.8984375 29.5390625 C-79.48709814 14.00971339 -72.09758368 3.75634526 -58.5625 -4.96875 C-39.88190531 -15.31305325 -16.78488424 -12.89570375 0 0 Z " fill="#E4B644" transform="translate(363.5625,10.96875)"/>
<path d="M0 0 C3.14744463 1.39627039 5.28765679 3.03326809 7.72331238 5.45588684 C8.81009781 6.52987732 8.81009781 6.52987732 9.9188385 7.62556458 C10.70383224 8.41146469 11.48882599 9.19736481 12.29760742 10.00708008 C13.13229553 10.83505096 13.96698364 11.66302185 14.82696533 12.51608276 C17.11426624 14.78763805 19.39694471 17.06370641 21.6770227 19.34250855 C23.10653116 20.7705926 24.53745571 22.19724165 25.96889687 23.62338829 C30.97693812 28.61291786 35.97977644 33.6075971 40.9777832 38.60717773 C45.61169378 43.24228423 50.25658025 47.86617989 54.90690535 52.48481256 C58.91517989 56.46675664 62.91552245 60.45655692 66.91001779 64.45232314 C69.28831265 66.83112352 71.67034584 69.20581344 74.05864525 71.5745945 C94.08635676 91.4540058 111.00058995 112.17124007 111.18554688 141.90820312 C111.18619141 142.86662109 111.18683594 143.82503906 111.1875 144.8125 C111.19974609 145.75931641 111.21199219 146.70613281 111.22460938 147.68164062 C111.23716954 153.76494803 110.53146113 159.11023053 109 165 C109.64420898 165.09144287 110.28841797 165.18288574 110.95214844 165.27709961 C124.05496602 167.26089849 134.91740092 174.22454705 143.03515625 184.6015625 C151.74768244 197.43912763 154.71317019 211.67002728 151.875 226.8125 C148.56042602 241.11912631 141.11764691 252.31476472 128.83203125 260.4296875 C115.19524392 267.99105096 102.05350594 269.23825418 87 266 C74.95088055 262.48286876 63.20588348 254.55262474 56.9140625 243.51953125 C54.05538175 238.12343372 51.7430274 233.12068822 51 227 C50.34 227.2165625 49.68 227.433125 49 227.65625 C26.95494827 233.8564208 3.09129422 230.40610537 -16.83203125 219.44140625 C-24.57269851 214.75370146 -32.88518481 209.22963038 -37 201 C-24.79 188.79 -12.58 176.58 0 164 C3.11138523 165.55569262 5.08718138 166.79509912 7.6875 168.9375 C14.70126387 174.23995734 22.2679664 176.15032778 31 175 C38.63506197 173.20853295 44.93179287 170.07955005 50 164 C55.10977144 155.73007067 57.22250984 148.15560805 55.57421875 138.5078125 C52.90784377 128.00589386 45.07529763 120.77653598 37.58618164 113.35913086 C36.7756131 112.54827026 35.96504456 111.73740967 35.12991333 110.90197754 C32.47804589 108.25149153 29.81918887 105.60813971 27.16015625 102.96484375 C25.30884285 101.1172647 23.45797364 99.26924047 21.60752869 97.42079163 C17.25206822 93.07151573 12.89154087 88.72735773 8.52911133 84.38507324 C3.55770014 79.43611585 -1.40794662 74.48139143 -6.37314785 69.52620494 C-16.57575381 59.34443239 -26.78548129 49.1698213 -37 39 C-35.51558828 35.89449692 -34.01111683 33.76643254 -31.56005859 31.33300781 C-30.85948334 30.63258362 -30.15890808 29.93215942 -29.43710327 29.21051025 C-28.68184357 28.46557312 -27.92658386 27.72063599 -27.1484375 26.953125 C-26.37440582 26.18192322 -25.60037415 25.41072144 -24.80288696 24.6161499 C-22.33158077 22.15603144 -19.85340817 19.70296152 -17.375 17.25 C-15.69745948 15.58249106 -14.02037055 13.91452768 -12.34375 12.24609375 C-8.23439081 8.1587763 -4.11937353 4.07722304 0 0 Z " fill="#C33633" transform="translate(230,115)"/>
<path d="M0 0 C9.57194825 7.32320615 16.58574664 16.35137089 20 28 C20.1875 31 20.1875 31 20 33 C20.8677002 32.83991455 21.73540039 32.6798291 22.62939453 32.51489258 C47.57453703 28.70428085 70.52021573 33.60993662 91.0625 48.0625 C95.40226253 51.37304392 99.31527541 54.97572741 103 59 C101.60919475 62.13738154 99.98977796 64.25475281 97.56005859 66.66699219 C96.50919571 67.71762848 96.50919571 67.71762848 95.43710327 68.78948975 C94.68184357 69.53442688 93.92658386 70.27936401 93.1484375 71.046875 C92.37440582 71.81807678 91.60037415 72.58927856 90.80288696 73.3838501 C88.33158077 75.84396856 85.85340817 78.29703848 83.375 80.75 C81.69745948 82.41750894 80.02037055 84.08547232 78.34375 85.75390625 C74.23439081 89.8412237 70.11937353 93.92277696 66 98 C63.10454838 96.59767979 60.74924406 95.09184487 58.25 93.0625 C50.31973077 87.11116034 42.89725184 85.89626236 33 87 C29.72541428 87.95021461 26.93781557 89.28627425 24 91 C22.948125 91.556875 21.89625 92.11375 20.8125 92.6875 C14.53653184 97.84774049 10.54821279 104.97684098 9.6640625 113.078125 C9.48431991 127.6732229 15.02485505 134.82079414 24.8613472 144.90897369 C30.33128373 150.46737654 35.85608044 155.9708102 41.37890625 161.4765625 C43.15988216 163.25567041 44.94063525 165.0350014 46.72117615 166.81454468 C50.90519307 170.99515291 55.09142655 175.17353087 59.27877897 179.35079801 C64.52214582 184.58181457 69.76199392 189.81635161 75.00195312 195.05078125 C84.33184291 204.36998675 93.66480716 213.68610682 103 223 C101.51558828 226.10550308 100.01111683 228.23356746 97.56005859 230.66699219 C96.50919571 231.71762848 96.50919571 231.71762848 95.43710327 232.78948975 C94.68184357 233.53442688 93.92658386 234.27936401 93.1484375 235.046875 C92.37440582 235.81807678 91.60037415 236.58927856 90.80288696 237.3838501 C88.33158077 239.84396856 85.85340817 242.29703848 83.375 244.75 C81.69745948 246.41750894 80.02037055 248.08547232 78.34375 249.75390625 C74.23439081 253.8412237 70.11937353 257.92277696 66 262 C62.81823633 260.59251204 60.66397826 258.9202604 58.20075989 256.47491455 C57.45940796 255.74353775 56.71805603 255.01216095 55.95423889 254.25862122 C55.15054367 253.45559067 54.34684845 252.65256012 53.51879883 251.82519531 C52.66460358 250.97932358 51.81040833 250.13345184 50.93032837 249.26194763 C48.58921786 246.94081039 46.25279802 244.61516121 43.91911912 242.28656483 C42.4559968 240.82709313 40.99158614 239.36892673 39.52673912 237.91118622 C34.40165902 232.81061238 29.28233786 227.70433026 24.16772461 222.59326172 C19.42630793 217.85546325 14.67197966 213.13090356 9.91141301 208.41235471 C5.80796019 204.34383376 1.71441877 200.26550838 -2.37195188 196.17983127 C-4.80484759 193.74772176 -7.24139845 191.31959949 -9.6882534 188.9015274 C-30.35090471 168.44367116 -44.74850869 147.9349021 -46.046875 118.04296875 C-46.088083 109.62623373 -44.72807019 101.21618829 -43 93 C-44.25103516 92.58041016 -44.25103516 92.58041016 -45.52734375 92.15234375 C-53.15347028 89.43559077 -58.99492072 86.41286239 -65 81 C-65.60199219 80.52433594 -66.20398438 80.04867187 -66.82421875 79.55859375 C-75.2627531 72.29576531 -81.17573893 58.99014754 -82 48 C-82.06832031 47.1440625 -82.13664062 46.288125 -82.20703125 45.40625 C-82.73995769 31.66859072 -78.41577646 18.79366134 -69.671875 8.171875 C-51.4054593 -11.01360564 -22.27120606 -15.5778919 0 0 Z " fill="#86BD3B" transform="translate(82,9)"/>
<path d="M0 0 C3.13738154 1.39080525 5.25475281 3.01022204 7.66699219 5.43994141 C8.71762848 6.49080429 8.71762848 6.49080429 9.78948975 7.56289673 C10.53442688 8.31815643 11.27936401 9.07341614 12.046875 9.8515625 C12.81807678 10.62559418 13.58927856 11.39962585 14.3838501 12.19711304 C16.84396856 14.66841923 19.29703848 17.14659183 21.75 19.625 C23.41750894 21.30254052 25.08547232 22.97962945 26.75390625 24.65625 C30.8412237 28.76560919 34.92277696 32.88062647 39 37 C37.59767979 39.89545162 36.09184487 42.25075594 34.0625 44.75 C28.0988471 52.69667685 26.92832968 60.08704958 28 70 C29.95116281 77.59559806 34.85191334 84.17621804 41.3125 88.57421875 C49.12216134 93.05706712 56.44904664 94.16106328 65.40234375 92.57421875 C75.30066185 89.73867244 82.59302256 81.70216624 89.64086914 74.58618164 C90.45172974 73.7756131 91.26259033 72.96504456 92.09802246 72.12991333 C94.74850847 69.47804589 97.39186029 66.81918887 100.03515625 64.16015625 C101.8827353 62.30884285 103.73075953 60.45797364 105.57920837 58.60752869 C109.92848427 54.25206822 114.27264227 49.89154087 118.61492676 45.52911133 C123.56388415 40.55770014 128.51860857 35.59205338 133.47379506 30.62685215 C143.65556761 20.42424619 153.8301787 10.21451871 164 0 C167.10550308 1.48441172 169.23356746 2.98888317 171.66699219 5.43994141 C172.71762848 6.49080429 172.71762848 6.49080429 173.78948975 7.56289673 C174.53442688 8.31815643 175.27936401 9.07341614 176.046875 9.8515625 C176.81807678 10.62559418 177.58927856 11.39962585 178.3838501 12.19711304 C180.84396856 14.66841923 183.29703848 17.14659183 185.75 19.625 C187.41750894 21.30254052 189.08547232 22.97962945 190.75390625 24.65625 C194.8412237 28.76560919 198.92277696 32.88062647 203 37 C201.5950882 40.17588735 199.93174925 42.32102916 197.48596191 44.7747345 C196.75721863 45.51056259 196.02847534 46.24639069 195.27764893 47.0045166 C194.47768494 47.80200317 193.67772095 48.59948975 192.85351562 49.42114258 C192.01097229 50.26879684 191.16842896 51.11645111 190.300354 51.98979187 C187.98966191 54.31200305 185.67449056 56.62962401 183.35676765 58.94481492 C181.41708054 60.88343048 179.48038274 62.82501896 177.54362631 64.76656169 C172.96730538 69.35397858 168.38567601 73.93604606 163.80078125 78.51489258 C159.08881923 83.22083336 154.3860654 87.93583224 149.68779993 92.65544397 C145.64213105 96.71880918 141.59059164 100.77625647 137.53444433 104.82916182 C135.11739224 107.24441142 132.70255485 109.661769 130.29341125 112.08490944 C127.59664003 114.79409837 124.89039058 117.49346856 122.18164062 120.19067383 C121.39787048 120.98208771 120.61410034 121.77350159 119.80657959 122.58889771 C102.72491202 139.51108722 81.57247614 148.17354459 57.625 148.1875 C55.97757813 148.20586914 55.97757813 148.20586914 54.296875 148.22460938 C48.1653 148.23563739 42.86746008 147.80592141 37 146 C36.95875 146.928125 36.9175 147.85625 36.875 148.8125 C35.25026425 159.70262071 26.78174704 169.46836042 18.3984375 176.0390625 C5.43386858 184.81910197 -8.19443443 187.31504694 -23.5078125 184.78515625 C-37.0911347 181.73118784 -47.78669822 174.17009043 -56 163 C-63.82173331 149.85393824 -66.09671534 136.30558444 -63.3125 121.29296875 C-59.56806096 108.14062664 -52.04742889 96.39210002 -39.90234375 89.59375 C-29.22686298 84 -29.22686298 84 -25 84 C-25.31453125 83.00871094 -25.6290625 82.01742187 -25.953125 80.99609375 C-31.48713923 61.51460372 -26.68215217 39.64906296 -17.625 22.125 C-12.83681658 13.66794876 -7.04533919 6.6598799 0 0 Z " fill="#738EC4" transform="translate(64,197)"/>
</svg>
