<?xml version="1.0" encoding="UTF-8"?>
<svg version="1.1" xmlns="http://www.w3.org/2000/svg" width="280" height="280">
<path d="M0 0 C92.4 0 184.8 0 280 0 C280 92.4 280 184.8 280 280 C187.6 280 95.2 280 0 280 C0 187.6 0 95.2 0 0 Z " fill="#7659D3" transform="translate(0,0)"/>
<path d="M0 0 C2.41382582 2.41382582 2.2545367 2.97682585 2.27415466 6.27572632 C2.28911736 7.62165108 2.28911736 7.62165108 2.30438232 8.99476624 C2.305047 9.98182053 2.30571167 10.96887482 2.30639648 11.98583984 C2.31472 13.02333878 2.32304352 14.06083771 2.33161926 15.129776 C2.3557958 18.57353421 2.36450073 22.01710332 2.37109375 25.4609375 C2.38005418 27.84746358 2.38917591 30.23398905 2.39845276 32.62051392 C2.4149661 37.62918465 2.42264715 42.63778835 2.42553711 47.64648438 C2.43092354 54.07189003 2.46860517 60.49666777 2.51428127 66.92189598 C2.54398955 71.85291863 2.55125932 76.78378896 2.55226326 81.71489334 C2.55647787 84.08404034 2.56896143 86.45318729 2.58978081 88.82224655 C2.61656522 92.13376071 2.61190753 95.4438048 2.59936523 98.75537109 C2.61419952 99.73837692 2.62903381 100.72138275 2.64431763 101.73417664 C2.57241614 108.38348821 2.57241614 108.38348821 -0.36485291 111.54702759 C-3.11542213 113.06364167 -5.84698962 114.53248909 -8.6875 115.875 C-12.61786619 117.78485971 -16.40201297 119.77459802 -20.125 122.0625 C-34.54551165 130.84927478 -34.54551165 130.84927478 -41 130 C-42.14844398 127.70311205 -42.14243887 126.36951468 -42.17408752 123.81365967 C-42.18702347 122.93609512 -42.19995941 122.05853058 -42.21328735 121.15437317 C-42.22226044 120.18916245 -42.23123352 119.22395172 -42.24047852 118.22949219 C-42.25347488 117.21471298 -42.26647125 116.19993378 -42.27986145 115.15440369 C-42.40655656 104.5426874 -42.46331476 93.93017364 -42.51489258 83.31787109 C-42.54166254 78.27934053 -42.5904272 73.24175271 -42.65844727 68.20361328 C-42.74030004 62.12578173 -42.78306192 56.04884994 -42.79795647 49.97049713 C-42.81022065 47.6531569 -42.83629083 45.33584717 -42.87640572 43.01882172 C-42.92977239 39.77417023 -42.93288354 36.53308221 -42.92407227 33.28808594 C-42.95126343 32.33097214 -42.97845459 31.37385834 -43.00646973 30.38774109 C-42.91710585 24.00392001 -42.91710585 24.00392001 -40.27081108 21.10712433 C-38.24296073 19.56459828 -36.212159 18.25994152 -34 17 C-32.93136719 16.29875 -31.86273438 15.5975 -30.76171875 14.875 C-24.73278436 11.19788627 -18.67268714 7.64141435 -12.4375 4.32421875 C-10.71302156 3.38736267 -9.02093378 2.38971057 -7.35546875 1.3515625 C-4.6298863 -0.21237038 -3.09332642 -0.41801708 0 0 Z " fill="#FCFBFE" transform="translate(131,53)"/>
<path d="M0 0 C2.59968008 1.24161611 5.07526839 2.67342168 7.5625 4.125 C8.62259277 4.73287354 8.62259277 4.73287354 9.70410156 5.35302734 C11.80703186 6.56142759 13.90416559 7.77934358 16 9 C17.08667969 9.6290625 18.17335937 10.258125 19.29296875 10.90625 C21.23239545 12.03352575 23.16871803 13.16616267 25.1015625 14.3046875 C27.16982136 15.51442382 29.24927933 16.70509676 31.3359375 17.8828125 C32.42132813 18.49898437 33.50671875 19.11515625 34.625 19.75 C35.60726562 20.30171875 36.58953125 20.8534375 37.6015625 21.421875 C40 23 40 23 42 26 C42.25396729 28.20753479 42.25396729 28.20753479 42.25878906 30.80688477 C42.26509338 31.78121964 42.27139771 32.7555545 42.27789307 33.75941467 C42.2738446 34.80947189 42.26979614 35.85952911 42.265625 36.94140625 C42.26849518 38.55933327 42.26849518 38.55933327 42.27142334 40.20994568 C42.27278472 42.49047072 42.26909159 44.77100351 42.26074219 47.05151367 C42.25003183 50.55209655 42.26064465 54.05216741 42.2734375 57.55273438 C42.2721161 59.76562614 42.26955412 61.97851758 42.265625 64.19140625 C42.26967346 65.2434877 42.27372192 66.29556915 42.27789307 67.37953186 C42.27158875 68.35071457 42.26528442 69.32189728 42.25878906 70.32250977 C42.25719788 71.17949966 42.25560669 72.03648956 42.25396729 72.91944885 C42 75 42 75 40 77 C35.47034088 76.70018356 31.82114575 74.48023234 27.9375 72.3125 C26.59971104 71.58065364 25.26115917 70.85020025 23.921875 70.12109375 C23.25994141 69.75999512 22.59800781 69.39889648 21.91601562 69.02685547 C19.20618921 67.57457082 16.44991844 66.22400486 13.6875 64.875 C9.02495294 62.57204153 4.57508731 60.03655413 0.15625 57.296875 C-1.97112366 55.96820731 -1.97112366 55.96820731 -4.21875 54.953125 C-6 54 -6 54 -7 52 C-7.09039906 50.3351936 -7.11755257 48.66676579 -7.11352539 46.99951172 C-7.11344986 45.95858368 -7.11337433 44.91765564 -7.11329651 43.84518433 C-7.10813522 42.71807037 -7.10297394 41.59095642 -7.09765625 40.4296875 C-7.0962413 39.27832306 -7.09482635 38.12695862 -7.09336853 36.94070435 C-7.08775716 33.25211014 -7.0752027 29.56357595 -7.0625 25.875 C-7.05748647 23.37890712 -7.05292331 20.8828133 -7.04882812 18.38671875 C-7.03778403 12.25779191 -7.0210348 6.12890024 -7 0 C-4.19345803 -1.40327098 -3.01942921 -0.86979442 0 0 Z " fill="#FDFDFE" transform="translate(150,110)"/>
<path d="M0 0 C3.06103516 1.26586914 3.06103516 1.26586914 6.2890625 3.03515625 C7.16587173 3.50966469 7.16587173 3.50966469 8.06039429 3.99375916 C9.92186771 5.0050861 11.77322332 6.03354701 13.625 7.0625 C14.84444862 7.72702006 16.06449692 8.3904409 17.28515625 9.05273438 C20.2846798 10.68505733 23.26417141 12.35080652 26.24035645 14.02520752 C28.00547778 15.00303453 29.78639356 15.94489552 31.57324219 16.88232422 C32.67055664 17.47674316 33.76787109 18.07116211 34.8984375 18.68359375 C35.88247559 19.2036499 36.86651367 19.72370605 37.88037109 20.25952148 C40 22 40 22 40.61621094 24.50292969 C40 27 40 27 38.01904297 28.72583008 C37.10268066 29.23525146 36.18631836 29.74467285 35.2421875 30.26953125 C34.2301123 30.84493652 33.21803711 31.4203418 32.17529297 32.01318359 C31.08619629 32.60695801 29.99709961 33.20073242 28.875 33.8125 C27.77945801 34.42689941 26.68391602 35.04129883 25.55517578 35.67431641 C23.37122548 36.89873528 21.18360881 38.11663996 18.9921875 39.32763672 C16.46505802 40.74007446 13.97498969 42.19030647 11.5 43.69140625 C10.8723877 44.06869873 10.24477539 44.44599121 9.59814453 44.8347168 C7.99831589 45.80055271 6.40137785 46.77117225 4.8046875 47.7421875 C1.55475363 49.19967873 -0.47494978 49.43765806 -4 49 C-6.16796875 47.8984375 -6.16796875 47.8984375 -8.1875 46.375 C-11.51082546 43.99960294 -14.83265083 41.92462286 -18.4375 40 C-22.90484438 37.61367797 -27.25147166 35.08859581 -31.56640625 32.4375 C-34.71983597 30.57479994 -37.98374165 28.9550765 -41.28515625 27.37109375 C-43 26 -43 26 -43.74609375 23.34765625 C-43.82988281 22.57292969 -43.91367188 21.79820312 -44 21 C-38.04942754 16.63624687 -31.78334202 13.26796717 -25.17041016 10.05078125 C-19.59817064 7.33579924 -14.22649426 4.36814211 -8.8671875 1.25 C-5.52843458 -0.20558711 -3.62160787 -0.30180066 0 0 Z " fill="#FDFDFE" transform="translate(141,172)"/>
</svg>
