<?xml version="1.0" standalone="no"?>
<!DOCTYPE svg PUBLIC "-//W3C//DTD SVG 20010904//EN"
 "http://www.w3.org/TR/2001/REC-SVG-20010904/DTD/svg10.dtd">
<svg version="1.0" xmlns="http://www.w3.org/2000/svg"
 width="498.000000pt" height="498.000000pt" viewBox="0 0 498.000000 498.000000"
 preserveAspectRatio="xMidYMid meet">
<metadata>
Created by potrace 1.16, written by Peter Selinger 2001-2019
</metadata>
<g transform="translate(0.000000,498.000000) scale(0.100000,-0.100000)"
fill="#000000" stroke="none">
<path d="M0 2490 l0 -2490 2490 0 2490 0 0 2490 0 2490 -2490 0 -2490 0 0
-2490z m4130 1513 c-4 -21 -13 -65 -18 -98 -16 -93 -39 -218 -67 -362 -14 -72
-25 -141 -25 -153 0 -12 -5 -31 -11 -42 -10 -19 -14 -17 -70 38 l-60 59 -72
-80 c-40 -44 -133 -145 -207 -225 -74 -81 -159 -173 -189 -206 -103 -114 -217
-239 -361 -393 -80 -86 -162 -177 -184 -201 -21 -25 -70 -79 -110 -121 -39
-41 -111 -119 -159 -172 -49 -53 -94 -97 -101 -97 -8 0 -49 39 -92 88 -43 48
-107 119 -144 157 -36 39 -101 111 -145 160 -138 153 -238 260 -252 268 -16
10 -25 -12 -42 -103 -7 -36 -16 -74 -20 -85 -5 -11 -15 -51 -24 -90 -22 -97
-66 -283 -77 -325 -5 -19 -17 -64 -25 -100 -9 -36 -20 -81 -25 -100 -5 -19
-16 -63 -24 -97 -9 -35 -16 -72 -16 -83 0 -11 -4 -28 -9 -38 -5 -9 -15 -44
-22 -77 l-14 -60 -232 -3 c-269 -3 -246 -15 -212 114 12 43 25 97 29 119 4 22
17 78 29 125 12 47 28 112 37 145 8 33 19 76 24 95 9 38 21 85 45 195 9 39 27
113 40 165 13 52 36 145 50 205 14 61 37 153 50 205 13 52 31 129 40 170 10
41 21 83 26 92 5 10 9 26 9 35 0 19 34 165 76 320 13 51 24 103 24 115 0 18
23 0 113 -93 61 -64 216 -224 342 -355 408 -423 429 -444 440 -444 6 0 69 62
140 137 72 76 177 187 235 248 111 116 177 186 405 429 77 82 168 177 203 211
34 34 62 66 62 71 0 5 -28 36 -61 70 l-62 62 59 12 c33 6 86 17 119 25 33 7
116 25 185 39 69 14 166 34 215 45 50 11 102 20 116 20 26 1 27 0 19 -36z
m-552 -1340 c7 -32 38 -159 68 -283 30 -124 64 -261 74 -305 11 -44 40 -165
66 -270 26 -104 50 -208 55 -230 4 -22 12 -57 17 -78 l10 -37 -230 2 c-193 3
-232 5 -238 18 -4 8 -15 49 -24 90 -19 82 -62 265 -76 320 -5 19 -21 85 -35
145 -14 61 -32 135 -40 165 -8 30 -17 76 -20 102 l-7 46 109 114 c60 62 140
146 178 186 37 39 71 72 74 72 4 0 12 -26 19 -57z"/>
</g>
</svg>
