<?xml version="1.0" encoding="UTF-8"?>
<svg width="260px" height="260px" viewBox="0 0 260 260" version="1.1" xmlns="http://www.w3.org/2000/svg" xmlns:xlink="http://www.w3.org/1999/xlink">
    <title>05.AboutUs_00_milestone_2021_Navicat</title>
    <defs>
        <linearGradient x1="0%" y1="1.89446465%" x2="100%" y2="98.1055354%" id="linearGradient-1">
            <stop stop-color="#DBBB42" offset="0%"></stop>
            <stop stop-color="#F8D957" offset="37.7731643%"></stop>
            <stop stop-color="#FFE36C" offset="50.2431163%"></stop>
            <stop stop-color="#F5CC52" offset="66.6876093%"></stop>
            <stop stop-color="#C89225" offset="100%"></stop>
        </linearGradient>
        <path d="M93.5857133,54.4846307 C95.8064609,54.2651404 97.4769593,52.4278963 97.5462836,50.2551005 L97.5456911,50.1080499 C97.5150778,42.3712152 96.736315,34.6004306 95.2220432,26.9482734 L94.5902243,23.757177 C93.3678651,17.582434 87.352254,13.5538401 81.1808113,14.7766299 C80.7453125,14.8628864 80.3141588,14.9742106 79.897818,15.1072469 C65.4469604,20.1257183 53.2057902,29.4378694 44.4632257,42.0510595 C35.7609523,54.6066136 31.3307149,69.2607473 31.645538,84.4385391 L31.7170349,85.3903215 C31.7958394,85.9362838 31.973594,86.4496779 32.2453611,86.9178712 C34.2618884,90.3931996 33.0804128,94.8457729 29.6070876,96.8630306 C26.13396,98.8802884 21.6827869,97.6987517 19.6664571,94.2236207 C18.371811,91.9925968 17.56125,89.5558995 17.2568946,86.9806391 C17.2446492,86.8779997 17.234774,86.7745709 17.2272688,86.6713394 L17.1269362,85.3350542 C17.1172584,85.2099132 17.1113333,85.0851669 17.1083707,84.9596311 C16.6819571,66.6175871 22.0076829,48.9128938 32.5106105,33.7593802 C43.0374362,18.5719167 57.7894891,7.36271431 75.1727053,1.34489111 C75.2145764,1.33048213 75.2939735,1.30344061 75.3358446,1.28982116 C76.3180376,0.969665388 77.3342014,0.704776949 78.3555004,0.502261645 C85.1573795,-0.844484868 92.0751941,0.538185412 97.8362211,4.39643751 C103.597446,8.25508438 107.5118,14.1270413 108.85839,20.9310423 L109.490011,24.1221387 C111.501996,34.2899466 112.354033,44.6519797 112.021632,54.9194662 C112.018669,55.0173683 112.013534,55.115073 112.006029,55.2129752 L111.995166,55.3645656 C111.66316,62.462273 106.115043,68.3190314 99.026782,69.0199397 C98.719464,69.0505341 98.4079984,69.0710619 98.0991004,69.0817206 C97.9237159,69.0874448 97.7483313,69.08705 97.5727493,69.080339 L97.4516786,69.0757991 C96.2767206,69.0325722 95.0802346,69.0177684 93.8971789,69.0331643 L91.1319096,69.2877888 C90.9954335,69.3004214 90.8585625,69.3091062 90.7214939,69.3140408 C70.5905864,70.0238313 53.8686174,85.0407556 50.9603544,105.020884 C49.6418101,114.078805 51.2647098,123.093697 55.6534712,131.09167 C59.9033865,138.836992 66.6236959,145.148324 74.5760423,148.862289 L76.7888898,149.88434 C82.0275158,151.97917 87.5418589,153.457768 93.1822103,154.279672 C115.626693,157.54913 137.782225,150.291739 153.979028,134.365075 L154.739226,133.579884 C157.99411,130.176403 160.094775,125.861406 160.78308,121.134075 C161.47099,116.408916 160.688278,111.675663 158.520264,107.445541 L158.364235,107.141176 C150.839684,93.0416892 138.709315,81.7193862 124.202168,75.2564636 C124.129091,75.223698 124.056212,75.1901428 123.984517,75.1550086 L123.627231,74.9815086 C119.084613,72.7751577 116.07661,68.4585814 115.580279,63.4349781 C115.449926,62.112115 115.501672,60.7817513 115.734136,59.4802056 C115.750726,59.3862511 115.769292,59.2926914 115.789832,59.1995265 L115.837036,58.9841812 C119.072367,44.1713513 124.74827,30.0726542 132.705554,17.0873966 C132.726094,17.0538414 132.746832,17.0202863 132.767965,16.9873232 L132.985221,16.6450605 C135.085293,13.2909255 138.512204,10.9276548 142.393378,10.1590441 C146.126817,9.41786962 149.926816,10.1639786 153.104278,12.2556499 L153.291711,12.3742773 C153.403103,12.4443483 153.512719,12.5179723 153.620162,12.5943597 C171.697411,25.4444097 184.026076,44.5114428 188.334848,66.2830223 C189.643122,72.8912191 190.182508,79.6275176 189.938787,86.3036142 L189.929899,86.5381056 C189.924566,86.6752871 189.915284,86.8126659 189.902446,86.9496499 C189.58466,90.2836519 188.375139,93.4850122 186.404235,96.207718 C184.048394,99.4621744 179.501233,100.189532 176.248521,97.8335645 C172.995019,95.4766101 172.267806,90.9279111 174.623449,87.6732572 C175.04374,87.0927528 175.312347,86.4212547 175.405372,85.7231098 C175.60426,80.1963764 175.154145,74.60273 174.066682,69.1097491 C170.821871,52.7131152 162.109129,38.1620156 149.330153,27.6237192 L149.230215,27.5459501 C148.369488,26.8669514 147.254966,26.5075164 146.077836,26.6239726 C144.605435,26.7694441 143.374978,27.6262851 142.692598,28.8206517 L142.621891,28.9349367 C137.400251,38.2774848 133.460813,48.2115908 130.872509,58.5651364 L130.855523,58.6776449 C130.780866,59.0775436 130.761116,59.4944172 130.802987,59.9193835 C130.952893,61.4366692 131.856874,62.6973566 133.107082,63.3662887 C133.148953,63.3887904 133.191416,63.4105026 133.234077,63.4316226 L133.318215,63.4695202 C149.368469,71.4402541 162.744898,84.4239327 171.226361,100.346452 C171.244334,100.380599 171.262702,100.414746 171.28028,100.449289 L171.463762,100.806947 C175.018262,107.742405 176.302243,115.497005 175.176266,123.231273 C174.049697,130.969687 170.606195,138.037984 165.217663,143.672292 L164.365625,144.552227 C164.325927,144.593282 164.286228,144.633351 164.24574,144.673025 C154.935941,153.847995 143.487359,160.902475 131.137363,165.074172 C122.208749,168.089992 113.032068,169.603725 103.732934,169.603725 C99.5383203,169.603725 95.3200058,169.296005 91.0862859,168.679182 C84.2443133,167.682396 77.5514571,165.878312 71.192977,163.316868 C71.0811891,163.272062 70.9703888,163.224296 70.8609709,163.173766 L68.4514084,162.060918 C57.6923166,157.035539 48.6292014,148.528909 42.9033302,138.094041 C36.9801515,127.299936 34.7892271,115.138557 36.5671683,102.924081 C40.4785598,76.0511289 62.9311401,55.8355222 89.9962551,54.7795214 L92.842699,54.5171989 C93.0244037,54.5006187 93.2065034,54.4907495 93.3889982,54.4877888 L93.5857133,54.4846307 Z" id="path-2"></path>
        <filter x="-0.9%" y="-0.9%" width="101.7%" height="101.8%" filterUnits="objectBoundingBox" id="filter-3">
            <feOffset dx="0" dy="0" in="SourceAlpha" result="shadowOffsetOuter1"></feOffset>
            <feGaussianBlur stdDeviation="0.5" in="shadowOffsetOuter1" result="shadowBlurOuter1"></feGaussianBlur>
            <feColorMatrix values="0 0 0 0 0   0 0 0 0 0   0 0 0 0 0  0 0 0 0.5 0" type="matrix" in="shadowBlurOuter1"></feColorMatrix>
        </filter>
    </defs>
    <g id="05.AboutUs_00_milestone_2021_Navicat" stroke="none" stroke-width="1" fill="none" fill-rule="evenodd">
        <g id="Navicat" transform="translate(25.000000, 10.000000)">
            <path d="M28.3065635,239.385019 C27.7732514,239.385019 27.3219874,239.221025 26.9527713,238.893035 C26.5835553,238.565045 26.2143393,238.114059 25.8451232,237.540078 L5.84592073,207.467525 L5.84592073,237.724572 C5.84592073,238.175557 5.68182471,238.565045 5.35363266,238.893035 C5.02544062,239.221025 4.63571258,239.385019 4.18444852,239.385019 L1.66147221,239.385019 C1.21020815,239.385019 0.820480102,239.221025 0.492288061,238.893035 C0.16409602,238.565045 0,238.175557 0,237.724572 L0,197.996823 C0,197.545838 0.16409602,197.15635 0.492288061,196.82836 C0.820480102,196.500371 1.21020815,196.336376 1.66147221,196.336376 L3.81523247,196.336376 C4.34854454,196.336376 4.7998086,196.500371 5.16902464,196.82836 C5.53824069,197.15635 5.90745673,197.607336 6.27667278,198.181318 L26.2758753,228.25387 L26.2758753,197.996823 C26.2758753,197.545838 26.4399713,197.15635 26.7681633,196.82836 C27.0963554,196.500371 27.4860834,196.336376 27.9373475,196.336376 L30.4603238,196.336376 C30.9115878,196.336376 31.3013159,196.500371 31.6295079,196.82836 C31.9577,197.15635 32.121796,197.545838 32.121796,197.996823 L32.121796,237.724572 C32.121796,238.175557 31.9577,238.565045 31.6295079,238.893035 C31.3013159,239.221025 30.9115878,239.385019 30.4603238,239.385019 L28.3065635,239.385019 Z" id="N" fill="#424E54" fill-rule="nonzero"></path>
            <path d="M61.104747,219.152157 L61.104747,218.352682 C61.104747,216.343745 60.4381069,214.796044 59.1048268,213.709578 C57.7715466,212.623113 56.0382824,212.07988 53.9050341,212.07988 C52.2640739,212.07988 50.9820738,212.356621 50.0590337,212.910104 C49.1359935,213.463586 48.2642334,214.29381 47.4437533,215.400775 C47.1976093,215.728765 46.9309533,215.954258 46.6437852,216.077254 C46.3566172,216.20025 45.9668891,216.261748 45.4746011,216.261748 L43.6285209,216.261748 C43.1772568,216.261748 42.7772727,216.097753 42.4285687,215.769763 C42.0798647,215.441774 41.9260246,215.052286 41.9670486,214.6013 C42.0901207,213.371339 42.6952247,212.151627 43.7823609,210.942166 C44.869497,209.732704 46.3155932,208.738485 48.1206494,207.95951 C49.9257056,207.180534 51.8538339,206.791046 53.9050341,206.791046 C57.7202666,206.791046 60.807323,207.857013 63.1662033,209.988946 C65.5250836,212.120878 66.7045237,215.113784 66.7045237,218.967663 L66.7045237,237.724572 C66.7045237,238.175557 66.5404277,238.565045 66.2122357,238.893035 C65.8840436,239.221025 65.4943156,239.385019 65.0430515,239.385019 L62.7662192,239.385019 C62.3149552,239.385019 61.9252271,239.221025 61.5970351,238.893035 C61.268843,238.565045 61.104747,238.175557 61.104747,237.724572 L61.104747,235.203151 C60.4483629,236.679105 59.0535468,237.847568 56.9202985,238.708541 C54.7870502,239.569514 52.653802,240 50.5205537,240 C48.4283294,240 46.5617372,239.620762 44.920777,238.862286 C43.2798168,238.10381 42.0183287,237.068592 41.1363125,235.756634 C40.2542964,234.444675 39.8132884,232.968722 39.8132884,231.328773 C39.8132884,228.25387 40.9619605,225.845196 43.2593048,224.102751 C45.5566491,222.360306 48.6129375,221.181593 52.4281699,220.566612 L61.104747,219.152157 Z M61.104747,224.072002 L53.8434981,225.240465 C51.1769378,225.650452 49.1052255,226.316681 47.6283613,227.239152 C46.1514972,228.161623 45.4130651,229.319837 45.4130651,230.713793 C45.4130651,231.73876 45.8848411,232.661231 46.8283933,233.481205 C47.7719454,234.30118 49.2077855,234.711167 51.1359138,234.711167 C54.0896422,234.711167 56.4895464,233.870693 58.3356267,232.189746 C60.1817069,230.508799 61.104747,228.315368 61.104747,225.609453 L61.104747,224.072002 Z" id="a" fill="#424E54" fill-rule="nonzero"></path>
            <path d="M88.6723699,239.385019 C89.49285,239.385019 90.1082101,238.872536 90.5184501,237.847568 L102.764116,209.312467 C102.80514,209.189471 102.825652,209.045975 102.825652,208.88198 C102.825652,208.471993 102.682068,208.123504 102.3949,207.836513 C102.107732,207.549522 101.759028,207.406027 101.348787,207.406027 L98.8258111,207.406027 C98.005331,207.406027 97.410483,207.898011 97.0412669,208.88198 L87.5031857,231.205777 L77.9651046,208.88198 C77.5958885,207.898011 76.9189924,207.406027 75.9344163,207.406027 L73.657584,207.406027 C73.247344,207.406027 72.8986399,207.549522 72.6114719,207.836513 C72.3243039,208.123504 72.1807198,208.471993 72.1807198,208.88198 C72.1807198,209.045975 72.2012318,209.189471 72.2422558,209.312467 L84.4879214,237.847568 C84.8981614,238.872536 85.5340335,239.385019 86.3955376,239.385019 L88.6723699,239.385019 Z" id="v" fill="#424E54" fill-rule="nonzero"></path>
            <path d="M115.624633,200.887232 C115.624633,201.338218 115.460537,201.727706 115.132345,202.055696 C114.804153,202.383685 114.414425,202.54768 113.96316,202.54768 L110.455608,202.54768 C110.004344,202.54768 109.614616,202.383685 109.286424,202.055696 C108.958232,201.727706 108.794136,201.338218 108.794136,200.887232 L108.794136,197.381843 C108.794136,196.930857 108.958232,196.541369 109.286424,196.21338 C109.614616,195.88539 110.004344,195.721395 110.455608,195.721395 L113.96316,195.721395 C114.414425,195.721395 114.804153,195.88539 115.132345,196.21338 C115.460537,196.541369 115.624633,196.930857 115.624633,197.381843 L115.624633,200.887232 Z M115.009273,237.724572 C115.009273,238.175557 114.845177,238.565045 114.516985,238.893035 C114.188792,239.221025 113.799064,239.385019 113.3478,239.385019 L111.070968,239.385019 C110.619704,239.385019 110.229976,239.221025 109.901784,238.893035 C109.573592,238.565045 109.409496,238.175557 109.409496,237.724572 L109.409496,209.066475 C109.409496,208.615489 109.573592,208.226001 109.901784,207.898011 C110.229976,207.570022 110.619704,207.406027 111.070968,207.406027 L113.3478,207.406027 C113.799064,207.406027 114.188792,207.570022 114.516985,207.898011 C114.845177,208.226001 115.009273,208.615489 115.009273,209.066475 L115.009273,237.724572 Z" id="i" fill="#424E54" fill-rule="nonzero"></path>
            <path d="M137.223263,234.711167 C141.325663,234.711167 144.094784,233.112217 145.530624,229.914318 C145.817792,229.299337 146.10496,228.868851 146.392128,228.622858 C146.679296,228.376866 147.069024,228.25387 147.561312,228.25387 L149.407392,228.25387 C149.858656,228.25387 150.248384,228.407615 150.576576,228.715106 C150.904768,229.022596 151.068865,229.381335 151.068865,229.791322 C151.068865,231.185278 150.51504,232.681731 149.407392,234.28068 C148.299744,235.87963 146.699808,237.232587 144.607584,238.339552 C142.515359,239.446517 140.053919,240 137.223263,240 C134.310558,240 131.787582,239.385019 129.654334,238.155058 C127.521086,236.925097 125.880125,235.2339 124.731453,233.081468 C123.582781,230.929036 122.946909,228.520362 122.823837,225.855446 C122.782813,225.363461 122.762301,224.420491 122.762301,223.026535 C122.762301,222.042566 122.782813,221.345588 122.823837,220.935601 C123.193053,216.753732 124.608381,213.35084 127.069822,210.726922 C129.531262,208.103005 132.915742,206.791046 137.223263,206.791046 C140.053919,206.791046 142.505103,207.334279 144.576816,208.420745 C146.648528,209.507211 148.227952,210.839669 149.315088,212.418119 C150.402224,213.996569 150.986816,215.482772 151.068865,216.876729 C151.109889,217.327714 150.956048,217.717202 150.607344,218.045192 C150.25864,218.373181 149.858656,218.537176 149.407392,218.537176 L147.561312,218.537176 C147.069024,218.537176 146.679296,218.41418 146.392128,218.168188 C146.10496,217.922196 145.817792,217.491709 145.530624,216.876729 C144.094784,213.678829 141.325663,212.07988 137.223263,212.07988 C134.966943,212.07988 132.99779,212.838356 131.315806,214.355308 C129.633822,215.87226 128.669758,218.168188 128.423614,221.243091 C128.38259,221.694077 128.362078,222.432054 128.362078,223.457021 C128.362078,224.399992 128.38259,225.09697 128.423614,225.547955 C128.710782,228.622858 129.685102,230.918786 131.346574,232.435738 C133.008046,233.952691 134.966943,234.711167 137.223263,234.711167 Z" id="c" fill="#424E54" fill-rule="nonzero"></path>
            <path d="M177.528839,219.152157 L177.528839,218.352682 C177.528839,216.343745 176.862199,214.796044 175.528919,213.709578 C174.195639,212.623113 172.462375,212.07988 170.329126,212.07988 C168.688166,212.07988 167.406166,212.356621 166.483126,212.910104 C165.560086,213.463586 164.688326,214.29381 163.867846,215.400775 C163.621701,215.728765 163.355045,215.954258 163.067877,216.077254 C162.780709,216.20025 162.390981,216.261748 161.898693,216.261748 L160.052613,216.261748 C159.601349,216.261748 159.201365,216.097753 158.852661,215.769763 C158.503957,215.441774 158.350117,215.052286 158.391141,214.6013 C158.514213,213.371339 159.119317,212.151627 160.206453,210.942166 C161.293589,209.732704 162.739685,208.738485 164.544742,207.95951 C166.349798,207.180534 168.277926,206.791046 170.329126,206.791046 C174.144359,206.791046 177.231415,207.857013 179.590295,209.988946 C181.949176,212.120878 183.128616,215.113784 183.128616,218.967663 L183.128616,237.724572 C183.128616,238.175557 182.96452,238.565045 182.636328,238.893035 C182.308136,239.221025 181.918408,239.385019 181.467144,239.385019 L179.190311,239.385019 C178.739047,239.385019 178.349319,239.221025 178.021127,238.893035 C177.692935,238.565045 177.528839,238.175557 177.528839,237.724572 L177.528839,235.203151 C176.872455,236.679105 175.477639,237.847568 173.344391,238.708541 C171.211142,239.569514 169.077894,240 166.944646,240 C164.852422,240 162.985829,239.620762 161.344869,238.862286 C159.703909,238.10381 158.442421,237.068592 157.560405,235.756634 C156.678389,234.444675 156.237381,232.968722 156.237381,231.328773 C156.237381,228.25387 157.386053,225.845196 159.683397,224.102751 C161.980741,222.360306 165.03703,221.181593 168.852262,220.566612 L177.528839,219.152157 Z M177.528839,224.072002 L170.26759,225.240465 C167.60103,225.650452 165.529318,226.316681 164.052454,227.239152 C162.575589,228.161623 161.837157,229.319837 161.837157,230.713793 C161.837157,231.73876 162.308933,232.661231 163.252485,233.481205 C164.196038,234.30118 165.631878,234.711167 167.560006,234.711167 C170.513734,234.711167 172.913639,233.870693 174.759719,232.189746 C176.605799,230.508799 177.528839,228.315368 177.528839,225.609453 L177.528839,224.072002 Z" id="a" fill="#424E54" fill-rule="nonzero"></path>
            <path d="M200.173581,228.622858 C200.173581,230.385803 200.532542,231.73876 201.250462,232.681731 C201.968382,233.624701 203.33243,234.096186 205.342606,234.096186 L208.604015,234.096186 C209.055279,234.096186 209.445007,234.260181 209.773199,234.588171 C210.101391,234.91616 210.265487,235.305648 210.265487,235.756634 L210.265487,237.724572 C210.265487,238.175557 210.101391,238.565045 209.773199,238.893035 C209.445007,239.221025 209.055279,239.385019 208.604015,239.385019 L204.727246,239.385019 C201.240206,239.385019 198.676205,238.472798 197.035245,236.648356 C195.394285,234.823913 194.573805,232.148747 194.573805,228.622858 L194.573805,212.69486 L190.02014,212.69486 C189.568876,212.69486 189.179148,212.530866 188.850956,212.202876 C188.522764,211.874886 188.358668,211.485398 188.358668,211.034413 L188.358668,209.066475 C188.358668,208.615489 188.522764,208.226001 188.850956,207.898011 C189.179148,207.570022 189.568876,207.406027 190.02014,207.406027 L194.573805,207.406027 L194.573805,197.381843 C194.573805,196.930857 194.737901,196.541369 195.066093,196.21338 C195.394285,195.88539 195.784013,195.721395 196.235277,195.721395 L198.512109,195.721395 C198.963373,195.721395 199.353101,195.88539 199.681293,196.21338 C200.009485,196.541369 200.173581,196.930857 200.173581,197.381843 L200.173581,207.406027 L207.988654,207.406027 C208.439918,207.406027 208.829647,207.570022 209.157839,207.898011 C209.486031,208.226001 209.650127,208.615489 209.650127,209.066475 L209.650127,211.034413 C209.650127,211.485398 209.486031,211.874886 209.157839,212.202876 C208.829647,212.530866 208.439918,212.69486 207.988654,212.69486 L200.173581,212.69486 L200.173581,228.622858 Z" id="t" fill="#424E54" fill-rule="nonzero"></path>
            <g>
                <use fill="black" fill-opacity="1" filter="url(#filter-3)" xlink:href="#path-2"></use>
                <use fill="url(#linearGradient-1)" fill-rule="evenodd" xlink:href="#path-2"></use>
            </g>
        </g>
    </g>
</svg>