<?xml version="1.0" encoding="UTF-8"?>
<svg version="1.1" xmlns="http://www.w3.org/2000/svg" width="501" height="498">
<path d="M0 0 C1.27152745 -0.00507454 2.54305489 -0.01014909 3.85311347 -0.0153774 C5.2619195 -0.01597903 6.67072557 -0.01647813 8.07953167 -0.01688576 C9.57799715 -0.02090233 11.07646155 -0.02534088 12.57492465 -0.03016531 C16.69431175 -0.04211533 20.81368715 -0.04777564 24.93308818 -0.05234647 C29.37575507 -0.05830869 33.81840801 -0.06991714 38.26106548 -0.08063698 C48.99255582 -0.10514922 59.72405076 -0.11978767 70.45556048 -0.13269705 C73.48813288 -0.13641024 76.52070483 -0.14038338 79.55327678 -0.14444971 C98.39586223 -0.16969065 117.23844843 -0.19173804 136.08104706 -0.20417786 C140.44477434 -0.20710743 144.80850159 -0.21006911 149.17222881 -0.21308327 C150.25677873 -0.21382932 151.34132865 -0.21457537 152.45874371 -0.21534403 C170.01398555 -0.22798811 187.56912588 -0.2611989 205.12432031 -0.3028851 C223.15955444 -0.345359 241.1947367 -0.3688793 259.2300207 -0.37409842 C269.35133214 -0.37750665 279.47248504 -0.38919219 289.59374714 -0.42220116 C298.21675816 -0.45027804 306.83957815 -0.46116764 315.46263132 -0.4500057 C319.85760427 -0.44483828 324.25217764 -0.44758005 328.64709187 -0.47247124 C332.68125797 -0.49512712 336.71474126 -0.49409903 340.74892064 -0.47526737 C342.19791175 -0.47248999 343.64695082 -0.47793792 345.09586547 -0.4930803 C365.4568832 -0.69262682 382.36966484 6.99990347 397.72911358 20.13701439 C398.73973858 20.90013939 399.75036358 21.66326439 400.79161358 22.44951439 C411.98146423 32.68703732 424.55179114 49.26724249 425.98441458 64.92780942 C425.98690757 65.8946901 425.98940057 66.86157079 425.99196911 67.85775089 C425.9996514 68.98108348 426.00733369 70.10441606 426.01524878 71.26178902 C426.01351581 72.48580306 426.01178285 73.7098171 426.00999737 74.97092247 C426.01593961 76.2791081 426.02188186 77.58729374 426.02800417 78.93512136 C426.04410261 82.5602496 426.04772097 86.18529855 426.0491991 89.8104583 C426.05290747 93.72268672 426.06800577 97.63487434 426.08146954 101.54707909 C426.10860731 110.09883684 426.120681 118.65057581 426.12949085 127.20236945 C426.1350204 132.54437643 426.14349595 137.8863762 426.1524992 143.2283783 C426.17688042 158.02540666 426.19748009 172.82242926 426.20424938 187.61947727 C426.20490808 189.03941523 426.20490808 189.03941523 426.20558009 190.4880388 C426.20601664 191.43689845 426.2064532 192.3857581 426.20690298 193.36337107 C426.20778991 195.2860471 426.20868303 197.20872313 426.20958233 199.13139915 C426.21024662 200.56196253 426.21024662 200.56196253 426.21092433 202.02142618 C426.21881893 217.47193221 426.25372454 232.92224951 426.30030137 248.37268265 C426.34775982 264.2439574 426.37265449 280.11513751 426.37498522 295.98648435 C426.37681695 304.89425554 426.38827659 313.80178077 426.42462444 322.7094841 C426.45546903 330.29510693 426.46564261 337.88040777 426.44914824 345.4660814 C426.44134992 349.3339625 426.44311964 353.20119563 426.47126293 357.06899643 C426.50154439 361.2691917 426.48496535 365.46793568 426.46409893 369.6681881 C426.48021174 370.88104852 426.49632455 372.09390895 426.51292562 373.34352273 C426.37574141 385.17173898 421.19861284 393.39725047 413.21739483 401.84795189 C401.33795479 412.77629076 386.97616049 417.70106749 371.02208233 417.38310814 C354.90919955 416.17894252 342.13693709 408.54541371 331.52989483 396.67607689 C326.56914342 390.74455007 321.98682012 384.51742214 317.37535381 378.31352806 C313.98085582 373.75959467 310.49204228 369.29988236 306.91661358 364.88701439 C302.21095285 359.07363567 297.69491469 353.13632485 293.22911358 347.13701439 C287.36056289 339.25717637 281.3272323 331.54137089 275.15098858 323.90166283 C268.78096251 315.99600547 262.56380112 308.00808394 256.65489483 299.75029564 C253.96690458 296.10269833 251.09528567 292.61558662 248.19786358 289.13310814 C246.72911358 287.13701439 246.72911358 287.13701439 246.72911358 285.13701439 C246.06911358 285.13701439 245.40911358 285.13701439 244.72911358 285.13701439 C243.10411358 283.13701439 243.10411358 283.13701439 241.72911358 281.13701439 C241.72553105 282.26040262 241.72553105 282.26040262 241.72187614 283.40648556 C241.66256161 301.68782983 241.58690738 319.96904098 241.49339867 338.25024319 C241.44856518 347.09115018 241.40912232 355.93201801 241.38267803 364.77300072 C241.3595966 372.48501194 241.32608678 380.19689792 241.28041202 387.9088096 C241.2566156 391.98658049 241.2377984 396.06422839 241.23149967 400.14206696 C241.22538661 403.99251688 241.20516726 407.84265267 241.17483807 411.69298553 C241.16615621 413.09442513 241.16231438 414.49590595 241.16410542 415.89737129 C241.18551599 440.41566226 233.7410032 460.58486887 216.97911358 478.44951439 C205.41309328 489.47167793 190.24319201 498.27137872 174.02873516 498.29764366 C173.24848091 498.30273148 172.46822666 498.3078193 171.66432834 498.3130613 C169.04692776 498.3287704 166.42955477 498.33730701 163.81212139 498.34575462 C161.93603624 498.35529483 160.05995286 498.36518607 158.18387127 498.37540245 C152.0166816 498.40678551 145.84947849 498.42706253 139.68223858 498.44560814 C138.6314421 498.44890546 137.58064562 498.45220278 136.49800682 498.45560002 C126.57780263 498.48639471 116.65759533 498.51309007 106.73735714 498.53001881 C94.07304731 498.55188651 81.40916354 498.59376952 68.74502397 498.66345638 C59.82842135 498.710843 50.91193303 498.73497236 41.9952085 498.74221569 C36.67704851 498.74715217 31.35936869 498.76204028 26.04134655 498.80195999 C21.02773259 498.83909646 16.01486762 498.84714823 11.00114155 498.83395386 C9.17273796 498.83400737 7.34429889 498.8441234 5.51602268 498.86570549 C-15.95110607 499.1053201 -33.23000707 491.40124944 -48.83729267 476.56279564 C-49.64037861 475.76228783 -50.44346455 474.96178001 -51.27088642 474.13701439 C-52.64567158 472.79703392 -52.64567158 472.79703392 -54.04823017 471.42998314 C-67.77869807 457.59597787 -75.7416736 439.17414297 -75.93960345 419.64546633 C-75.92880103 418.27688193 -75.9175181 416.90830125 -75.90580463 415.53972435 C-75.91158371 414.04000645 -75.91953668 412.54029567 -75.92944086 411.04059935 C-75.95009293 406.96866959 -75.94009927 402.89733433 -75.92450976 398.82540393 C-75.91311029 394.41493799 -75.9307012 390.00456821 -75.94440937 385.59412193 C-75.96655532 376.97348058 -75.96187932 368.35305782 -75.94734617 359.73240817 C-75.93601973 352.72156277 -75.9345377 345.71077831 -75.93996525 338.69992638 C-75.94073141 337.69925765 -75.94149758 336.69858893 -75.94228696 335.66759691 C-75.94388571 333.63428213 -75.94550678 331.60096738 -75.94714992 329.56765264 C-75.9613821 310.5347274 -75.94505449 291.50192288 -75.91814809 272.46901745 C-75.89581163 256.16444169 -75.89969247 239.86004397 -75.92274189 223.55547142 C-75.9495447 204.58717373 -75.96000904 185.61898165 -75.94468057 166.65066767 C-75.94308795 164.62514593 -75.9415161 162.59962417 -75.93996525 160.5741024 C-75.93919387 159.57770157 -75.93842249 158.58130074 -75.93762774 157.55470595 C-75.93332417 150.55836838 -75.94056823 143.56209823 -75.95236301 136.5657711 C-75.96643644 128.03082583 -75.96248679 119.49611027 -75.93595929 110.96119106 C-75.92288594 106.61274707 -75.91755692 102.26468502 -75.93420506 97.91624451 C-75.94925357 93.92503486 -75.94067531 89.93455623 -75.91431729 85.94341165 C-75.90879467 84.51024375 -75.91143031 83.07701231 -75.92369623 81.64388627 C-76.08959137 60.62622462 -67.93689633 42.19221263 -53.40369892 27.21245384 C-51.70609797 25.50644668 -49.9922447 23.81899343 -48.27088642 22.13701439 C-47.56061298 21.41771751 -46.85033955 20.69842064 -46.11854267 19.95732689 C-34.16372668 8.6041756 -16.53839348 0.03509805 0 0 Z M-2.64588642 77.13701439 C-5.00231896 81.48735139 -5.39613771 84.82177952 -5.40231419 89.74497414 C-5.40615533 90.89404188 -5.40999648 92.04310963 -5.41395402 93.22699761 C-5.41308754 94.49001128 -5.41222106 95.75302495 -5.41132832 97.05431175 C-5.41391224 98.40912261 -5.41692548 99.76393271 -5.42033172 101.11874175 C-5.42840177 104.84538106 -5.43019129 108.57200111 -5.43092918 112.29864812 C-5.43277973 116.31649686 -5.44032706 120.33433561 -5.4470644 124.35217857 C-5.46064822 133.13938732 -5.4666725 141.92659151 -5.47107506 150.71380901 C-5.47383736 156.20017214 -5.47807469 161.6865335 -5.48257923 167.17289543 C-5.49477189 182.36188331 -5.50507126 197.55086978 -5.50845432 212.73986244 C-5.50867389 213.71205356 -5.50889345 214.68424468 -5.50911967 215.68589614 C-5.50933795 216.66041796 -5.50955623 217.63493977 -5.50978112 218.63899255 C-5.51022459 220.61375634 -5.51067115 222.58852013 -5.5111208 224.56328392 C-5.51134223 225.54283569 -5.51156366 226.52238746 -5.5117918 227.53162262 C-5.51573997 243.40454072 -5.5331946 259.27741292 -5.55648032 275.15031329 C-5.58019231 291.4452592 -5.5926561 307.74018208 -5.59382224 324.03514552 C-5.59473908 333.18478123 -5.60049363 342.33435713 -5.61864185 351.48397636 C-5.63404077 359.27497872 -5.63916453 367.06590279 -5.63090375 374.85691747 C-5.62699652 378.83156836 -5.62793034 382.80606156 -5.6419611 386.78069305 C-5.65469563 390.42144297 -5.65350659 394.06191663 -5.64137039 397.70266613 C-5.63848725 399.63914096 -5.65035258 401.57562053 -5.66279244 403.51205754 C-5.62136416 410.80146175 -5.39904076 417.31210177 -0.58729267 423.19560814 C-0.00850361 423.6506472 0.57028545 424.10568626 1.16661358 424.57451439 C2.03092999 425.2841433 2.03092999 425.2841433 2.91270733 426.00810814 C6.76355771 428.40143235 10.66885872 428.26589031 15.11230755 428.27745628 C17.08296436 428.2860215 17.08296436 428.2860215 19.09343243 428.29475975 C20.54759493 428.29600501 22.00175754 428.29713012 23.45592022 428.2981472 C24.98857015 428.30277683 26.52121894 428.30780168 28.05386639 428.31319237 C32.21485484 428.3262997 36.37582718 428.33275743 40.53683305 428.33720303 C43.13529092 428.3401349 45.73374439 428.34423981 48.33220005 428.3487072 C56.45923182 428.36237433 64.58625353 428.37204627 72.713296 428.37590909 C82.10130333 428.38039575 91.48916549 428.397975 100.87712866 428.42690969 C108.13155164 428.44849475 115.38593366 428.45861158 122.64038843 428.45995021 C126.9748559 428.46100002 131.30918676 428.46694562 135.64362049 428.48476982 C139.71726625 428.50119694 143.79067188 428.50343233 147.86433887 428.49463081 C149.3611544 428.4938577 150.85798257 428.49823915 152.35476589 428.50808907 C154.39410621 428.52072515 156.43354218 428.51317063 158.47290325 428.50450706 C160.18655874 428.50670691 160.18655874 428.50670691 161.93483353 428.50895119 C164.66693753 428.31415374 164.66693753 428.31415374 166.59646797 427.12507725 C168.42646951 423.9129886 168.13895379 420.55817802 168.10765362 416.96051598 C168.11218375 416.1170406 168.11671388 415.27356522 168.12138128 414.40452999 C168.133044 411.56723746 168.12334244 408.73041287 168.1138792 405.8931179 C168.11798277 403.86290748 168.12344236 401.83269941 168.13016033 399.80249596 C168.14190683 395.4235781 168.14436182 391.04478635 168.13980389 386.66585541 C168.13300444 379.73543539 168.14884701 372.80518164 168.16820049 365.8747921 C168.20611089 351.14970855 168.21885154 336.42463924 168.22911358 321.69951439 C168.24018741 305.83394003 168.25562882 289.96844209 168.29982615 274.10292 C168.31814177 267.22103144 168.32208861 260.3393323 168.31489086 253.45742524 C168.31336309 249.16188599 168.32419107 244.86644039 168.33826923 240.57092667 C168.34225393 238.58768506 168.34117774 236.60442538 168.3344965 234.62119102 C168.27601423 215.80654405 170.70809556 199.50344217 184.31895733 185.32451439 C196.53404613 174.23788598 212.53513293 171.27353561 228.52208233 171.95781517 C243.02409136 173.1353013 254.38132341 180.43773648 263.72911358 191.13701439 C266.23641021 194.25766623 268.66707423 197.42339718 271.06895733 200.62529564 C273.83135198 204.3012706 276.71279186 207.87466176 279.60411358 211.44951439 C284.30171603 217.27927826 288.82799748 223.21922532 293.2989378 229.22392845 C299.27271339 237.23443993 305.44378686 245.08684887 311.73301983 252.85185814 C316.60290885 258.87364675 321.35590232 264.91126415 325.79161358 271.26201439 C329.46894199 276.52281087 333.4095087 281.44124886 337.60850811 286.29350853 C341.80357763 291.15695768 345.68383147 296.22328585 349.53770733 301.35967064 C351.47666503 303.81706623 353.498823 305.95056388 355.72911358 308.13701439 C355.77472031 278.52228719 355.81012339 248.90756166 355.83124424 219.29280673 C355.83374571 215.7980048 355.83633435 212.30320294 355.83897686 208.80840111 C355.83950148 208.11263711 355.8400261 207.41687311 355.84056662 206.70002535 C355.84927369 195.42832792 355.86504532 184.15665085 355.88341917 172.88496551 C355.90210983 161.32265947 355.91307879 149.76036777 355.91729057 138.19804692 C355.91990257 131.70220583 355.92606034 125.20641095 355.94057369 118.71058464 C355.95411459 112.60069964 355.9583433 106.49088003 355.95532894 100.38098145 C355.95588067 98.13475311 355.95987883 95.88852267 355.96752453 93.64230728 C355.97743106 90.58266148 355.97509812 87.52326471 355.96962261 84.46361351 C355.97544829 83.56867392 355.98127398 82.67373434 355.9872762 81.75167537 C355.9832941 80.93208 355.979312 80.11248464 355.97520924 79.26805305 C355.9763484 78.20863333 355.9763484 78.20863333 355.97751057 77.12781119 C355.68175642 74.7574668 354.9769943 73.16614667 353.72911358 71.13701439 C351.07777887 69.81134704 349.08531336 70.00788531 346.11457825 70.00279331 C344.91314157 69.99833547 343.71170489 69.99387762 342.47386104 69.98928469 C341.1286321 69.989374 339.78340316 69.98956387 338.43817425 69.98984337 C337.01837983 69.98654566 335.59858636 69.98282029 334.17879409 69.97870189 C330.2632827 69.96866305 326.34778664 69.96496207 322.43226421 69.96231258 C318.21466885 69.95841506 313.99708569 69.94883631 309.7794981 69.94009972 C299.58666371 69.92031898 289.3938283 69.91026676 279.2009795 69.90137193 C274.4036978 69.8969914 269.60641721 69.89162396 264.80913639 69.88638306 C248.86619102 69.86936867 232.92324634 69.85487407 216.98029327 69.84763432 C212.84114678 69.84572435 208.70200029 69.84380403 204.56285381 69.84184837 C203.53405889 69.84136463 202.50526397 69.84088089 201.44529345 69.84038249 C184.77617674 69.83208064 168.10713176 69.80674204 151.43804637 69.7742677 C134.3329501 69.74121503 117.22789029 69.72318715 100.12276191 69.71999007 C90.51535833 69.71782324 80.90805933 69.70904939 71.30068684 69.6835289 C63.11909601 69.66184633 54.93763515 69.65375939 46.75601885 69.66349568 C42.58096178 69.66804758 38.406173 69.66610273 34.23115253 69.64673424 C30.40835566 69.62915283 26.58602377 69.63005905 22.7632223 69.64563153 C21.38092687 69.64801529 19.99859966 69.64364423 18.61635289 69.63180288 C9.55248403 69.55897031 3.29311926 69.63511247 -2.64588642 77.13701439 Z " fill="#30CFAB" transform="translate(75.27088642120361,-0.13701438903808594)"/>
<path d="M0 0 C20.49293765 -1.44090968 37.57385131 6.80583986 53 20 C54.010625 20.763125 55.02125 21.52625 56.0625 22.3125 C67.25235065 32.55002293 79.82267756 49.1302281 81.255301 64.79079503 C81.25779399 65.75767572 81.26028699 66.7245564 81.26285553 67.7207365 C81.27053782 68.84406909 81.27822011 69.96740167 81.2861352 71.12477463 C81.28440223 72.34878867 81.28266927 73.57280271 81.28088379 74.83390808 C81.28682603 76.14209371 81.29276828 77.45027935 81.29889059 78.79810697 C81.31498903 82.42323521 81.31860739 86.04828416 81.32008553 89.67344391 C81.3237939 93.58567233 81.33889219 97.49785996 81.35235596 101.4100647 C81.37949373 109.96182245 81.39156742 118.51356142 81.40037727 127.06535506 C81.40590683 132.40736204 81.41438237 137.74936181 81.42338562 143.09136391 C81.44776684 157.88839227 81.46836651 172.68541487 81.4751358 187.48246288 C81.4757945 188.90240084 81.4757945 188.90240084 81.47646651 190.35102441 C81.47690306 191.29988406 81.47733962 192.24874371 81.4777894 193.22635669 C81.47867633 195.14903271 81.47956945 197.07170874 81.48046875 198.99438477 C81.48113304 200.42494814 81.48113304 200.42494814 81.48181075 201.88441179 C81.48970535 217.33491782 81.52461096 232.78523512 81.57118779 248.23566826 C81.61864624 264.10694301 81.64354091 279.97812312 81.64587164 295.84946996 C81.64770337 304.75724115 81.65916301 313.66476638 81.69551086 322.57246971 C81.72635545 330.15809254 81.73652903 337.74339338 81.72003466 345.32906701 C81.71223634 349.19694811 81.71400606 353.06418124 81.74214935 356.93198204 C81.77243081 361.13217731 81.75585177 365.33092129 81.73498535 369.53117371 C81.75109816 370.74403413 81.76721097 371.95689456 81.78381205 373.20650834 C81.64662783 385.0347246 76.46949926 393.26023608 68.48828125 401.7109375 C56.60884122 412.63927637 42.24704691 417.5640531 26.29296875 417.24609375 C10.18008597 416.04192813 -2.59217648 408.40839932 -13.19921875 396.5390625 C-18.15997016 390.60753568 -22.74229346 384.38040775 -27.35375977 378.17651367 C-30.74825776 373.62258028 -34.2370713 369.16286797 -37.8125 364.75 C-42.51816073 358.93662128 -47.03419889 352.99931046 -51.5 347 C-57.36855069 339.12016198 -63.40188128 331.4043565 -69.578125 323.76464844 C-75.94815107 315.85899109 -82.16531246 307.87106955 -88.07421875 299.61328125 C-90.762209 295.96568394 -93.63382791 292.47857223 -96.53125 288.99609375 C-98 287 -98 287 -98 285 C-98.66 285 -99.32 285 -100 285 C-101.625 283 -101.625 283 -103 281 C-103.00238835 281.74892549 -103.00477671 282.49785097 -103.00723743 283.26947117 C-103.06655197 301.55081544 -103.1422062 319.8320266 -103.23571491 338.1132288 C-103.2805484 346.95413579 -103.31999126 355.79500362 -103.34643555 364.63598633 C-103.36951698 372.34799755 -103.4030268 380.05988353 -103.44870156 387.77179521 C-103.47249798 391.8495661 -103.49131517 395.927214 -103.49761391 400.00505257 C-103.50372697 403.85550249 -103.52394632 407.70563828 -103.55427551 411.55597115 C-103.56295737 412.95741074 -103.5667992 414.35889156 -103.56500816 415.7603569 C-103.54359759 440.27864788 -110.98811038 460.44785449 -127.75 478.3125 C-137.81741802 487.90652845 -152.97895748 498.2001503 -167.328125 498.09765625 C-168.12734375 498.09443359 -168.9265625 498.09121094 -169.75 498.08789062 C-170.575 498.07951172 -171.4 498.07113281 -172.25 498.0625 C-173.09046875 498.05798828 -173.9309375 498.05347656 -174.796875 498.04882812 C-176.86461401 498.03707961 -178.93231624 498.01914522 -181 498 C-180.2884375 497.1646875 -180.2884375 497.1646875 -179.5625 496.3125 C-176.83818152 492.28050866 -176.86880897 488.0074533 -176.80712891 483.24755859 C-176.78303452 481.5508754 -176.78303452 481.5508754 -176.75845337 479.81991577 C-176.71390727 474.69148749 -176.67257312 469.56314381 -176.64990234 464.43457031 C-176.6365121 461.72426994 -176.60855362 459.01471345 -176.56787109 456.3046875 C-176.5092499 452.39845685 -176.49127203 448.49259302 -176.4765625 444.5859375 C-176.45389313 443.37030121 -176.43122375 442.15466492 -176.40786743 440.90219116 C-176.41071747 439.77737335 -176.4135675 438.65255554 -176.41650391 437.49365234 C-176.40841705 436.50279633 -176.4003302 435.51194031 -176.39199829 434.49105835 C-176.77820084 431.74355579 -176.77820084 431.74355579 -179.53646851 430.15664673 C-180.7559166 429.5841066 -180.7559166 429.5841066 -182 429 C-180.68 428.34 -179.36 427.68 -178 427 C-177.99761165 425.92877773 -177.99522329 424.85755547 -177.99276257 423.75387192 C-177.93391121 397.66249892 -177.8579935 371.57121785 -177.76428509 345.47994614 C-177.71936118 332.86229031 -177.6799386 320.24466249 -177.65356445 307.62695312 C-177.63055687 296.62657645 -177.59712788 285.62628866 -177.55129844 274.62598252 C-177.52740359 268.80394319 -177.50865028 262.9819917 -177.50238609 257.15990448 C-177.49631839 251.67369877 -177.47625753 246.1877177 -177.44572449 240.70159531 C-177.43697127 238.69418017 -177.43321602 236.68673565 -177.43499184 234.67930222 C-177.44680654 215.15127325 -174.74631024 199.05027704 -160.6328125 184.41015625 C-148.36016143 173.1754 -132.34843417 170.12991024 -116.20703125 170.82080078 C-101.03817949 172.052431 -89.7859339 179.92563593 -80 191 C-77.47330367 194.12790381 -75.0326971 197.30385338 -72.625 200.5234375 C-69.87875708 204.19133619 -67.00661815 207.75063559 -64.125 211.3125 C-59.42731034 217.14219033 -54.90111311 223.08221495 -50.43017578 229.08691406 C-44.45640019 237.09742554 -38.28532672 244.94983448 -31.99609375 252.71484375 C-27.12620473 258.73663236 -22.37321126 264.77424976 -17.9375 271.125 C-14.2609208 276.38472466 -10.31864703 281.29943561 -6.125 286.15429688 C-2.76825687 290.05137045 0.43436134 294.04225158 3.5625 298.125 C3.98015625 298.66970947 4.3978125 299.21441895 4.828125 299.77563477 C6.6299508 302.14277592 8.34902001 304.52353002 10 307 C10 229.45 10 151.9 10 72 C10.66 72 11.32 72 12 72 C11.89221925 64.5412771 11.77953075 57.08264512 11.66066074 49.62409019 C11.60561086 46.16039427 11.55222075 42.69668968 11.50268555 39.23291016 C11.4455999 35.2463354 11.38118395 31.25989498 11.31640625 27.2734375 C11.29133751 25.41687027 11.29133751 25.41687027 11.26576233 23.52279663 C11.24581711 22.3620462 11.22587189 21.20129578 11.20532227 20.00537109 C11.18977798 18.98833099 11.1742337 17.97129089 11.15821838 16.9234314 C10.99392185 13.88769279 10.55443998 10.98710247 10 8 C9.34 8 8.68 8 8 8 C7.566875 7.401875 7.13375 6.80375 6.6875 6.1875 C4.75008133 3.67603136 2.73409201 2.55178195 0 1 C0 0.67 0 0.34 0 0 Z " fill="#63F555" transform="translate(420,0)"/>
<path d="M0 0 C2.31 0.33 4.62 0.66 7 1 C7 1.66 7 2.32 7 3 C7.5394223 2.83766876 8.0788446 2.67533752 8.63461304 2.50808716 C11.42878792 1.90789599 13.98688207 1.87279932 16.84619141 1.87060547 C18.03169586 1.86745331 19.21720032 1.86430115 20.43862915 1.86105347 C21.72989716 1.8630777 23.02116516 1.86510193 24.3515625 1.8671875 C25.72496559 1.86651092 27.09836856 1.86553797 28.47177124 1.86428833 C31.3788159 1.86280924 34.28582999 1.86496023 37.19287109 1.86962891 C40.73821677 1.87506596 44.28348567 1.87228504 47.8288281 1.86628526 C62.93235426 1.8457937 78.01952269 1.99575988 93.1172688 2.41939652 C119.18115569 3.13370893 145.24556136 3.21827431 171.31766939 3.30332303 C177.20609898 3.32335208 183.09451158 3.34734341 188.98292653 3.37124526 C200.60628235 3.41830322 212.22964855 3.46172396 223.85302734 3.50268555 C235.10954588 3.54236248 246.36605542 3.58385936 257.62255859 3.62768555 C258.32242915 3.63040982 259.02229972 3.63313409 259.74337848 3.63594092 C263.2562209 3.64962562 266.76906319 3.66334486 270.28190541 3.67708123 C299.18791764 3.79006898 328.09395042 3.89701875 357 4 C357.33 5.32 357.66 6.64 358 8 C357.19131327 7.75665246 357.19131327 7.75665246 356.36628944 7.50838882 C353.56731529 6.90703924 351.00385252 6.87069238 348.13936901 6.86577892 C346.93395024 6.86132108 345.72853146 6.85686324 344.48658484 6.85227031 C343.14724043 6.8523596 341.80789602 6.85254944 340.46855164 6.85282898 C339.04703112 6.84952929 337.62551153 6.84580349 336.20399314 6.8416875 C332.29300044 6.83167173 328.38202309 6.8279514 324.47101939 6.82529819 C320.25482254 6.821394 316.03863783 6.81181587 311.82244873 6.80308533 C301.63934853 6.78332632 291.45624735 6.77325636 281.27313277 6.76435754 C276.47884396 6.75997455 271.68455626 6.75460785 266.89026833 6.74936867 C250.95582019 6.73235853 235.02137274 6.71786327 219.08691692 6.71061993 C214.95223172 6.70871001 210.81754651 6.70678968 206.68286133 6.70483398 C205.65519741 6.70435024 204.62753349 6.7038665 203.56872825 6.7033681 C186.91267174 6.69506367 170.25668695 6.66971883 153.60066178 6.63725331 C136.50454228 6.60420123 119.40845927 6.58617293 102.31230766 6.58297569 C92.71164076 6.5808091 83.11107852 6.57203845 73.51044273 6.54651451 C65.33621992 6.52483298 57.16212719 6.5167446 48.98787888 6.52648129 C44.81685834 6.53103313 40.64610635 6.52908861 36.47512245 6.50971985 C32.65610607 6.49213849 28.83755514 6.49304459 25.01853416 6.50861714 C22.98388367 6.51212941 20.94922857 6.49592962 18.91464537 6.47901267 C12.08474266 6.5273185 7.48350593 6.75761245 2 11 C-1.29407987 15.3921065 -2.11623815 19.37347598 -2.15821838 24.77093506 C-2.1680072 25.72723312 -2.17779602 26.68353119 -2.18788147 27.66880798 C-2.19363693 28.71106033 -2.1993924 29.75331268 -2.20532227 30.82714844 C-2.21522186 31.92988602 -2.22512146 33.0326236 -2.23532104 34.16877747 C-2.26692171 37.81562143 -2.29168794 41.46247842 -2.31640625 45.109375 C-2.336977 47.63714945 -2.35797351 50.16492047 -2.37937927 52.69268799 C-2.42894377 58.6672065 -2.47421237 64.64174264 -2.51740164 70.6163094 C-2.56681837 77.41920613 -2.62172002 84.22205514 -2.67708123 91.02490568 C-2.79082168 105.01655923 -2.89767794 119.00825862 -3 133 C-3.66 133 -4.32 133 -5 133 C-5.84295806 130.06520497 -6.12553655 127.45968867 -6.12698364 124.4102478 C-6.12980347 123.4936438 -6.13262329 122.57703979 -6.13552856 121.63265991 C-6.13350433 120.63417023 -6.1314801 119.63568054 -6.12939453 118.60693359 C-6.13114685 117.54951965 -6.13289917 116.49210571 -6.13470459 115.40264893 C-6.13911121 111.90122849 -6.136188 108.39985847 -6.1328125 104.8984375 C-6.13348618 102.46188345 -6.13445675 100.02532946 -6.13571167 97.58877563 C-6.13718728 92.47600669 -6.13503957 87.3632552 -6.13037109 82.25048828 C-6.12469203 75.71388536 -6.1279421 69.17732366 -6.13394356 62.64072227 C-6.13756834 57.60482476 -6.13640147 52.56893691 -6.13381577 47.53303909 C-6.13315086 45.12422302 -6.13395962 42.71540606 -6.13629532 40.30659103 C-6.13885129 36.92751518 -6.13493911 33.54850462 -6.12939453 30.16943359 C-6.13141876 29.18308929 -6.13344299 28.196745 -6.13552856 27.18051147 C-6.1170525 21.06387792 -5.72485159 15.07364872 -5 9 C-4.01 8.67 -3.02 8.34 -2 8 C-0.5522078 5.10441559 0 3.25811062 0 0 Z " fill="#51AFA9" transform="translate(73,64)"/>
<path d="M0 0 C10.94344679 -0.7694611 19.88065621 0.92758116 30 5 C30.66 5.66 31.32 6.32 32 7 C29.60886873 7.84708238 28.40966787 8.15143365 25.9921875 7.2578125 C25.29351562 6.88398437 24.59484375 6.51015625 23.875 6.125 C18.96391148 3.75525679 14.40258911 3.22557783 9 3 C9.64984855 3.55128342 10.29969711 4.10256685 10.96923804 4.67055583 C13.41214805 7.47276633 13.49818039 8.61178191 13.49219131 12.27110672 C13.50015551 13.34498996 13.5081197 14.4188732 13.51632524 15.52529836 C13.49884819 17.29376658 13.49884819 17.29376658 13.48101807 19.09796143 C13.48443577 20.35094615 13.48785347 21.60393087 13.49137473 22.89488482 C13.50032961 26.37491365 13.48430465 29.85445114 13.46426249 33.33441734 C13.44700896 37.0862566 13.45283269 40.83806754 13.45587158 44.5899353 C13.45797028 51.09098133 13.44540686 57.59186694 13.42292023 64.09287262 C13.39042946 73.49223933 13.37999621 82.89152836 13.37496826 92.29094514 C13.36621101 107.54036158 13.33958378 122.7896925 13.30175781 138.0390625 C13.26504884 152.85351127 13.23673163 167.66793682 13.21972656 182.48242188 C13.21867567 183.39539163 13.21762477 184.30836138 13.21654204 185.24899688 C13.21132193 189.82904 13.20626709 194.40908329 13.20129442 198.98912668 C13.159819 236.99281101 13.08935887 274.99639986 13 313 C12.01 313.33 11.02 313.66 10 314 C9.9175 313.38125 9.835 312.7625 9.75 312.125 C9.20605562 309.82027141 9.20605562 309.82027141 7 308.9375 C6.01 308.4734375 6.01 308.4734375 5 308 C4.505 306.515 4.505 306.515 4 305 C3.34 304.67 2.68 304.34 2 304 C2 302.68 2 301.36 2 300 C1.34 300 0.68 300 0 300 C0 299.34 0 298.68 0 298 C-0.99 297.67 -1.98 297.34 -3 297 C-3.33 296.34 -3.66 295.68 -4 295 C-4.99 294.67 -5.98 294.34 -7 294 C-7 293.01 -7 292.02 -7 291 C-7.66 291 -8.32 291 -9 291 C-9.2475 290.278125 -9.495 289.55625 -9.75 288.8125 C-11.13306491 285.70060396 -12.79122917 283.58741726 -15 281 C-18.39291655 276.9820725 -21.58905912 272.9016991 -24.66796875 268.63671875 C-25.92066415 266.86823815 -25.92066415 266.86823815 -28 266 C-28.144375 265.38125 -28.28875 264.7625 -28.4375 264.125 C-29.09717457 261.63289608 -30.08288629 260.6670554 -32 259 C-31.67 258.01 -31.34 257.02 -31 256 C-30.34 256 -29.68 256 -29 256 C-27.72241211 257.4777832 -27.72241211 257.4777832 -26.27734375 259.55078125 C-25.74359131 260.30641357 -25.20983887 261.0620459 -24.65991211 261.84057617 C-24.09151611 262.65631104 -23.52312012 263.4720459 -22.9375 264.3125 C-18.58341968 270.45314546 -14.15543963 276.43702507 -9.32421875 282.21484375 C-6.42243376 285.69210879 -3.58301176 289.21663484 -0.75 292.75 C-0.2542749 293.36447998 0.2414502 293.97895996 0.75219727 294.61206055 C1.47040649 295.5079187 1.47040649 295.5079187 2.203125 296.421875 C2.62239258 296.94362305 3.04166016 297.46537109 3.47363281 298.00292969 C5.72346478 300.9465678 7.84653413 303.98514778 10 307 C10 229.45 10 151.9 10 72 C10.66 72 11.32 72 12 72 C11.89221925 64.5412771 11.77953075 57.08264512 11.66066074 49.62409019 C11.60561086 46.16039427 11.55222075 42.69668968 11.50268555 39.23291016 C11.4455999 35.2463354 11.38118395 31.25989498 11.31640625 27.2734375 C11.29969376 26.03572601 11.28298126 24.79801453 11.26576233 23.52279663 C11.2358445 21.78167099 11.2358445 21.78167099 11.20532227 20.00537109 C11.18977798 18.98833099 11.1742337 17.97129089 11.15821838 16.9234314 C10.99392185 13.88769279 10.55443998 10.98710247 10 8 C9.34 8 8.68 8 8 8 C7.566875 7.401875 7.13375 6.80375 6.6875 6.1875 C4.75008133 3.67603136 2.73409201 2.55178195 0 1 C0 0.67 0 0.34 0 0 Z " fill="#7ED47F" transform="translate(420,0)"/>
<path d="M0 0 C1.65 0 3.3 0 5 0 C5 0.66 5 1.32 5 2 C5.556875 2.061875 6.11375 2.12375 6.6875 2.1875 C10.03960959 3.36526823 11.69785114 5.33435396 14 8 C14.495 9.2684375 14.495 9.2684375 15 10.5625 C16.30071417 13.73299079 18.35221444 14.89534994 21 17 C21.36162029 18.32594105 21.69728039 19.65938457 22 21 C23.31337396 22.0260734 24.64664105 23.02727325 26 24 C26.495 25.485 26.495 25.485 27 27 C28.2684375 27.99 28.2684375 27.99 29.5625 29 C30.366875 29.66 31.17125 30.32 32 31 C32 31.99 32 32.98 32 34 C32.66 34 33.32 34 34 34 C33.67 35.32 33.34 36.64 33 38 C28.79401389 34.03369325 25.40904105 29.72181118 22 25.0625 C20.98075931 23.6772122 19.95994599 22.29307999 18.9375 20.91015625 C18.20466797 19.91846436 18.20466797 19.91846436 17.45703125 18.90673828 C16.06824886 17.0893136 14.61797697 15.35326245 13.125 13.62109375 C11 11 11 11 11 9 C10.34 9 9.68 9 9 9 C7.375 7 7.375 7 6 5 C5.99761165 5.74892549 5.99522329 6.49785097 5.99276257 7.26947117 C5.93344803 25.55081544 5.8577938 43.8320266 5.76428509 62.1132288 C5.7194516 70.95413579 5.68000874 79.79500362 5.65356445 88.63598633 C5.63048302 96.34799755 5.5969732 104.05988353 5.55129844 111.77179521 C5.52750202 115.8495661 5.50868483 119.927214 5.50238609 124.00505257 C5.49627303 127.85550249 5.47605368 131.70563828 5.44572449 135.55597115 C5.43704263 136.95741074 5.4332008 138.35889156 5.43499184 139.7603569 C5.45655157 164.4494557 -2.04966841 185.05552537 -19.375 202.6875 C-22.12121428 205.34873371 -24.89518448 207.76708473 -28 210 C-28.66 209.67 -29.32 209.34 -30 209 C-29.3125 207.0625 -29.3125 207.0625 -28 205 C-25.375 204.25 -25.375 204.25 -23 204 C-22.8453125 203.0409375 -22.8453125 203.0409375 -22.6875 202.0625 C-22.460625 201.381875 -22.23375 200.70125 -22 200 C-21.01 199.67 -20.02 199.34 -19 199 C-17.79117904 196.99983534 -17.79117904 196.99983534 -17 195 C-16.01 195 -15.02 195 -14 195 C-13.896875 194.071875 -13.79375 193.14375 -13.6875 192.1875 C-12.95253586 188.77993898 -12.48897494 188.20178552 -10 186 C-7.62490923 182.48486566 -6.22572725 179.05432859 -5 175 C-4.34 175 -3.68 175 -3 175 C-3.3403125 173.88625 -3.3403125 173.88625 -3.6875 172.75 C-4.08856473 169.22063035 -3.09786027 168.74335573 -1 166 C-0.27518916 162.34725531 -0.27518916 162.34725531 0 159 C0.66 159 1.32 159 2 159 C2.02351649 142.31695 2.04107019 125.6339055 2.05181217 108.95084286 C2.05693575 101.20200479 2.0639019 93.4531771 2.07543945 85.7043457 C2.08550819 78.93868122 2.09188194 72.17302427 2.09408849 65.40735251 C2.09537525 61.83571123 2.09832819 58.26409147 2.10573006 54.6924572 C2.1321114 41.41482091 2.11371997 28.14939109 1.55639648 14.88110352 C1.49811346 13.47613947 1.49811346 13.47613947 1.43865299 12.04279232 C1.24100284 7.93870178 0.99013043 4.00634397 0 0 Z " fill="#6ADC66" transform="translate(311,276)"/>
<path d="M0 0 C0.33 1.32 0.66 2.64 1 4 C-0.32 4.33 -1.64 4.66 -3 5 C-3.103125 5.5775 -3.20625 6.155 -3.3125 6.75 C-4 9 -4 9 -5.48046875 10.84765625 C-7.16684107 13.23632245 -7.55688782 14.82111806 -8 17.6875 C-8.51026975 20.93515432 -9.1995764 23.46989746 -10.49719238 26.52510071 C-13.06571307 34.20126046 -12.57254713 42.51417005 -12.66992188 50.52416992 C-12.70216084 52.35610995 -12.73537993 54.18803296 -12.76952362 56.01993847 C-12.8690363 61.67974472 -12.93823131 67.33967097 -13 73 C-13.0098354 73.86306401 -13.01967079 74.72612802 -13.02980423 75.61534548 C-13.16191993 87.39321263 -13.2253647 99.17103462 -13.27039146 110.94951272 C-13.28908722 115.53587337 -13.31328243 120.1222051 -13.33703613 124.70854187 C-13.4060535 138.21791933 -13.46670215 151.72733243 -13.52606201 165.23675537 C-13.57283602 175.85572227 -13.62185376 186.47466898 -13.67754889 197.0935933 C-13.70576081 202.52084683 -13.72939356 207.94809454 -13.74947357 213.37538397 C-13.76284217 216.72432611 -13.78024697 220.07323825 -13.79878426 223.42215538 C-13.80654052 224.97339499 -13.81261001 226.52464408 -13.81687737 228.07589722 C-13.82292199 230.18963124 -13.83496694 232.30324909 -13.84851074 234.41694641 C-13.85366447 235.59889745 -13.85881821 236.78084848 -13.86412811 237.99861622 C-13.97832247 240.52114751 -14.2591347 242.60075075 -15 245 C-16.65 245 -18.3 245 -20 245 C-20.33 244.34 -20.66 243.68 -21 243 C-19.68 242.67 -18.36 242.34 -17 242 C-16.99761165 240.92877773 -16.99522329 239.85755547 -16.99276257 238.75387192 C-16.93391121 212.66249892 -16.8579935 186.57121785 -16.76428509 160.47994614 C-16.71936118 147.86229031 -16.6799386 135.24466249 -16.65356445 122.62695312 C-16.63055687 111.62657645 -16.59712788 100.62628866 -16.55129844 89.62598252 C-16.52740359 83.80394319 -16.50865028 77.9819917 -16.50238609 72.15990448 C-16.49631839 66.67369877 -16.47625753 61.1877177 -16.44572449 55.70159531 C-16.43697127 53.69418017 -16.43321602 51.68673565 -16.43499184 49.67930222 C-16.44649526 30.66578734 -14.02282814 14.10580346 0 0 Z " fill="#A2F1A0" transform="translate(259,185)"/>
<path d="M0 0 C2.31 0.33 4.62 0.66 7 1 C7 1.66 7 2.32 7 3 C7.5394223 2.83766876 8.0788446 2.67533752 8.63461304 2.50808716 C11.42878792 1.90789599 13.98688207 1.87279932 16.84619141 1.87060547 C18.62648743 1.86593765 18.62648743 1.86593765 20.44274902 1.86117554 C22.37761169 1.86415146 22.37761169 1.86415146 24.3515625 1.8671875 C25.71260607 1.86617201 27.07364943 1.86483264 28.43469238 1.8631897 C32.07882528 1.86049093 35.72291561 1.86494974 39.36704254 1.87142944 C41.61967598 1.87499158 43.87230307 1.87661631 46.12493896 1.87768555 C70.42697434 1.89203486 94.70967937 2.20595022 119 3 C119 3.33 119 3.66 119 4 C118.42462557 4.00423194 117.84925114 4.00846388 117.25644112 4.01282406 C103.26913541 4.11603947 89.2818815 4.2247261 75.29466438 4.33933926 C68.53060774 4.39466412 61.76654582 4.4481449 55.00244141 4.49731445 C48.47963467 4.5447351 41.95688074 4.597255 35.43413925 4.65294075 C32.94057426 4.6733844 30.44699445 4.69209409 27.95340347 4.70907402 C24.47164786 4.73307357 20.98999504 4.7631342 17.50830078 4.79467773 C15.94816254 4.80331093 15.94816254 4.80331093 14.35650635 4.81211853 C12.93880447 4.82680176 12.93880447 4.82680176 11.49246216 4.84178162 C10.66837923 4.84823417 9.8442963 4.85468672 8.99524117 4.8613348 C6.92636919 4.87676283 6.92636919 4.87676283 5 6 C5 6.99 5 7.98 5 9 C4.21625 9.763125 3.4325 10.52625 2.625 11.3125 C-2.876381 16.94486626 -2.30336022 23.63333371 -2.31884766 31.05419922 C-2.32889328 32.15722885 -2.3389389 33.26025848 -2.34928894 34.39671326 C-2.38011242 38.03269951 -2.39715404 41.66861214 -2.4140625 45.3046875 C-2.43277478 47.82960645 -2.45234824 50.35451916 -2.4727478 52.87942505 C-2.51882649 58.83970043 -2.55623708 64.79999005 -2.58942068 70.76034749 C-2.62770041 77.54880766 -2.67709514 84.33717288 -2.72740483 91.12555289 C-2.83060218 105.08363142 -2.91990205 119.04177116 -3 133 C-3.66 133 -4.32 133 -5 133 C-5.84295806 130.06520497 -6.12553655 127.45968867 -6.12698364 124.4102478 C-6.12980347 123.4936438 -6.13262329 122.57703979 -6.13552856 121.63265991 C-6.13350433 120.63417023 -6.1314801 119.63568054 -6.12939453 118.60693359 C-6.13114685 117.54951965 -6.13289917 116.49210571 -6.13470459 115.40264893 C-6.13911121 111.90122849 -6.136188 108.39985847 -6.1328125 104.8984375 C-6.13348618 102.46188345 -6.13445675 100.02532946 -6.13571167 97.58877563 C-6.13718728 92.47600669 -6.13503957 87.3632552 -6.13037109 82.25048828 C-6.12469203 75.71388536 -6.1279421 69.17732366 -6.13394356 62.64072227 C-6.13756834 57.60482476 -6.13640147 52.56893691 -6.13381577 47.53303909 C-6.13315086 45.12422302 -6.13395962 42.71540606 -6.13629532 40.30659103 C-6.13885129 36.92751518 -6.13493911 33.54850462 -6.12939453 30.16943359 C-6.13141876 29.18308929 -6.13344299 28.196745 -6.13552856 27.18051147 C-6.1170525 21.06387792 -5.72485159 15.07364872 -5 9 C-4.01 8.67 -3.02 8.34 -2 8 C-0.5522078 5.10441559 0 3.25811062 0 0 Z " fill="#51BDBF" transform="translate(73,64)"/>
<path d="M0 0 C0.69287109 0.00451172 1.38574219 0.00902344 2.09960938 0.01367188 C3.79561068 0.02536844 5.49156703 0.04330076 7.1875 0.0625 C7.1875 0.3925 7.1875 0.7225 7.1875 1.0625 C6.41664062 1.14886719 5.64578125 1.23523438 4.8515625 1.32421875 C3.84867187 1.46472656 2.84578125 1.60523437 1.8125 1.75 C0.81476563 1.87761719 -0.18296875 2.00523438 -1.2109375 2.13671875 C-4.05668405 2.81760016 -4.05668405 2.81760016 -5.1640625 5.64453125 C-5.37804687 6.44246094 -5.59203125 7.24039062 -5.8125 8.0625 C-9.8125 8.0625 -13.8125 8.0625 -17.8125 8.0625 C-23.13049282 8.62380694 -23.13049282 8.62380694 -27.8125 11.0625 C-28.4725 12.0525 -29.1325 13.0425 -29.8125 14.0625 C-31.546875 15.0546875 -31.546875 15.0546875 -33.5625 15.9375 C-36.38925533 17.26894273 -38.70125794 18.63948393 -41.0625 20.6875 C-43.8125 23.0625 -43.8125 23.0625 -45.7578125 23.9765625 C-51.70882765 27.12177583 -54.89685406 32.87349006 -56.8125 39.0625 C-58.9375 40.4375 -58.9375 40.4375 -60.8125 41.0625 C-60.8125 43.0425 -60.8125 45.0225 -60.8125 47.0625 C-61.8025 47.0625 -62.7925 47.0625 -63.8125 47.0625 C-68.00812487 51.42594987 -69.8125 58.10409389 -69.8125 64.0625 C-70.30094312 68.5805989 -72.17885715 71.4093825 -74.8125 75.0625 C-77.02763934 71.73979099 -77.02325924 70.44855458 -76.40625 66.61328125 C-72.31749506 49.04777481 -63.4477298 35.52260534 -50.8125 23.0625 C-50.07257812 22.31226562 -49.33265625 21.56203125 -48.5703125 20.7890625 C-35.70855357 8.50972284 -17.89567016 -0.22262556 0 0 Z " fill="#4AC1E5" transform="translate(76.8125,-0.0625)"/>
<path d="M0 0 C10.94344679 -0.7694611 19.88065621 0.92758116 30 5 C30.66 5.66 31.32 6.32 32 7 C29.60886873 7.84708238 28.40966787 8.15143365 25.9921875 7.2578125 C25.29351562 6.88398437 24.59484375 6.51015625 23.875 6.125 C18.96391148 3.75525679 14.40258911 3.22557783 9 3 C9.650079 3.44728077 10.300158 3.89456154 10.96993637 4.35539627 C14.09548005 8.42710335 13.53949711 12.31414054 13.48101807 17.31365967 C13.48443577 18.37471743 13.48785347 19.43577519 13.49137473 20.52898622 C13.49798055 24.09609352 13.47593204 27.66245383 13.45410156 31.22949219 C13.45297367 33.7817737 13.4536058 36.33405652 13.45587158 38.88633728 C13.45678342 44.38721017 13.44541418 49.8878411 13.42292023 55.38866425 C13.39041909 63.34188538 13.37999516 71.29501475 13.37496826 79.2482951 C13.36621263 92.15174744 13.33958982 105.05509866 13.30175781 117.95849609 C13.26504464 130.49332167 13.23672949 143.02811979 13.21972656 155.56298828 C13.21867567 156.33556924 13.21762477 157.1081502 13.21654204 157.90414271 C13.2113219 161.77993445 13.20626707 165.65572639 13.20129442 169.53151846 C13.15982405 201.68775246 13.08936837 233.8438622 13 266 C12.67 266 12.34 266 12 266 C11.99576806 264.70679022 11.99153612 263.41358044 11.98717594 262.08118248 C11.8865107 231.38625457 11.78080335 200.69134864 11.66888306 169.99645986 C11.65511341 166.21883145 11.64138632 162.44120288 11.62768555 158.66357422 C11.62359309 157.53548263 11.62359309 157.53548263 11.61941796 156.38460131 C11.57533734 144.20572728 11.5347056 132.02684406 11.49534739 119.84795396 C11.45488855 107.35223379 11.41072585 94.85653068 11.36312145 82.36083567 C11.33386151 74.64971335 11.30749408 66.93859225 11.28482103 59.2274477 C11.2671289 53.31555102 11.2442847 47.40368132 11.21950912 41.49180984 C11.21015117 39.0658248 11.20247139 36.63983262 11.19658089 34.21383667 C11.18829843 30.9053293 11.1740156 27.59690041 11.15821838 24.28842163 C11.15724028 23.32537971 11.15626217 22.36233779 11.15525442 21.37011278 C11.12714061 16.80077088 10.93486371 12.49581329 10 8 C9.34 8 8.68 8 8 8 C7.566875 7.401875 7.13375 6.80375 6.6875 6.1875 C4.75008133 3.67603136 2.73409201 2.55178195 0 1 C0 0.67 0 0.34 0 0 Z " fill="#75DD74" transform="translate(420,0)"/>
<path d="M0 0 C13.08615231 3.68048034 22.82157873 19.88671293 30.55322266 30.10302734 C33.29489765 33.69783239 36.09083722 37.25057668 38.875 40.8125 C43.42176597 46.63869903 47.90101739 52.50827935 52.3125 58.4375 C57.03179829 64.77969254 61.91770509 70.94231516 67 77 C65.1640625 77.60546875 65.1640625 77.60546875 63 78 C59.50851768 75.75547565 57.680054 73.74781276 56 70 C55.01 69.505 55.01 69.505 54 69 C53.08952497 67.57614185 52.24291656 66.11081324 51.4375 64.625 C51.00308594 63.83351562 50.56867188 63.04203125 50.12109375 62.2265625 C49 60 49 60 48 57 C47.34 57 46.68 57 46 57 C45.8453125 56.0409375 45.8453125 56.0409375 45.6875 55.0625 C45.460625 54.381875 45.23375 53.70125 45 53 C44.01 52.67 43.02 52.34 42 52 C41.690625 51.195625 41.38125 50.39125 41.0625 49.5625 C40.23391841 46.85842507 40.23391841 46.85842507 37.875 45.6875 C37.25625 45.460625 36.6375 45.23375 36 45 C36 43.35 36 41.7 36 40 C35.42507813 39.72671875 34.85015625 39.4534375 34.2578125 39.171875 C29.37813882 36.6391724 24.82524525 34.00416704 22.6875 28.8125 C22.460625 27.884375 22.23375 26.95625 22 26 C20.60411246 24.35405861 20.60411246 24.35405861 19 23 C16 19.33333333 16 19.33333333 16 17 C15.34 17 14.68 17 14 17 C13.566875 16.236875 13.13375 15.47375 12.6875 14.6875 C10.79250171 11.66953976 9.04625691 10.72895662 6 9 C6 8.34 6 7.68 6 7 C5.01 6.67 4.02 6.34 3 6 C3 5.01 3 4.02 3 3 C1.35 2.67 -0.3 2.34 -2 2 C-1.34 1.34 -0.68 0.68 0 0 Z " fill="#6CDE76" transform="translate(322,177)"/>
<path d="M0 0 C0.66 0 1.32 0 2 0 C2.93809935 22.54912873 -3.32599211 42.66201119 -18.36425781 59.53027344 C-22.28382246 63.73642991 -26.32875149 67.64054046 -31 71 C-31.66 70.67 -32.32 70.34 -33 70 C-32.3125 68.0625 -32.3125 68.0625 -31 66 C-28.375 65.25 -28.375 65.25 -26 65 C-25.8453125 64.0409375 -25.8453125 64.0409375 -25.6875 63.0625 C-25.460625 62.381875 -25.23375 61.70125 -25 61 C-23.515 60.505 -23.515 60.505 -22 60 C-20.79117904 57.99983534 -20.79117904 57.99983534 -20 56 C-19.01 56 -18.02 56 -17 56 C-16.896875 55.071875 -16.79375 54.14375 -16.6875 53.1875 C-15.95253586 49.77993898 -15.48897494 49.20178552 -13 47 C-10.62490923 43.48486566 -9.22572725 40.05432859 -8 36 C-7.34 36 -6.68 36 -6 36 C-6.226875 35.2575 -6.45375 34.515 -6.6875 33.75 C-7.08856473 30.22063035 -6.09786027 29.74335573 -4 27 C-3.27518916 23.34725531 -3.27518916 23.34725531 -3 20 C-2.34 20 -1.68 20 -1 20 C-0.67 13.4 -0.34 6.8 0 0 Z " fill="#7EE67A" transform="translate(314,415)"/>
<path d="M0 0 C0.66 0 1.32 0 2 0 C3.56059093 4.1549894 4.24640276 7.57376797 4.22705078 12.00537109 C4.22689972 13.16612152 4.22674866 14.32687195 4.22659302 15.52279663 C4.21627045 16.76050812 4.20594788 17.9982196 4.1953125 19.2734375 C4.1924826 20.55231842 4.18965271 21.83119934 4.18673706 23.14883423 C4.1774602 26.53220099 4.15952183 29.91529326 4.1373291 33.29858398 C4.11679041 36.75762574 4.10771826 40.21669596 4.09765625 43.67578125 C4.075632 50.45059614 4.04218118 57.22528224 4 64 C3.34 62.68 2.68 61.36 2 60 C-18.79 60 -39.58 60 -61 60 C-61 59.67 -61 59.34 -61 59 C-53.31397789 58.16158072 -45.75128458 57.87546703 -38.0234375 57.9375 C-36.38563828 57.94317993 -36.38563828 57.94317993 -34.7147522 57.94897461 C-31.26812571 57.96107963 -27.82158754 57.97973447 -24.375 58 C-19.79948181 58.02649549 -15.22400296 58.04649155 -10.6484375 58.0625 C-9.06740738 58.07494751 -9.06740738 58.07494751 -7.45443726 58.08764648 C-6.4889798 58.09094971 -5.52352234 58.09425293 -4.52880859 58.09765625 C-3.67596283 58.10289307 -2.82311707 58.10812988 -1.94442749 58.11352539 C0.00575834 58.21580513 0.00575834 58.21580513 1 57 C1.09852039 55.43585566 1.12798672 53.8672922 1.12939453 52.30004883 C1.13412277 50.79762383 1.13412277 50.79762383 1.13894653 49.2648468 C1.1369223 48.17326767 1.13489807 47.08168854 1.1328125 45.95703125 C1.13376923 44.84067795 1.13472595 43.72432465 1.13571167 42.57414246 C1.13639396 40.20429427 1.1345363 37.83444423 1.13037109 35.46459961 C1.12504853 31.84549718 1.13030147 28.22652028 1.13671875 24.60742188 C1.13605748 22.30729139 1.13477532 20.00716099 1.1328125 17.70703125 C1.13483673 16.62557327 1.13686096 15.5441153 1.13894653 14.42988586 C1.12370516 9.51064713 1.04767121 4.83312471 0 0 Z " fill="#36CA82" transform="translate(428,8)"/>
<path d="M0 0 C2.31 0.33 4.62 0.66 7 1 C7 1.66 7 2.32 7 3 C7.5394223 2.83766876 8.0788446 2.67533752 8.63461304 2.50808716 C11.42878792 1.90789599 13.98688207 1.87279932 16.84619141 1.87060547 C18.62648743 1.86593765 18.62648743 1.86593765 20.44274902 1.86117554 C22.37761169 1.86415146 22.37761169 1.86415146 24.3515625 1.8671875 C25.71260607 1.86617201 27.07364943 1.86483264 28.43469238 1.8631897 C32.07882528 1.86049093 35.72291561 1.86494974 39.36704254 1.87142944 C41.61967598 1.87499158 43.87230307 1.87661631 46.12493896 1.87768555 C70.42697434 1.89203486 94.70967937 2.20595022 119 3 C119 3.33 119 3.66 119 4 C118.42462557 4.00423194 117.84925114 4.00846388 117.25644112 4.01282406 C103.26913541 4.11603947 89.2818815 4.2247261 75.29466438 4.33933926 C68.53060774 4.39466412 61.76654582 4.4481449 55.00244141 4.49731445 C48.47963467 4.5447351 41.95688074 4.597255 35.43413925 4.65294075 C32.94057426 4.6733844 30.44699445 4.69209409 27.95340347 4.70907402 C24.47164786 4.73307357 20.98999504 4.7631342 17.50830078 4.79467773 C15.94816254 4.80331093 15.94816254 4.80331093 14.35650635 4.81211853 C12.93880447 4.82680176 12.93880447 4.82680176 11.49246216 4.84178162 C10.66837923 4.84823417 9.8442963 4.85468672 8.99524117 4.8613348 C6.92636919 4.87676283 6.92636919 4.87676283 5 6 C5 6.99 5 7.98 5 9 C4.34 9 3.68 9 3 9 C3 8.34 3 7.68 3 7 C2.01 7 1.02 7 0 7 C-0.33 8.65 -0.66 10.3 -1 12 C-2.32 12.33 -3.64 12.66 -5 13 C-4.67 11.35 -4.34 9.7 -4 8 C-3.34 8 -2.68 8 -2 8 C-0.74335022 5.09399739 0 3.20395416 0 0 Z " fill="#38C4CB" transform="translate(73,64)"/>
<path d="M0 0 C0.99 0 1.98 0 3 0 C3 0.66 3 1.32 3 2 C3.66 2 4.32 2 5 2 C5 2.99 5 3.98 5 5 C5.66 5 6.32 5 7 5 C7.4125 5.7425 7.825 6.485 8.25 7.25 C9.87440826 10.22884291 9.87440826 10.22884291 13.125 12 C16 14 16 14 16.625 16.625 C16.74875 17.40875 16.8725 18.1925 17 19 C17.8971875 19.433125 17.8971875 19.433125 18.8125 19.875 C21.3659849 21.18822081 21.75105212 22.07579306 23.0625 24.5625 C24.63488132 28.2511691 24.63488132 28.2511691 28 29 C29.16796875 30.77734375 29.16796875 30.77734375 30.1875 32.9375 C30.53167969 33.64777344 30.87585938 34.35804688 31.23046875 35.08984375 C32 37 32 37 32 39 C32.5775 39.226875 33.155 39.45375 33.75 39.6875 C36.59739809 41.34848222 38.12067193 43.31524561 40 46 C40 46.66 40 47.32 40 48 C40.53625 48.0825 41.0725 48.165 41.625 48.25 C44.87340691 49.27581271 47.28751859 50.96563894 50 53 C50 53.66 50 54.32 50 55 C39.11186766 51.59745864 30.89489679 41.60950012 24.4375 32.6875 C23.40654358 31.28658474 22.37392017 29.88689508 21.33984375 28.48828125 C20.80214355 27.7607666 20.26444336 27.03325195 19.71044922 26.28369141 C16.12728311 21.49965833 12.41898642 16.81105177 8.72045898 12.1159668 C5.63173541 8.17548942 2.7098345 4.21087027 0 0 Z " fill="#70E06A" transform="translate(376,356)"/>
<path d="M0 0 C0.66 0 1.32 0 2 0 C2 0.66 2 1.32 2 2 C2.556875 2.061875 3.11375 2.12375 3.6875 2.1875 C7.03960959 3.36526823 8.69785114 5.33435396 11 8 C11.33 8.845625 11.66 9.69125 12 10.5625 C13.30071417 13.73299079 15.35221444 14.89534994 18 17 C18.36162029 18.32594105 18.69728039 19.65938457 19 21 C20.31337396 22.0260734 21.64664105 23.02727325 23 24 C23.33 24.99 23.66 25.98 24 27 C24.845625 27.66 25.69125 28.32 26.5625 29 C27.366875 29.66 28.17125 30.32 29 31 C29 31.99 29 32.98 29 34 C29.66 34 30.32 34 31 34 C30.67 35.32 30.34 36.64 30 38 C25.79401389 34.03369325 22.40904105 29.72181118 19 25.0625 C17.98075931 23.6772122 16.95994599 22.29307999 15.9375 20.91015625 C15.44894531 20.24902832 14.96039063 19.58790039 14.45703125 18.90673828 C13.06824886 17.0893136 11.61797697 15.35326245 10.125 13.62109375 C8 11 8 11 8 9 C7.34 9 6.68 9 6 9 C5.01 7.68 4.02 6.36 3 5 C2.67 12.26 2.34 19.52 2 27 C1.34 27 0.68 27 0 27 C0 18.09 0 9.18 0 0 Z " fill="#76E374" transform="translate(314,276)"/>
<path d="M0 0 C10.94344679 -0.7694611 19.88065621 0.92758116 30 5 C30.66 5.66 31.32 6.32 32 7 C29.60886873 7.84708238 28.40966787 8.15143365 25.9921875 7.2578125 C25.29351562 6.88398437 24.59484375 6.51015625 23.875 6.125 C18.96391148 3.75525679 14.40258911 3.22557783 9 3 C9.65063416 3.52378235 10.30126831 4.0475647 10.97161865 4.58721924 C13.63482979 7.75513665 13.48495011 9.50163477 13.45410156 13.60449219 C13.45468567 14.25856552 13.45526978 14.91263885 13.45587158 15.58653259 C13.45309299 17.74052694 13.42201548 19.89312356 13.390625 22.046875 C13.38316172 23.54330693 13.37746919 25.03974864 13.37347412 26.53619385 C13.35822439 30.4688429 13.31894912 34.40089807 13.2746582 38.33331299 C13.23369074 42.34842902 13.21546001 46.36364131 13.1953125 50.37890625 C13.15245348 58.25287626 13.08421103 66.12636419 13 74 C12.67 74 12.34 74 12 74 C11.98969254 73.2616391 11.97938507 72.5232782 11.96876526 71.76254272 C11.8706047 64.78888655 11.76806465 57.81530688 11.66066074 50.84178734 C11.60560235 47.25702215 11.55221074 43.67224859 11.50268555 40.08740234 C11.45478865 36.62492795 11.40243867 33.16254639 11.34705925 29.70018387 C11.31689636 27.74274348 11.29129168 25.78523457 11.26576233 23.82772827 C11.2358445 22.02654037 11.2358445 22.02654037 11.20532227 20.18896484 C11.18977798 19.13639496 11.1742337 18.08382507 11.15821838 16.99935913 C10.9966001 13.93554791 10.5618837 11.01397181 10 8 C9.34 8 8.68 8 8 8 C7.566875 7.401875 7.13375 6.80375 6.6875 6.1875 C4.75008133 3.67603136 2.73409201 2.55178195 0 1 C0 0.67 0 0.34 0 0 Z " fill="#50E670" transform="translate(420,0)"/>
<path d="M0 0 C0.66 0.66 1.32 1.32 2 2 C-0.95339444 2.17372908 -2.99373142 2.00220837 -5.80737305 1.01098633 C-11.07511654 -0.6571123 -16.32804703 -0.32787985 -21.8125 -0.3125 C-23.51889648 -0.33666992 -23.51889648 -0.33666992 -25.25976562 -0.36132812 C-31.91391614 -0.3651678 -37.95036197 0.00948977 -44 3 C-44.66 3.66 -45.32 4.32 -46 5 C-47.99541868 5.68025637 -49.99617991 6.34490497 -52 7 C-53.0725 7.556875 -54.145 8.11375 -55.25 8.6875 C-56.1575 9.120625 -57.065 9.55375 -58 10 C-58.66 9.67 -59.32 9.34 -60 9 C-43.40979325 -5.19926519 -20.06176713 -8.07184169 0 0 Z " fill="#67D77E" transform="translate(320,175)"/>
<path d="M0 0 C-16.25102116 8.66989963 -29.84549246 12.882682 -48.34375 7.8515625 C-50.95310448 7.01503415 -53.47129716 6.05362618 -56 5 C-53.13281436 3.85312574 -51.9378085 4.01954364 -48.9296875 4.96484375 C-44.50611671 6.29335401 -40.27528207 6.26207205 -35.6875 6.1875 C-34.42728027 6.17456909 -34.42728027 6.17456909 -33.14160156 6.16137695 C-24.35824702 6.03461215 -17.02147767 5.7651834 -9 2 C-8.01 2 -7.02 2 -6 2 C-6 1.34 -6 0.68 -6 0 C-3 -1 -3 -1 0 0 Z " fill="#8AE78A" transform="translate(482,407)"/>
<path d="M0 0 C1.13315882 3.39947645 0.86787136 4.07347148 -0.3125 7.3125 C-0.59480469 8.1065625 -0.87710937 8.900625 -1.16796875 9.71875 C-1.57982422 10.84796875 -1.57982422 10.84796875 -2 12 C-4.2473194 18.36560436 -4.2473194 18.36560436 -5 25 C-5.48844312 29.5180989 -7.36635715 32.3468825 -10 36 C-12.21260841 32.68108739 -12.20727175 31.39396314 -11.6015625 27.5625 C-9.28345134 17.68794856 -5.15845506 8.68605834 0 0 Z " fill="#35BFE3" transform="translate(12,39)"/>
<path d="M0 0 C8.39311453 2.79770484 15.4987263 16.03219252 19.40625 23.79296875 C25 35.84229651 25 35.84229651 25 42 C23.515 41.505 23.515 41.505 22 41 C20.47839986 37.3962102 20 34.94779314 20 31 C19.34 31 18.68 31 18 31 C17.7525 29.7625 17.505 28.525 17.25 27.25 C16.30233339 23.39841212 14.95892885 21.68152927 12 19 C11.30686092 17.34416775 10.63525576 15.67889021 10 14 C9.34 13.67 8.68 13.34 8 13 C7.855625 12.34 7.71125 11.68 7.5625 11 C7.376875 10.34 7.19125 9.68 7 9 C6.01 8.67 5.02 8.34 4 8 C4 7.01 4 6.02 4 5 C2.68 5 1.36 5 0 5 C0 3.35 0 1.7 0 0 Z " fill="#81E580" transform="translate(476,24)"/>
<path d="M0 0 C0.91989212 -0.00137466 1.83978424 -0.00274933 2.78755188 -0.00416565 C3.79959183 -0.00057037 4.81163177 0.0030249 5.8543396 0.00672913 C6.91777084 0.0065831 7.98120209 0.00643707 9.07685852 0.00628662 C12.60475682 0.00698533 16.13260283 0.01477581 19.66049194 0.02259827 C22.10144014 0.02446259 24.5423887 0.02588643 26.9833374 0.02688599 C33.41790799 0.03071 39.85245612 0.04053932 46.28701782 0.05158997 C52.84900611 0.06180656 59.41099801 0.06638414 65.97299194 0.07142639 C78.85581404 0.08216167 91.73862055 0.09904537 104.62142944 0.12025452 C104.62142944 0.45025452 104.62142944 0.78025452 104.62142944 1.12025452 C103.3510231 1.12834137 102.08061676 1.13642822 100.77171326 1.14476013 C88.7807702 1.2223515 76.78993879 1.31012352 64.79914188 1.4077816 C58.63502807 1.45765973 52.47093069 1.50399054 46.30673218 1.54212952 C40.35442492 1.57908941 34.40225806 1.62547843 28.45007133 1.67831802 C26.18279936 1.69680513 23.91549735 1.71193391 21.64818001 1.72359848 C18.46472012 1.74055829 15.28157778 1.76961679 12.09823608 1.80140686 C11.1674675 1.80356705 10.23669891 1.80572723 9.27772522 1.80795288 C3.45305079 1.88192494 -1.7301215 2.68056673 -7.37857056 4.12025452 C-7.04857056 3.13025452 -6.71857056 2.14025452 -6.37857056 1.12025452 C-4.02115513 -0.05845319 -2.62814657 -0.00302086 0 0 Z " fill="#4DBBBC" transform="translate(84.37857055664063,67.87974548339844)"/>
<path d="M0 0 C0.66 0 1.32 0 2 0 C3.27758789 1.4777832 3.27758789 1.4777832 4.72265625 3.55078125 C5.25737549 4.30721924 5.79209473 5.06365723 6.34301758 5.84301758 C7.19416138 7.06541138 7.19416138 7.06541138 8.0625 8.3125 C12.59904004 14.74984968 17.22628931 20.87167983 22.48828125 26.73828125 C24.26125501 29.39086989 24.32660621 30.87233036 24 34 C20.39246279 30.59288152 17.72415143 27.13016508 15 23 C14.38125 22.38125 13.7625 21.7625 13.125 21.125 C10.53508724 18.53508724 8.4964502 15.68027631 6.3671875 12.70703125 C5.09305272 10.87212987 5.09305272 10.87212987 3 10 C2.855625 9.38125 2.71125 8.7625 2.5625 8.125 C1.90282543 5.63289608 0.91711371 4.6670554 -1 3 C-0.67 2.01 -0.34 1.02 0 0 Z " fill="#6BDA76" transform="translate(389,256)"/>
<path d="M0 0 C4.10601417 0.53556707 8.17881524 1.17937615 12.25 1.9375 C13.08015625 2.09089844 13.9103125 2.24429687 14.765625 2.40234375 C17 3 17 3 20 5 C21.88154883 5.44111565 23.78062638 5.8109267 25.6875 6.125 C26.68136719 6.29257812 27.67523438 6.46015625 28.69921875 6.6328125 C29.45847656 6.75398438 30.21773437 6.87515625 31 7 C31 7.66 31 8.32 31 9 C23.89741308 9.8125841 18.15340816 8.69523814 11.5625 6.1875 C10.87671875 5.92694824 10.1909375 5.66639648 9.484375 5.39794922 C5.94780058 3.98279629 2.90659741 2.47543973 0 0 Z " fill="#5CD696" transform="translate(44,489)"/>
<path d="M0 0 C0.66 0 1.32 0 2 0 C2.52479069 9.2040214 -2.82776456 15.94183769 -8.6875 22.625 C-12.54421769 26.84807256 -12.54421769 26.84807256 -16 28 C-16 27.01 -16 26.02 -16 25 C-15.38125 24.938125 -14.7625 24.87625 -14.125 24.8125 C-13.42375 24.544375 -12.7225 24.27625 -12 24 C-11.28752268 22.3523962 -10.62599617 20.68236471 -10 19 C-8.68671343 17.64691687 -7.35500919 16.31129922 -6 15 C-5.67 14.01 -5.34 13.02 -5 12 C-4.34 12 -3.68 12 -3 12 C-3.061875 11.319375 -3.12375 10.63875 -3.1875 9.9375 C-2.94131737 6.08063875 -1.64197838 3.48920406 0 0 Z " fill="#87E383" transform="translate(499,377)"/>
<path d="M0 0 C21.12 0 42.24 0 64 0 C64.495 1.98 64.495 1.98 65 4 C63.95328125 3.67854004 62.9065625 3.35708008 61.828125 3.02587891 C55.86064118 1.54267022 49.8680652 1.64456061 43.75 1.5859375 C42.49614502 1.56657135 41.24229004 1.5472052 39.95043945 1.5272522 C36.64288324 1.47783066 33.33535914 1.43646547 30.02764893 1.39910889 C26.64203189 1.35885366 23.25657768 1.30786038 19.87109375 1.2578125 C13.24750114 1.16205308 6.62383668 1.07692556 0 1 C0 0.67 0 0.34 0 0 Z " fill="#49B98F" transform="translate(366,68)"/>
<path d="M0 0 C0.33 0 0.66 0 1 0 C1.02533904 7.33234927 1.04286227 14.66468727 1.05493164 21.99707031 C1.05996278 24.49186627 1.06678834 26.98665928 1.07543945 29.48144531 C1.08755827 33.06576262 1.0932405 36.65004096 1.09765625 40.234375 C1.10281754 41.35116638 1.10797882 42.46795776 1.11329651 43.61859131 C1.11337204 44.65936829 1.11344757 45.70014526 1.11352539 46.77246094 C1.115746 47.68735291 1.11796661 48.60224487 1.12025452 49.54486084 C1.00776758 51.84141569 0.64780585 53.8008733 0 56 C-1.65 56 -3.3 56 -5 56 C-5.33 55.34 -5.66 54.68 -6 54 C-4.02 53.505 -4.02 53.505 -2 53 C-1.12449979 49.96197833 -0.8516368 47.2050114 -0.79467773 44.04785156 C-0.77473251 43.06713684 -0.75478729 42.08642212 -0.73423767 41.07598877 C-0.71752518 40.02481873 -0.70081268 38.97364868 -0.68359375 37.890625 C-0.66281265 36.80867859 -0.64203156 35.72673218 -0.62062073 34.61199951 C-0.55527069 31.15806387 -0.49630771 27.70405263 -0.4375 24.25 C-0.39430096 21.90754429 -0.35068622 19.5650962 -0.30664062 17.22265625 C-0.19960417 11.4818506 -0.09781074 5.74096985 0 0 Z " fill="#76E275" transform="translate(244,374)"/>
<path d="M0 0 C1.8125 0.625 1.8125 0.625 4 2 C4.474375 3.010625 4.94875 4.02125 5.4375 5.0625 C6.69392432 8.24420891 6.69392432 8.24420891 9.6875 8.875 C10.8321875 8.936875 10.8321875 8.936875 12 9 C12.2475 9.969375 12.495 10.93875 12.75 11.9375 C13.1625 12.948125 13.575 13.95875 14 15 C15.96128755 15.8237956 15.96128755 15.8237956 18 16 C18.66 16.66 19.32 17.32 20 18 C19.67 18.99 19.34 19.98 19 21 C1.69642857 7.66774005 1.69642857 7.66774005 0.28515625 2.26171875 C0.19105469 1.51535156 0.09695312 0.76898438 0 0 Z " fill="#49CE90" transform="translate(19,465)"/>
<path d="M0 0 C0.99 0 1.98 0 3 0 C3 0.66 3 1.32 3 2 C3.66 2 4.32 2 5 2 C5 2.99 5 3.98 5 5 C5.66 5 6.32 5 7 5 C7.4125 5.7425 7.825 6.485 8.25 7.25 C9.8558652 10.20951205 9.8558652 10.20951205 13 11.875 C17.55425768 15.10093253 18.9307464 19.65373201 20 25 C16.11056363 21.26585873 12.74102153 17.31904854 9.4375 13.0625 C8.73463867 12.17014648 8.73463867 12.17014648 8.01757812 11.25976562 C5.16513235 7.60943292 2.5216127 3.88625016 0 0 Z " fill="#84E07E" transform="translate(376,356)"/>
<path d="M0 0 C6.60978981 -0.7150013 12.23766388 0.40182912 18.5 2.375 C19.20640625 2.59631592 19.9128125 2.81763184 20.640625 3.0456543 C23.64442741 4.03709829 25.7342069 4.7342069 28 7 C25.62155307 7.8441363 24.44622798 8.17903098 22.0625 7.22265625 C21.0415625 6.64837891 21.0415625 6.64837891 20 6.0625 C15.10356301 3.67935043 10.96864358 3.73571369 5.6015625 4.0546875 C3 4 3 4 0 2 C0 1.34 0 0.68 0 0 Z " fill="#7CE981" transform="translate(424,0)"/>
<path d="M0 0 C1.32065284 1.98097926 2.61315691 3.98105106 3.875 6 C6.84325052 10.19047132 9.41919063 11.70959531 14 14 C9.545 14.495 9.545 14.495 5 15 C4.566875 14.236875 4.13375 13.47375 3.6875 12.6875 C2.23792524 10.37891798 0.93879199 8.85800899 -1 7 C-2.01800576 5.68036291 -3.02248365 4.34990354 -4 3 C-2.68 2.01 -1.36 1.02 0 0 Z " fill="#58D19C" transform="translate(70,414)"/>
<path d="M0 0 C6.17047326 1.7354456 10.57877075 6.57877075 15 11 C15 11.99 15 12.98 15 14 C11.88626628 12.50079488 8.87771795 10.91847864 6 9 C6 8.34 6 7.68 6 7 C5.01 6.67 4.02 6.34 3 6 C3 5.01 3 4.02 3 3 C1.35 2.67 -0.3 2.34 -2 2 C-1.34 1.34 -0.68 0.68 0 0 Z " fill="#67DB74" transform="translate(322,177)"/>
<path d="M0 0 C4.50513431 4.23209586 8.514292 8.88695859 12 14 C12 14.66 12 15.32 12 16 C11.01 16 10.02 16 9 16 C9 15.34 9 14.68 9 14 C8.34 14 7.68 14 7 14 C7 13.34 7 12.68 7 12 C6.01 11.67 5.02 11.34 4 11 C3.67 10.34 3.34 9.68 3 9 C2.01 8.67 1.02 8.34 0 8 C0 7.01 0 6.02 0 5 C-0.66 5 -1.32 5 -2 5 C-1 2 -1 2 0 0 Z " fill="#7CDD7E" transform="translate(413,286)"/>
<path d="M0 0 C2.31 0.33 4.62 0.66 7 1 C7.33 1.99 7.66 2.98 8 4 C7.01 4.66 6.02 5.32 5 6 C5 6.99 5 7.98 5 9 C4.34 9 3.68 9 3 9 C3 8.34 3 7.68 3 7 C2.01 7 1.02 7 0 7 C-0.33 8.65 -0.66 10.3 -1 12 C-2.32 12.33 -3.64 12.66 -5 13 C-4.67 11.35 -4.34 9.7 -4 8 C-3.34 8 -2.68 8 -2 8 C-0.74335022 5.09399739 0 3.20395416 0 0 Z " fill="#31C5D7" transform="translate(73,64)"/>
<path d="M0 0 C4.61271279 1.40101934 6.79224646 3.61106159 9.8125 7.3125 C10.60269531 8.25738281 11.39289063 9.20226562 12.20703125 10.17578125 C14.10692959 13.16843158 14.42227856 14.53983686 14 18 C10.39246279 14.59288152 7.72415143 11.13016508 5 7 C4.278125 6.278125 3.55625 5.55625 2.8125 4.8125 C1 3 1 3 0 0 Z " fill="#65D86B" transform="translate(399,272)"/>
<path d="M0 0 C0.66 0 1.32 0 2 0 C2.42511001 10.21838503 1.33378839 19.08139933 -1 29 C-1.33 29 -1.66 29 -2 29 C-2.1074664 22.39753314 -1.71245093 15.99878797 -1 9.4375 C-0.90460938 8.52419922 -0.80921875 7.61089844 -0.7109375 6.66992188 C-0.47808125 4.44614468 -0.24104145 2.22290224 0 0 Z " fill="#91E88D" transform="translate(314,415)"/>
<path d="M0 0 C0.90720795 0.00141495 1.81441589 0.0028299 2.74911499 0.00428772 C5.65308905 0.00989529 8.55698665 0.02244907 11.4609375 0.03515625 C13.42708222 0.04017027 15.39322815 0.04473335 17.359375 0.04882812 C22.1849254 0.05986719 27.01041847 0.0771369 31.8359375 0.09765625 C31.8359375 0.42765625 31.8359375 0.75765625 31.8359375 1.09765625 C30.82281494 1.11747559 29.80969238 1.13729492 28.76586914 1.15771484 C24.96925031 1.23439236 21.17298409 1.32300815 17.37670898 1.41503906 C15.74071264 1.45307425 14.10463989 1.48796913 12.46850586 1.51953125 C0.02091777 1.72758164 0.02091777 1.72758164 -12.1640625 4.09765625 C-11.8340625 3.10765625 -11.5040625 2.11765625 -11.1640625 1.09765625 C-7.72801485 -0.62036757 -3.77967354 -0.02200555 0 0 Z " fill="#4DBCC5" transform="translate(89.1640625,67.90234375)"/>
<path d="M0 0 C2.97 0.495 2.97 0.495 6 1 C6.33 2.32 6.66 3.64 7 5 C7.66 5 8.32 5 9 5 C9.33 6.65 9.66 8.3 10 10 C10.66 10 11.32 10 12 10 C12.33 11.32 12.66 12.64 13 14 C13.66 14 14.32 14 15 14 C14.67 15.32 14.34 16.64 14 18 C11.85110957 15.37748931 9.70641627 12.75157805 7.5625 10.125 C6.95083984 9.37863281 6.33917969 8.63226563 5.70898438 7.86328125 C4.8340332 6.79013672 4.8340332 6.79013672 3.94140625 5.6953125 C3.13231812 4.7055542 3.13231812 4.7055542 2.30688477 3.69580078 C1 2 1 2 0 0 Z " fill="#81E383" transform="translate(344,315)"/>
<path d="M0 0 C0.66 0 1.32 0 2 0 C2.99384397 3.25258026 3.04826731 6.03465371 2.87890625 9.421875 C2.83056641 10.44667969 2.78222656 11.47148437 2.73242188 12.52734375 C2.67634766 13.59082031 2.62027344 14.65429688 2.5625 15.75 C2.51029297 16.82894531 2.45808594 17.90789062 2.40429688 19.01953125 C2.27480531 21.67999422 2.13984639 24.34006452 2 27 C1.34 27 0.68 27 0 27 C0 18.09 0 9.18 0 0 Z " fill="#9AE89A" transform="translate(314,276)"/>
<path d="M0 0 C0.66 0 1.32 0 2 0 C2 0.66 2 1.32 2 2 C2.61875 2.268125 3.2375 2.53625 3.875 2.8125 C6 4 6 4 8 7 C8.99 7.33 9.98 7.66 11 8 C12.39712274 9.95597184 13.73779907 11.95436401 15 14 C9.7928625 14 7.94000685 12.19670092 3.99609375 9.0234375 C1.140068 6.12828811 0.56758274 3.97307921 0 0 Z " fill="#64E268" transform="translate(344,202)"/>
<path d="M0 0 C-4.85686254 3.19165252 -9.59862298 5.79943899 -15 8 C-16.6396875 8.86625 -16.6396875 8.86625 -18.3125 9.75 C-19.199375 10.1625 -20.08625 10.575 -21 11 C-21.66 10.67 -22.32 10.34 -23 10 C-17.31386864 5.13334051 -7.69248024 -2.56416008 0 0 Z " fill="#72D887" transform="translate(283,174)"/>
<path d="M0 0 C2.71162689 3.61550252 4.09897079 6.34024782 5.6875 10.5 C6.12449219 11.6240625 6.56148438 12.748125 7.01171875 13.90625 C8 17 8 17 8 21 C7.01 20.67 6.02 20.34 5 20 C3.47839986 16.3962102 3 13.94779314 3 10 C2.34 10 1.68 10 1 10 C0.67 6.7 0.34 3.4 0 0 Z " fill="#90E48C" transform="translate(493,45)"/>
<path d="M0 0 C4.97093766 1.39760405 8.70089709 3.5146836 12.875 6.4375 C13.46796875 6.83259766 14.0609375 7.22769531 14.671875 7.63476562 C16.3671875 8.80859375 16.3671875 8.80859375 19 11 C19 11.99 19 12.98 19 14 C18.67 13.34 18.34 12.68 18 12 C16.34750513 11.29894157 14.67632417 10.64199649 13 10 C10.31308481 8.70630009 7.65528107 7.35729007 5 6 C5 5.34 5 4.68 5 4 C4.360625 3.896875 3.72125 3.79375 3.0625 3.6875 C2.381875 3.460625 1.70125 3.23375 1 3 C0.67 2.01 0.34 1.02 0 0 Z " fill="#7EE17B" transform="translate(452,7)"/>
<path d="M0 0 C0.33 0 0.66 0 1 0 C1.13277344 0.80824219 1.26554688 1.61648438 1.40234375 2.44921875 C1.57894531 3.51785156 1.75554688 4.58648437 1.9375 5.6875 C2.11152344 6.74324219 2.28554688 7.79898437 2.46484375 8.88671875 C2.64144531 9.91410156 2.81804687 10.94148438 3 12 C3.21849609 13.40185547 3.21849609 13.40185547 3.44140625 14.83203125 C3.62574219 15.54746094 3.81007812 16.26289063 4 17 C4.66 17.33 5.32 17.66 6 18 C5.34 20.31 4.68 22.62 4 25 C-1.06397901 17.40403149 -0.22221635 8.78989105 0 0 Z " fill="#70DAB8" transform="translate(0,417)"/>
<path d="M0 0 C1.13672994 3.41018982 0.85110129 4.16728404 -0.3125 7.4375 C-0.57675781 8.19933594 -0.84101563 8.96117187 -1.11328125 9.74609375 C-1.96253846 11.90477839 -2.92768395 13.94433735 -4 16 C-4.66 16 -5.32 16 -6 16 C-6 16.66 -6 17.32 -6 18 C-6.66 18 -7.32 18 -8 18 C-6.10463724 11.48180123 -3.4821006 5.82185199 0 0 Z " fill="#6BCDE5" transform="translate(12,39)"/>
<path d="M0 0 C0.33 1.32 0.66 2.64 1 4 C-0.32 4.33 -1.64 4.66 -3 5 C-3.10441406 5.55171875 -3.20882812 6.1034375 -3.31640625 6.671875 C-4.14560384 9.49588509 -5.4279965 11.72554916 -6.9375 14.25 C-7.46214844 15.14203125 -7.98679688 16.0340625 -8.52734375 16.953125 C-9.01332031 17.62859375 -9.49929687 18.3040625 -10 19 C-10.66 19 -11.32 19 -12 19 C-10.68981854 14.38706943 -8.87491682 11.07617606 -6 7.25 C-5.29875 6.30640625 -4.5975 5.3628125 -3.875 4.390625 C-2 2 -2 2 0 0 Z " fill="#92E79A" transform="translate(259,185)"/>
<path d="M0 0 C0.99 0 1.98 0 3 0 C4.97265625 2.37109375 4.97265625 2.37109375 7.0625 5.4375 C9.48320475 9.33177834 9.48320475 9.33177834 13 12 C14.1875 13.875 14.1875 13.875 15 16 C14.67 16.99 14.34 17.98 14 19 C11.851455 16.21041079 9.70663085 13.41798301 7.5625 10.625 C6.95083984 9.8309375 6.33917969 9.036875 5.70898438 8.21875 C5.12568359 7.45820313 4.54238281 6.69765625 3.94140625 5.9140625 C3.40201416 5.2123291 2.86262207 4.5105957 2.30688477 3.78759766 C1 2 1 2 0 0 Z " fill="#87DF84" transform="translate(359,334)"/>
<path d="M0 0 C0.66 0 1.32 0 2 0 C-0.78535495 12.04877026 -0.78535495 12.04877026 -5 16 C-5.99 16.33 -6.98 16.66 -8 17 C-8 14 -8 14 -6.6875 12.625 C-6.130625 12.08875 -5.57375 11.5525 -5 11 C-2.62490923 7.48486566 -1.22572725 4.05432859 0 0 Z " fill="#72E36C" transform="translate(306,451)"/>
<path d="M0 0 C0.66 0 1.32 0 2 0 C2 0.99 2 1.98 2 3 C3.32 3.33 4.64 3.66 6 4 C6.33 5.65 6.66 7.3 7 9 C7.66 9 8.32 9 9 9 C9 10.65 9 12.3 9 14 C4.9918197 10.32583472 2.47408385 6.85653496 0 2 C0 1.34 0 0.68 0 0 Z " fill="#66D9A7" transform="translate(8,451)"/>
<path d="M0 0 C0.99 0 1.98 0 3 0 C2.35096 3.50481599 0.87822891 5.99483374 -1 9 C-1.68096422 10.32608822 -2.35330586 11.65686601 -3 13 C-3.99 12.67 -4.98 12.34 -6 12 C-5.1875 9.0625 -5.1875 9.0625 -4 6 C-3.01 5.67 -2.02 5.34 -1 5 C-0.67 3.35 -0.34 1.7 0 0 Z " fill="#51BCCC" transform="translate(73,71)"/>
<path d="M0 0 C0.66 0 1.32 0 2 0 C2 4.29 2 8.58 2 13 C1.01 12.67 0.02 12.34 -1 12 C-2.36884358 7.48281619 -1.47075246 4.41225737 0 0 Z " fill="#47C3B5" transform="translate(68,201)"/>
<path d="M0 0 C1.98 0 3.96 0 6 0 C-0.29351857 4.19567905 -6.53180074 5.40735632 -14 5 C-13.67 4.34 -13.34 3.68 -13 3 C-10.69 3 -8.38 3 -6 3 C-6 2.34 -6 1.68 -6 1 C-3.03 1.495 -3.03 1.495 0 2 C0 1.34 0 0.68 0 0 Z " fill="#9CE797" transform="translate(263,493)"/>
<path d="M0 0 C2.60001865 3.90002798 1.94309716 5.56367141 1.25 10.125 C1.06953125 11.38570312 0.8890625 12.64640625 0.703125 13.9453125 C0.47109375 14.95335938 0.2390625 15.96140625 0 17 C-0.66 17.33 -1.32 17.66 -2 18 C-3.60671734 11.42706544 -2.03358813 6.35352676 0 0 Z " fill="#77CEE1" transform="translate(3,57)"/>
<path d="M0 0 C0.33 1.32 0.66 2.64 1 4 C-0.0725 4.12375 -1.145 4.2475 -2.25 4.375 C-5.37863615 4.89643936 -7.33480424 5.40088254 -10 7 C-10.99 6.34 -11.98 5.68 -13 5 C-11.39967863 4.15930585 -9.79458829 3.32768495 -8.1875 2.5 C-6.84751953 1.80390625 -6.84751953 1.80390625 -5.48046875 1.09375 C-3 0 -3 0 0 0 Z " fill="#67CBE5" transform="translate(58,4)"/>
<path d="M0 0 C0.33 0 0.66 0 1 0 C1.02705308 2.41674224 1.04686438 4.8331794 1.0625 7.25 C1.07087891 7.93191406 1.07925781 8.61382812 1.08789062 9.31640625 C1.10428392 12.69342554 1.05628768 15.77291639 0 19 C-1.65 19 -3.3 19 -5 19 C-5.33 18.34 -5.66 17.68 -6 17 C-4.68 16.67 -3.36 16.34 -2 16 C-1.34 10.72 -0.68 5.44 0 0 Z " fill="#63D775" transform="translate(244,411)"/>
<path d="M0 0 C1.79341438 4.16673521 0.01173384 7.74663341 -1.4375 11.75 C-1.68048828 12.44738281 -1.92347656 13.14476562 -2.17382812 13.86328125 C-2.77310248 15.57885098 -3.38529885 17.28989715 -4 19 C-5.20220203 15.46905698 -4.79532349 12.87101018 -4.0625 9.25 C-3.86785156 8.26515625 -3.67320312 7.2803125 -3.47265625 6.265625 C-3.31667969 5.51796875 -3.16070312 4.7703125 -3 4 C-2.34 4 -1.68 4 -1 4 C-0.67 2.68 -0.34 1.36 0 0 Z " fill="#6AE968" transform="translate(250,200)"/>
<path d="M0 0 C2.475 0.495 2.475 0.495 5 1 C5 1.66 5 2.32 5 3 C5.61875 3.12375 6.2375 3.2475 6.875 3.375 C9 4 9 4 11 6 C10.67 6.99 10.34 7.98 10 9 C8.33043913 7.69118353 6.66441696 6.37785174 5 5.0625 C4.071875 4.33160156 3.14375 3.60070312 2.1875 2.84765625 C1.465625 2.23792969 0.74375 1.62820313 0 1 C0 0.67 0 0.34 0 0 Z " fill="#5CD198" transform="translate(28,477)"/>
<path d="M0 0 C4.84659077 0.59104765 8.60748167 1.97944157 13 4 C11.296875 5.1171875 11.296875 5.1171875 9 6 C6.640625 5.3203125 6.640625 5.3203125 4.25 4.125 C3.45078125 3.73570313 2.6515625 3.34640625 1.828125 2.9453125 C0.92320312 2.47738281 0.92320312 2.47738281 0 2 C0 1.34 0 0.68 0 0 Z " fill="#94E895" transform="translate(439,2)"/>
<path d="M0 0 C1.74834267 2.622514 2.51529754 3.99484478 3 7 C2.67 7.66 2.34 8.32 2 9 C1.34 9 0.68 9 0 9 C-0.28875 8.38125 -0.5775 7.7625 -0.875 7.125 C-1.93720042 4.86674235 -1.93720042 4.86674235 -4 3 C-2.68 2.01 -1.36 1.02 0 0 Z " fill="#49D191" transform="translate(70,414)"/>
<path d="M0 0 C0.66 0 1.32 0 2 0 C2 1.32 2 2.64 2 4 C2.66 4 3.32 4 4 4 C4 5.32 4 6.64 4 8 C3.34 8 2.68 8 2 8 C2 8.66 2 9.32 2 10 C1.34 10 0.68 10 0 10 C0 6.7 0 3.4 0 0 Z " fill="#30CDBB" transform="translate(66,193)"/>
<path d="M0 0 C2.125 0.375 2.125 0.375 4 1 C1.55979025 4.02586009 0.31404342 4.9338856 -3.5625 5.75 C-7 6 -7 6 -10 6 C-7.53264116 3.53264116 -5.27828479 3.0927616 -2 2 C-1.34 1.34 -0.68 0.68 0 0 Z " fill="#61EF65" transform="translate(277,176)"/>
<path d="M0 0 C1.85776765 3.13498292 2.20140476 5.37471432 2 9 C1.01 9 0.02 9 -1 9 C-1.99 9.495 -1.99 9.495 -3 10 C-2.49287967 6.28111761 -1.88391785 3.26545761 0 0 Z " fill="#37BCE2" transform="translate(14,38)"/>
<path d="M0 0 C4.5076467 0.53031138 7.41954788 2.25221116 11 5 C11 5.66 11 6.32 11 7 C6.89188572 5.55007731 3.53144334 3.54592427 0 1 C0 0.67 0 0.34 0 0 Z " fill="#83E483" transform="translate(415,404)"/>
<path d="M0 0 C0 1.65 0 3.3 0 5 C-2.3125 5.6875 -2.3125 5.6875 -5 6 C-6.8125 4.5625 -6.8125 4.5625 -8 3 C-1.125 0 -1.125 0 0 0 Z " fill="#4DC3E9" transform="translate(48,9)"/>
<path d="M0 0 C-1.6188996 1.03048037 -3.24532489 2.04914678 -4.875 3.0625 C-5.77992188 3.63097656 -6.68484375 4.19945312 -7.6171875 4.78515625 C-8.40351563 5.18605469 -9.18984375 5.58695312 -10 6 C-10.66 5.67 -11.32 5.34 -12 5 C-12 4.34 -12 3.68 -12 3 C-10.68 3 -9.36 3 -8 3 C-8 2.34 -8 1.68 -8 1 C-2.25 -1.125 -2.25 -1.125 0 0 Z " fill="#ABEFA7" transform="translate(281,487)"/>
<path d="M0 0 C0.99 0.33 1.98 0.66 3 1 C3 1.99 3 2.98 3 4 C3.66 4 4.32 4 5 4 C4.67 5.32 4.34 6.64 4 8 C2.35 6.35 0.7 4.7 -1 3 C-0.67 2.01 -0.34 1.02 0 0 Z " fill="#85E777" transform="translate(340,306)"/>
<path d="M0 0 C3.9252025 3.70090521 6.94580156 7.54959656 10 12 C6.63820226 10.55922954 4.40843732 8.75249979 2 6 C2 5.34 2 4.68 2 4 C1.34 4 0.68 4 0 4 C0 2.68 0 1.36 0 0 Z " fill="#7CDB89" transform="translate(344,198)"/>
<path d="M0 0 C3.93333333 5.24444444 3.93333333 5.24444444 5 8 C4.67 8.99 4.34 9.98 4 11 C3.01 10.67 2.02 10.34 1 10 C0.67 6.7 0.34 3.4 0 0 Z " fill="#96ED97" transform="translate(493,45)"/>
<path d="M0 0 C3.35620271 1.38877354 5.07298728 2.91677965 7 6 C7 6.66 7 7.32 7 8 C4.13792848 6.71700242 1.9754912 5.469364 0 3 C0 2.01 0 1.02 0 0 Z " fill="#6FD86E" transform="translate(409,396)"/>
<path d="M0 0 C3.17090348 2.11393565 3.3998583 2.79971661 5 6 C6.29470975 7.37086915 7.62150897 8.71340837 9 10 C8.01 10.495 8.01 10.495 7 11 C7 10.34 7 9.68 7 9 C6.401875 8.95875 5.80375 8.9175 5.1875 8.875 C3 8 3 8 1.25 5.0625 C0 2 0 2 0 0 Z " fill="#6BE366" transform="translate(372,347)"/>
<path d="M0 0 C3 2 3 2 4 5 C4.66 5.33 5.32 5.66 6 6 C5.67 7.32 5.34 8.64 5 10 C2.08772731 6.71195019 0.50298788 4.40114397 0 0 Z " fill="#6BE068" transform="translate(334,298)"/>
<path d="M0 0 C1.72526042 1.00911458 3.45052083 2.01822917 5.17578125 3.02734375 C7.13819555 4.13901247 7.13819555 4.13901247 10 5 C10 5.33 10 5.66 10 6 C6.43855901 6.19785783 3.95545121 6.11103658 1 4 C0.25 1.875 0.25 1.875 0 0 Z " fill="#6DE964" transform="translate(464,16)"/>
<path d="M0 0 C1.32 0.33 2.64 0.66 4 1 C4 3.64 4 6.28 4 9 C1.49701566 6.06171403 0.53069061 3.82097239 0 0 Z " fill="#75DCB1" transform="translate(4,442)"/>
<path d="M0 0 C7.625 0.875 7.625 0.875 11 2 C11 2.66 11 3.32 11 4 C7.0507432 3.44894091 3.65079826 2.61064629 0 1 C0 0.67 0 0.34 0 0 Z " fill="#93E690" transform="translate(426,411)"/>
<path d="M0 0 C0.33 0.99 0.66 1.98 1 3 C-1.31 3.33 -3.62 3.66 -6 4 C-6 4.66 -6 5.32 -6 6 C-6.66 5.67 -7.32 5.34 -8 5 C-5.47211993 2.20127563 -3.79588866 0.54226981 0 0 Z " fill="#6CE868" transform="translate(482,403)"/>
<path d="M0 0 C0.99 0 1.98 0 3 0 C1.33248852 3.94139078 -1.22710649 6.7892812 -4 10 C-4 5.75354935 -2.18249194 3.61475228 0 0 Z " fill="#64EC66" transform="translate(256,190)"/>
<path d="M0 0 C3.77545388 1.09068668 6.47043472 1.9083091 9 5 C5.625 4.75 5.625 4.75 2 4 C0.5625 1.9375 0.5625 1.9375 0 0 Z " fill="#92E691" transform="translate(452,7)"/>
<path d="M0 0 C0.66 0.33 1.32 0.66 2 1 C0.02 3.31 -1.96 5.62 -4 8 C-4.33 6.68 -4.66 5.36 -5 4 C-4.01 4 -3.02 4 -2 4 C-2 3.01 -2 2.02 -2 1 C-1.34 0.67 -0.68 0.34 0 0 Z " fill="#83D385" transform="translate(299,467)"/>
<path d="M0 0 C0.66 0 1.32 0 2 0 C2 0.99 2 1.98 2 3 C2.99 3.33 3.98 3.66 5 4 C5 5.65 5 7.3 5 9 C1.9083091 6.47043472 1.09068668 3.77545388 0 0 Z " fill="#89E1BB" transform="translate(8,451)"/>
<path d="M0 0 C1.32 0 2.64 0 4 0 C4.12375 0.639375 4.2475 1.27875 4.375 1.9375 C4.684375 2.9584375 4.684375 2.9584375 5 4 C5.66 4.33 6.32 4.66 7 5 C6.34 5.66 5.68 6.32 5 7 C3.35 4.69 1.7 2.38 0 0 Z " fill="#8DE68B" transform="translate(403,391)"/>
<path d="M0 0 C4.875 4.75 4.875 4.75 6 7 C4.35 6.67 2.7 6.34 1 6 C0.67 4.02 0.34 2.04 0 0 Z " fill="#84E190" transform="translate(383,248)"/>
<path d="M0 0 C2.3431213 0.25561323 4.67843403 0.59270772 7 1 C7.33 1.66 7.66 2.32 8 3 C5.36 3.33 2.72 3.66 0 4 C0 2.68 0 1.36 0 0 Z " fill="#67EB62" transform="translate(445,6)"/>
<path d="M0 0 C0.66 0 1.32 0 2 0 C2 2.64 2 5.28 2 8 C1.01 7.67 0.02 7.34 -1 7 C-0.67 4.69 -0.34 2.38 0 0 Z " fill="#34D298" transform="translate(5,435)"/>
<path d="M0 0 C0.99 0.66 1.98 1.32 3 2 C0.3144406 4.6855594 -2.37621328 5.06049974 -6 6 C-4 4 -2 2 0 0 Z " fill="#89E29D" transform="translate(266,179)"/>
<path d="M0 0 C6.625 0.75 6.625 0.75 10 3 C8.375 3.6875 8.375 3.6875 6 4 C2.75 2.5625 2.75 2.5625 0 1 C0 0.67 0 0.34 0 0 Z " fill="#7ADDAA" transform="translate(44,489)"/>
<path d="M0 0 C1.65 0 3.3 0 5 0 C3.35 1.65 1.7 3.3 0 5 C-0.66 4.67 -1.32 4.34 -2 4 C-1.34 2.68 -0.68 1.36 0 0 Z " fill="#95E48A" transform="translate(283,481)"/>
<path d="M0 0 C-2.91765 1.9451 -4.62537285 2.45276317 -8 3 C-7.67 2.01 -7.34 1.02 -7 0 C-4.3333581 -1.33332095 -2.83319697 -0.67102033 0 0 Z " fill="#67C2CD" transform="translate(85,69)"/>
</svg>
