<?xml version="1.0" encoding="UTF-8"?>
<svg version="1.1" xmlns="http://www.w3.org/2000/svg" width="491" height="421">
<path d="M0 0 C162.03 0 324.06 0 491 0 C491 138.93 491 277.86 491 421 C328.97 421 166.94 421 0 421 C0 282.07 0 143.14 0 0 Z " fill="#2A343C" transform="translate(0,0)"/>
<path d="M0 0 C40.59 0 81.18 0 123 0 C123 27.06 123 54.12 123 82 C109.47 82 95.94 82 82 82 C82 89.59 82 97.18 82 105 C54.94 105 27.88 105 0 105 C0 70.35 0 35.7 0 0 Z " fill="#2D353D" transform="translate(189,140)"/>
<path d="M0 0 C40.59 0 81.18 0 123 0 C123 31.02 123 62.04 123 94 C82.41 94 41.82 94 0 94 C0 62.98 0 31.96 0 0 Z " fill="#2E363E" transform="translate(53,151)"/>
<path d="M0 0 C40.59 0 81.18 0 123 0 C123 31.02 123 62.04 123 94 C82.41 94 41.82 94 0 94 C0 62.98 0 31.96 0 0 Z " fill="#F0F3F3" transform="translate(325,151)"/>
<path d="M0 0 C13.2 0 26.4 0 40 0 C40 11.88 40 23.76 40 36 C35.71 36 31.42 36 27 36 C27 39.63 27 43.26 27 47 C31.29 47 35.58 47 40 47 C40 54.59 40 62.18 40 70 C26.47 70 12.94 70 -1 70 C-1 62.41 -1 54.82 -1 47 C-5.29 47 -9.58 47 -14 47 C-14 54.59 -14 62.18 -14 70 C-27.53 70 -41.06 70 -55 70 C-55 62.41 -55 54.82 -55 47 C-50.38 47 -45.76 47 -41 47 C-41 43.04 -41 39.08 -41 35 C-45.29 35 -49.58 35 -54 35 C-54 23.78 -54 12.56 -54 1 C-41.13 1 -28.26 1 -15 1 C-15 8.59 -15 16.18 -15 24 C-10.05 24 -5.1 24 0 24 C0 16.08 0 8.16 0 0 Z " fill="#2F373E" transform="translate(394,163)"/>
<path d="M0 0 C40.59 0 81.18 0 123 0 C123 31.02 123 62.04 123 94 C82.41 94 41.82 94 0 94 C0 62.98 0 31.96 0 0 Z M14 13 C14 35.77 14 58.54 14 82 C27.53 82 41.06 82 55 82 C55 70.78 55 59.56 55 48 C59.29 48 63.58 48 68 48 C68 59.22 68 70.44 68 82 C81.53 82 95.06 82 109 82 C109 59.23 109 36.46 109 13 C77.65 13 46.3 13 14 13 Z " fill="#F0F3F4" transform="translate(53,151)"/>
<path d="M0 0 C40.59 0 81.18 0 123 0 C123 27.06 123 54.12 123 82 C109.47 82 95.94 82 82 82 C82 89.59 82 97.18 82 105 C54.94 105 27.88 105 0 105 C0 70.35 0 35.7 0 0 Z M14 12 C14 38.73 14 65.46 14 93 C31.82 93 49.64 93 68 93 C68 85.41 68 77.82 68 70 C81.53 70 95.06 70 109 70 C109 50.86 109 31.72 109 12 C77.65 12 46.3 12 14 12 Z " fill="#F2F5F6" transform="translate(189,140)"/>
<path d="M0 0 C9.24 0 18.48 0 28 0 C28 3.96 28 7.92 28 12 C18.76 12 9.52 12 0 12 C0 8.04 0 4.08 0 0 Z " fill="#ECF0F1" transform="translate(243,175)"/>
<path d="M0 0 C0.33 0 0.66 0 1 0 C1.33 7.26 1.66 14.52 2 22 C-6.25 22 -14.5 22 -23 22 C-23 21.67 -23 21.34 -23 21 C-15.74 20.67 -8.48 20.34 -1 20 C-0.67 13.4 -0.34 6.8 0 0 Z " fill="#232A2F" transform="translate(377,210)"/>
</svg>
