<?xml version="1.0" standalone="no"?>
<!DOCTYPE svg PUBLIC "-//W3C//DTD SVG 20010904//EN"
 "http://www.w3.org/TR/2001/REC-SVG-20010904/DTD/svg10.dtd">
<svg version="1.0" xmlns="http://www.w3.org/2000/svg"
 width="230.000000pt" height="230.000000pt" viewBox="0 0 230.000000 230.000000"
 preserveAspectRatio="xMidYMid meet">
<metadata>
Created by potrace 1.16, written by Peter Selinger 2001-2019
</metadata>
<g transform="translate(0.000000,230.000000) scale(0.100000,-0.100000)"
fill="#000000" stroke="none">
<path d="M0 1150 l0 -1150 1150 0 1150 0 0 1150 0 1150 -1150 0 -1150 0 0
-1150z m979 755 c32 -16 124 -121 148 -169 8 -17 25 -42 37 -56 13 -14 32 -41
43 -60 59 -105 37 -120 -174 -120 -142 0 -150 1 -185 25 -48 32 -67 88 -47
131 13 26 20 29 74 34 33 3 66 9 73 13 18 12 15 52 -8 97 -25 48 -27 120 -5
120 9 0 29 -7 44 -15z m47 -624 c40 -21 68 -65 60 -93 -5 -21 19 -74 39 -85
16 -10 85 -183 85 -215 1 -33 18 -51 75 -78 28 -13 58 -30 67 -38 19 -16 33
-89 24 -120 -8 -23 -54 -42 -103 -42 -61 0 -58 -63 11 -186 31 -55 34 -94 9
-94 -22 0 -126 100 -158 149 -12 20 -41 54 -64 76 -22 22 -47 57 -56 77 -8 21
-30 52 -50 70 -46 43 -50 77 -11 97 34 16 93 33 117 32 26 0 32 55 12 101 -9
21 -21 38 -26 38 -10 0 -46 41 -47 53 0 5 -13 38 -30 74 -16 35 -30 70 -30 77
0 6 -5 17 -11 23 -14 14 5 70 29 91 20 15 15 16 58 -7z"/>
</g>
</svg>
