<svg id="Layer_1" data-name="Layer 1" xmlns="http://www.w3.org/2000/svg" viewBox="0 0 27.35 49.12" xmlns:xlink="http://www.w3.org/1999/xlink">
 <defs>
  <style>
   .cls-1{fill:#efd11e}
  </style>
 </defs>
 <path class="cls-1" d="M4.71 0L9.1 10.58H3.51l1.85 4.66h11.33L4.71 0zM19.61 38.53l-1.87-4.66h-2.6l-5.39-13.1H7.43l5.39 13.1H6.23l12.18 15.25-4.39-10.59h5.59z">
 </path>
 <path d="M21.12 19.9c.13 0 .45-.17.45-1.79s-.32-1.79-.45-1.79h-7.81l1.48 3.58zM16.57 24.2h5.24c.14 0 .46-.18.46-1.79s-.32-1.8-.46-1.8h-6.72zM21.12 29.22h-7.06l1.49 3.58h5.57c.13 0 .45-.17.45-1.79s-.32-1.79-.45-1.79zM21.81 24.92h-9.52l1.48 3.58h8c.14 0 .46-.17.46-1.79s-.23-1.79-.42-1.79z">
 </path>
 <path d="M21.12 29.22h-7.06l1.49 3.58h5.57c.13 0 .45-.17.45-1.79s-.32-1.79-.45-1.79zM21.81 24.92h-9.52l1.48 3.58h8c.14 0 .46-.17.46-1.79s-.23-1.79-.42-1.79z">
 </path>
 <path d="M8 24.23L6.3 19.9h3.92L12 24.23h3.73l-3.25-7.88H4.37c-.62 0-1 0-1.25.93-.34 1.11-.38 3.22-.38 7.31s0 6.19.38 7.31c.28.93.63.93 1.25.93h7.14L8 24.2z">
 </path>
</svg>