<?xml version="1.0" encoding="UTF-8"?>
<svg version="1.1" xmlns="http://www.w3.org/2000/svg" width="498" height="498">
<path d="M0 0 C1.54068913 -0.00679667 1.54068913 -0.00679667 3.11250329 -0.01373065 C6.55309566 -0.02638746 9.99353 -0.02475342 13.43414307 -0.02310181 C15.90153202 -0.02908628 18.3689191 -0.03589163 20.83630371 -0.04345703 C26.84268792 -0.05929716 32.84901004 -0.06556583 38.85540935 -0.06668179 C43.73981643 -0.06763315 48.62421059 -0.07174787 53.50861359 -0.07808304 C67.36757178 -0.09569158 81.22649904 -0.10492263 95.0854685 -0.10342209 C95.83217173 -0.10334218 96.57887496 -0.10326227 97.34820557 -0.10317993 C98.46963378 -0.10305729 98.46963378 -0.10305729 99.61371711 -0.10293217 C111.72490407 -0.10211959 123.83596657 -0.1212512 135.94711754 -0.14945666 C148.39332122 -0.17821285 160.83946426 -0.19199543 173.28570199 -0.19026911 C180.26905083 -0.18960611 187.25226922 -0.19505886 194.23558807 -0.21662521 C200.80525442 -0.23678457 207.37469281 -0.23613537 213.94438934 -0.22159195 C216.35258385 -0.21950206 218.76079555 -0.22421537 221.16896057 -0.23631287 C224.46289747 -0.25178532 227.75588767 -0.24244297 231.04980469 -0.22705078 C231.99710253 -0.23733791 232.94440036 -0.24762503 233.9204042 -0.25822389 C242.57515659 -0.16918523 250.81157967 2.31337133 257.18121338 8.41195679 C263.64097405 15.91412383 265.2958219 23.06302625 266.10357666 32.63363647 C267.0256148 43.19597214 270.49131477 52.37481538 277.77886963 60.26742554 C286.93058061 67.52049797 295.80841986 70.37203701 307.21636963 71.57992554 C314.96998759 72.55901247 321.0706292 73.53323856 326.77886963 79.26742554 C327.42855713 79.87844116 328.07824463 80.48945679 328.74761963 81.11898804 C333.1621731 85.66018853 335.34778802 90.13579127 336.77886963 96.26742554 C336.951604 96.95771851 337.12433838 97.64801147 337.30230713 98.35922241 C337.93723767 102.23386 337.92119976 106.06015271 337.91168213 109.97445679 C337.91313736 110.83622528 337.91459259 111.69799377 337.91609192 112.58587646 C337.91834759 115.41726971 337.91202957 118.24854411 337.90386963 121.07992554 C337.90198639 122.04773956 337.90010315 123.01555359 337.89816284 124.01269531 C337.8672283 137.62991458 337.77730705 151.24810019 337.5144043 164.86297607 C337.48265563 166.57613336 337.4554348 168.28938119 337.4329834 170.00268555 C337.2492215 183.22232158 336.36677345 193.37209394 326.77886963 203.26742554 C320.5650261 208.4688302 314.06406117 209.76849682 306.18902588 210.68539429 C298.73960343 211.556106 292.28230193 212.398783 285.77886963 216.26742554 C285.105979 216.66574585 284.43308838 217.06406616 283.73980713 217.47445679 C275.78122434 222.80578541 269.6625419 231.04343476 267.27496338 240.34164429 C266.75915727 243.38368187 266.4578498 246.39993095 266.17633057 249.47055054 C265.20264396 259.83238751 262.77765965 267.70803075 255.09136963 275.20492554 C244.1721728 283.48179542 232.30719447 282.8215267 219.25274658 282.7215271 C217.18218508 282.72039739 215.11162198 282.72103488 213.0410614 282.72329712 C207.44670783 282.72444038 201.85270036 282.70099385 196.2584269 282.67300129 C190.40215597 282.64792288 184.54587629 282.64564056 178.68955994 282.64089966 C167.61173554 282.6284888 156.53406986 282.59569272 145.45631522 282.5555017 C132.83963577 282.51072518 120.22294858 282.48878215 107.6062094 282.46871996 C81.66367497 282.42695846 55.72128121 282.35664315 29.77886963 282.26742554 C29.66003418 282.87908569 29.54119873 283.49074585 29.41876221 284.12094116 C28.45424134 287.35637322 26.19109753 288.94731949 23.77886963 291.26742554 C21.97848817 293.37921318 20.28670187 295.57085659 18.59136963 297.76742554 C18.12158691 298.36893433 17.6518042 298.97044312 17.16778564 299.59017944 C14.7209819 302.73004638 12.30348976 305.89016937 9.91168213 309.07211304 C9.45817383 309.67217163 9.00466553 310.27223022 8.53741455 310.89047241 C7.66981003 312.0410786 6.80779368 313.19592406 5.95196533 314.35531616 C4.94090997 315.69584009 3.86544482 316.98735066 2.77886963 318.26742554 C2.11886963 318.26742554 1.45886963 318.26742554 0.77886963 318.26742554 C0.38828369 319.12014038 0.38828369 319.12014038 -0.01019287 319.99008179 C-1.32565781 322.46400456 -2.85487706 324.51125052 -4.59613037 326.70492554 C-5.2174585 327.48867554 -5.83878662 328.27242554 -6.47894287 329.07992554 C-7.05386475 329.80180054 -7.62878662 330.52367554 -8.22113037 331.26742554 C-9.33488037 332.72148804 -9.33488037 332.72148804 -10.47113037 334.20492554 C-12.65280172 336.77618105 -14.33320785 338.13500381 -17.70941162 338.63851929 C-26.27465246 338.83991499 -26.27465246 338.83991499 -29.84613037 335.95492554 C-33.67927209 331.61742306 -33.37146374 327.69822968 -33.37884521 322.19100952 C-33.38392593 321.3678273 -33.38900665 320.54464508 -33.39424133 319.69651794 C-33.4049449 317.907369 -33.41356513 316.11820667 -33.42036057 314.32903862 C-33.43216332 311.49056431 -33.45162267 308.6522412 -33.47348022 305.81382751 C-33.53502923 297.74266655 -33.58901193 289.6715192 -33.62249756 281.60018921 C-33.64353399 276.66232792 -33.6789147 271.72473954 -33.72325516 266.78703499 C-33.73735097 264.91134941 -33.74612299 263.03561552 -33.74930954 261.15987968 C-33.77330865 248.37861503 -34.48658889 238.41425281 -41.22113037 227.26742554 C-41.22113037 226.60742554 -41.22113037 225.94742554 -41.22113037 225.26742554 C-41.88113037 225.26742554 -42.54113037 225.26742554 -43.22113037 225.26742554 C-44.24206787 223.93711304 -44.24206787 223.93711304 -45.28363037 222.57992554 C-51.41227954 214.98183417 -61.69498379 211.91392285 -71.06097412 210.81820679 C-72.44762989 210.67566567 -73.83435001 210.53374936 -75.22113037 210.39242554 C-83.12517933 209.56762305 -90.88598509 207.57871728 -96.22113037 201.26742554 C-96.22113037 200.60742554 -96.22113037 199.94742554 -96.22113037 199.26742554 C-97.21113037 198.93742554 -98.20113037 198.60742554 -99.22113037 198.26742554 C-103.37028288 192.84026589 -103.79971979 187.08362687 -103.7387085 180.49008179 C-103.74571777 179.545914 -103.75272705 178.60174622 -103.75994873 177.62896729 C-103.77745655 174.52898151 -103.7659314 171.4299195 -103.75238037 168.32992554 C-103.75507735 166.16333848 -103.75896149 163.99675261 -103.76397705 161.83016968 C-103.76986235 157.29774407 -103.76134016 152.7656346 -103.74261475 148.23324585 C-103.7198261 142.43618096 -103.73295434 136.63985695 -103.7569046 130.84281921 C-103.7713886 126.3714138 -103.7667446 121.90018277 -103.75639343 117.42877197 C-103.75373335 115.29182853 -103.75697049 113.15486902 -103.76631165 111.01794434 C-103.77651993 108.02646199 -103.7609159 105.03616389 -103.7387085 102.04476929 C-103.74680542 101.16972748 -103.75490234 100.29468567 -103.76324463 99.39312744 C-103.64577241 90.81104729 -100.29351967 84.33981484 -94.22113037 78.26742554 C-86.5544443 72.75060732 -78.61833225 71.95955222 -69.45941162 70.88461304 C-57.62881985 69.29951548 -49.24573654 64.11974458 -41.22113037 55.26742554 C-36.49368397 48.03266527 -34.311254 40.60198994 -33.84613037 32.01742554 C-33.12214166 21.50752272 -30.03701871 13.47030303 -22.22113037 6.26742554 C-15.08015906 0.72952942 -8.73765447 -0.02830131 0 0 Z M-33.58831787 76.05258179 C-40.77534401 85.80149044 -43.37377983 95.53036039 -43.36639404 107.53842163 C-43.36975266 108.33453354 -43.37311127 109.13064545 -43.37657166 109.95088196 C-43.38601571 112.56422516 -43.38802138 115.17750386 -43.38909912 117.79086304 C-43.39231599 119.62017848 -43.39568038 121.44949368 -43.39918518 123.27880859 C-43.40515989 127.10672604 -43.40702676 130.93462095 -43.40643311 134.76254272 C-43.40633152 139.65020833 -43.4199877 144.53772855 -43.43720531 149.42535973 C-43.4483619 153.20191095 -43.4503512 156.97842742 -43.44982338 160.75499344 C-43.45099783 162.55618415 -43.45538931 164.35737592 -43.46315575 166.15855026 C-43.4730309 168.68501528 -43.47004831 171.2111696 -43.46405029 173.73764038 C-43.4696698 174.47039688 -43.47528931 175.20315338 -43.4810791 175.95811462 C-43.40911817 187.97818226 -39.44754132 199.30983974 -30.97113037 208.01742554 C-28.50370804 210.62620028 -28.50370804 210.62620028 -25.22113037 211.26742554 C-25.22113037 211.92742554 -25.22113037 212.58742554 -25.22113037 213.26742554 C-23.53665019 214.06549752 -21.8483691 214.85554855 -20.15863037 215.64242554 C-19.21890381 216.08328491 -18.27917725 216.52414429 -17.31097412 216.97836304 C-10.34182028 219.88584821 -4.54344172 220.56091655 2.94821167 220.5415802 C3.95774127 220.54681688 4.96727088 220.55205356 6.00739229 220.55744892 C9.38259305 220.57242362 12.75764186 220.57315353 16.13287354 220.57382202 C18.55613459 220.58144528 20.97939323 220.58987307 23.40264893 220.5990448 C29.98141253 220.62098222 36.56014027 220.6298101 43.13893175 220.63487124 C47.25194177 220.63813451 51.36494249 220.64466083 55.47794724 220.65187263 C66.88055684 220.67143281 78.28315783 220.68784014 89.68578529 220.69074917 C90.41473673 220.69093674 91.14368817 220.69112431 91.89472904 220.69131756 C93.37229816 220.6916838 94.84986728 220.6920475 96.3274364 220.69240867 C97.06083808 220.69259148 97.79423975 220.6927743 98.54986572 220.69296265 C99.28416964 220.6931432 100.01847356 220.69332374 100.77502911 220.69350976 C112.66429184 220.69704885 124.55337316 220.7240571 136.44257303 220.76146054 C148.66847125 220.79961328 160.89427962 220.81890716 173.12023866 220.81920868 C179.97683218 220.81979172 186.83320931 220.82818431 193.68974686 220.85720634 C200.14291129 220.88439665 206.595761 220.88556595 213.04896545 220.8695507 C215.41075449 220.86773981 217.77256835 220.87439419 220.13430405 220.89036942 C237.7322015 221.002099 250.86106366 219.60294852 264.12261963 207.04867554 C275.70323375 195.16726625 275.37104786 182.63390572 275.27496338 166.94711304 C275.2751186 164.87689157 275.27661148 162.80666982 275.27937317 160.7364502 C275.28075198 156.41444935 275.26828386 152.09278244 275.24542236 147.77084351 C275.21700388 142.24869462 275.21979184 136.72709839 275.23251247 131.20490837 C275.23948687 126.93592661 275.23166083 122.66707123 275.21925545 118.39810562 C275.21476059 116.36247366 275.21438684 114.32682804 275.21832085 112.29119492 C275.22125132 109.44168288 275.20463995 106.59291713 275.18292236 103.74349976 C275.18742401 102.91416931 275.19192566 102.08483887 275.19656372 101.2303772 C275.05587126 90.04550563 270.57999159 81.69657367 263.13824463 73.54867554 C249.12102623 59.99560344 232.52320418 60.82678958 214.300354 60.87924194 C211.92399352 60.8751721 209.54763494 60.86982791 207.17127991 60.86331177 C200.74365628 60.84968162 194.31617775 60.85491911 187.88855171 60.86444902 C183.8681547 60.86979918 179.84777604 60.86877027 175.82737732 60.86597824 C174.82339398 60.86528869 174.82339398 60.86528869 173.79912814 60.86458521 C172.43902432 60.86362595 171.0789205 60.86265331 169.7188167 60.86166744 C156.99248502 60.85313153 144.26621839 60.86291933 131.53989738 60.87906854 C120.64182043 60.89247009 109.74383938 60.89014149 98.84576416 60.87631226 C86.16212529 60.86022453 73.4785433 60.85395534 60.79489565 60.86314905 C59.44005109 60.8641046 58.08520652 60.86504772 56.73036194 60.86597824 C56.06391154 60.86644107 55.39746114 60.86690389 54.71081528 60.86738075 C50.03501186 60.86996108 45.35925569 60.86547215 40.68345642 60.85853958 C34.37963505 60.84984533 28.07599399 60.85593687 21.772192 60.87322235 C19.46481818 60.87717405 17.15742907 60.87607585 14.85006142 60.86943436 C-3.76135171 60.82082073 -19.96007339 61.53553875 -33.58831787 76.05258179 Z " fill="#000101" transform="translate(103.22113037109375,60.732574462890625)"/>
<path d="M0 0 C3.82820964 3.64983428 7.03608584 7.46141581 10.125 11.75 C10.76888672 12.60464844 10.76888672 12.60464844 11.42578125 13.4765625 C16.7506886 20.84951114 18.45235625 28.31934538 18.41992188 37.30834961 C18.42839142 38.19092941 18.43686096 39.07350922 18.44558716 39.98283386 C18.46880483 42.8728209 18.46998306 45.76227088 18.46875 48.65234375 C18.47586006 50.67818917 18.48356028 52.7040326 18.49182129 54.72987366 C18.50523062 58.96539923 18.50685051 63.2007385 18.50097656 67.4362793 C18.49507968 72.84423129 18.52568867 78.2512858 18.56609344 83.65906429 C18.59203221 87.83973444 18.59484233 92.02019012 18.59120178 96.20092964 C18.59288681 98.19389669 18.60246936 100.18687431 18.62034607 102.17976189 C18.72143311 114.83950228 18.51019753 124.23727178 9.5 133.9375 C1.95026079 140.83919293 -5.5200338 141.72413359 -15.4375 142.875 C-28.55703606 144.55766595 -37.86596102 149.52494492 -46 160 C-51.15807096 167.09645431 -52.79764016 175.42886955 -53.66186523 184.02563477 C-54.8021234 195.25711234 -57.94377624 201.57299283 -66.23046875 209.2734375 C-76.26087918 215.52652835 -87.82030338 214.37054851 -99.17797852 214.2578125 C-101.22393213 214.24881083 -103.26989274 214.24129737 -105.31585693 214.2351532 C-109.70670222 214.21981948 -114.09739099 214.19601924 -118.48816109 214.16616821 C-125.43506449 214.12102791 -132.38180838 214.10740084 -139.32884216 214.1003418 C-159.07812267 214.07686201 -178.82701819 214.03600371 -198.57592773 213.90771484 C-209.49475799 213.83704252 -220.41295837 213.80549154 -231.33201927 213.81800461 C-237.10471077 213.82292206 -242.87576164 213.80744107 -248.64813423 213.74346924 C-254.07513664 213.68342984 -259.49983333 213.67446376 -264.92706299 213.7042942 C-266.91487575 213.70609318 -268.90281028 213.68913156 -270.89027214 213.65173912 C-281.64675798 213.16909584 -281.64675798 213.16909584 -291.11317253 217.38951111 C-293.40409189 220.15693617 -295.20754959 222.89428926 -297 226 C-298.1080692 227.40610343 -299.23825065 228.79561176 -300.40625 230.15234375 C-301.43807639 231.41359118 -302.46932942 232.67530789 -303.5 233.9375 C-304.32238159 234.94393555 -304.32238159 234.94393555 -305.16137695 235.97070312 C-309.38447375 241.16950006 -313.39141899 246.49415043 -317.29296875 251.9375 C-317.85628906 252.618125 -318.41960937 253.29875 -319 254 C-319.66 254 -320.32 254 -321 254 C-321.2475 254.73734375 -321.495 255.4746875 -321.75 256.234375 C-323.11873712 259.26270589 -324.6174593 260.95505271 -327 263.25 C-327.70125 263.93578125 -328.4025 264.6215625 -329.125 265.328125 C-333.04956145 268.82752562 -336.9479563 268.33405555 -342.015625 268.2734375 C-346.07753773 267.90127272 -348.08460596 266.84250919 -351 264 C-354.19383221 260.03281848 -355.73358933 256.20910159 -355.36010742 251.078125 C-354.24206941 244.62609819 -348.87733673 239.12709157 -344.8125 234.25 C-344.23516113 233.5482666 -343.65782227 232.8465332 -343.06298828 232.12353516 C-341.37976022 230.07864496 -339.69044698 228.03892315 -338 226 C-333.12888919 220.08673394 -328.29802186 214.14733033 -323.5625 208.125 C-323.15628418 207.60856934 -322.75006836 207.09213867 -322.33154297 206.56005859 C-321.91404785 206.02719238 -321.49655273 205.49432617 -321.06640625 204.9453125 C-320.61497002 204.39826157 -320.16353378 203.85121063 -319.69841766 203.2875824 C-317.86958218 200.92876153 -317.86958218 200.92876153 -316.23477936 197.82328796 C-313.65117034 193.43701639 -310.91856818 189.06653403 -305.95505905 187.25271606 C-299.85636704 186.05972381 -293.65212496 186.36399832 -287.47070312 186.51171875 C-285.38695555 186.5137109 -283.3031956 186.50989954 -281.21946716 186.50074768 C-276.74573321 186.4935409 -272.27486939 186.52721414 -267.80162048 186.59313965 C-260.72392754 186.69730301 -253.64780999 186.71044459 -246.56945801 186.71191406 C-235.37192602 186.72510176 -224.17578797 186.80011469 -212.97873545 186.90107918 C-192.93227539 187.08029957 -172.88537298 187.16406044 -152.83820105 187.21076107 C-145.80731578 187.22971178 -138.777469 187.27875254 -131.74695587 187.35289669 C-127.36855737 187.39493802 -122.99020956 187.41683997 -118.61165047 187.4341259 C-116.58717023 187.44660445 -114.56272128 187.46777151 -112.53843498 187.49844551 C-97.91840239 188.06468341 -97.91840239 188.06468341 -85 182 C-83.23292055 180.18751825 -81.65252634 178.39545016 -80.15625 176.35546875 C-79.7746875 175.90816406 -79.393125 175.46085938 -79 175 C-78.34 175 -77.68 175 -77 175 C-76.87625 174.2575 -76.7525 173.515 -76.625 172.75 C-76 170 -76 170 -74.98046875 168.29296875 C-73.61360112 165.09635003 -73.74836879 161.98129731 -73.6875 158.5625 C-73.18912117 146.87724881 -69.42339714 136.36018215 -61 128 C-52.70258051 120.94285248 -46.03593063 117.12850508 -35.1875 116.5625 C-25.32124114 116.01378828 -16.04937123 113.25717582 -9 106 C-3.73598166 98.56998908 -2.856044 91.95989359 -2.79467773 83.07885742 C-2.78477814 82.19055237 -2.77487854 81.30224731 -2.76467896 80.38702393 C-2.73316915 77.45986569 -2.70834819 74.53269125 -2.68359375 71.60546875 C-2.66301514 69.57236822 -2.64201843 67.53927188 -2.62062073 65.50617981 C-2.56549378 60.16166585 -2.5160432 54.81711388 -2.46777344 49.47253418 C-2.41748988 44.01616035 -2.36183962 38.55984155 -2.30664062 33.10351562 C-2.19917376 22.40239079 -2.09770339 11.70121812 -2 1 C-1.34 0.67 -0.68 0.34 0 0 Z " fill="#E548E9" transform="translate(454,171)"/>
<path d="M0 0 C3.8230961 1.27436537 4.62479001 2.86678669 6.9375 6.125 C7.60652344 7.05570313 8.27554687 7.98640625 8.96484375 8.9453125 C9.63644531 9.95335937 10.30804688 10.96140625 11 12 C11.69130005 13.01045883 12.3826001 14.02091766 13.09484863 15.06199646 C15.66238876 19.62279505 15.562786 23.93063802 15.51757812 29.06274414 C15.52809204 30.54211708 15.52809204 30.54211708 15.53881836 32.05137634 C15.55635674 35.29625997 15.54479084 38.54026447 15.53125 41.78515625 C15.53394588 44.04764472 15.5378291 46.31013206 15.54284668 48.57261658 C15.54873593 53.30771954 15.54019611 58.04252014 15.52148438 62.77758789 C15.49868249 68.84278681 15.51182992 74.90727817 15.53577423 80.97245121 C15.55023632 85.64193543 15.54562447 90.3112522 15.53526306 94.9807415 C15.53259761 97.21702598 15.53585912 99.45332573 15.54518127 101.68959236 C15.5553547 104.8156875 15.53983425 107.94064021 15.51757812 111.06665039 C15.52567505 111.98785675 15.53377197 112.90906311 15.54211426 113.85818481 C15.44482415 121.24489273 12.81125396 125.46472312 7.625 130.6875 C-0.1122183 138.11392094 -9.38376364 138.70311723 -19.625 139.875 C-25.63623826 140.62868407 -29.81042054 141.9473062 -35 145 C-35.66 145 -36.32 145 -37 145 C-37 145.66 -37 146.32 -37 147 C-38.32 147.33 -39.64 147.66 -41 148 C-41 148.66 -41 149.32 -41 150 C-42.6436814 151.68933922 -44.3142876 153.35259924 -46 155 C-52.56205516 162.41688227 -54.00902867 171.7338561 -55 181.3125 C-55.62967125 187.24620913 -56.5061325 192.07156438 -60 197 C-60.61488281 197.91652344 -60.61488281 197.91652344 -61.2421875 198.8515625 C-66.0657905 205.25578117 -73.15277988 208.77789717 -81 210 C-83.85381212 210.09052101 -86.6823708 210.13066135 -89.53572083 210.12025452 C-90.82232268 210.12153615 -90.82232268 210.12153615 -92.13491648 210.12284368 C-95.00769021 210.12449019 -97.88040549 210.11899066 -100.75317383 210.11352539 C-102.81299844 210.11324331 -104.87282315 210.11340165 -106.93264771 210.1139679 C-112.52515726 210.11425507 -118.11764542 210.10837118 -123.71015 210.10139394 C-129.55446149 210.09514717 -135.39877346 210.09455555 -141.24308777 210.09336853 C-152.31041577 210.09025913 -163.37773391 210.08205099 -174.44505757 210.07201904 C-187.04469064 210.06084579 -199.64432418 210.05534439 -212.24396098 210.05032361 C-238.16264612 210.03986807 -264.08132251 210.02227616 -290 210 C-290.29189209 210.60577881 -290.58378418 211.21155762 -290.88452148 211.83569336 C-295.02966733 219.87831054 -301.87716521 227.14591055 -307.6171875 234.0859375 C-310.29094857 237.35581579 -312.89902966 240.67220169 -315.5 244 C-317.33115459 246.33505086 -319.16467334 248.66822709 -321 251 C-321.43973145 251.55913086 -321.87946289 252.11826172 -322.33251953 252.69433594 C-323.56895613 254.26002326 -324.81548129 255.81772784 -326.0625 257.375 C-326.77535156 258.26960938 -327.48820312 259.16421875 -328.22265625 260.0859375 C-329.10244141 261.03339844 -329.10244141 261.03339844 -330 262 C-330.66 262 -331.32 262 -332 262 C-332 262.66 -332 263.32 -332 264 C-337.11177618 265.99483949 -341.82806394 266.99689419 -347.1875 265.3125 C-350.61631148 262.82956755 -352.66957063 259.99128811 -354 256 C-354.59626077 249.91814011 -353.30985558 245.97876868 -350 241 C-348.14697382 238.76632961 -346.21078737 236.64103581 -344.23046875 234.51953125 C-340.817767 230.66455291 -337.87978327 226.49077769 -334.8828125 222.30859375 C-334.26148438 221.54675781 -333.64015625 220.78492188 -333 220 C-332.34 220 -331.68 220 -331 220 C-330.73832031 219.44183594 -330.47664063 218.88367188 -330.20703125 218.30859375 C-326.78596762 211.76539438 -322.26633363 206.13129943 -317 201 C-315.39992985 198.88647451 -313.85299266 196.74530087 -312.33203125 194.57421875 C-311.89246094 194.05472656 -311.45289063 193.53523437 -311 193 C-310.34 193 -309.68 193 -309 193 C-308.7525 192.360625 -308.505 191.72125 -308.25 191.0625 C-307 189 -307 189 -305.4337244 188.37692738 C-301.89493535 187.82885116 -298.38115084 187.88078664 -294.81040955 187.90666199 C-293.97762484 187.90862983 -293.14484013 187.91059766 -292.28681952 187.91262513 C-289.49187583 187.92035374 -286.69701449 187.93521918 -283.90209961 187.94995117 C-281.89968015 187.95678076 -279.89725893 187.96311115 -277.89483643 187.96897888 C-273.57925551 187.9823178 -269.26369711 187.99845983 -264.94813347 188.01653099 C-258.11880147 188.04435974 -251.28946976 188.06137226 -244.46009827 188.07600403 C-242.12134835 188.08114814 -239.78259847 188.08630477 -237.44384861 188.09147358 C-235.68683603 188.09535192 -235.68683603 188.09535192 -233.89432824 188.09930861 C-217.99468237 188.13534284 -202.09510666 188.18064781 -186.19555664 188.24682617 C-175.47172813 188.29137485 -164.74796097 188.32159689 -154.02404791 188.33568364 C-148.35123622 188.34374506 -142.67865885 188.35920665 -137.00593376 188.39235497 C-131.66499359 188.42350717 -126.32433448 188.43587577 -120.98330688 188.43413734 C-119.02864438 188.43682374 -117.07397683 188.44633294 -115.11938667 188.46336365 C-102.0013423 188.57265726 -91.11401984 188.21180133 -80.75390625 179.171875 C-75.80578888 173.04458489 -74.31040122 166.75457582 -73.4375 159.0625 C-71.88206255 145.94665004 -68.11550541 134.92839248 -58.1953125 125.6953125 C-48.94223529 118.54969771 -39.81955039 116.14970785 -28.37255859 114.97363281 C-20.01247752 114.09960282 -14.93529175 112.27445128 -9 106 C-8.34 106 -7.68 106 -7 106 C-3.12831566 97.06534384 -1.58641968 89.18877041 -1.83984375 79.47265625 C-1.86944547 77.16425503 -1.89649858 74.85582013 -1.92138672 72.54736328 C-1.93739929 71.32607727 -1.95341187 70.10479126 -1.96990967 68.84649658 C-2.02298362 62.06196552 -1.91740271 55.27971183 -1.81640625 48.49609375 C-1.79615854 47.08574443 -1.77592541 45.6753949 -1.75570679 44.26504517 C-1.71445547 41.42659219 -1.67156131 38.5881694 -1.62768555 35.74975586 C-1.57143585 32.08946337 -1.52171362 28.42910947 -1.47328281 24.76870632 C-1.43453923 21.91979185 -1.39143219 19.07095595 -1.34705925 16.2221241 C-1.31689648 14.21619592 -1.29129173 12.21020087 -1.26576233 10.20420837 C-1.24581711 9.00687576 -1.22587189 7.80954315 -1.20532227 6.57592773 C-1.18200584 4.99146095 -1.18200584 4.99146095 -1.15821838 3.37498474 C-1 1 -1 1 0 0 Z " fill="#6682F9" transform="translate(483,210)"/>
<path d="M0 0 C1.04909546 0.00132935 1.04909546 0.00132935 2.11938477 0.00268555 C7.90318501 0.13396895 13.36330469 1.06179842 18.25 4.375 C18.745 5.86 18.745 5.86 19.25 7.375 C20.24 7.375 21.23 7.375 22.25 7.375 C23.75 8.80859375 23.75 8.80859375 25.25 10.8125 C25.745 11.45058594 26.24 12.08867187 26.75 12.74609375 C30.70956383 19.68564181 31.70375289 26.45649161 31.6484375 34.34375 C31.65130768 35.26410034 31.65417786 36.18445068 31.65713501 37.13269043 C31.65916331 39.06551738 31.65372052 40.99836544 31.64111328 42.93115234 C31.62504196 45.86733478 31.64100431 48.80214095 31.66015625 51.73828125 C31.6581736 53.62760716 31.65432947 55.51693223 31.6484375 57.40625 C31.65754654 58.70508118 31.65754654 58.70508118 31.6668396 60.03015137 C31.56048438 69.37808463 28.98250706 77.68474717 22.25 84.375 C14.02814127 90.49390806 5.52650349 93.57342606 -4.75 92.375 C-12.70167846 90.42584205 -20.29199145 87.07897507 -25.24609375 80.33984375 C-26.61978528 78.02861794 -27.74023971 75.8726403 -28.75 73.375 C-29.00966553 72.74247314 -29.26933105 72.10994629 -29.53686523 71.45825195 C-32.24376985 63.89514922 -32.24048323 56.30872965 -32.19604492 48.38110352 C-32.18755241 46.07672114 -32.2163487 43.77484103 -32.24804688 41.47070312 C-32.30320251 29.89967208 -31.17652663 18.2681152 -23.453125 9.0234375 C-16.83846768 2.62117743 -9.13838243 -0.02078646 0 0 Z " fill="#000102" transform="translate(284.75,155.625)"/>
<path d="M0 0 C2.84562798 1.74983172 4.81999283 3.60334193 6.9375 6.19140625 C7.45183594 6.80242187 7.96617187 7.4134375 8.49609375 8.04296875 C14.35476928 15.32065203 15.24776225 21.84999186 15.23828125 30.96484375 C15.24256638 31.88802399 15.2468515 32.81120422 15.25126648 33.76235962 C15.25698583 35.70712467 15.25752779 37.6519111 15.25317383 39.59667969 C15.25001699 42.55050672 15.2734924 45.50332797 15.29882812 48.45703125 C15.30110188 50.3554675 15.30180426 52.25390641 15.30078125 54.15234375 C15.309991 55.02450531 15.31920074 55.89666687 15.32868958 56.79525757 C15.24904859 67.50500659 11.95552309 74.09946163 4.5703125 81.796875 C-1.73066784 87.52758857 -8.44768206 89.51001673 -16.8984375 89.3359375 C-26.10522229 88.72104393 -34.79868038 85.2679872 -41 78.19140625 C-48.03218595 67.96277215 -48.41321138 57.63199941 -48.37817383 45.64526367 C-48.37502096 43.39387206 -48.39851132 41.14380748 -48.42382812 38.89257812 C-48.47797595 26.75143143 -47.67607632 14.5863437 -39.0625 5.19140625 C-28.10443232 -3.79536883 -13.04547675 -6.32441187 0 0 Z " fill="#000101" transform="translate(170.0625,158.80859375)"/>
<path d="M0 0 C0.99 0.495 0.99 0.495 2 1 C-0.56554613 4.84831919 -2.27299827 5.23104969 -6.62001801 6.41763306 C-14.3114454 7.742857 -22.17063246 7.35809346 -29.95019531 7.29296875 C-31.97146269 7.28720485 -33.99273439 7.28281646 -36.01400757 7.2796936 C-40.35084311 7.27024206 -44.68750147 7.25148485 -49.0242691 7.22549438 C-55.88211221 7.18481182 -62.73989725 7.1672215 -69.59783936 7.15307617 C-84.14863797 7.11983332 -98.69929614 7.06119245 -113.25 7 C-128.97377654 6.93391987 -144.69749612 6.87221349 -160.42138362 6.83974552 C-167.23894604 6.82479957 -174.05624109 6.79522476 -180.87369585 6.75445557 C-185.11098925 6.73208643 -189.34824584 6.72213203 -193.58559036 6.7155571 C-195.55042089 6.70993905 -197.51524446 6.69913208 -199.4800148 6.68275833 C-202.16191723 6.66111092 -204.8432325 6.65799677 -207.52520752 6.65942383 C-208.30244462 6.64863894 -209.07968173 6.63785406 -209.88047147 6.62674236 C-214.64734199 6.65391289 -217.99754132 7.36699085 -222 10 C-222.33 10.99 -222.66 11.98 -223 13 C-225.375 15.6875 -225.375 15.6875 -228 18 C-228.99 18 -229.98 18 -231 18 C-228.1705004 12.60843289 -224.94023851 6.46425833 -218.93909025 4.23413157 C-212.84052122 3.04294342 -206.62035885 3.35334232 -200.43896484 3.49584961 C-198.35196784 3.4962029 -196.26496308 3.49076961 -194.17799377 3.48001099 C-188.53019826 3.46666694 -182.88576681 3.53249434 -177.23861647 3.61167598 C-171.32072697 3.67989856 -165.40298138 3.67109674 -159.48477173 3.66957092 C-148.27778982 3.6776026 -137.07218986 3.74830136 -125.86565173 3.84453732 C-105.79416276 4.01465105 -85.72213771 4.07395375 -65.65002406 4.11667258 C-58.60866537 4.13408551 -51.56807572 4.17748804 -44.527004 4.24292076 C-40.14651677 4.28062428 -35.76604117 4.30252502 -31.3854351 4.32101822 C-29.35690875 4.3332435 -27.32841042 4.35245784 -25.30002403 4.37924004 C-22.52679118 4.41511257 -19.75448409 4.42617346 -16.98104858 4.4315033 C-15.7830765 4.45644526 -15.7830765 4.45644526 -14.56090295 4.4818911 C-9.44371784 4.45853876 -6.03932615 3.38041559 -1.62957251 0.76217371 C-1.09181358 0.51065639 -0.55405465 0.25913906 0 0 Z " fill="#905BA4" transform="translate(367,354)"/>
<path d="M0 0 C-0.33 0.66 -0.66 1.32 -1 2 C-5.4114224 3.34251342 -9.96822513 3.13691324 -14.53572083 3.12025452 C-15.82232268 3.12153615 -15.82232268 3.12153615 -17.13491648 3.12284368 C-20.00769021 3.12449019 -22.88040549 3.11899066 -25.75317383 3.11352539 C-27.81299844 3.11324331 -29.87282315 3.11340165 -31.93264771 3.1139679 C-37.52515726 3.11425507 -43.11764542 3.10837118 -48.71015 3.10139394 C-54.55446149 3.09514717 -60.39877346 3.09455555 -66.24308777 3.09336853 C-77.31041577 3.09025913 -88.37773391 3.08205099 -99.44505757 3.07201904 C-112.04469064 3.06084579 -124.64432418 3.05534439 -137.24396098 3.05032361 C-163.16264612 3.03986807 -189.08132251 3.02227616 -215 3 C-215.30413818 3.62036133 -215.60827637 4.24072266 -215.92163086 4.87988281 C-216.99182563 6.98392886 -218.18969824 8.83217545 -219.5625 10.75 C-220.21412109 11.67039062 -220.21412109 11.67039062 -220.87890625 12.609375 C-221.43384766 13.29773438 -221.43384766 13.29773438 -222 14 C-222.33 14 -222.66 14 -223 14 C-223 12.35 -223 10.7 -223 9 C-222.01 9 -221.02 9 -220 9 C-220 7.68 -220 6.36 -220 5 C-219.01 5 -218.02 5 -217 5 C-216.67 3.68 -216.34 2.36 -216 1 C-188.7230252 0.86944246 -161.44604962 0.73904813 -134.1690731 0.60884857 C-121.50415383 0.54839206 -108.83923482 0.48788196 -96.17431641 0.42724609 C-85.1366953 0.37440138 -74.09907372 0.32165682 -63.06145155 0.26903296 C-57.21614206 0.24116087 -51.37083282 0.21323835 -45.52552414 0.18519592 C-40.02466642 0.15880756 -34.52380807 0.13255302 -29.02294922 0.10640144 C-27.00332236 0.09677631 -24.98369574 0.08710214 -22.96406937 0.07737541 C-20.20735992 0.06410614 -17.4506497 0.05101305 -14.69393921 0.03796387 C-13.89431712 0.03407292 -13.09469502 0.03018197 -12.27084196 0.02617311 C-8.18051451 0.00700834 -4.09038802 -0.00395071 0 0 Z " fill="#6075C1" transform="translate(408,417)"/>
<path d="M0 0 C0 0.66 0 1.32 0 2 C-9.65645741 6.20268638 -19.98753422 5.43405311 -30.2890625 5.41650391 C-32.34638461 5.42389081 -34.40370235 5.43259793 -36.46101379 5.44252014 C-42.0244511 5.46576746 -47.5877767 5.47098806 -53.15125656 5.47317934 C-58.97595691 5.47885215 -64.80058511 5.5021311 -70.62524414 5.52377319 C-81.64750935 5.56224393 -92.66975381 5.58649834 -103.69206905 5.60489786 C-123.45830433 5.63835888 -143.22447774 5.6959581 -162.99063873 5.75888956 C-169.92961268 5.78041545 -176.86856497 5.7956649 -183.80756474 5.80572915 C-188.11132417 5.81272724 -192.41506799 5.82360376 -196.71881676 5.83537102 C-198.72077807 5.83994339 -200.72274418 5.84277984 -202.72471046 5.84379387 C-205.44728412 5.84535673 -208.16977653 5.85291233 -210.89233398 5.86196899 C-212.09317595 5.86036662 -212.09317595 5.86036662 -213.31827736 5.85873187 C-217.28867016 5.79281576 -217.28867016 5.79281576 -221 7 C-220.67 5.68 -220.34 4.36 -220 3 C-218.92509056 2.99668985 -217.85018112 2.99337971 -216.74269867 2.98996925 C-190.5859848 2.90896979 -164.42932954 2.81665256 -138.27269745 2.71247292 C-125.62354237 2.66235433 -112.97439374 2.61591126 -100.32519531 2.578125 C-89.29997118 2.54518062 -78.27479725 2.50533577 -67.24962854 2.45720994 C-61.41208267 2.43196939 -55.57457 2.4101808 -49.73698425 2.39665604 C-44.2409854 2.38381364 -38.74510056 2.36173551 -33.24916458 2.33261681 C-31.23361571 2.32355811 -29.21804848 2.31785479 -27.20248032 2.31578636 C-24.44634075 2.31245179 -21.69052209 2.29694193 -18.93444824 2.2784729 C-18.14065183 2.28040763 -17.34685542 2.28234237 -16.52900457 2.28433573 C-10.85868444 2.22770022 -5.49603069 0 0 0 Z " fill="#CC59DF" transform="translate(385,380)"/>
<path d="M0 0 C4.50513431 4.23209586 8.514292 8.88695859 12 14 C12 14.66 12 15.32 12 16 C10.125 15.6875 10.125 15.6875 8 15 C6 12 6 12 6 9 C4.68 8.34 3.36 7.68 2 7 C2 6.01 2 5.02 2 4 C1.34 4 0.68 4 0 4 C0.02585175 5.15543304 0.05170349 6.31086609 0.07833862 7.50131226 C0.31852223 18.41710143 0.52604626 29.33309411 0.70202446 40.25011253 C0.79352508 45.86203918 0.89631874 51.47327443 1.02539062 57.08447266 C1.14964846 62.50479059 1.2436275 67.92488292 1.31708145 73.34611893 C1.35026637 75.40904325 1.39415801 77.47182539 1.44918442 79.53428268 C1.99327083 100.43290172 1.99327083 100.43290172 -5 108 C-5.49581573 108.55360199 -5.99163147 109.10720398 -6.50247192 109.67758179 C-8 111 -8 111 -11.125 112 C-12.548125 112.495 -12.548125 112.495 -14 113 C-14.495 114.485 -14.495 114.485 -15 116 C-15.65226562 116.12117188 -16.30453125 116.24234375 -16.9765625 116.3671875 C-20.80139232 117.10056195 -24.45400749 117.8034427 -28.125 119.125 C-31.88020341 120.26788799 -35.07938913 120.06534351 -39 120 C-39.99 120.495 -39.99 120.495 -41 121 C-42.99960012 121.039992 -45.00047242 121.04346799 -47 121 C-47 121.66 -47 122.32 -47 123 C-47.99 123 -48.98 123 -50 123 C-50.33 123.99 -50.66 124.98 -51 126 C-51.99 125.67 -52.98 125.34 -54 125 C-53.02872285 122.53564254 -52.35720418 121.23247793 -50.109375 119.76953125 C-45.00627924 117.69956691 -40.57793209 116.76090603 -35.0625 116.5 C-25.23442502 116.0198009 -16.01394052 113.22070067 -9 106 C-3.73598166 98.56998908 -2.856044 91.95989359 -2.79467773 83.07885742 C-2.78477814 82.19055237 -2.77487854 81.30224731 -2.76467896 80.38702393 C-2.73316915 77.45986569 -2.70834819 74.53269125 -2.68359375 71.60546875 C-2.66301514 69.57236822 -2.64201843 67.53927188 -2.62062073 65.50617981 C-2.56549378 60.16166585 -2.5160432 54.81711388 -2.46777344 49.47253418 C-2.41748988 44.01616035 -2.36183962 38.55984155 -2.30664062 33.10351562 C-2.19917376 22.40239079 -2.09770339 11.70121812 -2 1 C-1.34 0.67 -0.68 0.34 0 0 Z " fill="#BB55DE" transform="translate(454,171)"/>
<path d="M0 0 C6.25840026 2.08613342 10.07757465 10.3537929 13.5 15.8125 C15.08938529 19.18994373 15.35940065 21.31614335 15 25 C12.87838666 22.87838666 12.07013751 21.2266841 10.875 18.5 C10.52179688 17.7059375 10.16859375 16.911875 9.8046875 16.09375 C9 14 9 14 9 12 C8.34 12 7.68 12 7 12 C7 11.34 7 10.68 7 10 C6.34 10 5.68 10 5 10 C4.505 9.01 4.505 9.01 4 8 C3.34 8 2.68 8 2 8 C2.00222061 8.58626663 2.00444122 9.17253326 2.00672913 9.77656555 C2.1865414 59.61338444 2.1865414 59.61338444 1.73654175 79.17562866 C1.70413074 80.62916236 1.67647746 82.08281079 1.65383911 83.53652954 C1.43453986 96.83725238 1.43453986 96.83725238 -2 103 C-2.33 103.7425 -2.66 104.485 -3 105.25 C-4.12883109 107.22545441 -5.22155607 108.57724486 -7 110 C-7.99 110 -8.98 110 -10 110 C-10.06832031 110.61488281 -10.13664062 111.22976563 -10.20703125 111.86328125 C-11 114 -11 114 -13.07421875 115.23046875 C-20.9396324 118.11092666 -26.69948457 119.28801102 -35 118 C-35 117.34 -35 116.68 -35 116 C-33.60587891 115.83564453 -33.60587891 115.83564453 -32.18359375 115.66796875 C-22.23829538 114.39239868 -16.06054148 113.464001 -9 106 C-8.34 106 -7.68 106 -7 106 C-3.12831566 97.06534384 -1.58641968 89.18877041 -1.83984375 79.47265625 C-1.86944547 77.16425503 -1.89649858 74.85582013 -1.92138672 72.54736328 C-1.94540558 70.71543427 -1.94540558 70.71543427 -1.96990967 68.84649658 C-2.02298362 62.06196552 -1.91740271 55.27971183 -1.81640625 48.49609375 C-1.79615854 47.08574443 -1.77592541 45.6753949 -1.75570679 44.26504517 C-1.71445547 41.42659219 -1.67156131 38.5881694 -1.62768555 35.74975586 C-1.57143585 32.08946337 -1.52171362 28.42910947 -1.47328281 24.76870632 C-1.43453923 21.91979185 -1.39143219 19.07095595 -1.34705925 16.2221241 C-1.31689648 14.21619592 -1.29129173 12.21020087 -1.26576233 10.20420837 C-1.24581711 9.00687576 -1.22587189 7.80954315 -1.20532227 6.57592773 C-1.18977798 5.51961655 -1.1742337 4.46330536 -1.15821838 3.37498474 C-1 1 -1 1 0 0 Z " fill="#527DD8" transform="translate(483,210)"/>
<path d="M0 0 C1.65 0 3.3 0 5 0 C3.71906848 4.92447006 2.00387986 7.36013273 -1.75 10.75 C-7.48217857 16.27449094 -12.45387258 21.76751246 -13.5 29.875 C-13.04331367 32.72928955 -12.6375444 34.63465809 -11 37 C-10.34 37.33 -9.68 37.66 -9 38 C-9 38.66 -9 39.32 -9 40 C-7.906875 40.144375 -6.81375 40.28875 -5.6875 40.4375 C-2 41 -2 41 1 42 C2.32 42 3.64 42 5 42 C5 41.34 5 40.68 5 40 C5.66 40 6.32 40 7 40 C7.185625 39.34 7.37125 38.68 7.5625 38 C9.30382475 34.36593095 11.63284561 31.81931643 14.34375 28.8671875 C16.16801905 26.89656809 16.16801905 26.89656809 18 24 C18.99 24 19.98 24 21 24 C21.185625 22.576875 21.185625 22.576875 21.375 21.125 C22 18 22 18 24 16 C24.99 16 25.98 16 27 16 C27 15.34 27 14.68 27 14 C27.99 14.33 28.98 14.66 30 15 C29.30132812 15.83144531 28.60265625 16.66289062 27.8828125 17.51953125 C26.96346318 18.61712176 26.04419668 19.71478165 25.125 20.8125 C24.66480469 21.35970703 24.20460937 21.90691406 23.73046875 22.47070312 C21.68242038 24.91945661 19.77281117 27.34078325 18 30 C17.34 30 16.68 30 16 30 C15.7525 30.73734375 15.505 31.4746875 15.25 32.234375 C13.88126288 35.26270589 12.3825407 36.95505271 10 39.25 C9.29875 39.93578125 8.5975 40.6215625 7.875 41.328125 C3.95043855 44.82752562 0.0520437 44.33405555 -5.015625 44.2734375 C-9.07753773 43.90127272 -11.08460596 42.84250919 -14 40 C-17.19379643 36.03286293 -18.73644405 32.20725565 -18.3581543 27.07592773 C-17.20387193 20.38549626 -11.52567618 14.72184895 -7.3125 9.6875 C-6.14033232 8.27606248 -4.96968246 6.86336263 -3.80078125 5.44921875 C-3.02988159 4.52629028 -3.02988159 4.52629028 -2.2434082 3.5847168 C-0.92008586 2.00707498 -0.92008586 2.00707498 0 0 Z " fill="#ED4BD3" transform="translate(117,395)"/>
<path d="M0 0 C4.21927337 3.75811031 5.60350142 8.75057315 6.27642632 14.26539803 C6.39298259 16.62864557 6.41711613 18.97403507 6.40405273 21.34008789 C6.41091599 22.22588028 6.41777924 23.11167267 6.42485046 24.02430725 C6.44300684 26.92392445 6.43929793 29.82299496 6.43359375 32.72265625 C6.43815999 34.75329258 6.44346688 36.78392737 6.44947815 38.81455994 C6.45838663 43.05848493 6.45601084 47.3022215 6.44604492 51.54614258 C6.43454167 56.97211566 6.4547993 62.39743925 6.48396206 67.82332706 C6.50234394 72.01248775 6.50202789 76.20149322 6.49632454 80.39068413 C6.49617166 82.39087271 6.50218848 84.39107202 6.51461601 86.391222 C6.52956671 89.19099396 6.51882012 91.98957096 6.50170898 94.78930664 C6.51137695 95.60667297 6.52104492 96.42403931 6.53100586 97.26617432 C6.45614355 103.14372799 4.92978381 106.90382435 2 112 C1.67 112 1.34 112 1 112 C1.14049518 110.52031676 1.28754826 109.04125484 1.4375 107.5625 C1.51871094 106.73878906 1.59992188 105.91507812 1.68359375 105.06640625 C2 103 2 103 3 102 C3.10051875 99.20547729 3.13615894 96.43563645 3.12939453 93.640625 C3.13114685 92.76426392 3.13289917 91.88790283 3.13470459 90.98498535 C3.13912432 88.07330373 3.13618469 85.1616823 3.1328125 82.25 C3.1334855 80.23600248 3.1344555 78.22200505 3.13571167 76.20800781 C3.13718881 71.98111195 3.13503358 67.75423717 3.13037109 63.52734375 C3.1246738 58.09619468 3.12795272 52.66509501 3.13394356 47.23394775 C3.13754874 43.07340113 3.13641078 38.91286631 3.13381577 34.75231934 C3.13314638 32.74914545 3.13397533 30.74597051 3.13629532 28.74279785 C3.13882115 25.94829448 3.13498224 23.15387229 3.12939453 20.359375 C3.13141876 19.52297485 3.13344299 18.68657471 3.13552856 17.8248291 C3.47881671 14.10942564 3.47881671 14.10942564 2 11 C1.60545777 9.15400312 1.25823134 7.29774178 0.9375 5.4375 C0.76089844 4.42558594 0.58429688 3.41367188 0.40234375 2.37109375 C0.26957031 1.58863281 0.13679688 0.80617187 0 0 Z " fill="#AA58CF" transform="translate(466,187)"/>
<path d="M0 0 C0.33 0.99 0.66 1.98 1 3 C-0.85787105 6.7157421 -3.37383686 9.79936368 -6 13 C-6.515625 13.763125 -7.03125 14.52625 -7.5625 15.3125 C-8.036875 15.869375 -8.51125 16.42625 -9 17 C-9.99 17 -10.98 17 -12 17 C-12.10828125 17.56847656 -12.2165625 18.13695312 -12.328125 18.72265625 C-14.21327683 25.11244415 -19.16544861 30.57983873 -24 35 C-25.36532549 36.13701597 -25.36532549 36.13701597 -25.09765625 39.16015625 C-25.08605469 40.44792969 -25.07445312 41.73570312 -25.0625 43.0625 C-25.05347656 44.35285156 -25.04445312 45.64320313 -25.03515625 46.97265625 C-25.02355469 47.97167969 -25.01195312 48.97070312 -25 50 C-25.66 50 -26.32 50 -27 50 C-29.25150911 45.35626247 -30.00398062 41.10725649 -28.3828125 36.08984375 C-26.15776102 31.13762739 -22.90925007 27.46058967 -19.23046875 23.51953125 C-15.817767 19.66455291 -12.87978327 15.49077769 -9.8828125 11.30859375 C-9.26148438 10.54675781 -8.64015625 9.78492188 -8 9 C-7.34 9 -6.68 9 -6 9 C-5.7525 8.443125 -5.505 7.88625 -5.25 7.3125 C-3.78393985 4.60028873 -1.97010529 2.36412635 0 0 Z " fill="#666BD5" transform="translate(158,421)"/>
<path d="M0 0 C0.33 0 0.66 0 1 0 C1.875 2.375 1.875 2.375 2 6 C-0.19946954 10.76059683 -2.95406787 15.57896315 -7 19 C-8.03125 19.33 -9.0625 19.66 -10.125 20 C-11.548125 20.495 -11.548125 20.495 -13 21 C-13.495 22.485 -13.495 22.485 -14 24 C-14.65226562 24.12117188 -15.30453125 24.24234375 -15.9765625 24.3671875 C-19.80139232 25.10056195 -23.45400749 25.8034427 -27.125 27.125 C-30.88020341 28.26788799 -34.07938913 28.06534351 -38 28 C-38.66 28.33 -39.32 28.66 -40 29 C-41.99960012 29.039992 -44.00047242 29.04346799 -46 29 C-46 29.66 -46 30.32 -46 31 C-46.99 31 -47.98 31 -49 31 C-49.495 32.485 -49.495 32.485 -50 34 C-50.99 33.67 -51.98 33.34 -53 33 C-52.02872285 30.53564254 -51.35720418 29.23247793 -49.109375 27.76953125 C-42.81344033 25.21571669 -37.22164707 24.64749547 -30.46484375 24.33203125 C-25.22638716 23.8300371 -20.77316103 22.13813523 -16 20 C-15.22398437 19.65453125 -14.44796875 19.3090625 -13.6484375 18.953125 C-6.80227409 15.71675684 -3.94224688 11.93722429 -1 5 C-0.23245168 2.18551086 -0.23245168 2.18551086 0 0 Z " fill="#C753E1" transform="translate(453,263)"/>
<path d="M0 0 C0 3 0 3 -1.50390625 4.71875 C-2.18324219 5.3065625 -2.86257813 5.894375 -3.5625 6.5 C-4.22378906 7.0878125 -4.88507813 7.675625 -5.56640625 8.28125 C-11.6662076 12.5892959 -17.56217402 13.56825297 -24.8125 14.4375 C-36.67849575 16.04343235 -46.57934272 18.93159985 -55 28 C-55.33 27.01 -55.66 26.02 -56 25 C-44.33802851 12.15811139 -29.3181217 11.4205925 -13 10 C-13 9.34 -13 8.68 -13 8 C-11.35 7.67 -9.7 7.34 -8 7 C-8 6.01 -8 5.02 -8 4 C-7.01 3.67 -6.02 3.34 -5 3 C-4.67 2.34 -4.34 1.68 -4 1 C-1.9375 0.375 -1.9375 0.375 0 0 Z " fill="#9D5BBC" transform="translate(466,299)"/>
<path d="M0 0 C4.50513431 4.23209586 8.514292 8.88695859 12 14 C12 14.66 12 15.32 12 16 C10.125 15.6875 10.125 15.6875 8 15 C6 12 6 12 6 9 C4.68 8.34 3.36 7.68 2 7 C2 6.01 2 5.02 2 4 C1.34 4 0.68 4 0 4 C-0.33 28.09 -0.66 52.18 -1 77 C-1.33 77 -1.66 77 -2 77 C-2 51.92 -2 26.84 -2 1 C-1.34 0.67 -0.68 0.34 0 0 Z " fill="#AD51D3" transform="translate(454,171)"/>
<path d="M0 0 C0.99 0.33 1.98 0.66 3 1 C2.30132812 1.83144531 1.60265625 2.66289062 0.8828125 3.51953125 C-0.03653682 4.61712176 -0.95580332 5.71478165 -1.875 6.8125 C-2.33519531 7.35970703 -2.79539063 7.90691406 -3.26953125 8.47070312 C-5.31757962 10.91945661 -7.22718883 13.34078325 -9 16 C-9.66 16 -10.32 16 -11 16 C-11.2475 16.73734375 -11.495 17.4746875 -11.75 18.234375 C-13.11873712 21.26270589 -14.6174593 22.95505271 -17 25.25 C-17.70125 25.93578125 -18.4025 26.6215625 -19.125 27.328125 C-22.35715447 30.2101294 -24.61576158 30.18751728 -28.875 30.25 C-30.44894531 30.28867187 -30.44894531 30.28867187 -32.0546875 30.328125 C-35.30556586 29.96595818 -36.62350767 29.18132146 -39 27 C-37.39592672 26.97291433 -35.7917215 26.95356517 -34.1875 26.9375 C-33.29417969 26.92589844 -32.40085937 26.91429687 -31.48046875 26.90234375 C-29 27 -29 27 -26 28 C-24.68 28 -23.36 28 -22 28 C-22 27.34 -22 26.68 -22 26 C-21.34 26 -20.68 26 -20 26 C-19.814375 25.34 -19.62875 24.68 -19.4375 24 C-17.69617525 20.36593095 -15.36715439 17.81931643 -12.65625 14.8671875 C-10.83198095 12.89656809 -10.83198095 12.89656809 -9 10 C-8.01 10 -7.02 10 -6 10 C-5.814375 8.576875 -5.814375 8.576875 -5.625 7.125 C-5 4 -5 4 -3 2 C-2.01 2 -1.02 2 0 2 C0 1.34 0 0.68 0 0 Z " fill="#CE52CA" transform="translate(144,409)"/>
<path d="M0 0 C0.66 0 1.32 0 2 0 C1.59020316 6.48609474 0.73119847 10.69980185 -3.5 15.8125 C-5 17 -5 17 -8 17 C-8.06832031 17.61488281 -8.13664062 18.22976563 -8.20703125 18.86328125 C-9 21 -9 21 -11.07421875 22.23046875 C-18.9396324 25.11092666 -24.69948457 26.28801102 -33 25 C-33 24.34 -33 23.68 -33 23 C-32.07058594 22.89042969 -31.14117187 22.78085937 -30.18359375 22.66796875 C-20.23829538 21.39239868 -14.06054148 20.464001 -7 13 C-6.34 13 -5.68 13 -5 13 C-3.25150329 8.6960081 -1.6229639 4.35249409 0 0 Z " fill="#5A89D8" transform="translate(481,303)"/>
<path d="M0 0 C-5.09618537 6.26551557 -16.35884372 6.08693262 -23.8125 6.9375 C-29.76608915 7.65709704 -33.86071579 8.97689164 -39 12 C-39.66 12 -40.32 12 -41 12 C-41 12.66 -41 13.32 -41 14 C-42.32 14.33 -43.64 14.66 -45 15 C-45 14.34 -45 13.68 -45 13 C-41.8544668 10.12408393 -39.01387407 8.36836616 -35 7 C-34.01 6.61134766 -34.01 6.61134766 -33 6.21484375 C-27.44166469 4.1401179 -22.92316414 3.71794456 -17 4 C-16.67 3.01 -16.34 2.02 -16 1 C-10.62915894 0.31798844 -5.41499441 -0.11521265 0 0 Z " fill="#587BC3" transform="translate(487,343)"/>
<path d="M0 0 C1.55496198 0.04677365 3.11011056 0.08767636 4.66537476 0.1230011 C8.7296559 0.23089552 12.78649072 0.4175807 16.84692383 0.6217041 C21.0018576 0.81630742 25.15891213 0.93508609 29.31640625 1.06054688 C37.45184618 1.31709443 45.58098677 1.65704738 53.7109375 2.05078125 C53.7109375 2.38078125 53.7109375 2.71078125 53.7109375 3.05078125 C52.50943558 3.0407885 52.50943558 3.0407885 51.28366089 3.03059387 C43.72145003 2.97039127 36.15935598 2.92476053 28.5969677 2.89534473 C24.70939759 2.87971318 20.82202612 2.85852121 16.93457031 2.82446289 C13.18037091 2.79177924 9.42636214 2.77390936 5.6720314 2.76614952 C4.24234137 2.7606221 2.81266134 2.74982835 1.38305283 2.73359108 C-0.62489834 2.71169966 -2.63304281 2.71055485 -4.64111328 2.71020508 C-5.78250763 2.70354324 -6.92390198 2.69688141 -8.09988403 2.6900177 C-11.77327932 3.10555642 -14.1683883 4.08640468 -17.2890625 6.05078125 C-17.6190625 7.04078125 -17.9490625 8.03078125 -18.2890625 9.05078125 C-20.6640625 11.73828125 -20.6640625 11.73828125 -23.2890625 14.05078125 C-24.2790625 14.05078125 -25.2690625 14.05078125 -26.2890625 14.05078125 C-19.44989558 2.16337467 -13.80707262 -0.84322175 0 0 Z " fill="#C560C6" transform="translate(162.2890625,357.94921875)"/>
<path d="M0 0 C1.32 0.33 2.64 0.66 4 1 C2.23740206 3.31920782 0.46560147 5.63022836 -1.3125 7.9375 C-1.81201172 8.59685547 -2.31152344 9.25621094 -2.82617188 9.93554688 C-3.31279297 10.56396484 -3.79941406 11.19238281 -4.30078125 11.83984375 C-4.74591064 12.42113037 -5.19104004 13.00241699 -5.6496582 13.60131836 C-7 15 -7 15 -10 16 C-10 16.66 -10 17.32 -10 18 C-14.50353262 19.75747614 -18.17639811 20.19294408 -23 20 C-23 19.34 -23 18.68 -23 18 C-21.87851563 17.70996094 -21.87851563 17.70996094 -20.734375 17.4140625 C-19.25710937 17.02347656 -19.25710937 17.02347656 -17.75 16.625 C-16.77546875 16.36976563 -15.8009375 16.11453125 -14.796875 15.8515625 C-12.31943099 15.09725692 -10.20896124 14.34369992 -8 13 C-7.31653318 11.34015202 -6.65411685 9.67163195 -6 8 C-4.10329676 5.25181977 -2.0680925 2.62088452 0 0 Z " fill="#686EDB" transform="translate(161,456)"/>
<path d="M0 0 C0.99 0.33 1.98 0.66 3 1 C1.57265219 2.90313042 0.14488252 4.80592088 -1.28515625 6.70703125 C-2.38474163 8.17731967 -3.47662512 9.6534184 -4.55859375 11.13671875 C-7.46264551 15.09678934 -10.42240581 18.63285253 -14 22 C-14.99 21.34 -15.98 20.68 -17 20 C-16.34644531 19.27296875 -16.34644531 19.27296875 -15.6796875 18.53125 C-11.94857992 14.33173498 -8.48996086 10.06788945 -5.26171875 5.46875 C-4.84535156 4.9840625 -4.42898437 4.499375 -4 4 C-3.34 4 -2.68 4 -2 4 C-1.34 2.68 -0.68 1.36 0 0 Z " fill="#6871DB" transform="translate(176,399)"/>
<path d="M0 0 C-0.309375 0.598125 -0.61875 1.19625 -0.9375 1.8125 C-2.10209704 4.08956772 -2.10209704 4.08956772 -3 7 C-4.010625 7.598125 -5.02125 8.19625 -6.0625 8.8125 C-7.81700094 10.01359672 -7.81700094 10.01359672 -9 12 C-9.53993214 16.70435926 -9.34454766 21.28480143 -9 26 C-9.66 26 -10.32 26 -11 26 C-13.27713173 21.30341581 -13.98657134 17.04832821 -12.34765625 11.984375 C-10.23956674 7.2434355 -5.80074641 0 0 0 Z " fill="#6A70D3" transform="translate(142,445)"/>
<path d="M0 0 C0.99 0.33 1.98 0.66 3 1 C1.2719625 3.20922483 -0.45739512 5.41739506 -2.1875 7.625 C-2.67025391 8.24246094 -3.15300781 8.85992187 -3.65039062 9.49609375 C-6.70201596 13.38742808 -9.76191914 17.26154074 -13 21 C-13.33 21 -13.66 21 -14 21 C-14.36372697 16.75651873 -13.62334906 14.37287736 -11 11 C-9.67405895 10.63837971 -8.34061543 10.30271961 -7 10 C-5.99083967 8.23408113 -5.99083967 8.23408113 -5 6 C-3.4058849 3.93018071 -1.70877359 1.97857994 0 0 Z " fill="#6C77D7" transform="translate(182,431)"/>
<path d="M0 0 C0.99 0.33 1.98 0.66 3 1 C2.21516341 2.48280196 1.42190666 3.9611498 0.625 5.4375 C0.18414062 6.26121094 -0.25671875 7.08492188 -0.7109375 7.93359375 C-2 10 -2 10 -4 11 C-4.17786056 16.15795631 -4.11596899 20.18029285 -2 25 C-1.34 25.33 -0.68 25.66 0 26 C-0.99 26 -1.98 26 -3 26 C-6.3559617 20.96605746 -8.21253619 17.09869689 -7 11 C-5.31152093 6.94765022 -2.73329372 3.41661715 0 0 Z " fill="#9851A6" transform="translate(106,409)"/>
<path d="M0 0 C6.25840026 2.08613342 10.07757465 10.3537929 13.5 15.8125 C15.08938529 19.18994373 15.35940065 21.31614335 15 25 C12.87838666 22.87838666 12.07013751 21.2266841 10.875 18.5 C10.52179688 17.7059375 10.16859375 16.911875 9.8046875 16.09375 C9 14 9 14 9 12 C8.34 12 7.68 12 7 12 C7 11.34 7 10.68 7 10 C6.34 10 5.68 10 5 10 C3.515 7.03 3.515 7.03 2 4 C1.01 5.32 0.02 6.64 -1 8 C-1.04241723 5.66705225 -1.04092937 3.33297433 -1 1 C-0.67 0.67 -0.34 0.34 0 0 Z " fill="#5E84CD" transform="translate(483,210)"/>
<path d="M0 0 C4.50513431 4.23209586 8.514292 8.88695859 12 14 C12 14.66 12 15.32 12 16 C10.125 15.6875 10.125 15.6875 8 15 C6 12 6 12 6 9 C4.68 8.34 3.36 7.68 2 7 C2 6.01 2 5.02 2 4 C1.34 4 0.68 4 0 4 C0 6.31 0 8.62 0 11 C-2.4294516 7.3558226 -2.16179575 5.28758728 -2 1 C-1.34 0.67 -0.68 0.34 0 0 Z " fill="#A45BD2" transform="translate(454,171)"/>
<path d="M0 0 C1.27008796 2.54017592 0.72824575 3.32266225 0 6 C-0.1918119 9.51299948 -0.34323033 13.02015529 -0.4296875 16.53710938 C-0.74168299 23.86250356 -2.72196724 29.33036283 -8.1875 34.4375 C-8.90292969 35.11683594 -9.61835938 35.79617188 -10.35546875 36.49609375 C-10.89816406 36.99238281 -11.44085938 37.48867188 -12 38 C-12.66 37.67 -13.32 37.34 -14 37 C-13.04882866 35.8274869 -12.08882991 34.66212985 -11.125 33.5 C-10.32449219 32.52546875 -10.32449219 32.52546875 -9.5078125 31.53125 C-9.01023437 31.0259375 -8.51265625 30.520625 -8 30 C-7.34 30 -6.68 30 -6 30 C-5.87625 29.2575 -5.7525 28.515 -5.625 27.75 C-5 25 -5 25 -3.9921875 23.32421875 C-2.56690795 19.98547335 -2.61086891 16.63965281 -2.5 13.0625 C-2.35352574 8.36239949 -2.08842851 4.30317327 0 0 Z " fill="#A655C2" transform="translate(383,316)"/>
<path d="M0 0 C0 0.66 0 1.32 0 2 C-9.41002278 5.44419134 -9.41002278 5.44419134 -14 5 C-14.226875 5.61875 -14.45375 6.2375 -14.6875 6.875 C-16.39608617 9.64128237 -17.99992221 9.90241056 -21 11 C-22.77277259 12.52007842 -22.77277259 12.52007842 -24 14 C-24.66 13.67 -25.32 13.34 -26 13 C-18.63073952 5.66713093 -10.83431583 -0.5076107 0 0 Z " fill="#5B7FCC" transform="translate(447,327)"/>
<path d="M0 0 C0.33 0.66 0.66 1.32 1 2 C0.04214289 3.60783158 -0.91650341 5.21519773 -1.87890625 6.8203125 C-5.54777097 13.95350592 -6.50270718 22.09475899 -7 30 C-7.33 30 -7.66 30 -8 30 C-8.29032258 10.93548387 -8.29032258 10.93548387 -5.125 6.1875 C-4.42375 5.465625 -3.7225 4.74375 -3 4 C-1.99426222 2.67098936 -0.99204592 1.33926199 0 0 Z " fill="#A958C7" transform="translate(407,329)"/>
<path d="M0 0 C8.78841743 3.78811096 13.1991575 8.7413462 17.3359375 17.30078125 C18 19 18 19 18 21 C17.34 21 16.68 21 16 21 C15.64808594 20.27554688 15.29617188 19.55109375 14.93359375 18.8046875 C11.01529102 11.13177093 7.08255803 6.72170535 0 2 C0 1.34 0 0.68 0 0 Z " fill="#0C1618" transform="translate(350,63)"/>
<path d="M0 0 C0 0.99 0 1.98 0 3 C-0.99 3.33 -1.98 3.66 -3 4 C-3.1546875 5.36125 -3.1546875 5.36125 -3.3125 6.75 C-4.00649813 10.03071844 -4.70085668 11.60889095 -7 14 C-7.66 14 -8.32 14 -9 14 C-9.33 14.99 -9.66 15.98 -10 17 C-10.66 17 -11.32 17 -12 17 C-10.40300825 10.07970243 -5.87707174 3.91804783 0 0 Z " fill="#C353D9" transform="translate(396,297)"/>
<path d="M0 0 C1.1530363 3.4591089 0.81067634 4.12522069 -0.375 7.4375 C-2.03054742 12.51650972 -2.46778395 17.30940604 -2.69140625 22.62890625 C-2.79324219 23.41136719 -2.89507812 24.19382812 -3 25 C-3.66 25.33 -4.32 25.66 -5 26 C-5 20.72 -5 15.44 -5 10 C-4.34 10 -3.68 10 -3 10 C-2.87625 9.0925 -2.7525 8.185 -2.625 7.25 C-2.07890323 4.41029677 -1.42736197 2.47409409 0 0 Z " fill="#627EDA" transform="translate(431,370)"/>
<path d="M0 0 C-1 2 -1 2 -2.82757568 2.62364197 C-6.29818572 3.22490202 -9.76092014 3.00246986 -13.265625 2.87890625 C-14.05902283 2.85529526 -14.85242065 2.83168427 -15.66986084 2.80735779 C-18.19676683 2.73096071 -20.72334767 2.64683387 -23.25 2.5625 C-24.96613008 2.5092553 -26.68227588 2.45651507 -28.3984375 2.40429688 C-32.59916311 2.27537813 -36.79961392 2.13952774 -41 2 C-41 1.67 -41 1.34 -41 1 C-36.12535745 0.85647098 -31.25068314 0.71409155 -26.37597656 0.57275391 C-24.71939193 0.52456353 -23.06281623 0.476065 -21.40625 0.42724609 C-19.0182523 0.35692645 -16.63022413 0.28773348 -14.2421875 0.21875 C-13.50757294 0.19687622 -12.77295837 0.17500244 -12.01608276 0.15246582 C-8.00921403 0.03790977 -4.00846759 -0.02205484 0 0 Z " fill="#637BE5" transform="translate(408,417)"/>
<path d="M0 0 C1.65 0 3.3 0 5 0 C2.7805705 3.91621915 0.2318151 7.33686338 -2.625 10.8125 C-3.42164063 11.78832031 -4.21828125 12.76414062 -5.0390625 13.76953125 C-5.68617188 14.50558594 -6.33328125 15.24164063 -7 16 C-7.33 16 -7.66 16 -8 16 C-8 14.35 -8 12.7 -8 11 C-7.01 11 -6.02 11 -5 11 C-4.67 9.68 -4.34 8.36 -4 7 C-3.34 7 -2.68 7 -2 7 C-1.34 4.69 -0.68 2.38 0 0 Z " fill="#AC47B0" transform="translate(156,391)"/>
<path d="M0 0 C0 0.33 0 0.66 0 1 C-0.79664063 1.04898437 -1.59328125 1.09796875 -2.4140625 1.1484375 C-10.38157314 1.70029395 -10.38157314 1.70029395 -18 4 C-18 4.66 -18 5.32 -18 6 C-18.99 6 -19.98 6 -21 6 C-21.33 6.99 -21.66 7.98 -22 9 C-22.99 8.67 -23.98 8.34 -25 8 C-24.02215769 5.51094685 -23.33638015 4.22106931 -21.07421875 2.734375 C-13.96221308 -0.19889084 -7.63376402 -0.4307453 0 0 Z " fill="#B15ECB" transform="translate(425,288)"/>
<path d="M0 0 C0.66 0 1.32 0 2 0 C0.22202251 7.66752794 -3.4860877 13.39715363 -9 19 C-9.99 19.33 -10.98 19.66 -12 20 C-10.86874359 17.32612121 -9.62907352 15.57894832 -7.6875 13.375 C-4.25117378 9.40686139 -2.1962874 4.72902735 0 0 Z " fill="#0B1417" transform="translate(68,104)"/>
<path d="M0 0 C-0.66 0.66 -1.32 1.32 -2 2 C-2.99 3.485 -2.99 3.485 -4 5 C-5.32 4.34 -6.64 3.68 -8 3 C-8.268125 3.598125 -8.53625 4.19625 -8.8125 4.8125 C-9.99917406 6.99847854 -11.09599113 8.41332594 -13 10 C-13.66 10 -14.32 10 -15 10 C-14.34 8.68 -13.68 7.36 -13 6 C-12.34 6 -11.68 6 -11 6 C-10.95875 5.401875 -10.9175 4.80375 -10.875 4.1875 C-10 2 -10 2 -7.1875 0.1875 C-4.05184556 -0.98068499 -3.0006419 -1.26950234 0 0 Z " fill="#E94CD7" transform="translate(155,361)"/>
<path d="M0 0 C0 3.41142407 -0.30366533 3.77769922 -2.5625 6.125 C-5.78181711 9.22906709 -8.50580946 9.82023238 -13 10 C-13 9.34 -13 8.68 -13 8 C-11.35 7.67 -9.7 7.34 -8 7 C-8 6.01 -8 5.02 -8 4 C-7.01 3.67 -6.02 3.34 -5 3 C-4.67 2.34 -4.34 1.68 -4 1 C-1.9375 0.375 -1.9375 0.375 0 0 Z " fill="#C852E2" transform="translate(466,299)"/>
<path d="M0 0 C2.125 0.375 2.125 0.375 4 1 C2.02 1.99 2.02 1.99 0 3 C0 3.66 0 4.32 0 5 C-4.50353262 6.75747614 -8.17639811 7.19294408 -13 7 C-13 6.34 -13 5.68 -13 5 C-12.22914063 4.80664062 -11.45828125 4.61328125 -10.6640625 4.4140625 C-9.66117188 4.15367187 -8.65828125 3.89328125 -7.625 3.625 C-6.62726563 3.36976563 -5.62953125 3.11453125 -4.6015625 2.8515625 C-1.87458985 2.17595681 -1.87458985 2.17595681 0 0 Z " fill="#7278D9" transform="translate(151,469)"/>
<path d="M0 0 C0.66 0.33 1.32 0.66 2 1 C1.13496428 8.2782316 -0.65858444 13.7863695 -6 19 C-8.1953125 20.21875 -8.1953125 20.21875 -10 21 C-9.60167969 20.45472656 -9.20335937 19.90945313 -8.79296875 19.34765625 C-5.08504588 14.06995582 -2.72935907 9.1958332 -1 3 C-0.67 2.01 -0.34 1.02 0 0 Z " fill="#A95DC3" transform="translate(452,260)"/>
<path d="M0 0 C0 0.99 0 1.98 0 3 C-1.546875 3.804375 -1.546875 3.804375 -3.125 4.625 C-5.93795122 6.21120779 -8.07771193 7.92140601 -10.3125 10.25 C-11.199375 11.1575 -12.08625 12.065 -13 13 C-13.66 13 -14.32 13 -15 13 C-12.16235159 6.03486298 -6.53567937 2.90294444 0 0 Z " fill="#0C1A1D" transform="translate(274,157)"/>
<path d="M0 0 C0.66 0 1.32 0 2 0 C1.34 1.98 0.68 3.96 0 6 C-0.66 6 -1.32 6 -2 6 C-2.268125 7.258125 -2.53625 8.51625 -2.8125 9.8125 C-3.59532537 12.99448801 -4.25335928 15.00244311 -7 17 C-6.71105501 10.35426532 -4.00464712 5.27933586 0 0 Z " fill="#5F87D1" transform="translate(419,342)"/>
<path d="M0 0 C-1.90682654 2.57982415 -3.05971233 3.01377977 -6.25 3.75 C-10.02414612 4.00160974 -13.28899434 3.68161328 -17 3 C-16.67 2.34 -16.34 1.68 -16 1 C-10.80342022 -0.18205463 -5.30441982 -0.11286 0 0 Z " fill="#5D80D7" transform="translate(487,343)"/>
<path d="M0 0 C0.33 0 0.66 0 1 0 C1.05428973 2.22889496 1.09292338 4.45817471 1.125 6.6875 C1.14820313 7.92886719 1.17140625 9.17023438 1.1953125 10.44921875 C1.01032021 13.81237857 0.45767895 15.9985587 -1 19 C-1.66 18.67 -2.32 18.34 -3 18 C-2.6919856 15.37440156 -2.37879818 12.74960194 -2.0625 10.125 C-1.97548828 9.37863281 -1.88847656 8.63226563 -1.79882812 7.86328125 C-1.11328125 2.2265625 -1.11328125 2.2265625 0 0 Z " fill="#5C80CA" transform="translate(411,361)"/>
<path d="M0 0 C0.87914062 0.1340625 1.75828125 0.268125 2.6640625 0.40625 C1.02678887 2.20725099 -0.2403311 3.36125875 -2.4609375 4.40625 C-4.688981 5.31827978 -4.688981 5.31827978 -5.3359375 8.40625 C-7.7109375 11.09375 -7.7109375 11.09375 -10.3359375 13.40625 C-11.3259375 13.40625 -12.3159375 13.40625 -13.3359375 13.40625 C-11.81666459 11.22041862 -10.27395966 9.06044386 -8.7109375 6.90625 C-8.07091797 5.97619141 -8.07091797 5.97619141 -7.41796875 5.02734375 C-5.06843537 1.83618647 -4.02184976 0.4897803 0 0 Z " fill="#B05DAF" transform="translate(149.3359375,358.59375)"/>
<path d="M0 0 C0.66 0 1.32 0 2 0 C2.26554687 0.75925781 2.53109375 1.51851563 2.8046875 2.30078125 C3.15789062 3.29464844 3.51109375 4.28851563 3.875 5.3125 C4.22304688 6.29863281 4.57109375 7.28476563 4.9296875 8.30078125 C5.95305924 11.15594377 5.95305924 11.15594377 8 14 C7.67 14.99 7.34 15.98 7 17 C4 13.25 4 13.25 4 11 C3.34 11 2.68 11 2 11 C1.34 7.37 0.68 3.74 0 0 Z " fill="#0A181C" transform="translate(368,100)"/>
<path d="M0 0 C0.66 0.33 1.32 0.66 2 1 C1.01 2.485 1.01 2.485 0 4 C-0.66 4 -1.32 4 -2 4 C-2.33 5.65 -2.66 7.3 -3 9 C-3.66 9 -4.32 9 -5 9 C-5.33 9.99 -5.66 10.98 -6 12 C-8.0625 13.1875 -8.0625 13.1875 -10 14 C-8.62815653 9.93501119 -6.77931541 7.32603439 -3.875 4.1875 C-3.15054688 3.39730469 -2.42609375 2.60710937 -1.6796875 1.79296875 C-1.12539062 1.20128906 -0.57109375 0.60960937 0 0 Z " fill="#BC51B7" transform="translate(130,380)"/>
<path d="M0 0 C0.66 0.33 1.32 0.66 2 1 C0.63312778 4.98671063 -1.15195093 7.88494633 -4 11 C-4.66 11 -5.32 11 -6 11 C-5.67 9.02 -5.34 7.04 -5 5 C-4.34 5 -3.68 5 -3 5 C-2.67 4.01 -2.34 3.02 -2 2 C-1.34 2 -0.68 2 0 2 C0 1.34 0 0.68 0 0 Z " fill="#5674C2" transform="translate(439,357)"/>
<path d="M0 0 C0.33 0 0.66 0 1 0 C1 1.65 1 3.3 1 5 C0.34 5 -0.32 5 -1 5 C-1 5.99 -1 6.98 -1 8 C-2.82193842 9.9249647 -4.89235283 11.37535531 -7 13 C-7.66 12.67 -8.32 12.34 -9 12 C-7.52464063 9.99708788 -6.04497707 7.99763223 -4.5625 6 C-4.14162109 5.42765625 -3.72074219 4.8553125 -3.28710938 4.265625 C-2.21555864 2.82546081 -1.11033324 1.41048004 0 0 Z " fill="#BE54BA" transform="translate(117,395)"/>
<path d="M0 0 C1.32 0.33 2.64 0.66 4 1 C3.34 1 2.68 1 2 1 C1.773125 1.515625 1.54625 2.03125 1.3125 2.5625 C-0.48981755 5.90966116 -2.61282504 9.03890492 -5 12 C-5.33 12 -5.66 12 -6 12 C-6 10.35 -6 8.7 -6 7 C-5.01 7 -4.02 7 -3 7 C-3 5.68 -3 4.36 -3 3 C-2.01 3 -1.02 3 0 3 C0 2.01 0 1.02 0 0 Z " fill="#6573D3" transform="translate(191,419)"/>
<path d="M0 0 C7.26 0 14.52 0 22 0 C22 0.33 22 0.66 22 1 C20.84242188 1.04898437 19.68484375 1.09796875 18.4921875 1.1484375 C16.9531033 1.22351478 15.4140419 1.29906043 13.875 1.375 C12.73417969 1.42140625 12.73417969 1.42140625 11.5703125 1.46875 C7.05367842 1.702369 3.25847653 2.32654117 -1 4 C-0.67 2.68 -0.34 1.36 0 0 Z " fill="#BB5CBD" transform="translate(165,383)"/>
<path d="M0 0 C0.66 0.33 1.32 0.66 2 1 C0.90033225 2.29549899 -0.20491801 3.58626071 -1.3125 4.875 C-1.92738281 5.59429687 -2.54226563 6.31359375 -3.17578125 7.0546875 C-5 9 -5 9 -8 11 C-8.99 10.67 -9.98 10.34 -11 10 C-9.8803014 8.99406757 -8.7540588 7.9954151 -7.625 7 C-6.99851562 6.443125 -6.37203125 5.88625 -5.7265625 5.3125 C-4 4 -4 4 -2 4 C-1.34 2.68 -0.68 1.36 0 0 Z " fill="#080E12" transform="translate(362,328)"/>
<path d="M0 0 C0.99 0.33 1.98 0.66 3 1 C0.36 4.3 -2.28 7.6 -5 11 C-5.33 9.68 -5.66 8.36 -6 7 C-4.78515625 5.078125 -4.78515625 5.078125 -3.0625 3.25 C-2.49660156 2.63640625 -1.93070313 2.0228125 -1.34765625 1.390625 C-0.90292969 0.93171875 -0.45820313 0.4728125 0 0 Z " fill="#5F6BC8" transform="translate(182,431)"/>
<path d="M0 0 C0.66 0.33 1.32 0.66 2 1 C-1.3618226 5.25171681 -4.74828319 8.6381774 -9 12 C-9.33 11.01 -9.66 10.02 -10 9 C-6.7 6.03 -3.4 3.06 0 0 Z " fill="#AE54C9" transform="translate(420,315)"/>
<path d="M0 0 C1 3 1 3 -0.1875 5.5625 C-2.02001957 8.02692286 -3.17445421 8.92824125 -6 10 C-5.49477778 5.62140745 -2.82172778 3.18348776 0 0 Z " fill="#6C76D5" transform="translate(158,421)"/>
<path d="M0 0 C3.3 0 6.6 0 10 0 C10 0.33 10 0.66 10 1 C12.97 1.495 12.97 1.495 16 2 C16 2.33 16 2.66 16 3 C14.08404032 3.08133791 12.16708068 3.13934367 10.25 3.1875 C8.64898437 3.23970703 8.64898437 3.23970703 7.015625 3.29296875 C4 3 4 3 0 0 Z " fill="#B151B2" transform="translate(105,436)"/>
<path d="M0 0 C0.66 0.33 1.32 0.66 2 1 C1.01 2.485 1.01 2.485 0 4 C-0.66 4 -1.32 4 -2 4 C-2 4.66 -2 5.32 -2 6 C-6.455 6.495 -6.455 6.495 -11 7 C-10.01 6.67 -9.02 6.34 -8 6 C-8 5.34 -8 4.68 -8 4 C-6.865625 3.525625 -5.73125 3.05125 -4.5625 2.5625 C-1.24259834 1.36377917 -1.24259834 1.36377917 0 0 Z " fill="#ED4BD6" transform="translate(124,431)"/>
<path d="M0 0 C0 3.99282941 -1.47808076 5.15331592 -4 8.1875 C-4.7425 9.08855469 -5.485 9.98960937 -6.25 10.91796875 C-6.8275 11.60503906 -7.405 12.29210937 -8 13 C-8.33 12.01 -8.66 11.02 -9 10 C-8.01 9.67 -7.02 9.34 -6 9 C-5.26676204 6.98491642 -5.26676204 6.98491642 -5 5 C-4.34 5 -3.68 5 -3 5 C-3 4.01 -3 3.02 -3 2 C-2.01 1.34 -1.02 0.68 0 0 Z " fill="#081518" transform="translate(123,354)"/>
<path d="M0 0 C1.03930664 0.01353516 1.03930664 0.01353516 2.09960938 0.02734375 C3.79572395 0.05073843 5.49165871 0.08660359 7.1875 0.125 C7.1875 0.455 7.1875 0.785 7.1875 1.125 C6.50945312 1.17398437 5.83140625 1.22296875 5.1328125 1.2734375 C-1.30549341 1.79064213 -7.50982977 2.71681121 -13.8125 4.125 C-12.8125 2.125 -12.8125 2.125 -10.73828125 1.0078125 C-7.1175338 -0.08469608 -3.73916616 -0.09303189 0 0 Z " fill="#CB53E5" transform="translate(438.8125,309.875)"/>
<path d="M0 0 C1.32 1.32 2.64 2.64 4 4 C3.67 4.66 3.34 5.32 3 6 C2.01 5.34 1.02 4.68 0 4 C0 6.31 0 8.62 0 11 C-2.4294516 7.3558226 -2.16179575 5.28758728 -2 1 C-1.34 0.67 -0.68 0.34 0 0 Z " fill="#A156BC" transform="translate(454,171)"/>
<path d="M0 0 C-0.309375 0.598125 -0.61875 1.19625 -0.9375 1.8125 C-2.10209704 4.08956772 -2.10209704 4.08956772 -3 7 C-5.0625 8.1875 -5.0625 8.1875 -7 9 C-7.3125 6.75 -7.3125 6.75 -7 4 C-2.89189189 0 -2.89189189 0 0 0 Z " fill="#7276E9" transform="translate(142,445)"/>
<path d="M0 0 C0.99 0.33 1.98 0.66 3 1 C0.525 5.455 0.525 5.455 -2 10 C-2.66 10 -3.32 10 -4 10 C-4.41176754 6.39703406 -4.1535853 5.21597933 -2 2.1875 C-1.34 1.465625 -0.68 0.74375 0 0 Z " fill="#C754BF" transform="translate(106,409)"/>
<path d="M0 0 C3.21043882 1.38188453 5.04936365 2.92421903 7.25 5.625 C8.03117187 6.57246094 8.03117187 6.57246094 8.828125 7.5390625 C9.40820312 8.26222656 9.40820312 8.26222656 10 9 C9.67 9.66 9.34 10.32 9 11 C1.33257403 5.03416856 1.33257403 5.03416856 0 0 Z " fill="#0B191B" transform="translate(258,232)"/>
<path d="M0 0 C3 1 3 1 4.1875 2.875 C5 5 5 5 5 8 C5.66 8 6.32 8 7 8 C7.66 9.65 8.32 11.3 9 13 C8.34 13 7.68 13 7 13 C3.79159027 9.48109901 0 4.96536115 0 0 Z " fill="#111E2A" transform="translate(124,226)"/>
<path d="M0 0 C0.99 0.33 1.98 0.66 3 1 C0.22719294 4.08089673 -2.06326356 5.68775452 -6 7 C-6 6.01 -6 5.02 -6 4 C-4.68 4 -3.36 4 -2 4 C-2 3.01 -2 2.02 -2 1 C-1.34 0.67 -0.68 0.34 0 0 Z " fill="#6580C7" transform="translate(416,410)"/>
<path d="M0 0 C-4.62197306 2.21854707 -7.76824163 3.38281159 -13 3 C-12 1 -12 1 -10.0390625 0.33203125 C-9.24242187 0.16058594 -8.44578125 -0.01085937 -7.625 -0.1875 C-6.43777344 -0.45626953 -6.43777344 -0.45626953 -5.2265625 -0.73046875 C-3 -1 -3 -1 0 0 Z " fill="#A95AC4" transform="translate(458,309)"/>
<path d="M0 0 C0.99 0.33 1.98 0.66 3 1 C-2.0940919 7.86214442 -2.0940919 7.86214442 -5.875 8.4375 C-6.57625 8.293125 -7.2775 8.14875 -8 8 C-6.68 7.67 -5.36 7.34 -4 7 C-4 6.34 -4 5.68 -4 5 C-3.34 5 -2.68 5 -2 5 C-1.34 3.35 -0.68 1.7 0 0 Z " fill="#C861C4" transform="translate(126,430)"/>
<path d="M0 0 C0 0.99 0 1.98 0 3 C-0.99 3.33 -1.98 3.66 -3 4 C-3 4.99 -3 5.98 -3 7 C-3.66 7 -4.32 7 -5 7 C-5 7.99 -5 8.98 -5 10 C-5.99 10 -6.98 10 -8 10 C-6.44303593 6.17836093 -3.96591316 3.81381505 -1 1 C-0.67 0.67 -0.34 0.34 0 0 Z " fill="#AB5BC6" transform="translate(396,297)"/>
<path d="M0 0 C0.66 0 1.32 0 2 0 C1.67 0.99 1.34 1.98 1 3 C0.34 3 -0.32 3 -1 3 C-1 3.66 -1 4.32 -1 5 C-2.65 5 -4.3 5 -6 5 C-6 5.66 -6 6.32 -6 7 C-6.99 7.33 -7.98 7.66 -9 8 C-7.87716914 4.7437905 -7.04149584 4.02286505 -3.9375 2.3125 C-2.968125 1.879375 -1.99875 1.44625 -1 1 C-0.67 0.67 -0.34 0.34 0 0 Z " fill="#0D151C" transform="translate(53,124)"/>
<path d="M0 0 C0.66 0 1.32 0 2 0 C1.52797514 4.24822374 -0.96655518 6.19989709 -4 9 C-4 7.35 -4 5.7 -4 4 C-3.01 4 -2.02 4 -1 4 C-0.67 2.68 -0.34 1.36 0 0 Z " fill="#C857BC" transform="translate(152,398)"/>
<path d="M0 0 C0.66 0.99 1.32 1.98 2 3 C-0.31 5.31 -2.62 7.62 -5 10 C-5.33 9.01 -5.66 8.02 -6 7 C-5.01 6.34 -4.02 5.68 -3 5 C-1.94895617 3.36504293 -0.94011682 1.70116376 0 0 Z " fill="#CC4EE2" transform="translate(399,294)"/>
<path d="M0 0 C-0.99 1.485 -0.99 1.485 -2 3 C-4.1640625 3.29296875 -4.1640625 3.29296875 -6.625 3.1875 C-7.44226563 3.16042969 -8.25953125 3.13335937 -9.1015625 3.10546875 C-10.04128906 3.05326172 -10.04128906 3.05326172 -11 3 C-8.15930939 0.15930939 -3.81147953 -1.90573977 0 0 Z " fill="#A458BA" transform="translate(437,285)"/>
<path d="M0 0 C1.4835001 0.42257276 2.96176424 0.86356322 4.4375 1.3125 C5.67306641 1.67794922 5.67306641 1.67794922 6.93359375 2.05078125 C7.61550781 2.36402344 8.29742187 2.67726562 9 3 C9.33 3.99 9.66 4.98 10 6 C5.56909529 4.79157144 3.01887244 3.48331435 0 0 Z " fill="#0D1B1E" transform="translate(134,240)"/>
<path d="M0 0 C-1.450954 3.82524236 -3.38181932 5.19090966 -7 7 C-7.66 7 -8.32 7 -9 7 C-9 6.34 -9 5.68 -9 5 C-7.5390625 3.7109375 -7.5390625 3.7109375 -5.625 2.375 C-4.99851563 1.92898437 -4.37203125 1.48296875 -3.7265625 1.0234375 C-2 0 -2 0 0 0 Z " fill="#0D2325" transform="translate(140,159)"/>
<path d="M0 0 C0.66 0 1.32 0 2 0 C1.49477778 4.37859255 -1.17827222 6.81651224 -4 10 C-4.33 9.01 -4.66 8.02 -5 7 C-4.34 6.67 -3.68 6.34 -3 6 C-1.95191959 4.02477154 -0.9479589 2.02518491 0 0 Z " fill="#0A1317" transform="translate(180,229)"/>
<path d="M0 0 C0 2 0 2 -2.3125 4.625 C-5 7 -5 7 -8 7 C-6.47663111 3.31852519 -4.31953005 0 0 0 Z " fill="#070E13" transform="translate(85,66)"/>
<path d="M0 0 C0.99 0.33 1.98 0.66 3 1 C1.25 3.5 1.25 3.5 -1 6 C-2.32 6 -3.64 6 -5 6 C-4.34 4.68 -3.68 3.36 -3 2 C-2.01 2 -1.02 2 0 2 C0 1.34 0 0.68 0 0 Z " fill="#CB57C3" transform="translate(144,409)"/>
<path d="M0 0 C0 3 0 3 -1.3125 4.38671875 C-2.875 5.59114583 -4.4375 6.79557292 -6 8 C-6 5 -6 5 -4.6875 3.61328125 C-3.125 2.40885417 -1.5625 1.20442708 0 0 Z " fill="#AF66C8" transform="translate(393,372)"/>
<path d="M0 0 C1.09658936 3.28976808 0.79953138 4.71303767 0 8 C-1.32 8.33 -2.64 8.66 -4 9 C-4.33 8.34 -4.66 7.68 -5 7 C-4.34 7 -3.68 7 -3 7 C-2.690625 6.21625 -2.38125 5.4325 -2.0625 4.625 C-1 2 -1 2 0 0 Z " fill="#5778C8" transform="translate(479,309)"/>
<path d="M0 0 C3.37503669 1.1858237 5.64722731 2.27573689 8 5 C7.67 5.66 7.34 6.32 7 7 C5.82780457 6.21654285 4.66236332 5.42297164 3.5 4.625 C2.8503125 4.18414062 2.200625 3.74328125 1.53125 3.2890625 C1.0259375 2.86367188 0.520625 2.43828125 0 2 C0 1.34 0 0.68 0 0 Z " fill="#070E10" transform="translate(8,261)"/>
<path d="M0 0 C0.66 0 1.32 0 2 0 C2 1.65 2 3.3 2 5 C0.35 5.66 -1.3 6.32 -3 7 C-2.01 4.69 -1.02 2.38 0 0 Z " fill="#577FC5" transform="translate(407,381)"/>
<path d="M0 0 C0.99 0.33 1.98 0.66 3 1 C3 1.66 3 2.32 3 3 C2.01 3 1.02 3 0 3 C-0.33 4.32 -0.66 5.64 -1 7 C-1.66 6.67 -2.32 6.34 -3 6 C-3 3 -3 3 -1.5 1.3125 C-0.7575 0.6628125 -0.7575 0.6628125 0 0 Z " fill="#6686D1" transform="translate(473,317)"/>
<path d="M0 0 C2.475 0.99 2.475 0.99 5 2 C5 2.66 5 3.32 5 4 C5.99 4.33 6.98 4.66 8 5 C8 5.66 8 6.32 8 7 C4.21388773 6.45912682 2.44599233 4.88277668 0 2 C0 1.34 0 0.68 0 0 Z " fill="#021013" transform="translate(56,280)"/>
<path d="M0 0 C0 0.99 0 1.98 0 3 C-2.5 5.1875 -2.5 5.1875 -5 7 C-5 5.02 -5 3.04 -5 1 C-3.35 0.67 -1.7 0.34 0 0 Z " fill="#6B7EED" transform="translate(163,419)"/>
<path d="M0 0 C0.66 0.33 1.32 0.66 2 1 C0 4 0 4 -1.9453125 4.51171875 C-2.66460937 4.56972656 -3.38390625 4.62773437 -4.125 4.6875 C-6.043125 4.8421875 -6.043125 4.8421875 -8 5 C-5.56159764 2.56159764 -3.14759102 1.37707107 0 0 Z " fill="#A861BC" transform="translate(367,354)"/>
<path d="M0 0 C0 3 0 3 -1.3125 4.38671875 C-2.875 5.59114583 -4.4375 6.79557292 -6 8 C-6 7.01 -6 6.02 -6 5 C-5.34 4.67 -4.68 4.34 -4 4 C-3.67 3.01 -3.34 2.02 -3 1 C-2.01 0.67 -1.02 0.34 0 0 Z " fill="#AC59CC" transform="translate(466,299)"/>
<path d="M0 0 C1.32 0 2.64 0 4 0 C4 1.98 4 3.96 4 6 C3.34 6 2.68 6 2 6 C1.34 4.02 0.68 2.04 0 0 Z " fill="#8287DF" transform="translate(129,465)"/>
<path d="M0 0 C0.33 1.32 0.66 2.64 1 4 C-0.32 4.33 -1.64 4.66 -3 5 C-3 5.66 -3 6.32 -3 7 C-3.66 7 -4.32 7 -5 7 C-4.67 6.01 -4.34 5.02 -4 4 C-3.34 4 -2.68 4 -2 4 C-1.34 2.68 -0.68 1.36 0 0 Z " fill="#E550CE" transform="translate(147,404)"/>
<path d="M0 0 C0.66 0.33 1.32 0.66 2 1 C1.34 2.98 0.68 4.96 0 7 C-0.66 7 -1.32 7 -2 7 C-2.125 4.625 -2.125 4.625 -2 2 C-1.34 1.34 -0.68 0.68 0 0 Z " fill="#DB52CF" transform="translate(163,383)"/>
<path d="M0 0 C1.32 0.66 2.64 1.32 4 2 C2.75 3.5625 2.75 3.5625 1 5 C-1.1875 4.6875 -1.1875 4.6875 -3 4 C-2.01 2.68 -1.02 1.36 0 0 Z " fill="#D151C7" transform="translate(134,374)"/>
<path d="M0 0 C0.33 0 0.66 0 1 0 C1.25 6.625 1.25 6.625 -1 10 C-1.33 7.36 -1.66 4.72 -2 2 C-1.34 2 -0.68 2 0 2 C0 1.34 0 0.68 0 0 Z " fill="#6386EA" transform="translate(413,357)"/>
<path d="M0 0 C0.66 0 1.32 0 2 0 C1.25 2.9375 1.25 2.9375 0 6 C-2.125 6.875 -2.125 6.875 -4 7 C-2.68 4.69 -1.36 2.38 0 0 Z " fill="#5171C9" transform="translate(419,342)"/>
<path d="M0 0 C0.33 0.99 0.66 1.98 1 3 C-0.9375 6.1875 -0.9375 6.1875 -3 9 C-3.33 8.01 -3.66 7.02 -4 6 C-3.34 6 -2.68 6 -2 6 C-2 4.35 -2 2.7 -2 1 C-1.34 0.67 -0.68 0.34 0 0 Z " fill="#4F72D4" transform="translate(497,328)"/>
<path d="M0 0 C0.66 0 1.32 0 2 0 C0.55746343 3.36591866 -1.33264727 5.51047079 -4 8 C-2.25 2.25 -2.25 2.25 0 0 Z " fill="#080F11" transform="translate(376,285)"/>
</svg>
