<?xml version="1.0" encoding="UTF-8"?>
<svg version="1.1" xmlns="http://www.w3.org/2000/svg" width="512" height="512">
<path d="M0 0 C13.53 0 27.06 0 41 0 C47.5496521 21.04908747 54.02946774 42.11827328 60.46661377 63.20196533 C61.4334287 66.36779106 62.40110427 69.53335346 63.36875725 72.69892311 C68.28625136 88.78722515 73.19603287 104.87733785 78 121 C83.696255 110.34875324 88.27356369 99.2089345 92.97137451 88.09384155 C94.46131981 84.56864252 95.95590016 81.0454405 97.45166016 77.52270508 C99.55440803 72.56913549 101.65532875 67.61479882 103.75439453 62.65966797 C108.60754435 51.20382154 113.46979881 39.75185329 118.33865356 28.30267334 C119.86128465 24.71977356 121.38080404 21.13556486 122.90014648 17.55126953 C123.82652053 15.37135993 124.75302688 13.19150655 125.6796875 11.01171875 C126.10462997 10.0070607 126.52957245 9.00240265 126.96739197 7.96730042 C127.35439774 7.05858688 127.7414035 6.14987335 128.14013672 5.21362305 C128.64563553 4.02231026 128.64563553 4.02231026 129.16134644 2.80693054 C130 1 130 1 131 0 C132.62674778 -0.09340434 134.25754051 -0.11745171 135.88696289 -0.11352539 C136.92796646 -0.11344986 137.96897003 -0.11337433 139.04151917 -0.11329651 C140.1737944 -0.10813522 141.30606964 -0.10297394 142.47265625 -0.09765625 C143.62543564 -0.0962413 144.77821503 -0.09482635 145.96592712 -0.09336853 C149.66481064 -0.08775005 153.36363464 -0.07519442 157.0625 -0.0625 C159.56315017 -0.05748738 162.06380129 -0.05292406 164.56445312 -0.04882812 C170.70965588 -0.03777462 176.85482369 -0.02101852 183 0 C182.39077391 4.86252676 180.93179173 9.09892924 179.0625 13.59375 C178.75530029 14.34706604 178.44810059 15.10038208 178.1315918 15.87652588 C177.45435723 17.5352834 176.77429493 19.1928885 176.09179688 20.8494873 C174.56672927 24.55183445 173.05578149 28.25990161 171.54345703 31.96746826 C170.7092177 34.01207436 169.87423351 36.05637668 169.03857422 38.10040283 C164.17568193 49.99860809 159.37473036 61.92174968 154.57299805 73.84472656 C152.99031598 77.77444965 151.40643021 81.70368685 149.82226562 85.6328125 C145.12157513 97.29194214 140.42226249 108.95162673 135.72406006 120.61175919 C133.46478509 126.21884275 131.20513162 131.8257737 128.94525146 137.43261337 C127.35244576 141.38451423 125.76014869 145.33661946 124.16828156 149.28889847 C123.41428703 151.16064404 122.66001885 153.03227907 121.90563965 154.90386963 C121.00098845 157.14828228 120.09671839 159.39284862 119.19299316 161.63763428 C114.83638563 172.44226325 110.41125107 183.21694182 106 194 C88.84 194 71.68 194 54 194 C52.08686688 189.53602273 50.42004982 185.46489674 48.99804688 180.88574219 C48.63301559 179.71681427 48.26798431 178.54788635 47.89189148 177.34353638 C47.50475479 176.09063812 47.1176181 174.83773987 46.71875 173.546875 C46.30447871 172.2157057 45.88986443 170.8846431 45.47492981 169.55368042 C44.59848075 166.73999473 43.72429159 163.92562143 42.85195923 161.11065674 C41.49780647 156.74104016 40.13843505 152.37305894 38.77807617 148.00537109 C36.9941531 142.27654285 35.21194938 136.5471835 33.43115234 130.81738281 C30.63226719 121.81311702 27.82312774 112.81209351 24.99951172 103.81555176 C24.32625432 101.66885594 23.65523901 99.52146819 22.984375 97.37402344 C22.59378906 96.12911133 22.20320313 94.88419922 21.80078125 93.6015625 C21.47247314 92.55307129 21.14416504 91.50458008 20.8059082 90.42431641 C20.07285794 88.02719169 20.07285794 88.02719169 19 86 C16.27329561 94.30125662 13.54743886 102.60279119 10.82214355 110.9045105 C9.86015822 113.8348448 8.89798783 116.76511824 7.93566895 119.69534302 C3.11109806 134.38661532 -1.71101738 149.07851041 -6.4765625 163.7890625 C-6.80608917 164.80548325 -7.13561584 165.82190399 -7.47512817 166.86912537 C-8.98696455 171.53361281 -10.49543694 176.19914459 -11.99853516 180.86645508 C-12.52495881 182.49303571 -13.05148191 184.11958416 -13.578125 185.74609375 C-13.81254303 186.47837189 -14.04696106 187.21065002 -14.28848267 187.96511841 C-15.88653265 192.88653265 -15.88653265 192.88653265 -17 194 C-60.66961651 200.15151827 -60.66961651 200.15151827 -72.63916016 191.97851562 C-77.77524315 186.67326521 -79.86580203 180.28134221 -81.88232422 173.29736328 C-84.00394198 167.03817378 -88.03300888 161.74487554 -91.71875 156.3059082 C-93.73381089 152.97307122 -95.16561918 150.41074946 -94.70043945 146.44833374 C-94.44609131 145.53387482 -94.19174316 144.61941589 -93.9296875 143.67724609 C-93.63723648 142.62001343 -93.34478546 141.56278076 -93.04347229 140.47351074 C-91.10823223 134.03148328 -89.06697172 127.63118058 -86.96484375 121.2421875 C-86.48048477 119.76203605 -85.99632194 118.28182039 -85.51234436 116.80154419 C-84.5057911 113.72645279 -83.496054 110.65242987 -82.48413086 107.57910156 C-81.18699808 103.63826717 -79.89935524 99.69440276 -78.61415768 95.7496624 C-77.62069164 92.70459562 -76.62164528 89.66138224 -75.62094307 86.61868668 C-75.1434082 85.16401868 -74.66777226 83.70872588 -74.19407463 82.2528038 C-73.53480999 80.22892122 -72.86792256 78.20771081 -72.19897461 76.18701172 C-71.82163681 75.0373996 -71.44429901 73.88778748 -71.05552673 72.70333862 C-70 70 -70 70 -68 68 C-63.06303898 77.19463502 -58.25390434 86.44520419 -53.62109375 95.796875 C-53.24138931 96.56218536 -52.86168488 97.32749573 -52.47047424 98.11599731 C-50.5439826 102.0010138 -48.62486537 105.88945549 -46.71508789 109.78271484 C-45.99778033 111.2328571 -45.2802604 112.68289433 -44.5625 114.1328125 C-44.2326561 114.8111615 -43.90281219 115.4895105 -43.56297302 116.18841553 C-41.97068534 119.72389701 -41.97068534 119.72389701 -39 122 C-38.75862305 120.79069824 -38.51724609 119.58139648 -38.26855469 118.33544922 C-36.84770945 111.96211624 -34.76129729 105.82369557 -32.703125 99.6328125 C-32.27255665 98.32701501 -31.84239582 97.02108308 -31.41261292 95.71502686 C-30.50138075 92.94850145 -29.58754939 90.18285476 -28.67153931 87.41790771 C-27.24123327 83.1004718 -25.81666164 78.78115884 -24.39331055 74.46142578 C-23.91540072 73.01119642 -23.43748018 71.56097059 -22.95954895 70.11074829 C-22.72323069 69.39366322 -22.48691242 68.67657814 -22.243433 67.93776321 C-21.52733594 65.76560131 -20.81065342 63.59363341 -20.09379578 61.42172241 C-15.96707688 48.91684631 -11.88056975 36.39907877 -7.8125 23.875 C-6.96852062 21.2776567 -6.12447051 18.68033644 -5.28025818 16.08306885 C-4.79482427 14.5893092 -4.30965858 13.09546235 -3.82484436 11.60150146 C-2.56690947 7.72828994 -1.2878484 3.86354519 0 0 Z " fill="#590FC7" transform="translate(226,159)"/>
<path d="M0 0 C112.638383 0 112.638383 0 130.9375 17.5625 C131.9752696 18.69301713 132.99772296 19.83790041 134 21 C134.845625 21.94875 135.69125 22.8975 136.5625 23.875 C140.0977965 31.56042718 133.55225982 43.92242474 130.984375 51.77734375 C130.48559846 53.31308542 129.98717179 54.84894077 129.48907471 56.38490295 C128.1799299 60.41838288 126.8657011 64.45018877 125.55047607 68.48168945 C124.49289636 71.7262779 123.43889892 74.97202424 122.38509369 78.21784019 C117.31586137 93.83143738 112.24113092 109.44306011 107 125 C94.03213743 127.84550856 81.68437024 128.36970023 68.4375 128.1875 C62.023125 128.125625 55.60875 128.06375 49 128 C49 149.78 49 171.56 49 194 C32.83 194 16.66 194 0 194 C0 129.98 0 65.96 0 0 Z M49 39 C49 55.5 49 72 49 89 C53.57875 89.0825 58.1575 89.165 62.875 89.25 C64.29796387 89.28641602 65.72092773 89.32283203 67.18701172 89.36035156 C76.33638794 89.43965554 83.74683309 88.52922361 90.9375 82.5625 C97.50126642 74.40751747 97.59920533 67.26715285 97 57 C96.02743565 50.90202152 92.99817455 47.52842958 88.42578125 43.54296875 C80.18260739 38.29972612 72.52610351 38.63196841 63 38.8125 C56.07 38.9053125 56.07 38.9053125 49 39 Z " fill="#3D3C3D" transform="translate(0,159)"/>
<path d="M0 0 C2.69987036 3.22537196 4.07447849 6.40389502 5.52099609 10.34033203 C5.87071976 11.28341217 5.87071976 11.28341217 6.22750854 12.24554443 C6.99905346 14.33072473 7.76114755 16.41923298 8.5234375 18.5078125 C9.07029332 19.99029757 9.61780216 21.4725419 10.16592407 22.95455933 C11.61666621 26.88166415 13.05973767 30.81154186 14.50085449 34.7421875 C16.75984236 40.89990893 19.02978734 47.05360635 21.29984856 53.2072525 C21.86698771 54.7447904 22.43386699 56.28242417 23.00049019 57.82015228 C28.50802804 72.76183072 34.18395817 87.63640497 39.89345455 102.50183296 C43.08427086 110.81546052 46.20214063 119.15602828 49.3125 127.5 C53.32838525 138.26405999 57.37783911 149.01350014 61.5078125 159.734375 C62.25483268 161.67772236 63.00182195 163.62108161 63.7487793 165.56445312 C65.18310413 169.2951688 66.62604614 173.02240336 68.07348633 176.74804688 C68.7250929 178.44128285 69.37639498 180.13463604 70.02734375 181.828125 C70.32967926 182.59912537 70.63201477 183.37012573 70.94351196 184.16448975 C72.2922651 187.69360832 73 190.17182887 73 194 C55.18 194 37.36 194 19 194 C15.87317192 186.4956126 12.85045735 179.09717645 10.1875 171.4375 C9.87619141 170.56287109 9.56488281 169.68824219 9.24414062 168.78710938 C8.95087891 167.94857422 8.65761719 167.11003906 8.35546875 166.24609375 C8.09403076 165.50029053 7.83259277 164.7544873 7.56323242 163.98608398 C7 162 7 162 7 159 C-16.1 159 -39.2 159 -63 159 C-59.47586885 149.60231693 -55.96067264 140.26396062 -52.125 131 C-50.083125 126.05 -50.083125 126.05 -48 121 C-34.14 121 -20.28 121 -6 121 C-7.38316406 117.27847656 -8.76632812 113.55695313 -10.19140625 109.72265625 C-11.52301733 106.10019408 -12.8481128 102.47541111 -14.17260742 98.8503418 C-15.09217013 96.33773385 -16.02241559 93.82986185 -16.95776367 91.32299805 C-18.30354606 87.71251958 -19.62464901 84.09380526 -20.94140625 80.47265625 C-21.36216934 79.35979752 -21.78293243 78.24693878 -22.21644592 77.10035706 C-25.7219002 67.33018895 -25.12709436 60.68872215 -21.15625 51.2734375 C-20.87093918 50.57065674 -20.58562836 49.86787598 -20.29167175 49.14379883 C-19.37145214 46.88314397 -18.43590997 44.62919805 -17.5 42.375 C-16.86182316 40.81511198 -16.22486827 39.25472351 -15.58911133 37.69384766 C-14.63457217 35.35091695 -13.67921057 33.00836376 -12.71943665 30.66757202 C-9.56904379 22.98120893 -6.55934179 15.24327163 -3.578125 7.48974609 C-3.24683594 6.63461426 -2.91554688 5.77948242 -2.57421875 4.8984375 C-2.29151123 4.16286621 -2.00880371 3.42729492 -1.7175293 2.66943359 C-1 1 -1 1 0 0 Z " fill="#3D3C3E" transform="translate(439,159)"/>
</svg>
