<?xml version="1.0" encoding="UTF-8"?>
<svg version="1.1" xmlns="http://www.w3.org/2000/svg" width="600" height="600">
<path d="M0 0 C198 0 396 0 600 0 C600 198 600 396 600 600 C402 600 204 600 0 600 C0 402 0 204 0 0 Z " fill="#FEFEFE" transform="translate(0,0)"/>
<path d="M0 0 C9.93425866 7.15328423 18.44622018 16.15444736 20.51171875 28.80859375 C21.61567384 43.69621663 18.97061889 54.02458366 9.51171875 65.80859375 C7.18925421 68.38885437 4.75332149 70.84153569 2.29171467 73.28866005 C1.58403534 74.00014505 0.87635601 74.71163005 0.14723185 75.44467521 C-2.21938811 77.82158101 -4.59302621 80.19134835 -6.96672058 82.56118774 C-8.68451943 84.28344058 -10.40188747 86.0061232 -12.11886197 87.72919786 C-15.84992613 91.471475 -19.58407913 95.21062892 -23.32102013 98.94703484 C-28.87812409 104.50334399 -34.42953156 110.06531896 -39.97991257 115.62834285 C-51.04783817 126.72097882 -62.12371075 137.80566028 -73.20148885 148.88845562 C-73.77481116 149.4620391 -74.34813347 150.03562259 -74.93882918 150.62658739 C-75.51331934 151.20133782 -76.0878095 151.77608825 -76.67970845 152.36825536 C-83.05067209 158.74230337 -89.41992418 165.11806084 -95.78911781 171.49387741 C-115.02982967 190.75423232 -134.27215806 210.01296846 -153.52128124 229.26491737 C-154.13666047 229.88039066 -154.7520397 230.49586395 -155.38606679 231.12998795 C-157.87986219 233.62416183 -160.37366484 236.11832848 -162.86746923 238.61249338 C-164.74441155 240.48970741 -166.62135138 242.36692392 -168.49829102 244.24414062 C-169.11850475 244.86444238 -169.73871849 245.48474414 -170.37772658 246.12384292 C-189.86939062 265.61841304 -209.35143082 285.12255742 -228.82641602 304.63378906 C-250.71156362 326.55966792 -272.60521476 348.47700948 -294.51058751 370.38268316 C-296.84654524 372.71873771 -299.18246801 375.0548272 -301.51836586 377.39094162 C-302.3810955 378.25373743 -302.3810955 378.25373743 -303.26125403 379.13396347 C-312.51327099 388.38709988 -321.75712155 397.64835301 -330.99810843 406.91250351 C-340.28594884 416.2231926 -349.58307255 425.52453129 -358.88964822 434.816494 C-364.41647825 440.33517678 -369.93629288 445.86066346 -375.44620842 451.39623505 C-379.5633632 455.53100893 -383.69353518 459.65260446 -387.82884447 463.769226 C-389.4980904 465.43497213 -391.16312968 467.10494678 -392.82347693 468.77956291 C-408.7395153 484.82352147 -408.7395153 484.82352147 -418.48828125 488.80859375 C-419.53628906 489.25460937 -420.58429688 489.700625 -421.6640625 490.16015625 C-434.24058556 493.04771203 -446.27527454 490.76503587 -457.17578125 484.12109375 C-466.04075498 477.80935932 -473.29176577 468.76949431 -475.80078125 458.05859375 C-478.08125794 443.9371804 -476.2289657 432.18636277 -467.8309579 420.52053083 C-462.50438644 413.72905562 -456.02947259 407.80626244 -449.92082214 401.73320007 C-448.2051441 400.01290962 -446.49033843 398.29174876 -444.77632791 396.56979686 C-441.05690532 392.83717995 -437.33138597 389.11081273 -433.60025406 385.38991165 C-428.05188041 379.85671025 -422.51504112 374.31207184 -416.98035707 368.76518143 C-407.09352972 358.85732083 -397.19531965 348.96089467 -387.29219073 339.06933075 C-378.6263445 330.41355472 -369.96423529 321.7540606 -361.30581093 313.09086037 C-360.73102309 312.51576699 -360.15623526 311.94067361 -359.56402961 311.34815317 C-357.23067398 309.01355215 -354.89733246 306.67893702 -352.56401417 304.34429868 C-330.68574991 282.45380452 -308.79584798 260.57498093 -286.90070174 238.70137383 C-267.45483598 219.27449235 -248.01934017 199.83729334 -228.5925293 180.39135742 C-206.7568637 158.53426713 -184.91474225 136.68366174 -163.0621832 114.84346038 C-160.73217572 112.51473574 -158.40218397 110.18599535 -156.07219887 107.85724831 C-155.498508 107.28387375 -154.92481713 106.71049919 -154.33374169 106.11974965 C-145.67611377 97.46666881 -137.02342642 88.80866843 -128.37312889 80.14826012 C-118.53667172 70.30036296 -108.69309006 60.45965002 -98.8400695 50.6283237 C-93.32801004 45.12800117 -87.82149033 39.62226827 -82.32285525 34.10852475 C-78.21520623 29.99083677 -74.09714248 25.88367748 -69.97496406 21.78053186 C-68.31001596 20.12005078 -66.64842738 18.45619285 -64.99056878 16.78863343 C-62.73483971 14.52072068 -60.46710996 12.26550855 -58.19603252 10.01298046 C-57.55689589 9.36447916 -56.91775925 8.71597786 -56.25925484 8.04782501 C-41.22697553 -6.74046888 -18.42809257 -12.0636022 0 0 Z " fill="#000000" transform="translate(506.48828125,36.19140625)"/>
<path d="M0 0 C0.79470703 -0.01160156 1.58941406 -0.02320313 2.40820312 -0.03515625 C14.25139113 0.02266241 24.8792471 5.12679902 33.453125 13.109375 C41.87724265 22.15750137 45.18750608 32.88520124 44.84375 45.07421875 C43.57732678 59.93710235 36.79660038 69.7550323 26.41781616 80.04107666 C25.05075293 81.41961653 25.05075293 81.41961653 23.65607226 82.8260057 C21.14773969 85.35476548 18.62723868 87.87107001 16.10438514 90.38533163 C13.3772254 93.10753261 10.66161973 95.84122073 7.94442749 98.57336426 C2.62782199 103.91540001 -2.69961858 109.24649977 -8.0312968 114.57348803 C-12.36682203 118.90543976 -16.69878441 123.24092383 -21.02827072 127.57891083 C-21.64567402 128.19750451 -22.26307733 128.81609819 -22.89918982 129.45343713 C-24.15364216 130.7103131 -25.40809217 131.96719138 -26.66253988 133.22407195 C-38.41312917 144.99638737 -50.1766971 156.75566672 -61.94425468 168.51101705 C-72.69670485 179.25312888 -83.43263758 190.01157688 -94.16089089 200.7778497 C-105.19219167 211.84794206 -116.23460975 222.90683141 -127.28907812 233.95379043 C-133.48897794 240.14987172 -139.68443336 246.35024312 -145.86824417 252.56238556 C-151.13220203 257.85021731 -156.4066163 263.12734335 -161.69459589 268.39115694 C-164.38924863 271.07406501 -167.07896329 273.76145566 -169.75569153 276.46225739 C-172.66458012 279.39700092 -175.59643024 282.30770757 -178.53091431 285.21685791 C-179.36343991 286.06413208 -180.19596551 286.91140625 -181.05371916 287.7843554 C-190.96857412 297.52068634 -202.09717196 302.28511016 -215.875 302.6875 C-227.7462649 302.43932025 -237.34106752 298.20678115 -245.95703125 289.96484375 C-255.76818239 278.91712962 -258.49671185 267.10770767 -257.8515625 252.7421875 C-256.78297892 238.71926669 -246.75394818 229.38772996 -237.25953674 219.93634033 C-235.90533446 218.57639973 -235.90533446 218.57639973 -234.52377456 217.18898559 C-232.03974522 214.69474468 -229.54959851 212.20669371 -227.0583123 209.71970391 C-224.36414902 207.02802027 -221.67575484 204.33058443 -218.98657227 201.63392639 C-213.72662049 196.36126154 -208.46124094 191.09404999 -203.19375677 185.82891116 C-198.91178707 181.54872795 -194.63159451 177.26677534 -190.35264397 172.98357391 C-189.43749903 172.0675362 -189.43749903 172.0675362 -188.50386633 171.13299267 C-187.26430475 169.8922193 -186.02474434 168.65144475 -184.78518509 167.41066906 C-173.17612912 155.79075142 -161.56057828 144.17734318 -149.94303911 132.56590793 C-139.32084051 121.94888185 -128.70688614 111.32365735 -118.09677864 100.69454923 C-107.19082706 89.7692176 -96.27932346 78.84945966 -85.3617987 67.93569255 C-79.23701096 61.812816 -73.11443792 55.68776378 -66.99768257 49.55686188 C-61.79266626 44.33992898 -56.58242251 39.1282866 -51.36539478 33.92336425 C-48.70543351 31.26928856 -46.04791716 28.61288334 -43.39690208 25.94986916 C-40.52019101 23.06028918 -37.63194184 20.18252155 -34.7424469 17.3057251 C-33.9106249 16.46652881 -33.07880289 15.62733252 -32.22177416 14.76270604 C-22.74045479 5.36882444 -13.53724378 -0.19666698 0 0 Z " fill="#000000" transform="translate(525.4375,267.625)"/>
</svg>
