<?xml version="1.0" encoding="UTF-8"?>
<svg version="1.1" xmlns="http://www.w3.org/2000/svg" width="1280" height="615">
<path d="M0 0 C3.68473753 0.01073698 7.3689878 0.000014 11.05371094 -0.01269531 C32.03949504 -0.02569539 52.8924898 1.17647845 73.68652344 4.07324219 C74.93014648 4.24428467 76.17376953 4.41532715 77.45507812 4.59155273 C127.46835531 11.67772073 184.00075596 25.12345757 220.68652344 62.26074219 C221.42128906 62.98519531 222.15605469 63.70964844 222.91308594 64.45605469 C239.25123286 81.55118139 241.2874547 100.80426884 241.29589844 123.34667969 C241.31124709 125.87653568 241.32819313 128.40638237 241.34655762 130.93621826 C241.38876833 137.25556455 241.40855548 143.57480712 241.42098427 149.89427471 C241.43175341 155.16228691 241.45073251 160.43021434 241.47497559 165.69818115 C241.56417052 185.23586158 241.61671486 204.77346375 241.65015793 224.31131554 C241.67039057 236.06994264 241.69409487 247.82855039 241.72363281 259.5871582 C241.72698825 260.92422934 241.73034367 262.26130048 241.73369908 263.59837162 C241.73882422 265.63889651 241.74395021 267.6794214 241.74907894 269.71994627 C241.81959576 297.8260554 241.87283096 325.93215144 241.90471268 354.03833199 C241.90594878 355.12583571 241.90594878 355.12583571 241.90720986 356.23530921 C241.91400729 362.22671241 241.91400729 362.22671241 241.91711089 365.02122061 C241.9285948 375.27529038 241.94566339 385.52933702 241.96660626 395.78339159 C241.99392813 409.17768955 242.01084369 422.57193789 242.01066303 435.96626568 C242.01083246 442.53782344 242.01610061 449.10930255 242.03407288 455.68083954 C242.05054397 461.77870343 242.05277194 467.8764079 242.04409266 473.97428632 C242.04335739 476.18852402 242.04766007 478.40277057 242.05761099 480.61698604 C242.18354404 510.39265368 242.18354404 510.39265368 234.93652344 523.63574219 C234.58509277 524.3036377 234.23366211 524.9715332 233.87158203 525.65966797 C230.99490255 530.98910886 227.77811894 535.77866247 223.68652344 540.26074219 C222.98269531 541.04449219 222.27886719 541.82824219 221.55371094 542.63574219 C198.51714158 566.96479233 165.66793668 578.93158045 134.18652344 588.01074219 C132.85693604 588.39734009 132.85693604 588.39734009 131.50048828 588.79174805 C128.94256313 589.49574973 126.37563563 590.13189936 123.79529953 590.74763966 C122.32738612 591.10480896 120.86270203 591.47540603 119.40077591 591.85634136 C99.75920006 596.89163863 80.61087629 597.00604386 60.47802091 596.93236971 C55.83379883 596.91947706 51.18961956 596.93151437 46.5453949 596.93930054 C38.75339737 596.94833145 30.96163877 596.93658458 23.16967773 596.91259766 C14.23595684 596.88540878 5.30280721 596.89421105 -3.63089985 596.92172968 C-11.38041489 596.94462054 -19.12976072 596.94752428 -26.87929875 596.93453634 C-31.4730019 596.92684896 -36.06643912 596.92539634 -40.66012383 596.94221878 C-61.16543764 597.00716062 -80.29451413 596.24120025 -100.31347656 591.26074219 C-101.87004069 590.89283512 -103.42694411 590.52635899 -104.98426819 590.16168213 C-108.57361455 589.30169064 -112.13026788 588.3659928 -115.68847656 587.38574219 C-116.94176758 587.04478516 -118.19505859 586.70382812 -119.48632812 586.35253906 C-156.07147146 576.22704882 -202.94420912 559.15633385 -223.37207031 524.46289062 C-224.49620596 522.45564842 -225.5710737 520.43017639 -226.62597656 518.38574219 C-226.95186768 517.7621582 -227.27775879 517.13857422 -227.61352539 516.49609375 C-233.07386718 505.35091524 -233.75093521 494.02555559 -233.69442749 481.82678223 C-233.69788991 480.18742897 -233.70265838 478.54807805 -233.70860922 476.90873194 C-233.72106864 472.43252249 -233.71497201 467.95650628 -233.70565057 463.48029637 C-233.69883958 458.64177379 -233.70935144 453.80328354 -233.71759033 448.96476746 C-233.73090803 439.49739848 -233.72805868 430.03010098 -233.71935241 420.56272924 C-233.71256854 412.86622048 -233.71166219 405.16973172 -233.71492386 397.47322083 C-233.71538356 396.37649297 -233.71584326 395.27976511 -233.71631689 394.14980307 C-233.71727609 391.92160125 -233.71824873 389.69339943 -233.71923466 387.46519762 C-233.72778281 366.58686682 -233.71796345 345.70857559 -233.70183356 324.83025128 C-233.68843091 306.92799276 -233.69075917 289.02579262 -233.70458984 271.12353516 C-233.72065581 250.31829477 -233.72695889 229.51308903 -233.71775305 208.7078433 C-233.71679744 206.48798339 -233.71585432 204.26812347 -233.71492386 202.04826355 C-233.71446103 200.95614017 -233.71399821 199.86401679 -233.71352135 198.73879877 C-233.71093452 191.05435773 -233.71529585 183.36993872 -233.72236252 175.6855011 C-233.73078901 166.31670382 -233.7284732 156.94798191 -233.71252029 147.57919323 C-233.70465307 142.80200245 -233.70151953 138.02493719 -233.71146774 133.24774742 C-233.72044727 128.86941005 -233.71542842 124.49131387 -233.69953509 120.11299819 C-233.69620103 118.53442137 -233.69785016 116.95582391 -233.70516245 115.37726051 C-233.75693787 103.26513073 -232.40503602 92.2096544 -226.81347656 81.32324219 C-226.29853638 80.31547729 -226.29853638 80.31547729 -225.77319336 79.28735352 C-216.59560354 62.11919357 -200.86007203 49.8970419 -184.31347656 40.26074219 C-183.63639648 39.86532227 -182.95931641 39.46990234 -182.26171875 39.0625 C-146.90670261 18.75148617 -105.9051856 9.39269733 -65.81347656 3.94824219 C-64.73243652 3.80104736 -63.65139648 3.65385254 -62.53759766 3.50219727 C-41.74231073 0.88710195 -20.94798905 -0.07225361 0 0 Z M-178.31347656 84.26074219 C-179.291875 84.99357422 -179.291875 84.99357422 -180.29003906 85.74121094 C-187.02788026 91.03946933 -193.03676108 98.64291271 -194.31347656 107.26074219 C-194.17271528 115.98794172 -190.01126805 123.06683325 -184.21582031 129.45214844 C-133.47964331 177.68797996 -42.92895166 180.67881115 22.37487793 179.31933594 C77.91122119 177.91164492 149.886165 168.96634492 192.13574219 128.94042969 C197.66517717 123.07370939 201.10199315 117.35245419 202.24902344 109.32324219 C201.63342436 99.60831925 194.48292224 91.57519665 187.68652344 85.26074219 C115.20695019 24.78048818 -21.8990036 29.3500158 -178.31347656 84.26074219 Z M-194.31347656 172.26074219 C-194.40650619 180.58019576 -194.47740726 188.89942891 -194.52072525 197.21927547 C-194.54152474 201.08330203 -194.56970045 204.94697049 -194.61523438 208.81079102 C-194.65896786 212.54556823 -194.682671 216.28000287 -194.69298553 220.01501656 C-194.70032799 221.43387806 -194.71466526 222.85272262 -194.73639679 224.27143669 C-194.92769741 237.28799219 -192.16673747 245.69403169 -183.31347656 255.26074219 C-147.97983987 290.3626829 -87.07460811 300.54873235 -39.31347656 305.26074219 C-38.34394043 305.36225586 -37.3744043 305.46376953 -36.37548828 305.56835938 C32.2989003 312.50251487 128.82774249 310.93163733 185.37207031 265.91894531 C192.37606464 260.09181818 198.72867152 254.13429795 201.68652344 245.26074219 C201.77658884 242.91491616 201.80408936 240.56654503 201.80004883 238.21899414 C201.80026787 237.15032104 201.80026787 237.15032104 201.80049133 236.06005859 C201.79979495 233.70634918 201.79201536 231.35271902 201.78417969 228.99902344 C201.78231454 227.36663354 201.78089109 225.73424308 201.77989197 224.10185242 C201.77607445 219.80612644 201.76625068 215.51043429 201.75518799 211.21472168 C201.74495743 206.83097796 201.74039082 202.44722878 201.73535156 198.06347656 C201.72462774 189.46254958 201.70756048 180.86165009 201.68652344 172.26074219 C197.71638707 173.79790612 194.22217095 175.64008494 190.56152344 177.82324219 C153.05778941 199.43581537 110.2832118 208.94435849 67.68652344 214.26074219 C66.38908203 214.42590332 65.09164063 214.59106445 63.75488281 214.76123047 C23.00631806 219.6990578 -19.6040435 219.50614368 -60.31347656 214.26074219 C-60.9787738 214.17588562 -61.64407104 214.09102905 -62.32952881 214.00360107 C-105.30303819 208.47680407 -153.3865332 198.93105199 -189.70800781 173.97167969 C-192.07260301 172.07777459 -192.07260301 172.07777459 -194.31347656 172.26074219 Z M-194.31347656 297.26074219 C-194.40647951 305.9713325 -194.47739412 314.68174983 -194.52072525 323.39272976 C-194.54153037 327.43835017 -194.56971682 331.48362891 -194.61523438 335.52905273 C-194.65894714 339.43889245 -194.68266679 343.34840516 -194.69298553 347.25847054 C-194.70033163 348.74431563 -194.71467615 350.23014443 -194.73639679 351.71584892 C-194.85214511 359.96716247 -194.70843153 367.0270738 -190.31347656 374.26074219 C-189.81847656 375.08445312 -189.32347656 375.90816406 -188.81347656 376.75683594 C-158.75005836 415.66704126 -96.21339407 425.92259576 -50.31347656 432.07324219 C-46.65088246 432.51590508 -42.98481713 432.89853568 -39.31347656 433.26074219 C-38.34394043 433.36225586 -37.3744043 433.46376953 -36.37548828 433.56835938 C32.2989003 440.50251487 128.82774249 438.93163733 185.37207031 393.91894531 C192.37606464 388.09181818 198.72867152 382.13429795 201.68652344 373.26074219 C201.77632809 371.0067606 201.80409868 368.75015104 201.80004883 366.49438477 C201.80026787 365.46960274 201.80026787 365.46960274 201.80049133 364.42411804 C201.79979513 362.16780412 201.79201639 359.91157293 201.78417969 357.65527344 C201.78231447 356.0901443 201.78089106 354.52501458 201.77989197 352.95988464 C201.77607495 348.84170925 201.76625162 344.72356916 201.75518799 340.60540771 C201.74495634 336.40263344 201.74039059 332.19985346 201.73535156 327.99707031 C201.72462863 319.75161141 201.70756198 311.50618119 201.68652344 303.26074219 C198.29006115 304.59557001 195.10511863 306.04271247 191.90527344 307.79980469 C179.14157749 314.70521641 166.44153894 320.62441861 152.68652344 325.26074219 C151.79030273 325.56318848 150.89408203 325.86563477 149.97070312 326.17724609 C128.77485729 333.20628941 107.13453109 337.80588903 85.06152344 341.01074219 C84.03460388 341.16231781 84.03460388 341.16231781 82.98693848 341.31695557 C59.97215131 344.67111617 36.97594416 345.64285771 13.73633575 345.5788002 C11.65208356 345.5731488 9.56783955 345.57033536 7.48358154 345.56771851 C-12.93380469 345.53046845 -33.05447244 345.02395177 -53.31347656 342.26074219 C-54.63900131 342.0915245 -55.96469075 341.92359271 -57.29052734 341.75683594 C-106.06272388 335.56427916 -151.55070113 321.78507618 -194.31347656 297.26074219 Z M-194.31347656 425.26074219 C-194.40647951 433.9713325 -194.47739412 442.68174983 -194.52072525 451.39272976 C-194.54153037 455.43835017 -194.56971682 459.48362891 -194.61523438 463.52905273 C-194.65894714 467.43889245 -194.68266679 471.34840516 -194.69298553 475.25847054 C-194.70033163 476.74431563 -194.71467615 478.23014443 -194.73639679 479.71584892 C-194.85214511 487.96716247 -194.70843153 495.0270738 -190.31347656 502.26074219 C-189.81847656 503.08445312 -189.32347656 503.90816406 -188.81347656 504.75683594 C-158.75005836 543.66704126 -96.21339407 553.92259576 -50.31347656 560.07324219 C-46.65088246 560.51590508 -42.98481713 560.89853568 -39.31347656 561.26074219 C-38.34394043 561.36225586 -37.3744043 561.46376953 -36.37548828 561.56835938 C32.2989003 568.50251487 128.82774249 566.93163733 185.37207031 521.91894531 C192.37606464 516.09181818 198.72867152 510.13429795 201.68652344 501.26074219 C201.77632809 499.0067606 201.80409868 496.75015104 201.80004883 494.49438477 C201.80026787 493.46960274 201.80026787 493.46960274 201.80049133 492.42411804 C201.79979513 490.16780412 201.79201639 487.91157293 201.78417969 485.65527344 C201.78231447 484.0901443 201.78089106 482.52501458 201.77989197 480.95988464 C201.77607495 476.84170925 201.76625162 472.72356916 201.75518799 468.60540771 C201.74495634 464.40263344 201.74039059 460.19985346 201.73535156 455.99707031 C201.72462863 447.75161141 201.70756198 439.50618119 201.68652344 431.26074219 C198.29006115 432.59557001 195.10511863 434.04271247 191.90527344 435.79980469 C179.14157749 442.70521641 166.44153894 448.62441861 152.68652344 453.26074219 C151.79030273 453.56318848 150.89408203 453.86563477 149.97070312 454.17724609 C128.77485729 461.20628941 107.13453109 465.80588903 85.06152344 469.01074219 C84.03460388 469.16231781 84.03460388 469.16231781 82.98693848 469.31695557 C59.97215131 472.67111617 36.97594416 473.64285771 13.73633575 473.5788002 C11.65208356 473.5731488 9.56783955 473.57033536 7.48358154 473.56771851 C-12.93380469 473.53046845 -33.05447244 473.02395177 -53.31347656 470.26074219 C-54.63900131 470.0915245 -55.96469075 469.92359271 -57.29052734 469.75683594 C-106.06272388 463.56427916 -151.55070113 449.78507618 -194.31347656 425.26074219 Z " fill="#DF6B1F" transform="translate(303.3134765625,18.7392578125)"/>
<path d="M0 0 C3.5336706 3.05826122 6.90167035 6.26549204 10.24707031 9.52929688 C10.94832031 10.16867188 11.64957031 10.80804688 12.37207031 11.46679688 C37.11365397 34.61214933 51.72821614 71.60805697 53.37109375 105.05419922 C54.59302484 145.94363419 42.52702611 182.87717538 15.24707031 213.52929688 C14.18175287 214.81864081 13.11867051 216.10984108 12.05957031 217.40429688 C8.81241007 221.18331957 5.05013238 224.32777362 1.24707031 227.52929688 C-1.08861789 229.52655248 -3.42089665 231.52777529 -5.75292969 233.52929688 C-5.09659546 234.3892627 -5.09659546 234.3892627 -4.42700195 235.26660156 C11.64384598 256.32830423 11.64384598 256.32830423 19.24707031 266.52929688 C14.99454216 271.03800142 10.28024197 274.75749994 5.37207031 278.52929688 C4.59476563 279.13257813 3.81746094 279.73585938 3.01660156 280.35742188 C0.76974123 282.09449037 -1.48838523 283.8153675 -3.75292969 285.52929688 C-4.42098633 286.04105469 -5.08904297 286.5528125 -5.77734375 287.08007812 C-10.39978268 290.52929688 -10.39978268 290.52929688 -13.75292969 290.52929688 C-15.12475586 289.1184082 -15.12475586 289.1184082 -16.54589844 287.11132812 C-17.08537109 286.36238281 -17.62484375 285.6134375 -18.18066406 284.84179688 C-18.76138672 284.01679688 -19.34210938 283.19179688 -19.94042969 282.34179688 C-21.20302348 280.58664546 -22.46741289 278.83278465 -23.73339844 277.08007812 C-24.39259277 276.16436035 -25.05178711 275.24864258 -25.73095703 274.30517578 C-28.99637475 269.82222486 -32.37503144 265.42774289 -35.75292969 261.02929688 C-41.40776887 253.64389652 -46.96765232 246.19732397 -52.46386719 238.69335938 C-56.82570562 232.75257491 -61.27380657 226.88202491 -65.75292969 221.02929688 C-71.09346461 214.04427192 -76.39604035 207.03367036 -81.62792969 199.96679688 C-82.21703125 199.1753125 -82.80613281 198.38382813 -83.41308594 197.56835938 C-83.95578125 196.83230469 -84.49847656 196.09625 -85.05761719 195.33789062 C-85.53183105 194.69650146 -86.00604492 194.0551123 -86.49462891 193.39428711 C-87.76991497 191.50412215 -88.78069364 189.58937542 -89.75292969 187.52929688 C-79.82169917 179.76907183 -69.87894841 172.03446369 -59.75292969 164.52929688 C-56.42854485 165.92825834 -54.78056977 167.43764718 -52.68652344 170.35351562 C-52.12336426 171.12848389 -51.56020508 171.90345215 -50.97998047 172.7019043 C-50.38942871 173.53181885 -49.79887695 174.3617334 -49.19042969 175.21679688 C-48.57925293 176.06153564 -47.96807617 176.90627441 -47.33837891 177.77661133 C-46.08365527 179.51094794 -44.83203576 181.2475344 -43.58349609 182.98632812 C-40.87471584 186.74928559 -38.12592171 190.48244012 -35.37792969 194.21679688 C-34.47395585 195.44962935 -33.57027525 196.68267694 -32.66699219 197.91601562 C-32.03535156 198.77839844 -31.40371094 199.64078125 -30.75292969 200.52929688 C-8.38629459 185.3404931 6.0395507 160.37411936 11.49707031 134.15429688 C16.00773764 104.79158742 10.31065967 75.53983011 -7.01464844 51.13867188 C-25.35613927 26.39929623 -51.46690782 11.88773527 -81.66308594 7.06445312 C-84.03293637 6.79028659 -86.36951285 6.62252577 -88.75292969 6.52929688 C-89.98269531 6.46935547 -89.98269531 6.46935547 -91.23730469 6.40820312 C-117.63142778 5.74444559 -143.36760817 14.87649901 -163.75292969 31.52929688 C-164.85367129 32.61996973 -165.94367097 33.72159436 -167.02246094 34.83398438 C-169.75292969 37.52929688 -169.75292969 37.52929688 -171.75292969 37.52929688 C-172.00945312 38.11066406 -172.26597656 38.69203125 -172.53027344 39.29101562 C-173.86439779 41.73335829 -175.37365742 43.35295134 -177.31542969 45.34179688 C-196.18954487 66.27116961 -202.83328042 95.10971621 -201.93212891 122.6015625 C-200.21976763 150.57790644 -186.44201086 175.55541502 -166.56542969 194.71679688 C-144.87729814 213.76760198 -117.94717897 222.02919596 -89.44042969 221.65429688 C-88.1025459 221.64422905 -86.76465462 221.63511004 -85.42675781 221.62695312 C-82.20195007 221.60366931 -78.97754315 221.57097097 -75.75292969 221.52929688 C-74.87297331 226.92163618 -74.00031459 232.31508529 -73.13452148 237.7097168 C-72.83869592 239.5463073 -72.54084722 241.38257308 -72.2409668 243.21850586 C-71.81129355 245.85123103 -71.38881205 248.48502262 -70.96777344 251.11914062 C-70.83136948 251.94518295 -70.69496552 252.77122528 -70.5544281 253.62229919 C-70.24430377 255.58499087 -69.99239652 257.55673729 -69.75292969 259.52929688 C-74.23923311 264.0156003 -87.9602563 261.77406733 -94.12792969 261.77929688 C-94.84190918 261.77997162 -95.55588867 261.78064636 -96.29150391 261.78134155 C-136.41783002 261.72113406 -172.25566112 245.62436647 -200.75292969 217.52929688 C-208.040333 210.16698633 -214.22598045 202.28757214 -219.75292969 193.52929688 C-220.31560547 192.63863525 -220.31560547 192.63863525 -220.88964844 191.72998047 C-240.16788198 160.64958603 -248.03670052 119.89768119 -239.90917969 83.85351562 C-239.53676457 82.40869558 -239.1501054 80.96750737 -238.75292969 79.52929688 C-238.38167969 78.18279053 -238.38167969 78.18279053 -238.00292969 76.80908203 C-228.90048208 45.00845923 -211.38764356 16.5548024 -184.75292969 -3.47070312 C-183.97820313 -4.06109375 -183.20347656 -4.65148437 -182.40527344 -5.25976562 C-170.58502571 -13.90295178 -157.58173677 -20.69214416 -143.75292969 -25.47070312 C-143.09744141 -25.69741699 -142.44195313 -25.92413086 -141.76660156 -26.15771484 C-93.79053028 -42.33059161 -38.89621482 -32.63381589 0 0 Z " fill="#DF6B1F" transform="translate(1033.7529296875,207.470703125)"/>
<path d="M0 0 C1.53854296 1.46073736 3.06100324 2.93870864 4.5625 4.4375 C5.49642578 5.35402344 5.49642578 5.35402344 6.44921875 6.2890625 C20.3939814 21.01723879 27.5625 42.41864457 27.5625 62.4375 C14.3625 62.4375 1.1625 62.4375 -12.4375 62.4375 C-13.4275 56.4975 -13.4275 56.4975 -14.4375 50.4375 C-18.09204224 39.20316644 -24.34001024 30.7484311 -34.4375 24.4375 C-45.87043799 18.90597559 -58.51500872 17.26284031 -70.8125 21 C-82.87198247 25.65338726 -90.7275219 33.39861106 -96.359375 44.8125 C-101.51519586 57.36580297 -101.05367905 72.53088241 -96.76171875 85.31640625 C-92.71898328 94.84485947 -87.50356329 102.02145616 -78.078125 106.578125 C-75.02331435 107.57229415 -72.51930613 107.66920409 -69.3125 107.625 C-68.27867187 107.61855469 -67.24484375 107.61210937 -66.1796875 107.60546875 C-63.34583023 107.55007378 -63.34583023 107.55007378 -60.4375 106.4375 C-42.09332499 105.56396786 -25.72017238 112.11622704 -11.875 124 C5.00303513 139.94962417 13.12675387 161.8784011 14.80078125 184.68359375 C15.33723544 207.75112373 5.55333766 227.92601935 -10.0625 244.5625 C-15.89338299 250.21341747 -22.46612895 254.35199134 -29.4375 258.4375 C-30.16839844 258.86933594 -30.89929688 259.30117188 -31.65234375 259.74609375 C-49.47169116 269.42806475 -71.62103189 270.47955824 -91.0625 265.875 C-114.15369287 259.02675543 -132.68719185 244.33828747 -144.19921875 223.203125 C-151.58228589 207.95346491 -154.15605283 193.19668797 -153.4375 176.4375 C-153.1075 176.1075 -152.7775 175.7775 -152.4375 175.4375 C-149.81812504 175.47742013 -147.23764338 175.58628344 -144.625 175.75 C-143.83488525 175.79705078 -143.04477051 175.84410156 -142.23071289 175.89257812 C-135.93462412 176.29158698 -129.65410575 176.82933075 -123.375 177.4375 C-122.50061279 177.52040283 -121.62622559 177.60330566 -120.7253418 177.6887207 C-114.5596913 178.3153087 -114.5596913 178.3153087 -113.4375 179.4375 C-113.30245862 181.37309313 -113.20548871 183.311372 -113.125 185.25 C-112.17907572 197.97824588 -107.80480548 208.32631761 -98.52734375 217.28125 C-87.45253188 226.19567762 -75.27710395 228.40241263 -61.4375 227.4375 C-49.67331149 225.12369041 -39.21096718 218.3822597 -32.4375 208.4375 C-26.27092784 196.76105557 -24.39959128 185.51972595 -28 172.6875 C-31.78764199 161.88275284 -37.41394172 153.3644773 -47.83984375 148.26171875 C-50.8263505 147.31412037 -52.77729131 147.42582346 -55.875 147.8125 C-76.10143518 149.81291667 -93.86574302 146.97642456 -110.1875 134.125 C-127.47189968 119.19643672 -138.34991128 97.859547 -140.30859375 74.98046875 C-141.630136 48.91004438 -136.03936182 25.52512093 -118.4375 5.4375 C-117.84453125 4.74914062 -117.2515625 4.06078125 -116.640625 3.3515625 C-86.05794037 -29.71433156 -32.60685839 -28.56183208 0 0 Z " fill="#DF6B1F" transform="translate(760.4375,193.5625)"/>
<path d="M0 0 C12.87 0 25.74 0 39 0 C39.0093457 6.32373779 39.01869141 12.64747559 39.02832031 19.1628418 C39.06209478 40.06175151 39.11744609 60.96056299 39.18390274 81.85939312 C39.22366711 94.52971794 39.25607287 107.19998089 39.27099609 119.87036133 C39.28402604 130.91727725 39.31102516 141.96405687 39.35461307 153.01089603 C39.37719745 158.85702734 39.39291248 164.70299073 39.39188385 170.54916954 C39.39113547 176.05923381 39.40915814 181.56892729 39.44116783 187.07889557 C39.44964022 189.09395213 39.45143499 191.1090504 39.44580269 193.1241169 C39.40983468 207.97860662 40.25275114 220.95230555 50 233 C50.71736328 233.92039062 50.71736328 233.92039062 51.44921875 234.859375 C57.05724151 241.24432787 66.61900274 246.35477979 75 248 C76.98522088 248.11385122 78.97364619 248.17608303 80.96191406 248.20532227 C82.16285706 248.22526749 83.36380005 248.24521271 84.60113525 248.26576233 C85.89291687 248.28247482 87.18469849 248.29918732 88.515625 248.31640625 C89.85512921 248.33698963 91.19462713 248.35798646 92.53411865 248.37937927 C96.05215341 248.43445709 99.5702454 248.48392906 103.08837891 248.53222656 C106.68136655 248.58254624 110.27427258 248.63812638 113.8671875 248.69335938 C120.91139544 248.80126198 127.95565024 248.90039578 135 249 C135 262.2 135 275.4 135 289 C127.81628895 289.04217443 120.6330377 289.08221714 113.4493103 289.10350037 C110.1025246 289.11397367 106.7559219 289.12903979 103.40917969 289.15087891 C99.55140505 289.17540477 95.69377645 289.18654617 91.8359375 289.1953125 C90.66139008 289.20563507 89.48684265 289.21595764 88.27670288 289.22659302 C65.86841899 289.22956202 46.33875046 283.43244562 29 269 C28.39542969 268.52949219 27.79085938 268.05898438 27.16796875 267.57421875 C12.05847899 255.46616262 2.62319639 236.00279552 0 217 C-0.13797381 214.01285187 -0.13078727 211.03021255 -0.12025452 208.04031372 C-0.12110894 207.14905631 -0.12196337 206.2577989 -0.12284368 205.33953369 C-0.12448807 202.35931047 -0.11899416 199.3791438 -0.11352539 196.39892578 C-0.11324327 194.26013694 -0.11340174 192.12134799 -0.1139679 189.9825592 C-0.11425489 184.17937209 -0.10837389 178.37620563 -0.10139394 172.57302332 C-0.09514419 166.5071692 -0.09455531 160.44131461 -0.09336853 154.37545776 C-0.09026 142.89025482 -0.08205305 131.40506138 -0.07201904 119.91986263 C-0.06084307 106.84379458 -0.05534371 93.76772608 -0.05032361 80.69165444 C-0.03987005 53.79443084 -0.0220785 26.89721635 0 0 Z " fill="#DF6B1F" transform="translate(1107,179)"/>
</svg>
